<svg width="187" height="62" viewBox="0 0 187 62" fill="none" xmlns="http://www.w3.org/2000/svg">
<path d="M159.656 16.9253C159.677 16.5832 159.624 16.2405 159.499 15.9201C159.374 15.5996 159.182 15.3085 158.933 15.0661C158.685 14.8237 158.386 14.6355 158.058 14.5138C157.729 14.3922 157.378 14.3399 157.027 14.3605H146.776C145.816 14.3393 144.874 14.6184 144.088 15.1568L97.4456 44.7023C97.341 44.781 97.2152 44.8283 97.0835 44.8384C96.9174 44.8384 96.8343 44.6837 96.8343 44.4139V16.9253C96.8555 16.5832 96.8021 16.2405 96.6775 15.9201C96.5529 15.5996 96.36 15.3085 96.1116 15.0661C95.8632 14.8237 95.5648 14.6355 95.2363 14.5138C94.9078 14.3922 94.5566 14.3399 94.2059 14.3605H71.4574C70.4668 14.3149 69.488 14.5851 68.6687 15.1301L26.3973 39.9089C26.2891 39.9903 26.1608 40.0425 26.0253 40.0604C25.85 40.0604 25.7761 39.9373 25.7761 39.674V14.6173C25.7761 14.1944 25.6723 14 25.483 14C25.362 14.0039 25.2446 14.041 25.1441 14.1069L12.6338 21.4384C10.5335 22.669 10.0045 23.9935 10.0045 26.2991V45.0442C9.98332 45.3863 10.0368 45.7289 10.1614 46.0493C10.286 46.3698 10.4789 46.6608 10.7273 46.9031C10.9757 47.1455 11.2741 47.3336 11.6026 47.4552C11.9311 47.5767 12.2823 47.6289 12.633 47.6082H27.6289C28.5658 47.6217 29.4843 47.3539 30.2599 46.841L46.5555 37.2906C46.6451 37.2313 46.7491 37.1961 46.857 37.1886C46.9118 37.1937 46.965 37.2098 47.0133 37.2357C47.0615 37.2616 47.1039 37.2968 47.1377 37.3392L56.8775 46.8394C57.2407 47.1331 57.6606 47.3525 58.1125 47.4845C58.5643 47.6166 59.0388 47.6587 59.5077 47.6082H74.041C74.3143 47.6082 74.5501 47.5272 74.5501 47.3376C74.5501 47.1756 74.4023 47.0136 74.1889 46.8062L58.1299 31.1378C57.9705 30.9823 57.9314 30.8948 57.9323 30.8C57.9323 30.6939 57.9937 30.5854 58.2188 30.4541L80.7081 17.2761C80.8155 17.1994 80.9425 17.1531 81.0752 17.1424C81.233 17.1424 81.3243 17.3279 81.3243 17.5296V45.0442C81.3031 45.3863 81.3566 45.7289 81.4812 46.0493C81.6058 46.3698 81.7986 46.6608 82.0471 46.9031C82.2955 47.1455 82.5939 47.3336 82.9224 47.4552C83.2509 47.5767 83.6021 47.6289 83.9528 47.6082H106.558C107.493 47.619 108.409 47.3439 109.175 46.8216L143.276 25.2168C143.382 25.1412 143.506 25.0958 143.637 25.0855C143.803 25.0855 143.89 25.2719 143.89 25.5133V47.8002C143.89 48.2141 144.029 48.3275 144.18 48.3275C144.33 48.3152 144.473 48.2631 144.595 48.1769L157.03 40.8859C159.133 39.6537 159.657 38.3211 159.657 36.0139L159.656 16.9253Z" fill="#131E29"/>
</svg>
