<svg width="187" height="62" viewBox="0 0 187 62" fill="none" xmlns="http://www.w3.org/2000/svg">
<g clip-path="url(#clip0_3007_5157)">
<path d="M49.1134 7.44733C48.5137 7.23139 47.8458 7.39935 47.4183 7.87622L47.3945 7.90321L51.0638 9.24984C51.4201 8.99491 51.7912 8.76397 52.1801 8.56003L49.1134 7.44733Z" fill="#6F625D"/>
<path d="M51.5587 5.67194C50.959 5.456 50.2911 5.62396 49.8636 6.10083L49.8398 6.12782L54.2305 7.74138C54.9371 7.56143 55.6733 7.46245 56.4303 7.45046L51.5587 5.67194Z" fill="#6F625D"/>
<path d="M63.3717 6.10047L63.348 6.07348C62.9205 5.59661 62.2525 5.42866 61.6529 5.6446L56.707 7.45011C57.473 7.4591 58.2181 7.55508 58.9306 7.73203L63.3717 6.10047Z" fill="#6F625D"/>
<path d="M47.4425 9.49885C46.8428 9.2859 46.1719 9.45986 45.7503 9.93973L45.7266 9.96672L49.0663 11.1634C49.2949 10.8725 49.5384 10.5935 49.7966 10.3326L47.4425 9.49885Z" fill="#6F625D"/>
<path d="M46.2159 11.763C45.6162 11.5501 44.9453 11.724 44.5238 12.2039L44.5 12.2309L47.7418 13.3916C47.8784 13.0736 48.0298 12.7647 48.199 12.4618L46.2159 11.763Z" fill="#6F625D"/>
<path d="M45.5011 14.1204C44.9014 13.9075 44.2305 14.0814 43.8089 14.5613L43.7852 14.5883L47.0685 15.764C47.122 15.4191 47.1932 15.0802 47.2793 14.7473L45.5011 14.1204Z" fill="#6F625D"/>
<path d="M65.8251 7.93299L65.8013 7.906C65.3738 7.42913 64.7059 7.26118 64.1062 7.47712L61.1523 8.55083C61.5412 8.75477 61.9153 8.98571 62.2715 9.23764L65.8251 7.93299Z" fill="#6F625D"/>
<path d="M64.2811 11.1512L67.511 9.9965L67.4873 9.96951C67.0627 9.48964 66.3948 9.31569 65.7951 9.52863L63.5508 10.3234C63.8091 10.5843 64.0525 10.8633 64.2811 11.1512Z" fill="#6F625D"/>
<path d="M68.719 12.2309L68.6952 12.2039C68.2707 11.724 67.6028 11.5501 67.0031 11.763L65.1328 12.4258C65.302 12.7257 65.4564 13.0347 65.593 13.3526L68.719 12.2309Z" fill="#6F625D"/>
<path d="M69.432 14.6034L69.4082 14.5764C68.9837 14.0966 68.3157 13.9226 67.7161 14.1356L66.0625 14.7204C66.1516 15.0533 66.2228 15.3892 66.2762 15.7341L69.432 14.6034Z" fill="#6F625D"/>
<path d="M64.1495 27.0591C64.7491 27.275 65.4171 27.1071 65.8446 26.6302L65.8683 26.6032L62.2881 25.2896C61.9319 25.5445 61.5608 25.7754 61.1719 25.9794L64.1495 27.0591Z" fill="#6F625D"/>
<path d="M63.543 24.2219L65.8051 25.0227C66.4048 25.2356 67.0757 25.0617 67.4973 24.5818L67.521 24.5548L64.2733 23.3911C64.0476 23.682 63.8042 23.958 63.543 24.2219Z" fill="#6F625D"/>
<path d="M67.0309 22.8003C67.6306 23.0132 68.3015 22.8393 68.7231 22.3594L68.7468 22.3324L65.5851 21.1987C65.4486 21.5166 65.2942 21.8256 65.125 22.1255L67.0309 22.8003Z" fill="#6F625D"/>
<path d="M66.0586 19.8458L67.7478 20.4426C68.3475 20.6555 69.0184 20.4816 69.4399 20.0017L69.4637 19.9747L66.2753 18.832C66.2219 19.1769 66.1477 19.5158 66.0586 19.8458Z" fill="#6F625D"/>
<path d="M47.3984 26.6722L47.4222 26.6992C47.8526 27.1731 48.5265 27.3351 49.1232 27.1101L52.1662 25.9704C51.7802 25.7665 51.4121 25.5386 51.0618 25.2866L47.3984 26.6722Z" fill="#6F625D"/>
<path d="M45.7109 24.5669L45.7347 24.5939C46.1592 25.0737 46.8272 25.2477 47.4268 25.0347L49.7869 24.198C49.5287 23.934 49.2852 23.6551 49.0567 23.3672L45.7109 24.5669Z" fill="#6F625D"/>
<path d="M44.5547 22.3474L44.5784 22.3744C45.003 22.8543 45.6709 23.0282 46.2706 22.8153L48.221 22.1255C48.0518 21.8256 47.8974 21.5166 47.7609 21.1987L44.5547 22.3474Z" fill="#6F625D"/>
<path d="M43.7695 19.9898L43.7933 20.0168C44.2178 20.4966 44.8858 20.6706 45.4854 20.4577L47.2845 19.8218C47.1954 19.4889 47.1241 19.153 47.0707 18.8081L43.7695 19.9898Z" fill="#6F625D"/>
<path d="M56.5931 5.7678V5.7618L59.9625 4.52914C59.9625 4.52914 59.3717 4.2832 58.5375 4.2832C57.7301 4.2832 56.6702 4.88004 56.596 4.92203C56.5218 4.88004 55.3848 4.2832 54.5773 4.2832C53.7431 4.2832 53.1523 4.52914 53.1523 4.52914L56.596 5.7618V5.7678H56.5931Z" fill="#6F625D"/>
<path d="M43.8494 18.2532L46.4381 17.3985C46.4975 17.3775 46.4975 17.2935 46.4381 17.2725L43.9028 16.3787C43.8405 16.3577 43.79 16.4297 43.8286 16.4807L44.452 17.3355L43.7752 18.1453C43.7366 18.1992 43.7871 18.2742 43.8494 18.2532Z" fill="#6F625D"/>
<path d="M69.5004 16.3791L66.9117 17.2339C66.8523 17.2549 66.8523 17.3388 66.9117 17.3598L69.447 18.2536C69.5093 18.2746 69.5598 18.2026 69.5212 18.1516L68.8978 17.2969L69.5746 16.4871C69.6132 16.4331 69.5628 16.3581 69.5004 16.3791Z" fill="#6F625D"/>
<path d="M61.6099 28.8707C62.2096 29.0866 62.8775 28.9187 63.305 28.4418L63.3288 28.4148L58.9381 26.8013C58.2315 26.9812 57.4953 27.0802 56.7383 27.0922L61.6099 28.8707Z" fill="#6F625D"/>
<path d="M49.7969 28.4446L49.8206 28.4716C50.2481 28.9485 50.9161 29.1164 51.5157 28.9005L56.4616 27.092C55.6957 27.083 54.9505 26.987 54.238 26.8101L49.7969 28.4446Z" fill="#6F625D"/>
<path d="M56.5765 28.7744V28.7804L53.207 30.0131C53.207 30.0131 53.7978 30.259 54.632 30.259C55.4395 30.259 56.4993 29.6622 56.5735 29.6202C56.6477 29.6622 57.7847 30.259 58.5922 30.259C59.4264 30.259 60.0172 30.0131 60.0172 30.0131L56.5735 28.7804V28.7744H56.5765Z" fill="#6F625D"/>
<path d="M52.167 21.4955C52.1403 21.0876 52.1136 20.7067 52.0898 20.3258C52.0868 20.2598 52.0987 20.1908 52.1076 20.0589C52.2115 20.1578 52.2798 20.2148 52.3392 20.2778C53.1971 21.2555 54.2688 21.8524 55.5246 22.1223C56.6349 22.3622 57.7422 22.3562 58.8287 21.9903C59.0959 21.9004 59.3601 21.7774 59.6006 21.6274C60.2864 21.1986 60.6278 20.4877 60.5031 19.8129C60.3695 19.0931 59.8856 18.6343 59.0128 18.4843C58.3953 18.3793 57.7659 18.3253 57.1425 18.2684C56.2816 18.1904 55.4118 18.1634 54.5568 18.0434C54.0729 17.9744 53.5831 17.8125 53.1378 17.6025C52.3095 17.2156 51.9176 16.4898 51.8464 15.5931C51.7217 14.0395 52.4104 12.9868 53.8918 12.4469C54.916 12.075 55.9669 11.9911 57.0475 12.123C58.2439 12.27 59.3987 12.5759 60.5239 13.0018C60.601 13.0318 60.6782 13.0618 60.7554 13.0978C60.8088 13.1218 60.8593 13.1547 60.9276 13.1907C60.9276 13.5206 60.9276 13.8506 60.9276 14.2315C60.8326 14.1625 60.7643 14.1235 60.7109 14.0755C58.8347 12.36 56.6735 11.8381 54.2391 12.5309C53.7048 12.6839 53.2357 12.9748 52.9121 13.4487C52.1789 14.5194 52.6301 15.6651 53.9007 15.893C54.5746 16.013 55.2663 16.049 55.9491 16.1089C56.8813 16.1869 57.8194 16.2199 58.7486 16.3309C59.1998 16.3849 59.6511 16.5438 60.0726 16.7208C61.5956 17.3656 61.8152 19.2581 61.2571 20.2838C60.7079 21.2915 59.8648 21.8944 58.7961 22.2123C57.6294 22.5632 56.4478 22.5272 55.2722 22.2873C54.3668 22.1013 53.4702 21.8674 52.5737 21.6484C52.4282 21.6184 52.3036 21.5495 52.167 21.4955Z" fill="#6F625D"/>
<path d="M45.2569 53.8809H47.1539V54.2258H45.5983V55.3445H46.9461V55.6894H45.5983V57.099H47.2043V57.4439H45.2539V53.8809H45.2569Z" fill="#6F625D"/>
<path d="M50.635 54.3607L50.344 54.5467C50.344 54.5467 50.0798 54.1208 49.6315 54.1208C49.1833 54.1208 48.919 54.3877 48.919 54.7326C48.919 55.5574 50.6854 55.3175 50.6854 56.4901C50.6854 57.048 50.1837 57.5549 49.5009 57.5549C48.6578 57.5549 48.3164 56.811 48.3164 56.811L48.6073 56.6251C48.6073 56.6251 48.8716 57.2099 49.5039 57.2099C50.0056 57.2099 50.3203 56.892 50.3203 56.4901C50.3203 55.6114 48.5569 55.8513 48.5569 54.7326C48.5569 54.2527 49.0319 53.7759 49.6375 53.7759C50.2906 53.7759 50.635 54.3607 50.635 54.3607Z" fill="#6F625D"/>
<path d="M53.0215 54.2287V57.4498H52.6801V54.2287H51.6797V53.8838H54.0249V54.2287H53.0215Z" fill="#6F625D"/>
<path d="M54.9491 57.0752C55.0559 57.0752 55.1598 57.1802 55.1598 57.2881C55.1598 57.3931 55.0559 57.5011 54.9491 57.5011C54.8452 57.5011 54.7383 57.3931 54.7383 57.2881C54.7383 57.1832 54.8452 57.0752 54.9491 57.0752Z" fill="#6F625D"/>
<path d="M58.7839 53.8838V54.2287V57.4528H58.4336V54.2287H57.9141V53.8838H58.7839Z" fill="#6F625D"/>
<path d="M61.9287 56.0373H61.902C61.902 56.0373 61.6912 56.2232 61.427 56.2232C60.8214 56.2232 60.293 55.6924 60.293 54.9995C60.293 54.3067 60.8184 53.7759 61.4775 53.7759C62.1365 53.7759 62.662 54.3097 62.662 54.9995C62.662 55.5844 62.2939 56.0373 62.2939 56.0373L61.3201 57.4469H60.9253L61.9287 56.0373ZM61.4804 55.8783C61.9287 55.8783 62.2968 55.5064 62.2968 54.9995C62.2968 54.4927 61.9287 54.1208 61.4804 54.1208C61.0322 54.1208 60.6641 54.4927 60.6641 54.9995C60.6641 55.5064 61.0322 55.8783 61.4804 55.8783Z" fill="#6F625D"/>
<path d="M64.8798 55.6654H64.3544V55.3984L65.435 54.2528V54.2258H63.9061V53.8809H65.9871V54.1208L64.8798 55.2905V55.3175C65.5656 55.3175 66.0643 55.8243 66.0643 56.4362C66.0643 57.048 65.5626 57.5549 64.8798 57.5549C64.0367 57.5549 63.6953 56.8111 63.6953 56.8111L63.9862 56.6251C63.9862 56.6251 64.2505 57.2099 64.8828 57.2099C65.3845 57.2099 65.6992 56.892 65.6992 56.4392C65.6962 55.9833 65.3815 55.6654 64.8798 55.6654Z" fill="#6F625D"/>
<path d="M69.3482 53.8809V54.0668L67.944 57.4469H67.5759L68.9267 54.2528V54.2258H67.0742V53.8809H69.3482Z" fill="#6F625D"/>
<path d="M17.7073 38.4289L16.7841 38.9928C16.7841 38.9928 15.9439 37.7001 14.519 37.7001C13.091 37.7001 12.2539 38.5069 12.2539 39.5566C12.2539 42.0579 17.8766 41.3321 17.8766 44.8861C17.8766 46.5807 16.2824 48.1163 14.1004 48.1163C11.4137 48.1163 10.3242 45.8549 10.3242 45.8549L11.2475 45.291C11.2475 45.291 12.0876 47.0666 14.1004 47.0666C15.6946 47.0666 16.701 46.0978 16.701 44.8861C16.701 42.2229 11.0783 42.9487 11.0783 39.5566C11.0783 38.105 12.5893 36.6504 14.519 36.6504C16.6178 36.6534 17.7073 38.4289 17.7073 38.4289Z" fill="#6F625D"/>
<path d="M29.938 43.2729H23.6206V47.7927H22.3945V36.9746H23.6206V42.2232H29.938V36.9746H31.164V47.7927H29.938V43.2729Z" fill="#6F625D"/>
<path d="M36.3164 36.9775H42.6456V38.0273H37.4594V42.466H42.0578V43.5158H37.4594V46.7459H42.8208V47.7956H36.3164V36.9775Z" fill="#6F625D"/>
<path d="M66.7915 47.7925H68.1126L63.0183 36.3296H62.9233L57.832 47.7925H59.1531L60.4979 44.6523H65.4437L66.7915 47.7925ZM60.9492 43.6056L62.9263 38.9959H63.0213L64.9984 43.6056H60.9492Z" fill="#6F625D"/>
<path d="M73.9862 38.0243V47.7927H72.9471V38.0243H69.9102V36.9746H77.0231V38.0243H73.9862Z" fill="#6F625D"/>
<path d="M85.4363 36.6533C88.4584 36.6533 91.1421 39.2356 91.1421 42.3848C91.1421 45.5339 88.4584 48.1162 85.4363 48.1162C82.4142 48.1162 79.7305 45.5339 79.7305 42.3848C79.7305 39.2356 82.4171 36.6533 85.4363 36.6533ZM85.4363 37.703C83.0881 37.703 80.9061 39.8025 80.9061 42.3848C80.9061 44.9671 83.0881 47.0665 85.4363 47.0665C87.7875 47.0665 89.9665 44.9671 89.9665 42.3848C89.9665 39.8025 87.7875 37.703 85.4363 37.703Z" fill="#6F625D"/>
<path d="M103.967 48.1166L96.0261 39.6409H95.9222V47.7957H94.5625V36.6567H94.8742L102.815 45.1324H102.919V36.9777H104.279V48.1166H103.967Z" fill="#6F625D"/>
<path d="M52.3141 43.1919V43.1109C52.3141 43.1109 54.6445 42.5471 54.6445 40.2047C54.6445 38.4292 53.0919 36.9746 50.5863 36.9746H47.1367V47.7927H48.2589V38.0243H50.5893C52.4032 38.0243 53.4392 38.9931 53.4392 40.2047C53.4392 41.4164 52.4032 42.3851 50.5893 42.3851H49.1109V43.4349H51.1949L53.8697 47.7957H55.2501L52.3141 43.1919Z" fill="#6F625D"/>
</g>
<defs>
<clipPath id="clip0_3007_5157">
<rect width="187" height="62" fill="white"/>
</clipPath>
</defs>
</svg>
