<?xml version="1.0" encoding="utf-8"?>
<!DOCTYPE svg PUBLIC "-//W3C//DTD SVG 1.1//EN" "http://www.w3.org/Graphics/SVG/1.1/DTD/svg11.dtd">
<svg version="1.1" id="Слой_2" xmlns="http://www.w3.org/2000/svg" xmlns:xlink="http://www.w3.org/1999/xlink" x="0px" y="0px" width="16px" height="16px" viewBox="0 0 16 16" enable-background="new 0 0 16 16" xml:space="preserve">
	<path fill="#CCCCCC" d="M8,16c4.411,0,8-3.589,8-8s-3.589-8-8-8S0,3.589,0,8S3.589,16,8,16 M8,0.611
		c0.783,0,1.538,0.124,2.246,0.35c-0.202,0.288-0.233-0.114-0.295,0.054C9.886,1.187,9.728,1.239,9.683,1.237
		C9.592,1.373,9.509,1.516,9.42,1.649C9.325,1.666,9.238,1.684,9.15,1.697C9.114,1.703,9.087,1.716,9.064,1.744
		C8.967,1.859,8.868,1.971,8.772,2.086C8.687,2.187,8.605,2.29,8.522,2.391C8.51,2.405,8.497,2.416,8.485,2.429
		C8.421,2.405,8.37,2.369,8.324,2.325c-0.08-0.075-0.138-0.166-0.18-0.266C8.088,1.925,8.056,1.785,8.04,1.64
		C8.035,1.597,8.039,1.558,8.055,1.518c0.053-0.13,0.101-0.26,0.152-0.389c0.015-0.037,0.01-0.065-0.021-0.094
		C8.096,1.04,8.002,1.014,7.906,1.044c0.009,0.022,0.017,0.042,0.025,0.061c0.03,0.064,0.06,0.128,0.088,0.193
		c0.007,0.013,0.009,0.029,0.014,0.044C7.951,1.405,7.87,1.464,7.793,1.527c-0.076,0.063-0.144,0.137-0.225,0.2
		C7.53,1.654,7.471,1.606,7.409,1.561C7.307,1.486,7.343,1.499,7.215,1.503C7.129,1.506,7.043,1.512,6.961,1.548
		C6.917,1.567,6.869,1.567,6.822,1.564C6.785,1.562,6.755,1.549,6.734,1.519C6.727,1.511,6.722,1.501,6.716,1.493
		C6.695,1.467,6.668,1.46,6.638,1.47C6.614,1.479,6.589,1.489,6.567,1.504C6.531,1.529,6.494,1.556,6.462,1.586
		c-0.041,0.038-0.085,0.07-0.131,0.1C6.26,1.731,6.19,1.778,6.119,1.823C6.092,1.839,6.076,1.859,6.072,1.891
		C6.065,1.94,6.051,1.988,6.046,2.038C6.039,2.103,6.038,2.169,6.059,2.233c0.029,0.086,0.102,0.123,0.187,0.092
		c0.102-0.038,0.197-0.088,0.282-0.156c0.056-0.044,0.103-0.097,0.129-0.166c0.004-0.012,0.01-0.024,0.017-0.035
		c0.015-0.024,0.034-0.03,0.06-0.018c0.022,0.009,0.042,0.021,0.064,0.031c0.053,0.026,0.107,0.024,0.158-0.005
		C6.983,1.96,7.009,1.942,7.034,1.922c0.022-0.018,0.042-0.039,0.062-0.06c0.033-0.034,0.072-0.061,0.117-0.079
		C7.296,1.75,7.356,1.765,7.403,1.84C7.44,1.897,7.487,1.941,7.542,1.978C7.566,1.994,7.589,2.011,7.61,2.031
		c0.033,0.032,0.043,0.07,0.032,0.115C7.63,2.196,7.606,2.239,7.579,2.281C7.557,2.317,7.534,2.352,7.514,2.389
		c-0.01,0.018-0.016,0.039-0.02,0.059C7.49,2.47,7.51,2.492,7.532,2.488C7.56,2.483,7.587,2.474,7.615,2.466
		C7.632,2.462,7.648,2.457,7.673,2.45C7.663,2.614,7.639,2.765,7.56,2.903C7.546,2.928,7.528,2.952,7.508,2.972
		c-0.059,0.057-0.128,0.08-0.209,0.06C7.242,3.018,7.19,2.998,7.145,2.957c-0.087-0.08-0.168-0.07-0.246,0.015
		C6.874,2.999,6.852,3.03,6.836,3.062c-0.018,0.034-0.043,0.051-0.078,0.06C6.605,3.164,6.449,3.181,6.291,3.16
		C6.264,3.157,6.239,3.158,6.213,3.166c-0.1,0.03-0.201,0.058-0.302,0.087C5.87,3.264,5.832,3.28,5.796,3.302
		c-0.067,0.042-0.138,0.076-0.214,0.1S5.429,3.439,5.355,3.386c-0.241,0.2-0.508,0.347-0.806,0.442
		C4.531,3.94,4.514,4.048,4.497,4.157C4.476,4.289,4.455,4.422,4.434,4.554C4.428,4.587,4.415,4.6,4.384,4.605
		c-0.036,0.006-0.07,0-0.094-0.028c-0.023-0.028-0.045-0.058-0.062-0.09C4.186,4.404,4.161,4.315,4.151,4.223
		C4.137,4.095,4.07,4.009,3.96,3.954C3.815,3.881,3.659,3.857,3.5,3.885C3.238,3.931,3.014,4.053,2.834,4.248
		c-0.152,0.165-0.15,0.165-0.193,0.394C2.627,4.721,2.625,4.804,2.65,4.884c0.026,0.082,0.08,0.132,0.165,0.151
		C2.86,5.044,2.903,5.048,2.948,5.039c0.049-0.01,0.178-0.036,0.191-0.031c0.037,0.015,0.07,0.037,0.094,0.07
		c0.031,0.04,0.04,0.084,0.018,0.133c-0.016,0.036-0.04,0.068-0.07,0.094C3.144,5.337,3.027,5.419,3.012,5.433
		c-0.064,0.061-0.063,0.133,0.003,0.19C3.031,5.637,3.049,5.648,3.066,5.66c0.015,0.009,0.031,0.018,0.049,0.028
		C3.111,5.735,3.108,5.78,3.102,5.824C3.089,5.939,3.088,6.055,3.094,6.17C3.1,6.281,3.148,6.374,3.238,6.439
		C3.297,6.482,3.361,6.52,3.425,6.555c0.036,0.02,0.078,0.032,0.118,0.043c0.119,0.031,0.225,0.004,0.311-0.083
		C3.89,6.478,3.92,6.433,3.948,6.389c0.051-0.082,0.126-0.116,0.22-0.097c0.051,0.01,0.095,0.035,0.13,0.07
		c0.044,0.044,0.097,0.071,0.151,0.097c0.074,0.036,0.146,0.072,0.22,0.107C4.695,6.578,4.723,6.587,4.75,6.594
		c0.208,0.052,0.386,0.152,0.517,0.325c0.027,0.035,0.058,0.055,0.099,0.069C5.561,7.057,5.74,7.155,5.9,7.286
		c0.202,0.165,0.353,0.366,0.431,0.618C6.349,7.963,6.376,8.012,6.42,8.057C6.462,8.099,6.498,8.15,6.529,8.201
		c0.043,0.069,0.08,0.142,0.119,0.213c0.01,0.018,0.021,0.036,0.029,0.051c0.038,0.008,0.072,0.014,0.105,0.021
		c0.222,0.05,0.432,0.131,0.622,0.258C7.502,8.81,7.59,8.889,7.667,8.98C7.688,9.005,7.7,9.031,7.701,9.064
		c0.004,0.301-0.105,0.543-0.354,0.717C7.314,9.803,7.295,9.83,7.282,9.866c-0.064,0.175-0.13,0.35-0.197,0.523
		c-0.012,0.031-0.028,0.063-0.047,0.089c-0.088,0.125-0.179,0.247-0.267,0.372c-0.028,0.04-0.062,0.071-0.104,0.093
		c-0.033,0.018-0.065,0.035-0.098,0.052c-0.122,0.057-0.249,0.098-0.381,0.125c-0.034,0.007-0.062,0.02-0.084,0.051
		c-0.087,0.115-0.177,0.228-0.266,0.342c-0.01,0.013-0.02,0.025-0.027,0.039c-0.085,0.157-0.189,0.303-0.287,0.452
		c-0.022,0.034-0.05,0.06-0.083,0.083c-0.142,0.094-0.284,0.188-0.425,0.285c-0.041,0.027-0.08,0.06-0.117,0.094
		c-0.071,0.066-0.14,0.135-0.208,0.204c-0.018,0.018-0.035,0.039-0.046,0.063c-0.066,0.143-0.13,0.286-0.196,0.43
		c-0.014,0.03-0.017,0.06-0.011,0.092c0.045,0.237,0.089,0.475,0.133,0.712c0.005,0.028,0.011,0.056,0.011,0.084
		c-0.06,0.003-0.06,0.003-0.118-0.022c-0.1-0.042-0.188-0.104-0.269-0.176c-0.185-0.164-0.325-0.363-0.449-0.576
		c-0.011-0.019-0.017-0.044-0.02-0.066c-0.028-0.188-0.054-0.374-0.08-0.562c-0.003-0.024-0.011-0.045-0.025-0.064
		c-0.031-0.047-0.045-0.101-0.055-0.155c-0.025-0.129-0.01-0.256,0.009-0.384c0.022-0.151,0.045-0.301,0.068-0.452
		c0.003-0.021,0.001-0.04-0.013-0.059c-0.037-0.052-0.048-0.11-0.051-0.172c-0.007-0.116,0.014-0.229,0.043-0.343
		c0.011-0.04,0.02-0.081,0.027-0.122c0.02-0.136,0.038-0.271,0.057-0.405c0.008-0.058,0.013-0.114,0.02-0.168
		c-0.012-0.012-0.02-0.02-0.028-0.025c-0.076-0.064-0.12-0.146-0.138-0.241C3.547,9.989,3.547,9.921,3.559,9.853
		C3.569,9.802,3.581,9.752,3.592,9.7C3.565,9.682,3.541,9.666,3.518,9.649c-0.114-0.081-0.221-0.171-0.31-0.278
		c-0.091-0.112-0.182-0.226-0.27-0.339C2.903,8.986,2.871,8.937,2.845,8.886C2.803,8.802,2.782,8.713,2.803,8.619
		c0.005-0.022,0.001-0.041-0.006-0.062C2.743,8.406,2.736,8.249,2.749,8.091c0.008-0.109,0.037-0.212,0.099-0.304
		c0.038-0.057,0.075-0.114,0.114-0.17c0.069-0.099,0.14-0.197,0.211-0.295c0.07-0.096,0.109-0.202,0.129-0.318
		c0.01-0.052,0.015-0.104,0.01-0.157C3.304,6.766,3.276,6.695,3.206,6.645C3.129,6.59,3.055,6.531,2.977,6.478
		C2.936,6.451,2.918,6.415,2.907,6.37C2.882,6.262,2.852,6.156,2.828,6.048C2.819,6.01,2.803,5.981,2.773,5.957
		c-0.046-0.039-0.091-0.08-0.136-0.12C2.62,5.821,2.603,5.805,2.586,5.789c0.004-0.1,0.031-0.194,0.033-0.293
		C2.592,5.485,2.568,5.475,2.545,5.465C2.426,5.414,2.313,5.352,2.212,5.271C2.15,5.221,2.095,5.165,2.053,5.098
		C1.998,5.01,1.971,4.917,1.987,4.812c0.011-0.072,0.02-0.145,0.029-0.218C2.023,4.536,2.03,4.479,2.037,4.422
		C2.038,4.412,2.04,4.4,2.024,4.398c0,0,0.051-0.091-0.17-0.362c-0.016-0.021-0.03-0.043-0.043-0.065
		C3.131,1.95,5.411,0.611,8,0.611 M11.827,14.318c0.17-0.178,0.29-0.369,0.178-0.519c-0.062-0.059-0.057-0.13-0.032-0.204
		c0.015-0.042,0.027-0.085,0.045-0.126c0.055-0.122,0.11-0.243,0.166-0.365c0.062-0.134,0.123-0.267,0.185-0.4
		c0.038-0.082,0.043-0.166,0.023-0.254c-0.022-0.103-0.042-0.206-0.063-0.309s-0.021-0.204,0.014-0.304
		c0.066-0.188,0.156-0.361,0.301-0.502c0.047-0.044,0.089-0.091,0.129-0.139c0.054-0.063,0.094-0.134,0.122-0.211
		c0.036-0.098,0.051-0.196,0.029-0.302c-0.016-0.08-0.044-0.156-0.071-0.232c-0.021-0.064-0.046-0.128-0.064-0.194
		c-0.03-0.105-0.035-0.213-0.006-0.319c0.019-0.067,0.043-0.135,0.066-0.202c0.024-0.068,0.053-0.137,0.077-0.205
		c0.032-0.091,0.05-0.184,0.041-0.279c-0.006-0.065-0.017-0.13-0.033-0.193c-0.017-0.069-0.046-0.081-0.109-0.056
		c-0.024,0.01-0.047,0.021-0.072,0.032c-0.074,0.031-0.122,0.018-0.159-0.036c-0.027-0.04-0.068-0.065-0.116-0.077
		c-0.04-0.011-0.08-0.024-0.123-0.027c-0.139-0.01-0.277-0.004-0.417,0.004c-0.102,0.006-0.204,0.009-0.307,0.011
		c-0.031,0.001-0.063-0.006-0.093-0.012c-0.084-0.015-0.162-0.046-0.238-0.082c-0.138-0.066-0.263-0.152-0.383-0.247
		c-0.194-0.153-0.369-0.329-0.547-0.5c-0.024-0.023-0.038-0.05-0.046-0.081c-0.01-0.038-0.019-0.077-0.022-0.116
		c-0.015-0.179,0.007-0.356,0.04-0.532c0.035-0.189,0.084-0.374,0.138-0.558c0.03-0.104,0.048-0.21,0.047-0.319
		c-0.001-0.045-0.004-0.089-0.028-0.129c-0.021-0.035-0.021-0.071-0.004-0.106c0.025-0.057,0.05-0.116,0.083-0.169
		c0.112-0.18,0.272-0.296,0.477-0.351c0.045-0.012,0.08-0.032,0.11-0.069c0.076-0.094,0.156-0.184,0.231-0.279
		c0.026-0.032,0.057-0.051,0.096-0.063c0.119-0.034,0.235-0.071,0.354-0.107c0.104-0.032,0.209-0.049,0.317-0.053
		c0.197-0.008,0.388,0.015,0.572,0.086c0.03,0.012,0.061,0.013,0.093,0.013c0.109-0.002,0.22-0.003,0.33,0.014
		c0.104,0.017,0.202,0.046,0.288,0.116c0.149,0.123,0.307,0.238,0.461,0.357c0.085,0.065,0.085,0.066,0.191,0.063
		c0.163-0.003,0.326-0.003,0.487,0.031c0.006,0.002,0.014-0.002,0.026-0.004c-0.001-0.022-0.001-0.042-0.005-0.062
		c-0.018-0.072-0.036-0.143-0.072-0.208c-0.026-0.048-0.056-0.096-0.09-0.138c-0.072-0.086-0.165-0.136-0.279-0.143
		c-0.031-0.002-0.063-0.006-0.093-0.012c-0.09-0.016-0.155-0.064-0.188-0.15c-0.015-0.039-0.021-0.081-0.033-0.121
		c-0.004-0.014-0.011-0.027-0.018-0.042c-0.011,0.006-0.019,0.009-0.024,0.014C13.794,4.967,13.781,4.983,13.768,5
		c-0.016,0.021-0.029,0.043-0.047,0.063c-0.055,0.065-0.099,0.061-0.139-0.012c-0.009-0.016-0.017-0.033-0.023-0.05
		c-0.009-0.025-0.017-0.05-0.025-0.075c-0.014-0.034-0.024-0.069-0.04-0.102c-0.03-0.065-0.059-0.068-0.102-0.014
		c-0.009,0.01-0.015,0.022-0.023,0.031c-0.016,0.016-0.029,0.032-0.045,0.044c-0.058,0.045-0.115,0.045-0.174,0.002
		c-0.011-0.008-0.02-0.018-0.029-0.027c-0.027-0.024-0.04-0.052-0.039-0.09c0.002-0.047,0.001-0.095-0.004-0.142
		c-0.003-0.028-0.013-0.056-0.023-0.082C13.045,4.524,13.019,4.519,13,4.532c-0.019,0.014-0.036,0.03-0.057,0.047
		c-0.024-0.01-0.049-0.019-0.072-0.03c-0.104-0.047-0.205-0.094-0.308-0.14c-0.035-0.016-0.068-0.034-0.099-0.074
		c-0.055,0.185-0.061,0.367-0.087,0.549c-0.019,0.007-0.039,0.014-0.059,0.019c-0.086,0.022-0.173,0.041-0.26,0.065
		c-0.14,0.041-0.264,0.013-0.377-0.076c-0.082-0.065-0.145-0.145-0.196-0.234c-0.065-0.114-0.128-0.23-0.191-0.345
		c-0.008-0.013-0.013-0.027-0.02-0.042c0.028-0.033,0.066-0.045,0.101-0.065c0.153-0.088,0.316-0.14,0.496-0.122
		c0.021,0.002,0.041-0.002,0.059-0.015c0.014-0.01,0.027-0.017,0.04-0.025c0.067-0.042,0.141-0.077,0.198-0.129
		c0.059-0.054,0.104-0.126,0.152-0.19c0.02-0.027,0.045-0.051,0.058-0.085c-0.022-0.054-0.044-0.108-0.069-0.16
		c-0.021-0.042-0.024-0.084-0.018-0.13c0.009-0.054,0.018-0.109,0.025-0.163c0.002-0.02,0.011-0.042-0.01-0.063
		c-0.086-0.011-0.174-0.027-0.262-0.034c-0.042-0.004-0.067-0.021-0.087-0.056c-0.026-0.049-0.057-0.095-0.083-0.143
		c-0.018-0.034-0.045-0.049-0.082-0.053c-0.049-0.005-0.098-0.014-0.147-0.017c-0.04-0.002-0.07-0.02-0.096-0.049
		c-0.039-0.044-0.063-0.096-0.081-0.151c-0.025-0.078-0.035-0.159-0.041-0.241c-0.008-0.105-0.003-0.209,0.014-0.318
		c0.02-0.004,0.04-0.009,0.061-0.012c0.021-0.002,0.042-0.001,0.063-0.003c0.018-0.002,0.035-0.006,0.054-0.008
		c0.021-0.002,0.042-0.003,0.063-0.006c0.02-0.002,0.041,0.004,0.059-0.012c0,0,0.177,0.026,0.207-0.185
		c0.003-0.021,0.011-0.043,0.021-0.063c2.055,1.314,3.42,3.613,3.42,6.227C15.389,10.675,13.961,13.021,11.827,14.318"/>
</svg>
