<svg width="88" height="59" viewBox="0 0 88 59" fill="none" xmlns="http://www.w3.org/2000/svg">
<g clip-path="url(#clip0)">
<path d="M47.9191 3.38623H46.2378V5.0794H47.9191V3.38623Z" fill="black"/>
<path d="M47.9191 6.77258H46.2378V8.46575H47.9191V6.77258Z" fill="black"/>
<path d="M46.2375 5.07947H44.5562V6.77263H46.2375V5.07947Z" fill="black"/>
<path d="M49.6003 5.07947H47.9189V6.77263H49.6003V5.07947Z" fill="black"/>
<path d="M6.72531 12.6986H5.04395V14.3918H6.72531V12.6986Z" fill="black"/>
<path d="M6.72531 16.085H5.04395V17.7781H6.72531V16.085Z" fill="black"/>
<path d="M5.04416 14.3918H3.36279V16.085H5.04416V14.3918Z" fill="black"/>
<path d="M8.40695 14.3918H6.72559V16.085H8.40695V14.3918Z" fill="black"/>
<path d="M14.2917 28.7837H12.6104V30.4769H14.2917V28.7837Z" fill="black"/>
<path d="M14.2917 32.17H12.6104V33.8632H14.2917V32.17Z" fill="black"/>
<path d="M12.6106 30.4769H10.9292V32.1701H12.6106V30.4769Z" fill="black"/>
<path d="M15.9729 30.4769H14.2915V32.1701H15.9729V30.4769Z" fill="black"/>
<path d="M36.1491 37.2496H34.4678V38.9428H36.1491V37.2496Z" fill="black"/>
<path d="M36.1491 40.636H34.4678V42.3292H36.1491V40.636Z" fill="black"/>
<path d="M34.468 38.9427H32.7866V40.6359H34.468V38.9427Z" fill="black"/>
<path d="M37.8308 38.9427H36.1494V40.6359H37.8308V38.9427Z" fill="black"/>
<path d="M41.1507 15.8175C41.0806 15.6045 40.9294 15.4282 40.7304 15.3273L39.6526 14.7847L40.3251 12.0578C40.3717 11.8708 40.3536 11.6734 40.2736 11.4982C40.1937 11.323 40.0567 11.1806 39.8855 11.0944L38.4042 10.3486L36.8783 8.04248L36.0654 6.39419C35.9747 6.21208 35.8218 6.06902 35.6348 5.99127C35.4478 5.91351 35.2392 5.90628 35.0473 5.9709L32.7573 6.73959L29.6283 5.95143C29.4874 5.91591 29.3398 5.91775 29.1998 5.95677C29.0599 5.99579 28.9323 6.07066 28.8296 6.17408L26.902 8.11529L26.4093 7.61919L26.6556 7.37114C26.8133 7.21242 26.9019 6.99712 26.902 6.77261V5.07945C26.902 4.92212 26.8586 4.76789 26.7765 4.63406C26.6943 4.50022 26.5768 4.39208 26.4371 4.32175L24.7557 3.47517C24.639 3.41659 24.5103 3.38616 24.3799 3.38628H23.5392V2.5397C23.5392 2.31517 23.4507 2.09984 23.293 1.94107C23.1353 1.78231 22.9215 1.69312 22.6985 1.69312H19.3358C19.1974 1.69309 19.0612 1.72747 18.9392 1.79319C18.8172 1.8589 18.7132 1.95393 18.6364 2.06984L17.2047 4.23286H15.1324C14.9095 4.23291 14.6957 4.32214 14.538 4.48091L13.6973 5.32749C13.5397 5.48622 13.4511 5.70152 13.451 5.92603V7.4194L12.8247 8.68165L11.3956 9.40125C11.2766 9.46128 11.1736 9.54888 11.0948 9.65684C11.0161 9.7648 10.9639 9.89004 10.9425 10.0223C10.9212 10.1545 10.9313 10.2899 10.9721 10.4174C11.0128 10.545 11.0831 10.6609 11.177 10.7558L12.0177 11.6024L12.8583 12.4489C12.9225 12.5132 12.9962 12.5669 13.0769 12.6081L14.6364 13.3929L16.1244 14.8913L16.7129 16.0833L16.0597 17.3981C16.0014 17.5156 15.971 17.6451 15.971 17.7765C15.971 17.9078 16.0014 18.0374 16.0597 18.1549L16.5246 19.0912L15.5956 19.5585C15.4968 19.6082 15.4086 19.677 15.3362 19.761C15.2638 19.845 15.2085 19.9425 15.1735 20.048C15.1385 20.1535 15.1245 20.2649 15.1323 20.3759C15.1401 20.4868 15.1696 20.5952 15.219 20.6947L16.0597 22.3878C16.1184 22.5054 16.2032 22.6076 16.3077 22.6867L19.3358 24.9741V26.244C19.3353 26.3009 19.3409 26.3577 19.3526 26.4133L20.1488 30.4261L19.4148 32.645L18.3556 34.2434L17.7957 35.09C17.7045 35.2283 17.6555 35.3904 17.6544 35.5564V37.959L16.8566 40.3684C16.8282 40.4547 16.8137 40.545 16.8138 40.6359V42.3291C16.8136 42.4604 16.8439 42.59 16.902 42.7075L17.3224 43.5541L17.7427 44.4007C17.8125 44.5414 17.9199 44.6597 18.0528 44.7424C18.1857 44.8251 18.3389 44.8689 18.4951 44.8688H19.8285L21.2046 46.2547L22.8398 48.725C22.9166 48.8409 23.0206 48.9359 23.1426 49.0017C23.2646 49.0674 23.4009 49.1018 23.5392 49.1017H25.8091L27.5022 50.2379L26.986 51.2631C26.9218 51.3925 26.8916 51.5363 26.8983 51.6808C26.9049 51.8254 26.9483 51.9658 27.0242 52.0886C27.1001 52.2115 27.2059 52.3127 27.3317 52.3826C27.4575 52.4526 27.599 52.4889 27.7426 52.4881H32.7867C32.9437 52.4889 33.0977 52.4455 33.2314 52.3628C33.3652 52.2801 33.4732 52.1613 33.5434 52.0199L34.384 50.3267C34.4408 50.2088 34.4695 50.0793 34.4681 49.9483V48.2552C34.469 48.0971 34.4259 47.942 34.3437 47.8073C34.2616 47.6727 34.1436 47.5639 34.0032 47.4932L27.7426 44.3456V43.1757C27.7403 43.0447 27.7072 42.9162 27.646 42.8006H27.6544L26.8137 41.1075C26.7323 40.9433 26.6001 40.8102 26.4371 40.7282L25.0079 40.0086L24.2933 38.5694C24.2119 38.4052 24.0797 38.2721 23.9167 38.1901L22.6985 37.573V36.6028L23.451 35.0883L23.4417 35.084C23.4621 35.0496 23.4803 35.014 23.4964 34.9774L24.3177 32.4952L25.1323 30.8553C25.1905 30.7378 25.2207 30.6082 25.2206 30.4769V27.9372C25.2207 27.8058 25.1905 27.6763 25.1323 27.5588L24.8995 27.0906H25.8629L26.902 27.6138V29.6303C26.902 29.8549 26.9905 30.0702 27.1482 30.229C27.3058 30.3877 27.5197 30.4769 27.7426 30.4769H30.1285L32.5211 31.2803C32.6068 31.309 32.6965 31.3236 32.7867 31.3235H33.6274C33.8504 31.3235 34.0642 31.2343 34.2219 31.0755C34.3795 30.9168 34.4681 30.7014 34.4681 30.4769V28.7838C34.4682 28.6928 34.4537 28.6025 34.4252 28.5162L33.6274 26.1069V24.3146L35.445 23.7043H41.1936C41.4165 23.7043 41.6304 23.6151 41.788 23.4563C41.9457 23.2975 42.0343 23.0822 42.0343 22.8577V18.6248C42.0343 18.5339 42.0198 18.4435 41.9914 18.3572L41.1507 15.8175ZM13.8268 10.0743C13.9899 9.99231 14.122 9.8592 14.2034 9.69501L15.0441 8.00185C15.1029 7.88303 15.1332 7.75195 15.1324 7.61919V6.27651L15.4804 5.92603H17.6544C17.7928 5.92605 17.9291 5.89168 18.0511 5.82596C18.1731 5.76024 18.2771 5.66521 18.3539 5.5493L19.7856 3.38628H21.8579V4.23286C21.8579 4.45739 21.9464 4.67272 22.1041 4.83149C22.2617 4.99025 22.4756 5.07945 22.6985 5.07945H24.1815L25.2206 5.60263V6.42213L24.6262 7.02066C24.4686 7.17942 24.3801 7.39471 24.3801 7.61919C24.3801 7.84368 24.4686 8.05897 24.6262 8.21773L26.3076 9.91089C26.4652 10.0696 26.679 10.1588 26.902 10.1588C27.1249 10.1588 27.3387 10.0696 27.4963 9.91089L29.6821 7.70978L32.5825 8.44038C32.7376 8.47959 32.9006 8.47343 33.0524 8.4226L34.8834 7.80798L35.3971 8.8442C35.4131 8.8756 35.4308 8.90613 35.45 8.93563L36.2596 10.1589H13.6494L13.8268 10.0743ZM15.7268 12.1061C15.6626 12.0418 15.5889 11.9881 15.5082 11.9469L15.3308 11.8521H37.6324L38.5328 12.3059L37.8603 15.0327C37.8137 15.2197 37.8318 15.4171 37.9118 15.5923C37.9917 15.7675 38.1287 15.91 38.2999 15.9961L39.6694 16.6852L40.3075 18.6248H18.174L17.7536 17.7782L18.4069 16.4634C18.4652 16.3459 18.4955 16.2164 18.4955 16.085C18.4955 15.9537 18.4652 15.8241 18.4069 15.7066L17.5662 14.0134C17.5253 13.9322 17.4719 13.8579 17.4081 13.7933L15.7268 12.1061ZM32.7867 48.7783V49.7485L32.2672 50.7949H29.1029L29.3357 50.3267C29.4273 50.1422 29.4488 49.9303 29.3961 49.7309C29.3435 49.5315 29.2204 49.3584 29.0499 49.244L26.5279 47.5508C26.3896 47.4583 26.2273 47.4088 26.0613 47.4086H23.989L22.5598 45.2456C22.529 45.1993 22.4938 45.1562 22.4547 45.1169L21.3652 44.0222H26.0613V44.8688C26.0604 45.0269 26.1035 45.182 26.1857 45.3166C26.2678 45.4513 26.3858 45.5601 26.5262 45.6307L32.7867 48.7783ZM22.9129 39.5734L23.6275 41.0126C23.7089 41.1768 23.8411 41.3099 24.0041 41.3919L25.4333 42.1115L25.5401 42.3274H18.5943L18.4951 42.1293V40.7748L19.2929 38.3654C19.3216 38.2786 19.3361 38.1876 19.3358 38.0962V35.8104L19.5039 35.5564H21.3366L21.1038 36.0246C21.0462 36.1423 21.0165 36.2718 21.0172 36.403V38.0962C21.0163 38.2542 21.0594 38.4093 21.1416 38.544C21.2237 38.6786 21.3417 38.7874 21.4821 38.8581L22.9129 39.5734ZM40.3529 22.0111H35.3088C35.2185 22.011 35.1288 22.0256 35.0431 22.0543L32.5211 22.9009C32.3536 22.957 32.208 23.0649 32.1047 23.2091C32.0015 23.3533 31.946 23.5265 31.9461 23.7043V26.244C31.946 26.3349 31.9605 26.4253 31.9889 26.5115L32.7867 28.9209V29.5846L30.5303 28.8269C30.4447 28.7983 30.355 28.7837 30.2647 28.7838H28.5833V27.0906C28.5834 26.9333 28.5399 26.779 28.4578 26.6452C28.3757 26.5114 28.2582 26.4032 28.1184 26.3329L26.4371 25.4863C26.3203 25.4277 26.1917 25.3973 26.0613 25.3974H23.5392C23.3959 25.3974 23.255 25.4342 23.1298 25.5044C23.0045 25.5746 22.8993 25.6759 22.8239 25.7987C22.7485 25.9214 22.7055 26.0615 22.699 26.2057C22.6925 26.3499 22.7228 26.4933 22.7868 26.6224L23.5392 28.137V30.2771L22.7868 31.7917C22.7691 31.8275 22.7539 31.8646 22.7414 31.9026L22.0924 33.8633H20.6263L20.8785 33.4865C20.9196 33.4235 20.9526 33.3555 20.9768 33.2842L21.8175 30.7444C21.8639 30.6048 21.8729 30.4553 21.8436 30.311L21.0172 26.1593V24.5508C21.0172 24.4194 20.9868 24.2898 20.9284 24.1722C20.8701 24.0547 20.7853 23.9524 20.6809 23.8736L17.4771 21.454L17.1013 20.6964L17.8528 20.3179H40.3529V22.0111Z" fill="black"/>
<path d="M21.8576 13.5453H20.1763V15.2385H21.8576V13.5453Z" fill="black"/>
<path d="M30.2644 22.0111H28.583V23.7043H30.2644V22.0111Z" fill="black"/>
<g clip-path="url(#clip1)">
<path d="M51.1581 47.4332C48.7766 47.4332 46.8398 49.3836 46.8398 51.7818C46.8398 54.1801 48.7766 56.1304 51.1581 56.1304C53.5397 56.1304 55.4764 54.1801 55.4764 51.7818C55.4764 49.3836 53.5396 47.4332 51.1581 47.4332ZM51.1581 54.6809C49.5704 54.6809 48.2793 53.3806 48.2793 51.7818C48.2793 50.183 49.5705 48.8828 51.1581 48.8828C52.7458 48.8828 54.037 50.183 54.037 51.7818C54.037 53.3806 52.7458 54.6809 51.1581 54.6809Z" fill="black"/>
<path d="M75.6284 47.4332C73.2468 47.4332 71.3101 49.3836 71.3101 51.7818C71.3101 54.1801 73.2468 56.1304 75.6284 56.1304C78.0099 56.1304 79.9467 54.1801 79.9467 51.7818C79.9467 49.3836 78.0099 47.4332 75.6284 47.4332ZM75.6284 54.6809C74.0406 54.6809 72.7495 53.3806 72.7495 51.7818C72.7495 50.183 74.0407 48.8828 75.6284 48.8828C77.2161 48.8828 78.5072 50.183 78.5072 51.7818C78.5072 53.3806 77.2161 54.6809 75.6284 54.6809Z" fill="black"/>
<path d="M84.1505 43.4172L77.673 33.2704C77.5406 33.0631 77.3124 32.9377 77.0677 32.9377H69.1508C68.7528 32.9377 68.4312 33.2624 68.4312 33.6625V51.7816C68.4312 52.1824 68.7528 52.5064 69.1508 52.5064H72.0297V51.0568H69.8705V34.3873H76.6747L82.8255 44.0224V51.057H79.2268V52.5065H83.5452C83.9432 52.5065 84.2648 52.1825 84.2648 51.7817V43.8093C84.2649 43.6708 84.2254 43.5338 84.1505 43.4172Z" fill="black"/>
<path d="M72.7494 42.3597V37.2864H78.5072V35.8368H72.0297C71.6317 35.8368 71.3101 36.1615 71.3101 36.5615V43.0844C71.3101 43.4852 71.6317 43.8092 72.0297 43.8092H82.8255V42.3596H72.7494V42.3597Z" fill="black"/>
<path d="M69.151 27.8644H41.8017C41.4045 27.8644 41.082 28.1891 41.082 28.5891V51.7817C41.082 52.1825 41.4045 52.5065 41.8017 52.5065H47.5595V51.0569H42.5215V29.3139H68.4313V51.0569H54.7566V52.5065H69.151C69.549 52.5065 69.8707 52.1825 69.8707 51.7817V28.5891C69.8707 28.1891 69.549 27.8644 69.151 27.8644Z" fill="black"/>
<path d="M46.1201 48.158H41.8018V49.6075H46.1201V48.158Z" fill="black"/>
<path d="M68.4315 48.158H56.1963V49.6075H68.4315V48.158Z" fill="black"/>
<path d="M83.5453 48.158H80.6665V49.6075H83.5453V48.158Z" fill="black"/>
<path d="M69.1511 30.7635H43.9609V32.2131H69.1511V30.7635Z" fill="black"/>
<path d="M51.8779 51.0569H50.4385V52.5064H51.8779V51.0569Z" fill="black"/>
<path d="M76.3482 51.0569H74.9087V52.5064H76.3482V51.0569Z" fill="black"/>
<path d="M54.037 24.9653H43.9609V26.4149H54.037V24.9653Z" fill="black"/>
<path d="M42.5215 24.9653H41.082V26.4149H42.5215V24.9653Z" fill="black"/>
</g>
</g>
<defs>
<clipPath id="clip0">
<rect width="88" height="59" fill="white"/>
</clipPath>
<clipPath id="clip1">
<rect x="41.082" y="18.8048" width="43.183" height="43.4861" fill="white"/>
</clipPath>
</defs>
</svg>
