<svg width="744" height="446" viewBox="0 0 744 446" fill="none" xmlns="http://www.w3.org/2000/svg">
<line x1="144" y1="415" x2="144" y2="1" stroke="#3E3A46" stroke-width="2" stroke-linecap="round"/>
<line x1="1" y1="415" x2="743" y2="415" stroke="#3E3A46" stroke-width="2" stroke-linecap="round"/>
<line x1="489" y1="415" x2="489" y2="1" stroke="#3E3A46" stroke-width="2" stroke-linecap="round"/>
<line x1="374" y1="415" x2="374" y2="1" stroke="#3E3A46" stroke-width="2" stroke-linecap="round"/>
<line x1="604" y1="415" x2="604" y2="1" stroke="#3E3A46" stroke-width="2" stroke-linecap="round"/>
<line x1="719" y1="415" x2="719" y2="1" stroke="#3E3A46" stroke-width="2" stroke-linecap="round"/>
<line x1="29" y1="445" x2="29" y2="1" stroke="#3E3A46" stroke-width="2" stroke-linecap="round"/>
<line x1="259" y1="415" x2="259" y2="1" stroke="#3E3A46" stroke-width="2" stroke-linecap="round"/>
<path d="M45 347.5L272.572 143.327C273.799 142.225 275.577 141.99 277.049 142.735L499.247 255.173C500.285 255.698 501.499 255.746 502.575 255.303L725 163.796" stroke="#3E3A46" stroke-width="2" stroke-linecap="round" stroke-linejoin="round"/>
<path d="M44 394L271.357 68.1432C272.809 66.0621 275.807 65.8417 277.548 67.688L498.2 301.708C499.849 303.457 502.657 303.367 504.191 301.516L725 35" stroke="#6657C2" stroke-width="2" stroke-linecap="round" stroke-linejoin="round"/>
</svg>
