<svg width="80" height="80" viewBox="0 0 80 80" fill="none" xmlns="http://www.w3.org/2000/svg">
<path d="M58.0467 34.7133C60 32.76 60 29.62 60 23.3333C60 17.0467 60 13.9067 58.0467 11.9533M58.0467 34.7133C56.0933 36.6667 52.9533 36.6667 46.6667 36.6667H33.3333C27.0467 36.6667 23.9067 36.6667 21.9533 34.7133M58.0467 11.9533C56.0933 10 52.9533 10 46.6667 10H33.3333C27.0467 10 23.9067 10 21.9533 11.9533M21.9533 11.9533C20 13.9067 20 17.0467 20 23.3333C20 29.62 20 32.76 21.9533 34.7133M43.3333 23.3333C43.3333 24.2174 42.9821 25.0652 42.357 25.6904C41.7319 26.3155 40.8841 26.6667 40 26.6667C39.1159 26.6667 38.2681 26.3155 37.643 25.6904C37.0179 25.0652 36.6667 24.2174 36.6667 23.3333C36.6667 22.4493 37.0179 21.6014 37.643 20.9763C38.2681 20.3512 39.1159 20 40 20C40.8841 20 41.7319 20.3512 42.357 20.9763C42.9821 21.6014 43.3333 22.4493 43.3333 23.3333Z" stroke="#6657C2" stroke-width="2"/>
<path d="M16.668 67.96H24.2013C27.568 67.96 30.978 68.3134 34.2546 68.9867C40.1046 70.1885 46.1238 70.3218 52.0213 69.38C54.9146 68.9134 57.7546 68.1967 60.328 66.9567C62.648 65.8334 65.4913 64.2567 67.4013 62.4867C69.308 60.72 71.2946 57.83 72.7013 55.57C73.9146 53.63 73.328 51.2534 71.4146 49.81C70.3395 49.028 69.0441 48.6067 67.7146 48.6067C66.3851 48.6067 65.0898 49.028 64.0146 49.81L57.9913 54.36C55.658 56.1267 53.108 57.75 50.0713 58.2334C49.7046 58.29 49.3213 58.3434 48.9213 58.39M48.9213 58.39C48.7992 58.4042 48.6769 58.4175 48.5546 58.43M48.9213 58.39C49.4548 58.2458 49.944 57.9708 50.3446 57.59C50.8469 57.1555 51.2571 56.6248 51.5509 56.0291C51.8448 55.4335 52.0163 54.785 52.0555 54.122C52.0946 53.459 52.0006 52.7948 51.7789 52.1687C51.5572 51.5427 51.2123 50.9673 50.7646 50.4767C50.3303 49.9945 49.8244 49.5819 49.2646 49.2534C39.9413 43.69 25.4313 47.9267 16.668 54.1434M48.9213 58.39C48.8008 58.4163 48.6779 58.4297 48.5546 58.43M48.5546 58.43C46.5444 58.6321 44.5191 58.6365 42.508 58.4434" stroke="#D9D9D9" stroke-width="2" stroke-linecap="round"/>
<path d="M16.668 51.6665C16.668 48.9051 14.4294 46.6665 11.668 46.6665C8.90654 46.6665 6.66797 48.9051 6.66797 51.6665V68.3332C6.66797 71.0946 8.90654 73.3332 11.668 73.3332C14.4294 73.3332 16.668 71.0946 16.668 68.3332V51.6665Z" stroke="#D9D9D9" stroke-width="2"/>
<path d="M60 20C57.3478 20 54.8043 18.9464 52.9289 17.0711C51.0536 15.1957 50 12.6522 50 10M60 26.6667C57.3478 26.6667 54.8043 27.7202 52.9289 29.5956C51.0536 31.471 50 34.0145 50 36.6667M20 20C22.6522 20 25.1957 18.9464 27.0711 17.0711C28.9464 15.1957 30 12.6522 30 10M20 26.6667C22.6522 26.6667 25.1957 27.7202 27.0711 29.5956C28.9464 31.471 30 34.0145 30 36.6667" stroke="#6657C2" stroke-width="2" stroke-linecap="round"/>
</svg>
