<?xml version="1.0" encoding="utf-8"?>
<!-- Generator: Adobe Illustrator 16.0.0, SVG Export Plug-In . SVG Version: 6.00 Build 0)  -->
<!DOCTYPE svg PUBLIC "-//W3C//DTD SVG 1.1//EN" "http://www.w3.org/Graphics/SVG/1.1/DTD/svg11.dtd">
<svg version="1.1" id="Layer_1" xmlns="http://www.w3.org/2000/svg" xmlns:xlink="http://www.w3.org/1999/xlink" x="0px" y="0px"
	 width="314.166px" height="66.848px" viewBox="0 0 314.166 66.848" enable-background="new 0 0 314.166 66.848"
	 xml:space="preserve">
<g>
	<path fill="#444444" d="M6.862,65.365H6.467c-0.046,0-0.085-0.013-0.114-0.037c-0.03-0.024-0.055-0.059-0.069-0.098l-0.83-2.055
		H1.977l-0.83,2.055c-0.015,0.037-0.037,0.068-0.069,0.096c-0.033,0.026-0.073,0.039-0.12,0.039H0.567l2.896-7.074h0.505
		L6.862,65.365z M5.298,62.797l-1.439-3.575c-0.051-0.117-0.1-0.257-0.146-0.42c-0.021,0.08-0.042,0.155-0.064,0.228
		S3.6,59.167,3.574,59.227l-1.44,3.57H5.298z"/>
	<path fill="#444444" d="M14.282,58.29v7.074h-0.516v-3.39h-4.43v3.39H8.822V58.29h0.516v3.301h4.431V58.29H14.282z"/>
	<path fill="#444444" d="M22.537,65.365h-0.396c-0.046,0-0.085-0.013-0.114-0.037s-0.055-0.059-0.069-0.098l-0.83-2.055h-3.476
		l-0.83,2.055c-0.015,0.037-0.036,0.068-0.069,0.096c-0.033,0.026-0.073,0.039-0.12,0.039h-0.39l2.895-7.074h0.505L22.537,65.365z
		 M20.971,62.797l-1.438-3.575c-0.051-0.117-0.101-0.257-0.146-0.42c-0.02,0.08-0.042,0.155-0.064,0.228s-0.048,0.138-0.074,0.197
		l-1.44,3.57H20.971z"/>
	<path fill="#444444" d="M29.498,65.365h-0.516v-6.664h-2.846c-0.043,0.938-0.102,1.754-0.175,2.452
		c-0.073,0.699-0.161,1.297-0.263,1.795c-0.104,0.499-0.218,0.908-0.346,1.229c-0.128,0.319-0.271,0.571-0.426,0.757
		c-0.154,0.186-0.321,0.313-0.502,0.385c-0.18,0.071-0.37,0.107-0.569,0.107c-0.106,0-0.199-0.011-0.279-0.03
		c-0.08-0.019-0.12-0.048-0.12-0.085v-0.319h0.3c0.153,0,0.303-0.034,0.445-0.104c0.144-0.068,0.278-0.193,0.407-0.375
		c0.129-0.183,0.248-0.432,0.356-0.748c0.11-0.315,0.209-0.722,0.297-1.217c0.089-0.495,0.165-1.093,0.23-1.79
		c0.064-0.698,0.117-1.521,0.157-2.469h3.846v7.075H29.498z"/>
	<path fill="#444444" d="M37.837,58.29v7.074h-0.516v-5.81c0-0.106,0.003-0.216,0.008-0.328c0.005-0.111,0.014-0.229,0.026-0.347
		c-0.046,0.103-0.094,0.196-0.141,0.281c-0.046,0.085-0.093,0.165-0.14,0.237l-4.085,5.806c-0.027,0.043-0.063,0.081-0.104,0.112
		c-0.042,0.032-0.087,0.047-0.138,0.047h-0.375V58.29h0.515v5.81c0,0.106-0.002,0.215-0.005,0.325
		c-0.003,0.109-0.012,0.223-0.024,0.34c0.043-0.101,0.088-0.192,0.136-0.277c0.046-0.085,0.093-0.164,0.14-0.237l4.09-5.8
		c0.027-0.044,0.062-0.081,0.102-0.111c0.04-0.031,0.085-0.049,0.135-0.049H37.837z"/>
	<path fill="#444444" d="M45.317,58.725h-2.484v6.64h-0.516v-6.64h-2.5V58.29h5.5V58.725z"/>
	<path fill="#444444" d="M52.757,58.29v7.074h-0.515v-5.81c0-0.106,0.002-0.216,0.007-0.328c0.005-0.111,0.014-0.229,0.026-0.347
		c-0.046,0.103-0.094,0.196-0.141,0.281c-0.046,0.085-0.093,0.165-0.14,0.237l-4.085,5.806c-0.027,0.043-0.062,0.081-0.104,0.112
		c-0.042,0.032-0.087,0.047-0.138,0.047h-0.375V58.29h0.516v5.81c0,0.106-0.003,0.215-0.006,0.325
		c-0.003,0.109-0.012,0.223-0.024,0.34c0.043-0.101,0.089-0.192,0.136-0.277c0.046-0.085,0.093-0.164,0.14-0.237l4.091-5.8
		c0.026-0.044,0.061-0.081,0.101-0.111c0.04-0.031,0.085-0.049,0.135-0.049H52.757z"/>
	<path fill="#444444" d="M59.977,58.29v7.074h-0.516v-3.358c-0.374,0.108-0.739,0.199-1.099,0.27
		c-0.358,0.071-0.696,0.111-1.019,0.125c-0.319,0.014-0.615-0.008-0.887-0.063c-0.271-0.057-0.506-0.154-0.703-0.299
		c-0.196-0.144-0.351-0.335-0.46-0.574c-0.109-0.24-0.165-0.539-0.165-0.896v-2.279h0.516v2.279c0,0.4,0.09,0.711,0.271,0.937
		c0.18,0.223,0.437,0.37,0.767,0.44c0.332,0.072,0.733,0.077,1.203,0.017c0.471-0.063,0.995-0.177,1.575-0.344v-3.33h0.517V58.29z"
		/>
	<path fill="#444444" d="M67.112,64.941l-0.01,0.426h-4.24v-7.075h4.24v0.426h-3.726v2.859h3.101v0.415h-3.101v2.949H67.112z"/>
	<path fill="#444444" d="M74.397,64.177c0.032,0,0.063,0.012,0.085,0.035l0.199,0.215c-0.146,0.156-0.306,0.297-0.478,0.422
		c-0.173,0.125-0.36,0.231-0.565,0.32c-0.204,0.088-0.43,0.154-0.675,0.204c-0.245,0.049-0.514,0.072-0.808,0.072
		c-0.489,0-0.938-0.086-1.348-0.258c-0.408-0.171-0.76-0.415-1.054-0.729c-0.293-0.314-0.521-0.695-0.683-1.143
		c-0.161-0.446-0.242-0.942-0.242-1.489c0-0.537,0.083-1.025,0.25-1.471c0.167-0.444,0.399-0.824,0.699-1.143
		c0.301-0.319,0.66-0.565,1.08-0.74s0.884-0.262,1.391-0.262c0.482,0,0.912,0.074,1.285,0.225c0.373,0.151,0.713,0.362,1.02,0.635
		L74.4,59.297c-0.025,0.04-0.067,0.06-0.125,0.06c-0.04,0-0.104-0.037-0.194-0.109s-0.215-0.153-0.375-0.241
		c-0.16-0.089-0.359-0.169-0.599-0.243c-0.238-0.074-0.523-0.11-0.856-0.11c-0.428,0-0.816,0.073-1.172,0.221
		c-0.355,0.146-0.66,0.356-0.915,0.63c-0.255,0.272-0.454,0.606-0.599,1c-0.144,0.395-0.215,0.836-0.215,1.325
		c0,0.5,0.072,0.946,0.217,1.34c0.146,0.395,0.345,0.727,0.599,0.998c0.253,0.271,0.553,0.479,0.896,0.625
		c0.346,0.146,0.718,0.219,1.117,0.219c0.254,0,0.479-0.018,0.678-0.051c0.197-0.032,0.381-0.083,0.548-0.149
		c0.167-0.065,0.321-0.147,0.466-0.245c0.143-0.097,0.284-0.21,0.425-0.34c0.018-0.014,0.034-0.023,0.05-0.033
		C74.363,64.18,74.38,64.177,74.397,64.177z"/>
	<path fill="#444444" d="M82.055,65.365h-0.438c-0.066,0-0.122-0.015-0.165-0.045c-0.043-0.029-0.089-0.077-0.136-0.145l-2.324-2.87
		c-0.047-0.061-0.093-0.112-0.138-0.157s-0.096-0.082-0.149-0.109c-0.056-0.027-0.118-0.05-0.188-0.063
		c-0.069-0.013-0.151-0.021-0.244-0.021h-0.915v3.409h-0.516V58.29h0.516v3.266h0.814c0.083,0,0.159-0.005,0.229-0.016
		c0.067-0.011,0.134-0.026,0.194-0.053c0.063-0.023,0.121-0.061,0.179-0.105c0.058-0.047,0.114-0.107,0.175-0.181l2.221-2.75
		c0.033-0.047,0.073-0.085,0.12-0.114c0.046-0.03,0.1-0.046,0.159-0.046h0.415l-2.409,2.995c-0.086,0.112-0.179,0.203-0.275,0.271
		c-0.097,0.066-0.208,0.119-0.335,0.155c0.15,0.032,0.276,0.089,0.377,0.167c0.103,0.077,0.201,0.186,0.298,0.321L82.055,65.365z"/>
	<path fill="#444444" d="M89.492,58.29v7.074h-0.516v-5.81c0-0.106,0.002-0.216,0.007-0.328c0.005-0.111,0.015-0.229,0.026-0.347
		c-0.046,0.103-0.093,0.196-0.14,0.281c-0.046,0.085-0.094,0.165-0.141,0.237l-4.085,5.806c-0.026,0.043-0.062,0.081-0.104,0.112
		c-0.042,0.032-0.087,0.047-0.139,0.047H84.03V58.29h0.516v5.81c0,0.106-0.002,0.215-0.005,0.325
		c-0.003,0.109-0.013,0.223-0.025,0.34c0.043-0.101,0.089-0.192,0.136-0.277c0.046-0.085,0.094-0.164,0.141-0.237l4.09-5.8
		c0.027-0.044,0.061-0.081,0.101-0.111c0.04-0.031,0.085-0.049,0.136-0.049H89.492z"/>
	<path fill="#444444" d="M97.832,58.29v7.074h-0.516v-5.81c0-0.106,0.002-0.216,0.008-0.328c0.005-0.111,0.014-0.229,0.026-0.347
		c-0.047,0.103-0.094,0.196-0.141,0.281c-0.046,0.085-0.093,0.165-0.141,0.237l-4.085,5.806c-0.026,0.043-0.062,0.081-0.104,0.112
		c-0.042,0.032-0.087,0.047-0.138,0.047H92.37V58.29h0.515v5.81c0,0.106-0.002,0.215-0.005,0.325
		c-0.003,0.109-0.012,0.223-0.024,0.34c0.043-0.101,0.088-0.192,0.136-0.277c0.046-0.085,0.093-0.164,0.14-0.237l4.09-5.8
		c0.027-0.044,0.062-0.081,0.101-0.111c0.04-0.031,0.086-0.049,0.136-0.049H97.832z M95.082,57.507c0.3,0,0.517-0.075,0.649-0.227
		c0.134-0.148,0.199-0.394,0.199-0.729h0.271c0.036,0,0.065,0.016,0.087,0.047c0.021,0.032,0.032,0.071,0.032,0.118
		c0,0.319-0.104,0.571-0.311,0.757c-0.206,0.186-0.517,0.276-0.93,0.276s-0.725-0.092-0.934-0.276
		c-0.208-0.186-0.313-0.438-0.313-0.757c0-0.047,0.012-0.086,0.035-0.118c0.022-0.032,0.053-0.047,0.09-0.047h0.266
		c0,0.336,0.066,0.58,0.199,0.729C94.558,57.431,94.778,57.507,95.082,57.507z"/>
	<path fill="#444444" d="M109.357,65.365h-0.516v-6.664h-4.109v6.664h-0.516v-7.074h5.141V65.365z"/>
	<path fill="#444444" d="M118.527,61.825c0,0.547-0.082,1.042-0.244,1.486c-0.163,0.445-0.396,0.825-0.69,1.141
		c-0.297,0.314-0.651,0.56-1.066,0.729c-0.415,0.172-0.873,0.258-1.373,0.258s-0.957-0.086-1.369-0.258
		c-0.413-0.171-0.771-0.415-1.065-0.729c-0.297-0.314-0.526-0.694-0.689-1.141c-0.164-0.444-0.244-0.939-0.244-1.486
		c0-0.544,0.082-1.038,0.244-1.481c0.163-0.445,0.394-0.825,0.689-1.141c0.296-0.314,0.652-0.56,1.065-0.731
		c0.412-0.172,0.869-0.26,1.369-0.26s0.958,0.085,1.373,0.257s0.771,0.416,1.066,0.731c0.296,0.316,0.527,0.697,0.69,1.144
		C118.445,60.788,118.527,61.281,118.527,61.825z M117.996,61.825c0-0.493-0.068-0.938-0.205-1.33c-0.138-0.394-0.33-0.728-0.58-1
		s-0.55-0.481-0.899-0.627c-0.351-0.146-0.736-0.218-1.16-0.218c-0.42,0-0.806,0.072-1.154,0.218
		c-0.351,0.146-0.651,0.354-0.902,0.627c-0.251,0.272-0.446,0.606-0.585,1c-0.138,0.395-0.208,0.837-0.208,1.33
		c0,0.496,0.069,0.94,0.208,1.333c0.14,0.393,0.333,0.725,0.585,0.997c0.252,0.274,0.554,0.481,0.902,0.625
		c0.35,0.146,0.734,0.216,1.154,0.216c0.424,0,0.811-0.07,1.16-0.216c0.351-0.144,0.649-0.352,0.899-0.625
		c0.25-0.271,0.442-0.604,0.58-0.997C117.927,62.766,117.996,62.322,117.996,61.825z"/>
	<path fill="#444444" d="M122.777,58.29c0.83,0,1.456,0.183,1.877,0.546c0.422,0.361,0.633,0.881,0.633,1.555
		c0,0.311-0.059,0.595-0.176,0.854c-0.116,0.261-0.282,0.483-0.5,0.674c-0.217,0.188-0.479,0.335-0.79,0.438
		c-0.311,0.105-0.657,0.157-1.045,0.157h-1.314v2.85h-0.516V58.29H122.777z M122.777,62.106c0.311,0,0.589-0.043,0.835-0.13
		c0.247-0.086,0.456-0.207,0.627-0.36c0.173-0.151,0.304-0.334,0.396-0.542c0.093-0.208,0.139-0.436,0.139-0.683
		c0-0.543-0.167-0.961-0.5-1.255c-0.333-0.293-0.832-0.44-1.495-0.44h-1.314v3.41H122.777z"/>
	<path fill="#444444" d="M132.116,58.725h-2.485v6.64h-0.515v-6.64h-2.5V58.29h5.5V58.725z"/>
	<path fill="#444444" d="M138.781,65.365h-0.396c-0.046,0-0.085-0.013-0.114-0.037s-0.055-0.059-0.069-0.098l-0.83-2.055h-3.476
		l-0.83,2.055c-0.015,0.037-0.037,0.068-0.069,0.096c-0.033,0.026-0.073,0.039-0.12,0.039h-0.391l2.896-7.074h0.505L138.781,65.365z
		 M137.216,62.797l-1.439-3.575c-0.05-0.117-0.1-0.257-0.146-0.42c-0.021,0.08-0.042,0.155-0.064,0.228s-0.048,0.138-0.074,0.197
		l-1.44,3.57H137.216z"/>
	<path fill="#444444" d="M145.741,65.365h-0.516v-6.664h-2.846c-0.043,0.938-0.103,1.754-0.175,2.452
		c-0.073,0.699-0.161,1.297-0.264,1.795c-0.103,0.499-0.217,0.908-0.346,1.229c-0.128,0.319-0.27,0.571-0.425,0.757
		c-0.154,0.186-0.322,0.313-0.502,0.385c-0.181,0.071-0.37,0.107-0.57,0.107c-0.105,0-0.199-0.011-0.279-0.03
		c-0.08-0.019-0.119-0.048-0.119-0.085v-0.319h0.3c0.152,0,0.302-0.034,0.444-0.104c0.144-0.069,0.278-0.193,0.408-0.375
		c0.129-0.183,0.248-0.432,0.356-0.748c0.109-0.315,0.209-0.722,0.297-1.217s0.165-1.093,0.229-1.79
		c0.064-0.698,0.118-1.521,0.158-2.469h3.845v7.075H145.741z"/>
	<path fill="#444444" d="M156.996,58.29l-2.9,6.229c-0.075,0.167-0.158,0.309-0.247,0.423c-0.089,0.115-0.185,0.208-0.286,0.28
		c-0.104,0.072-0.218,0.124-0.339,0.155c-0.121,0.03-0.254,0.047-0.396,0.047c-0.106,0-0.2-0.011-0.28-0.03
		c-0.08-0.021-0.12-0.048-0.12-0.085v-0.32h0.307c0.198,0,0.378-0.053,0.534-0.157s0.292-0.278,0.404-0.521l0.431-0.925
		l-2.854-5.096h0.475c0.048,0,0.085,0.012,0.115,0.032c0.03,0.022,0.056,0.053,0.075,0.093l2.205,4.016
		c0.093,0.17,0.166,0.343,0.22,0.521c0.022-0.087,0.052-0.175,0.085-0.264c0.033-0.088,0.072-0.176,0.115-0.262l1.845-4.011
		c0.018-0.036,0.041-0.065,0.072-0.09c0.032-0.022,0.07-0.035,0.118-0.035H156.996z"/>
	<path fill="#444444" d="M163.281,58.29v7.074h-0.516v-3.358c-0.372,0.108-0.738,0.199-1.098,0.27
		c-0.357,0.07-0.697,0.111-1.019,0.125c-0.319,0.014-0.615-0.008-0.889-0.063c-0.271-0.057-0.506-0.154-0.701-0.299
		c-0.196-0.144-0.351-0.335-0.461-0.574c-0.109-0.24-0.164-0.539-0.164-0.896v-2.279h0.515v2.279c0,0.4,0.091,0.711,0.271,0.937
		c0.181,0.223,0.437,0.37,0.769,0.44c0.331,0.072,0.731,0.077,1.202,0.017c0.471-0.063,0.995-0.177,1.574-0.344v-3.33h0.516V58.29
		L163.281,58.29z"/>
	<path fill="#444444" d="M171.54,65.365h-0.396c-0.047,0-0.084-0.013-0.115-0.037c-0.028-0.024-0.053-0.059-0.069-0.098l-0.83-2.055
		h-3.475l-0.829,2.055c-0.015,0.037-0.037,0.068-0.07,0.096c-0.033,0.026-0.073,0.039-0.12,0.039h-0.39l2.895-7.074h0.507
		L171.54,65.365z M169.976,62.797l-1.439-3.575c-0.051-0.117-0.1-0.257-0.146-0.42c-0.02,0.08-0.041,0.155-0.063,0.228
		c-0.023,0.072-0.05,0.138-0.075,0.197l-1.438,3.57H169.976z"/>
	<path fill="#444444" d="M178.456,64.177c0.032,0,0.063,0.012,0.086,0.035l0.199,0.215c-0.146,0.156-0.308,0.297-0.479,0.422
		s-0.359,0.231-0.564,0.32c-0.204,0.088-0.43,0.154-0.674,0.204c-0.246,0.05-0.516,0.072-0.809,0.072
		c-0.49,0-0.939-0.086-1.348-0.258c-0.408-0.171-0.761-0.415-1.054-0.729s-0.521-0.695-0.684-1.143
		c-0.162-0.446-0.242-0.942-0.242-1.489c0-0.537,0.082-1.025,0.25-1.471c0.166-0.443,0.4-0.824,0.699-1.143
		c0.301-0.319,0.66-0.565,1.08-0.74s0.883-0.262,1.391-0.262c0.482,0,0.912,0.074,1.285,0.225c0.373,0.151,0.713,0.362,1.02,0.635
		l-0.153,0.227c-0.025,0.04-0.066,0.06-0.125,0.06c-0.039,0-0.104-0.037-0.195-0.109c-0.09-0.072-0.215-0.153-0.375-0.241
		c-0.158-0.089-0.356-0.169-0.598-0.243c-0.238-0.074-0.523-0.11-0.855-0.11c-0.428,0-0.817,0.073-1.174,0.221
		c-0.354,0.146-0.658,0.356-0.914,0.63c-0.256,0.272-0.455,0.606-0.598,1c-0.146,0.395-0.215,0.836-0.215,1.325
		c0,0.5,0.071,0.946,0.217,1.34c0.146,0.395,0.344,0.727,0.598,0.998s0.553,0.479,0.896,0.625s0.719,0.219,1.116,0.219
		c0.255,0,0.479-0.018,0.679-0.051c0.198-0.032,0.381-0.083,0.549-0.149c0.166-0.065,0.32-0.147,0.465-0.245
		c0.146-0.097,0.285-0.21,0.426-0.34c0.017-0.014,0.031-0.023,0.049-0.033C178.423,64.183,178.439,64.177,178.456,64.177z"/>
	<path fill="#444444" d="M185.501,58.725h-2.484v6.64h-0.516v-6.64h-2.5V58.29h5.5V58.725z"/>
	<path fill="#444444" d="M192.941,58.29v7.074h-0.516v-3.39h-4.43v3.39h-0.517V58.29h0.517v3.301h4.43V58.29H192.941z"/>
	<path fill="#444444" d="M201.281,58.29v7.074h-0.516v-5.81c0-0.106,0.004-0.216,0.008-0.328c0.006-0.111,0.017-0.229,0.027-0.347
		c-0.047,0.103-0.094,0.196-0.141,0.281c-0.048,0.085-0.093,0.165-0.14,0.237l-4.086,5.806c-0.027,0.043-0.061,0.081-0.104,0.112
		c-0.041,0.032-0.088,0.047-0.138,0.047h-0.375V58.29h0.515v5.81c0,0.106,0,0.215-0.004,0.325c-0.004,0.109-0.013,0.223-0.025,0.34
		c0.043-0.101,0.09-0.192,0.137-0.277s0.092-0.164,0.14-0.237l4.09-5.8c0.026-0.044,0.063-0.081,0.102-0.111
		c0.041-0.031,0.086-0.049,0.135-0.049H201.281z"/>
	<path fill="#444444" d="M209.376,65.365h-0.439c-0.065,0-0.121-0.015-0.164-0.045c-0.045-0.029-0.09-0.077-0.137-0.145l-2.324-2.87
		c-0.047-0.061-0.094-0.112-0.139-0.157s-0.094-0.082-0.148-0.109c-0.057-0.027-0.116-0.05-0.188-0.063
		c-0.068-0.013-0.15-0.021-0.244-0.021h-0.916v3.409h-0.514V58.29h0.514v3.266h0.816c0.082,0,0.157-0.005,0.227-0.016
		c0.068-0.011,0.135-0.026,0.195-0.053c0.063-0.023,0.121-0.061,0.178-0.105c0.057-0.047,0.115-0.107,0.176-0.181l2.221-2.75
		c0.033-0.047,0.072-0.085,0.119-0.114c0.047-0.03,0.101-0.046,0.16-0.046h0.414l-2.408,2.995c-0.088,0.112-0.18,0.203-0.274,0.271
		c-0.099,0.066-0.209,0.119-0.336,0.155c0.149,0.032,0.274,0.089,0.379,0.167c0.102,0.077,0.199,0.186,0.297,0.321L209.376,65.365z"
		/>
	<path fill="#444444" d="M217.251,61.825c0,0.547-0.082,1.042-0.246,1.486c-0.162,0.445-0.394,0.825-0.689,1.141
		c-0.295,0.314-0.651,0.56-1.065,0.729c-0.416,0.172-0.873,0.258-1.373,0.258s-0.957-0.086-1.369-0.258
		c-0.414-0.171-0.771-0.415-1.064-0.729c-0.297-0.314-0.526-0.694-0.688-1.141c-0.164-0.444-0.246-0.939-0.246-1.486
		c0-0.544,0.082-1.038,0.246-1.481c0.162-0.444,0.395-0.825,0.688-1.141c0.298-0.314,0.65-0.56,1.064-0.731
		c0.412-0.173,0.869-0.26,1.369-0.26s0.957,0.085,1.373,0.257c0.414,0.172,0.771,0.416,1.065,0.731
		c0.297,0.316,0.527,0.697,0.689,1.144C217.169,60.788,217.251,61.281,217.251,61.825z M216.72,61.825
		c0-0.493-0.068-0.938-0.205-1.33c-0.137-0.394-0.33-0.728-0.58-1s-0.551-0.481-0.897-0.627c-0.353-0.146-0.738-0.218-1.16-0.218
		c-0.42,0-0.806,0.072-1.156,0.218c-0.35,0.146-0.648,0.354-0.9,0.627c-0.252,0.272-0.446,0.606-0.586,1
		c-0.139,0.395-0.207,0.837-0.207,1.33c0,0.496,0.068,0.94,0.207,1.333c0.14,0.393,0.334,0.725,0.586,0.997
		c0.252,0.274,0.554,0.481,0.9,0.625c0.352,0.146,0.736,0.216,1.156,0.216c0.422,0,0.811-0.07,1.16-0.216
		c0.35-0.144,0.647-0.352,0.897-0.625c0.25-0.271,0.443-0.604,0.58-0.997S216.72,62.322,216.72,61.825z"/>
	<path fill="#444444" d="M221.706,58.29c0.401,0,0.752,0.04,1.049,0.12c0.297,0.079,0.543,0.197,0.736,0.354
		c0.19,0.155,0.336,0.344,0.43,0.566c0.094,0.225,0.141,0.478,0.141,0.761c0,0.187-0.033,0.366-0.098,0.54
		c-0.064,0.173-0.16,0.333-0.281,0.479c-0.121,0.146-0.27,0.274-0.449,0.383c-0.18,0.107-0.383,0.19-0.61,0.247
		c0.557,0.08,0.983,0.266,1.28,0.555c0.3,0.287,0.447,0.667,0.447,1.137c0,0.3-0.053,0.569-0.158,0.811
		c-0.106,0.239-0.264,0.442-0.467,0.609s-0.453,0.294-0.75,0.383c-0.297,0.088-0.633,0.133-1.01,0.133h-2.295V58.29H221.706
		L221.706,58.29z M220.185,58.696v2.905h1.529c0.328,0,0.604-0.042,0.838-0.125s0.422-0.192,0.57-0.33
		c0.147-0.136,0.258-0.292,0.328-0.465c0.067-0.173,0.104-0.353,0.104-0.535c0-0.477-0.15-0.837-0.451-1.083
		c-0.303-0.245-0.77-0.367-1.397-0.367H220.185z M221.96,64.955c0.621,0,1.09-0.135,1.408-0.401
		c0.317-0.269,0.477-0.646,0.477-1.132c0-0.226-0.041-0.425-0.127-0.604c-0.084-0.179-0.207-0.33-0.367-0.455
		c-0.158-0.125-0.354-0.221-0.59-0.287c-0.232-0.065-0.498-0.101-0.795-0.101h-1.779v2.979L221.96,64.955L221.96,64.955z"/>
	<path fill="#444444" d="M236.245,61.825c0,0.547-0.082,1.038-0.244,1.476c-0.164,0.436-0.396,0.808-0.689,1.114
		c-0.297,0.308-0.651,0.542-1.065,0.705c-0.416,0.164-0.873,0.244-1.373,0.244h-2.586V58.29h2.586c0.5,0,0.957,0.082,1.373,0.245
		c0.414,0.163,0.77,0.397,1.065,0.704c0.297,0.309,0.525,0.68,0.689,1.115C236.163,60.792,236.245,61.281,236.245,61.825z
		 M235.714,61.825c0-0.493-0.066-0.934-0.205-1.319c-0.137-0.388-0.328-0.714-0.578-0.98c-0.25-0.266-0.551-0.47-0.9-0.609
		c-0.35-0.141-0.735-0.21-1.159-0.21h-2.07v6.245h2.07c0.424,0,0.811-0.069,1.159-0.21c0.351-0.141,0.65-0.344,0.9-0.609
		c0.25-0.269,0.441-0.594,0.578-0.98C235.648,62.763,235.714,62.322,235.714,61.825z"/>
	<path fill="#444444" d="M239.191,65.365h-0.516v-7.074h0.516V65.365z"/>
	<path fill="#444444" d="M247.72,62.156v2.517c-0.354,0.25-0.729,0.439-1.131,0.574c-0.398,0.134-0.851,0.199-1.351,0.199
		c-0.561,0-1.063-0.086-1.51-0.258c-0.446-0.171-0.828-0.415-1.145-0.729c-0.314-0.314-0.558-0.695-0.726-1.143
		c-0.168-0.446-0.252-0.942-0.252-1.489s0.082-1.042,0.246-1.486c0.166-0.445,0.402-0.825,0.711-1.142
		c0.31-0.313,0.683-0.558,1.117-0.729c0.436-0.171,0.928-0.257,1.475-0.257c0.271,0,0.521,0.018,0.748,0.055
		c0.229,0.037,0.439,0.091,0.638,0.163c0.197,0.072,0.381,0.16,0.551,0.265c0.17,0.105,0.334,0.228,0.49,0.362l-0.142,0.22
		c-0.047,0.08-0.114,0.099-0.209,0.056c-0.051-0.021-0.123-0.065-0.217-0.141c-0.094-0.072-0.221-0.149-0.385-0.229
		c-0.164-0.08-0.365-0.152-0.605-0.216c-0.241-0.063-0.537-0.096-0.885-0.096c-0.459,0-0.875,0.073-1.246,0.221
		c-0.371,0.146-0.688,0.356-0.949,0.631c-0.264,0.271-0.465,0.605-0.604,1c-0.144,0.394-0.213,0.835-0.213,1.324
		c0,0.497,0.069,0.942,0.213,1.34c0.143,0.396,0.348,0.732,0.615,1.011c0.268,0.276,0.594,0.487,0.977,0.635
		c0.385,0.146,0.814,0.221,1.297,0.221c0.209,0,0.402-0.014,0.58-0.04c0.18-0.026,0.351-0.063,0.512-0.111
		c0.162-0.049,0.318-0.108,0.472-0.181c0.151-0.071,0.305-0.151,0.463-0.243v-1.904H245.9c-0.037,0-0.065-0.013-0.094-0.035
		c-0.022-0.022-0.035-0.05-0.035-0.08V62.16L247.72,62.156L247.72,62.156z"/>
	<path fill="#444444" d="M250.724,65.365h-0.514v-7.074h0.514V65.365z"/>
	<path fill="#444444" d="M258.204,58.725h-2.484v6.64h-0.516v-6.64h-2.5V58.29h5.5V58.725z"/>
	<path fill="#444444" d="M264.87,65.365h-0.396c-0.047,0-0.084-0.013-0.113-0.037c-0.03-0.024-0.055-0.059-0.069-0.098l-0.83-2.055
		h-3.476l-0.83,2.055c-0.016,0.037-0.036,0.068-0.069,0.096c-0.033,0.026-0.074,0.039-0.121,0.039h-0.389l2.895-7.074h0.506
		L264.87,65.365z M263.304,62.797l-1.439-3.575c-0.049-0.117-0.1-0.257-0.145-0.42c-0.021,0.08-0.043,0.155-0.064,0.228
		c-0.022,0.072-0.049,0.138-0.075,0.197l-1.439,3.57H263.304z"/>
	<path fill="#444444" d="M270.7,64.93v0.435h-3.865V58.29h0.516v6.641L270.7,64.93L270.7,64.93z"/>
	<path fill="#444444" d="M277.724,58.29c0.83,0,1.457,0.183,1.879,0.546c0.422,0.361,0.633,0.881,0.633,1.555
		c0,0.311-0.061,0.595-0.176,0.854c-0.115,0.261-0.283,0.483-0.5,0.674c-0.217,0.188-0.479,0.335-0.789,0.438
		c-0.311,0.105-0.658,0.157-1.047,0.157h-1.313v2.85h-0.515V58.29H277.724z M277.724,62.106c0.312,0,0.59-0.043,0.836-0.13
		c0.246-0.086,0.455-0.207,0.629-0.36c0.17-0.151,0.304-0.334,0.396-0.542s0.137-0.436,0.137-0.683c0-0.543-0.166-0.961-0.5-1.255
		c-0.332-0.294-0.832-0.44-1.494-0.44h-1.313v3.41H277.724z"/>
	<path fill="#444444" d="M284.634,61.491c0.395,0,0.736,0.042,1.031,0.127c0.297,0.085,0.541,0.208,0.733,0.369
		c0.195,0.162,0.343,0.357,0.439,0.588c0.096,0.229,0.145,0.489,0.145,0.779c0,0.311-0.053,0.589-0.155,0.837
		c-0.105,0.248-0.259,0.459-0.457,0.632c-0.201,0.174-0.447,0.309-0.74,0.4s-0.629,0.14-1.006,0.14h-2.16v-7.074h0.516v3.199h1.654
		V61.491L284.634,61.491z M284.624,64.955c0.621,0,1.084-0.138,1.391-0.411c0.307-0.275,0.459-0.656,0.459-1.145
		c0-0.497-0.149-0.871-0.455-1.123c-0.303-0.252-0.764-0.377-1.385-0.377h-1.654v3.056H284.624z M289.124,65.365h-0.517v-7.074
		h0.517V65.365z"/>
	<path fill="#444444" d="M297.468,58.29v7.074h-0.514v-3.39h-4.433v3.39h-0.516V58.29h0.516v3.301h4.433V58.29H297.468z"/>
	<path fill="#444444" d="M305.564,65.365h-0.438c-0.066,0-0.121-0.015-0.164-0.045c-0.046-0.029-0.091-0.077-0.138-0.145
		l-2.323-2.87c-0.048-0.061-0.093-0.112-0.138-0.157c-0.047-0.045-0.096-0.082-0.149-0.109c-0.056-0.027-0.117-0.05-0.189-0.063
		c-0.068-0.013-0.15-0.021-0.244-0.021h-0.914v3.409h-0.516V58.29h0.516v3.266h0.814c0.082,0,0.158-0.005,0.229-0.016
		c0.066-0.011,0.134-0.026,0.193-0.053c0.063-0.023,0.121-0.061,0.178-0.105c0.058-0.047,0.115-0.107,0.176-0.181l2.222-2.75
		c0.033-0.047,0.071-0.085,0.119-0.114c0.047-0.03,0.1-0.046,0.159-0.046h0.416l-2.409,2.995c-0.089,0.112-0.181,0.203-0.275,0.271
		c-0.098,0.066-0.209,0.119-0.336,0.155c0.15,0.032,0.275,0.089,0.379,0.167c0.102,0.077,0.199,0.186,0.297,0.321L305.564,65.365z"
		/>
	<path fill="#444444" d="M312.914,65.365h-0.396c-0.047,0-0.084-0.013-0.113-0.037c-0.03-0.024-0.055-0.059-0.069-0.098l-0.83-2.055
		h-3.476l-0.83,2.055c-0.016,0.037-0.037,0.068-0.069,0.096c-0.033,0.026-0.074,0.039-0.121,0.039h-0.39l2.896-7.074h0.506
		L312.914,65.365z M311.349,62.797l-1.439-3.575c-0.049-0.117-0.1-0.257-0.146-0.42c-0.021,0.08-0.041,0.155-0.063,0.228
		s-0.051,0.138-0.075,0.197l-1.439,3.57H311.349z"/>
</g>
<rect x="-124" y="-319.641" fill="none" width="595.274" height="841.891"/>
<rect x="0" y="0" fill="#C1272D" width="125.809" height="49.979"/>
<path fill="#FFFFFF" d="M87.448,32.687l10.827-1.873c0.913,2.942,3.251,4.413,7.017,4.413c2.937,0,4.399-0.749,4.399-2.248
	c0-0.786-0.332-1.396-1.017-1.836c-0.675-0.438-1.882-0.823-3.631-1.161c-6.663-1.231-10.941-2.841-12.832-4.813
	c-1.902-1.983-2.844-4.313-2.844-6.99c0-3.444,1.359-6.314,4.077-8.598c2.721-2.284,6.637-3.428,11.74-3.428
	c7.737,0,12.852,2.997,15.342,8.974l-9.667,2.813c-0.999-2.447-3.032-3.673-6.094-3.673c-2.547,0-3.821,0.759-3.821,2.276
	c0,0.675,0.296,1.205,0.865,1.58c0.58,0.374,1.692,0.729,3.346,1.067c4.545,0.934,7.776,1.754,9.688,2.468
	c1.921,0.714,3.518,1.929,4.791,3.654c1.284,1.717,1.92,3.745,1.92,6.085c0,3.691-1.559,6.688-4.676,8.981
	c-3.118,2.293-7.216,3.442-12.282,3.442C95.338,43.823,89.615,40.106,87.448,32.687 M84.739,6.719v36.538H73.911V17.135
	l-7.054,26.122h-7.404l-7.291-26.122v26.122h-8.744V6.719h15.228l5.514,19.407l5.267-19.407H84.739z M28.485,29.315l10.666,0.612
	c-0.505,4.477-2.225,7.912-5.172,10.307c-2.937,2.396-6.549,3.59-10.846,3.59c-5.161,0-9.325-1.644-12.5-4.934
	C7.459,35.61,5.87,31.08,5.87,25.296c0-5.729,1.503-10.354,4.516-13.86c3.004-3.517,7.196-5.281,12.586-5.281
	c5.028,0,8.896,1.345,11.597,4.021c2.699,2.677,4.23,6.229,4.582,10.653l-10.894,0.557c0-2.44-0.485-4.203-1.455-5.299
	c-0.979-1.088-2.129-1.627-3.441-1.627c-3.678,0-5.513,3.545-5.513,10.651c0,3.977,0.476,6.682,1.436,8.104
	c0.95,1.435,2.291,2.146,4.021,2.146C26.384,35.363,28.114,33.344,28.485,29.315"/>
<path fill="#6D6E71" d="M304.362,32.046c-0.014-1.34-0.28-2.24-0.808-2.707c-0.526-0.46-1.188-0.693-1.968-0.693
	c-1.848,0-2.772,1.133-2.772,3.4H304.362z M304.866,37.206l7.269,0.485c-0.429,1.953-1.526,3.613-3.286,4.986
	c-1.769,1.38-4.153,2.067-7.16,2.067c-3.347,0-6.021-0.969-8.007-2.907c-1.993-1.935-2.993-4.327-2.993-7.193
	c0-2.967,0.985-5.474,2.953-7.52c1.967-2.047,4.587-3.067,7.867-3.067c3.18,0,5.745,0.967,7.705,2.894
	c1.96,1.928,2.939,4.548,2.939,7.866c0,0.273-0.007,0.653-0.021,1.134h-13.302c0.027,1.255,0.247,2.181,0.667,2.786
	c0.413,0.602,1.206,0.907,2.381,0.907C303.573,39.645,304.569,38.833,304.866,37.206 M287.649,44.333h-7.793v-12.5
	c0-1.027-0.16-1.688-0.479-1.976c-0.32-0.287-0.722-0.427-1.2-0.427c-1.42,0-2.126,0.987-2.126,2.967v11.936h-7.794V24.465h7.227
	v2.813c1.067-2.146,2.975-3.22,5.722-3.22c1.445,0,2.666,0.274,3.659,0.827c1,0.553,1.714,1.271,2.141,2.153
	c0.434,0.88,0.646,2.405,0.646,4.579L287.649,44.333L287.649,44.333z M264.155,44.333h-7.794V24.465h7.794V44.333z M264.155,23.006
	h-7.794v-6.173h7.794V23.006z M253.649,39.392v4.94h-17.521v-4.314l8.374-10.766c-1,0.04-1.683,0.06-2.027,0.06h-5.666v-4.848
	h16.526v4.18l-8.563,10.786l1.04-0.02c0.207-0.015,0.396-0.021,0.567-0.021L253.649,39.392L253.649,39.392z M225.988,35.031
	c-3.318,0.354-4.979,1.413-4.979,3.188c0,1.2,0.652,1.8,1.967,1.8c0.834,0,1.547-0.253,2.134-0.746
	c0.587-0.494,0.881-1.587,0.881-3.28L225.988,35.031L225.988,35.031z M234.074,44.333h-7.428c-0.181-0.849-0.271-1.774-0.271-2.774
	c-1.407,2.12-3.533,3.188-6.389,3.188c-2.34,0-4.094-0.602-5.26-1.802c-1.167-1.198-1.754-2.571-1.754-4.119
	c0-2.101,0.96-3.793,2.867-5.088c1.906-1.3,5.286-2.071,10.146-2.333v-0.453c0-0.872-0.199-1.452-0.601-1.738
	c-0.394-0.287-0.979-0.427-1.746-0.427c-1.793,0-2.8,0.72-3.007,2.166l-7.107-0.659c1.017-4.154,4.469-6.234,10.367-6.234
	c1.602,0,3.073,0.16,4.414,0.48c1.34,0.318,2.406,0.813,3.188,1.493c0.779,0.674,1.308,1.394,1.572,2.146
	c0.268,0.753,0.4,2.207,0.4,4.353v7.936C233.469,41.97,233.668,43.264,234.074,44.333 M198.582,44.078
	c-0.287-0.015-0.573-0.021-0.86-0.021c-1.34,0-2.007,0.413-2.007,1.247c0,0.773,0.507,1.266,1.533,1.487
	c1.021,0.219,2.387,0.333,4.087,0.333c1.619,0,2.651-0.143,3.119-0.413c0.461-0.274,0.692-0.647,0.692-1.134
	c0-0.333-0.104-0.62-0.313-0.848c-0.208-0.227-0.707-0.358-1.486-0.398L198.582,44.078z M200.574,32.793
	c1.514,0,2.268-0.809,2.268-2.407c0-1.64-0.773-2.46-2.327-2.46c-1.533,0-2.3,0.833-2.3,2.5
	C198.215,31.999,199.002,32.793,200.574,32.793 M211.982,19.959l-0.191,5.334l-0.373-0.021c-0.7-0.04-1.207-0.06-1.5-0.06
	c-1.214,0-1.94,0.24-2.193,0.719c1.486,1.228,2.228,2.707,2.228,4.434c0,2.033-0.801,3.562-2.405,4.58
	c-1.613,1.027-3.794,1.533-6.555,1.533c-0.065,0-0.405-0.013-1.021-0.04c-0.573-0.024-0.873-0.033-0.894-0.033
	c-1.268,0-1.899,0.32-1.899,0.975c0,0.574,0.562,0.88,1.681,0.92l6.387,0.271c2.334,0.102,4.04,0.755,5.127,1.954
	c1.088,1.193,1.635,2.594,1.635,4.2c0,1.9-0.813,3.453-2.436,4.654c-1.619,1.206-4.771,1.806-9.46,1.806
	c-7.227,0-10.84-1.66-10.84-4.979c0-1.809,0.953-3.074,2.873-3.787c-1.239-0.873-1.859-1.907-1.859-3.106
	c0-1.953,1.272-3.427,3.813-4.414c-2.127-0.927-3.188-2.46-3.188-4.604c0-1.968,0.859-3.5,2.579-4.596
	c1.715-1.093,4.073-1.64,7.066-1.64c1.367,0,2.613,0.134,3.732,0.407c0.454-3.107,2.102-4.667,4.939-4.667
	C209.882,19.798,210.795,19.852,211.982,19.959 M179.755,35.031c-3.32,0.354-4.98,1.413-4.98,3.188c0,1.2,0.653,1.8,1.968,1.8
	c0.834,0,1.547-0.253,2.135-0.746c0.587-0.494,0.88-1.587,0.88-3.28L179.755,35.031L179.755,35.031z M187.842,44.333h-7.427
	c-0.183-0.849-0.273-1.774-0.273-2.774c-1.407,2.12-3.533,3.188-6.387,3.188c-2.34,0-4.095-0.602-5.261-1.802
	c-1.167-1.198-1.754-2.571-1.754-4.119c0-2.101,0.96-3.793,2.866-5.088c1.906-1.3,5.286-2.071,10.146-2.333v-0.453
	c0-0.872-0.2-1.452-0.602-1.738c-0.394-0.287-0.979-0.427-1.747-0.427c-1.793,0-2.8,0.72-3.006,2.166l-7.105-0.659
	c1.014-4.154,4.467-6.234,10.365-6.234c1.602,0,3.072,0.16,4.413,0.48c1.342,0.318,2.406,0.813,3.188,1.493
	c0.78,0.674,1.307,1.394,1.573,2.146c0.266,0.753,0.399,2.207,0.399,4.353v7.936C187.237,41.97,187.435,43.264,187.842,44.333
	 M163.695,44.333h-7.561v-12.42c0-0.834-0.12-1.421-0.36-1.747c-0.239-0.333-0.666-0.5-1.279-0.5c-1.452,0-2.187,1.06-2.187,3.18
	v11.487h-7.479v-12.42c0-1.596-0.613-2.389-1.834-2.389c-1.267,0-1.894,0.793-1.894,2.389v12.42h-7.5V24.465h6.987v2.68
	c1.253-2.06,3.064-3.087,5.453-3.087c2.565,0,4.426,1.027,5.587,3.087c1.285-2.06,3.266-3.087,5.933-3.087
	c1.28,0,2.4,0.268,3.374,0.8c0.967,0.534,1.673,1.222,2.106,2.062c0.438,0.84,0.651,2.14,0.651,3.898L163.695,44.333L163.695,44.333
	z"/>
</svg>
