<svg width="80" height="80" viewBox="0 0 80 80" fill="none" xmlns="http://www.w3.org/2000/svg">
<path d="M67.7782 68.889H56.6671V37.7779C56.6671 37.1885 56.9012 36.6233 57.318 36.2065C57.7347 35.7898 58.3 35.5557 58.8893 35.5557H65.556C66.1454 35.5557 66.7106 35.7898 67.1273 36.2065C67.5441 36.6233 67.7782 37.1885 67.7782 37.7779V68.889ZM45.556 68.889H34.4449V44.4446C34.4449 43.8552 34.679 43.29 35.0958 42.8732C35.5125 42.4565 36.0777 42.2223 36.6671 42.2223H43.3338C43.9231 42.2223 44.4884 42.4565 44.9051 42.8732C45.3219 43.29 45.556 43.8552 45.556 44.4446V68.889ZM23.3338 68.889H12.2227V51.1112C12.2227 50.5218 12.4568 49.9566 12.8735 49.5399C13.2903 49.1231 13.8555 48.889 14.4449 48.889H21.1115C21.7009 48.889 22.2661 49.1231 22.6829 49.5399C23.0996 49.9566 23.3338 50.5218 23.3338 51.1112V68.889Z" stroke="#D9D9D9" stroke-width="2" stroke-linecap="round" stroke-linejoin="round"/>
<path d="M14.4023 37.9555L65.5135 14.7111M65.5135 14.7111L55.9579 11.1111M65.5135 14.7111L61.9579 24.2666" stroke="#6657C2" stroke-width="2" stroke-linecap="round" stroke-linejoin="round"/>
</svg>
