<svg width="96" height="96" viewBox="0 0 96 96" fill="none" xmlns="http://www.w3.org/2000/svg">
<path d="M52.7601 34.7521C55.3594 35.9931 57.6229 37.8398 59.3605 40.1371C61.0981 42.4343 62.2591 45.115 62.7458 47.9539C63.2326 50.7929 63.0309 53.7072 62.1578 56.452C61.2847 59.1969 59.7656 61.6921 57.7281 63.7281L39.7281 81.7281C36.3524 85.1038 31.774 87.0002 27.0001 87.0002C22.2262 87.0002 17.6478 85.1038 14.2721 81.7281C10.8964 78.3524 9 73.774 9 69.0001C9 64.2262 10.8964 59.6478 14.2721 56.2721L21.3001 49.2441M74.7001 46.7561L81.7281 39.7281C85.1038 36.3524 87.0002 31.774 87.0002 27.0001C87.0002 22.2262 85.1038 17.6478 81.7281 14.2721C78.3524 10.8964 73.774 9 69.0001 9C64.2262 9 59.6478 10.8964 56.2721 14.2721L38.2721 32.2721C36.2347 34.3081 34.7156 36.8034 33.8424 39.5482C32.9693 42.293 32.7677 45.2073 33.2544 48.0463C33.7411 50.8852 34.9021 53.5659 36.6397 55.8632C38.3773 58.1604 40.6408 60.0071 43.2401 61.2481" stroke="#6657C2" stroke-width="2" stroke-linecap="round" stroke-linejoin="round"/>
<path d="M32.5 24L31 11M22 31L11 29.5" stroke="#D9D9D9" stroke-width="2" stroke-linecap="round"/>
<path d="M63 72L64.5349 85M73.7442 65L85 66.5" stroke="#D9D9D9" stroke-width="2" stroke-linecap="round"/>
</svg>
