<svg width="74" height="59" viewBox="0 0 74 59" fill="none" xmlns="http://www.w3.org/2000/svg">
<g clip-path="url(#clip0)">
<path d="M4.34876 27.7697C4.62141 27.8246 4.89151 27.8494 5.15736 27.8494C6.56434 27.8494 7.85283 27.1576 8.70772 26.5558C9.05001 27.4393 9.46025 28.3056 9.93548 29.1417C10.107 29.4433 10.285 29.7374 10.4697 30.0239C10.2548 30.0151 10.037 30.0217 9.81699 30.0461C6.79791 30.3787 4.84012 33.8955 4.75816 34.0452C4.52628 34.4686 4.58021 34.9992 4.89151 35.3623C4.99598 35.4841 7.35425 38.1972 10.1703 38.1972C10.3253 38.1972 10.482 38.1888 10.6396 38.1715C12.8552 37.9275 14.4996 35.9677 15.25 34.8836C16.3295 35.5669 17.4698 36.0696 18.6381 36.3646C18.7239 36.3863 18.8101 36.3964 18.8946 36.3964C19.3851 36.3964 19.8302 36.0479 19.9504 35.5289C20.0914 34.9203 19.7329 34.3079 19.1494 34.1604C16.3057 33.4434 13.629 31.1927 11.8058 27.9858C10.0693 24.9313 9.32181 21.4446 9.73205 18.3591C10.7882 17.6491 13.0994 15.8183 13.4349 13.2124C13.8625 9.88955 10.8736 6.89926 10.7462 6.77393C10.4065 6.43911 9.89938 6.36825 9.48701 6.59766C9.33243 6.68358 5.69289 8.74604 5.26523 12.0685C4.92463 14.7133 6.7495 17.1483 7.57211 18.0942C7.44131 19.1062 7.41583 20.1527 7.491 21.2107C6.97543 20.8339 6.38215 20.5354 5.71242 20.4003C3.05305 19.8644 0.591586 22.1948 0.319788 22.4623C-0.0203833 22.7967 -0.117211 23.3206 0.0789927 23.763C0.235701 24.1169 1.68854 27.2343 4.34876 27.7697ZM10.4111 35.9168C9.21691 36.0479 7.9161 35.1648 7.11473 34.4518C7.756 33.5793 8.85126 32.4327 10.0455 32.3012C11.2388 32.1701 12.5375 33.051 13.3389 33.7631C12.7516 34.5669 11.6703 35.7782 10.4111 35.9168ZM7.4205 12.3701C7.59887 10.983 8.87801 9.75181 9.81104 9.06049C10.5368 9.98521 11.4584 11.5238 11.28 12.9104C11.1017 14.2957 9.82591 15.5251 8.8933 16.2178C8.22995 15.3759 7.23194 13.8342 7.4205 12.3701ZM5.30048 22.6266C6.26451 22.8206 7.09264 23.8126 7.59122 24.5996C6.85227 25.1315 5.72219 25.736 4.76071 25.5434C3.79625 25.349 2.96812 24.3569 2.46954 23.5699C3.21401 23.0323 4.33602 22.4322 5.30048 22.6266Z" fill="black"/>
<path d="M54.6674 36.3964C54.7519 36.3964 54.8381 36.3863 54.9239 36.3646C56.0921 36.0696 57.2324 35.5669 58.3119 34.8836C59.0623 35.9677 60.7066 37.9275 62.9221 38.1715C63.0797 38.1888 63.2364 38.1972 63.3914 38.1972C66.2074 38.1972 68.5656 35.4841 68.67 35.3623C68.9813 34.9992 69.0353 34.4686 68.8034 34.0452C68.7214 33.8955 66.7633 30.3787 63.7447 30.0461C63.5247 30.0222 63.3069 30.0155 63.0916 30.0244C63.2763 29.7378 63.4547 29.4433 63.6262 29.1417C64.1014 28.3056 64.5117 27.4393 64.854 26.5558C65.7088 27.1576 66.9973 27.8494 68.4042 27.8494C68.67 27.8494 68.9406 27.8246 69.2128 27.7697C71.8729 27.2343 73.3257 24.1169 73.4824 23.763C73.679 23.3206 73.5818 22.7971 73.2421 22.4623C72.9698 22.1952 70.5089 19.864 67.8492 20.4003C67.179 20.5354 66.5858 20.8339 66.0706 21.2107C66.1458 20.1523 66.1199 19.1062 65.9891 18.0942C66.8117 17.1478 68.6365 14.7133 68.2963 12.0685C67.8687 8.7456 64.2288 6.68358 64.0743 6.59766C63.6619 6.36825 63.1548 6.43911 62.8151 6.77393C62.6877 6.89926 59.6989 9.88955 60.1265 13.2124C60.462 15.8183 62.7735 17.6487 63.8292 18.3586C64.2395 21.4446 63.492 24.9309 61.7556 27.9854C59.9324 31.1927 57.2562 33.4429 54.4126 34.1604C53.8291 34.3079 53.4702 34.9203 53.6112 35.5289C53.7318 36.0479 54.1769 36.3964 54.6674 36.3964ZM68.2611 22.6266C69.2255 22.4326 70.3479 23.0318 71.0915 23.5695C70.5951 24.3494 69.7623 25.3498 68.8008 25.5434C67.8368 25.7374 66.714 25.1381 65.9704 24.6009C66.4669 23.8206 67.2996 22.8201 68.2611 22.6266ZM63.5167 32.3012C64.7113 32.4327 65.8061 33.5798 66.4469 34.4513C65.6451 35.1653 64.3439 36.0479 63.1506 35.9168C61.956 35.7853 60.8608 34.6378 60.2199 33.7662C61.0217 33.0523 62.3225 32.1697 63.5167 32.3012ZM62.2817 12.9104C62.1034 11.5233 63.0253 9.98432 63.7507 9.06049C64.6845 9.7527 65.9628 10.9834 66.1416 12.3701C66.3199 13.7554 65.4005 15.2922 64.6756 16.2164C63.8233 15.5871 62.4703 14.3745 62.2817 12.9104Z" fill="black"/>
<path d="M65.34 40.3867C65.139 40.0244 64.7689 39.8018 64.3686 39.8018H41.3517C31.2157 39.8018 36.7247 39.8018 31.2157 39.8018H9.08073C8.6804 39.8018 8.31035 40.0244 8.10931 40.3867C7.90826 40.7484 7.90607 41.1951 8.10404 41.5587L11.2316 47.3025L8.10448 53.0464C7.90607 53.41 7.90826 53.8567 8.10931 54.2184C8.31035 54.5807 8.68083 54.8033 9.08073 54.8033H64.3686C64.7689 54.8033 65.139 54.5807 65.34 54.2184C65.5411 53.8567 65.5433 53.41 65.3453 53.0464L62.2177 47.3025L65.3453 41.5587C65.5433 41.1951 65.5411 40.7484 65.34 40.3867ZM13.5015 47.8842C13.6977 47.5238 13.6977 47.0817 13.5015 46.7209L11.0139 42.1524H19.6838V52.4527H11.0139L13.5015 47.8842ZM21.9313 48.4778H28.0561C28.6763 48.4778 29.1798 47.9517 29.1798 47.3025C29.1798 46.6534 28.6763 46.1273 28.0561 46.1273H21.9313V42.1524H51.5181V46.1273H44.928C44.3073 46.1273 43.8042 46.6534 43.8042 47.3025C43.8042 47.9517 44.3073 48.4778 44.928 48.4778H51.5181V52.4527H21.9313V48.4778ZM59.9478 46.7209C59.7516 47.0817 59.7516 47.5238 59.9478 47.8842L62.4354 52.4527H53.7655V42.1524H62.4354L59.9478 46.7209Z" fill="black"/>
<g clip-path="url(#clip1)">
<path d="M40.479 46.6181C40.4654 46.5434 40.403 46.4894 40.3304 46.4894H36.8057C36.7221 46.4894 36.6544 46.5602 36.6544 46.6476V48.1659C36.6544 48.2532 36.7221 48.324 36.8057 48.324H38.5364C38.361 48.6854 38.0877 48.9905 37.7503 49.1975C37.441 49.3874 37.0864 49.4878 36.725 49.4878C35.883 49.4878 35.1189 48.934 34.8235 48.1096C34.7382 47.8721 34.6949 47.6214 34.6949 47.3645C34.6949 47.1283 34.7318 46.8961 34.8044 46.6745C35.0861 45.8172 35.8579 45.2413 36.725 45.2413C37.106 45.2413 37.4772 45.3523 37.7983 45.5622C37.8533 45.5982 37.9241 45.5935 37.9743 45.5505L39.163 44.5326C39.198 44.5027 39.2183 44.458 39.2185 44.4108C39.2186 44.3636 39.1986 44.3187 39.1638 44.2886C38.4806 43.6953 37.6145 43.3685 36.725 43.3685C34.6183 43.3685 32.9043 45.1611 32.9043 47.3645C32.9043 48.0255 33.0618 48.6804 33.3597 49.2584C34.0282 50.555 35.3177 51.3606 36.725 51.3606C37.6056 51.3606 38.465 51.0397 39.1449 50.4571C39.8153 49.8826 40.2832 49.0805 40.4621 48.1988C40.5176 47.9264 40.5457 47.6457 40.5457 47.3645C40.5457 47.1133 40.5233 46.8622 40.479 46.6181Z" fill="black"/>
</g>
<path d="M28.3717 40.6654V14.7901L18.6626 16.3697V20.2058L24.2004 19.228V40.6654H28.3717Z" fill="black"/>
<path d="M50.5779 25.0575C50.5779 17.9116 46.6583 14.7524 41.9116 14.7524C37.129 14.7524 33.2453 17.9116 33.2453 25.0575V30.8117C33.2453 37.9576 37.1649 41.1544 41.9116 41.1544C46.6223 41.1544 50.5779 37.9576 50.5779 30.8117V25.0575ZM46.3706 30.8117C46.3706 35.5881 44.5007 37.3558 41.9116 37.3558C39.3225 37.3558 37.4526 35.5881 37.4526 30.8117V25.0575C37.4526 20.281 39.3585 18.551 41.9116 18.551C44.4647 18.551 46.3706 20.281 46.3706 25.0575V30.8117Z" fill="black"/>
</g>
<defs>
<clipPath id="clip0">
<rect width="74" height="59" fill="white"/>
</clipPath>
<clipPath id="clip1">
<rect x="32.9043" y="43.3685" width="7.64142" height="7.99203" fill="white"/>
</clipPath>
</defs>
</svg>
