<svg width="59" height="59" viewBox="0 0 59 59" fill="none" xmlns="http://www.w3.org/2000/svg">
<path d="M30.4219 15.6719H24.8906C24.6461 15.6719 24.4116 15.769 24.2388 15.9419C24.0659 16.1148 23.9688 16.3493 23.9688 16.5938V18.4375C23.9688 18.682 24.066 18.9164 24.2389 19.0893L25.8125 20.6629V23.9688C25.8125 24.2132 25.9096 24.4477 26.0825 24.6206C26.2554 24.7935 26.4899 24.8906 26.7344 24.8906H28.5781C28.8226 24.8906 29.057 24.7934 29.2299 24.6205L31.0736 22.7768C31.2465 22.6039 31.3437 22.3695 31.3437 22.125V16.5938C31.3437 16.3493 31.2466 16.1148 31.0737 15.9419C30.9009 15.769 30.6664 15.6719 30.4219 15.6719ZM29.5 21.7433L28.1965 23.0469H27.6562V20.2813C27.6562 20.0368 27.559 19.8023 27.3861 19.6295L25.8125 18.0558V17.5156H29.5V21.7433Z" fill="black"/>
<path d="M56.2343 35.9531H45.0999C47.0239 32.4446 48.0007 28.4954 47.9341 24.4945C47.8676 20.4936 46.7599 16.5791 44.7202 13.1365C42.6805 9.69393 39.7792 6.8421 36.3021 4.86192C32.825 2.88173 28.892 1.84152 24.8905 1.84375C24.5669 1.84375 24.2544 1.85297 23.929 1.86311C19.5149 2.04829 15.2471 3.49829 11.6338 6.0404C8.02045 8.58251 5.21394 12.1096 3.54848 16.2016C1.88302 20.2936 1.42879 24.7781 2.2399 29.121C3.05101 33.4639 5.09327 37.4821 8.12346 40.6971C12.2413 45.0899 17.9236 47.6841 23.9401 47.9181C24.2544 47.9283 24.5669 47.9375 24.8905 47.9375C25.8529 47.9387 26.8143 47.8771 27.7686 47.7531C30.2952 47.4422 32.7508 46.7054 35.0311 45.5738V56.2344C35.0311 56.4789 35.1283 56.7134 35.3012 56.8862C35.474 57.0591 35.7085 57.1563 35.953 57.1563H56.2343C56.4788 57.1563 56.7132 57.0591 56.8861 56.8862C57.059 56.7134 57.1561 56.4789 57.1561 56.2344V36.875C57.1561 36.6305 57.059 36.396 56.8861 36.2231C56.7132 36.0503 56.4788 35.9531 56.2343 35.9531ZM55.3124 41.4844H49.7811V37.7969H55.3124V41.4844ZM42.4061 41.4844H36.8749V37.7969H42.4061V41.4844ZM44.2499 37.7969H47.9374V44.3708L46.6053 43.483C46.4538 43.3819 46.2758 43.328 46.0936 43.328C45.9115 43.328 45.7335 43.3819 45.582 43.483L44.2499 44.3708V37.7969ZM46.0936 24.8906C46.0932 28.798 45.0061 32.6282 42.9537 35.9531H40.0222L39.6405 35.5715V31.3438C39.6405 31.0993 39.5433 30.8648 39.3704 30.692L35.953 27.2746V24.3504L37.5267 22.7768C37.6996 22.6039 37.7967 22.3695 37.7968 22.125V16.5938C37.7967 16.3493 37.6996 16.1148 37.5267 15.942L32.9173 11.3326C32.7444 11.1597 32.51 11.0626 32.2655 11.0625H28.0378L24.8905 7.91522V3.6875C30.512 3.69385 35.9014 5.92978 39.8764 9.90476C43.8514 13.8797 46.0873 19.2692 46.0936 24.8906ZM3.68739 24.8906C3.68642 20.7997 4.87035 16.7961 7.0961 13.3636C9.32185 9.93118 12.4941 7.21687 16.2295 5.54877L18.4374 7.75666V10.6808L15.02 14.0982C14.8471 14.2711 14.7499 14.5055 14.7499 14.75V18.0558L11.6026 21.2031H9.21864C8.97415 21.2031 8.73966 21.3003 8.56678 21.4731C8.39389 21.646 8.29677 21.8805 8.29677 22.125V24.8906C8.29682 25.1351 8.39398 25.3696 8.56688 25.5424L12.9061 29.8817V31.884L10.4106 34.3795C10.2377 34.5523 10.1406 34.7868 10.1405 35.0313V37.4152L8.84989 38.7058C5.52363 34.8715 3.69081 29.9667 3.68739 24.8906ZM22.1249 36.875H18.819L17.5155 35.5715V33.5692L20.6628 30.4219H27.2745L31.3436 34.491V37.4152L29.77 38.9889C29.5971 39.1617 29.4999 39.3962 29.4999 39.6406V42.9465L27.0044 45.442C26.8564 45.5957 26.7667 45.7962 26.7509 46.0089C26.1415 46.0606 25.51 46.0864 24.8905 46.0882V43.3281C24.8905 43.0837 24.7933 42.8492 24.6204 42.6764L23.0468 41.1027V37.7969C23.0468 37.5524 22.9496 37.3179 22.7768 37.145C22.6039 36.9721 22.3694 36.875 22.1249 36.875ZM29.463 45.5904L31.0735 43.9799C31.2464 43.8071 31.3436 43.5726 31.3436 43.3281V40.0223L32.9173 38.4486C33.0902 38.2758 33.1873 38.0414 33.1874 37.7969V34.1094C33.1873 33.8649 33.0902 33.6305 32.9173 33.4576L28.3079 28.8482C28.1351 28.6753 27.9006 28.5782 27.6561 28.5781H20.2811C20.0367 28.5782 19.8022 28.6753 19.6294 28.8482L15.9419 32.5357C15.769 32.7086 15.6718 32.943 15.6718 33.1875V35.9531C15.6718 36.1976 15.769 36.4321 15.9419 36.6049L17.7856 38.4486C17.9585 38.6215 18.1929 38.7187 18.4374 38.7188H21.203V41.4844C21.2031 41.7289 21.3002 41.9633 21.4731 42.1361L23.0468 43.7098V45.9896C18.1748 45.5769 13.5994 43.4777 10.1092 40.0536L11.7142 38.4486C11.8871 38.2758 11.9842 38.0414 11.9843 37.7969V35.4129L14.4798 32.9174C14.6527 32.7446 14.7498 32.5101 14.7499 32.2656V29.5C14.7498 29.2555 14.6527 29.0211 14.4798 28.8482L10.1405 24.509V23.0469H11.9843C12.2287 23.0468 12.4632 22.9497 12.636 22.7768L16.3235 19.0893C16.4964 18.9164 16.5936 18.682 16.5936 18.4375V15.1317L20.011 11.7143C20.1839 11.5414 20.2811 11.307 20.2811 11.0625V7.375C20.2811 7.13053 20.1839 6.89608 20.011 6.72324L18.1 4.81219C19.7018 4.27368 21.3627 3.93041 23.0468 3.78983V8.29688C23.0468 8.54136 23.144 8.7758 23.3169 8.94864L27.0044 12.6361C27.1772 12.809 27.4117 12.9062 27.6561 12.9063H31.8839L35.953 16.9754V21.7433L34.3794 23.317C34.2065 23.4898 34.1093 23.7243 34.1093 23.9688V27.6563C34.1093 27.9007 34.2065 28.1352 34.3794 28.308L37.7968 31.7254V35.9531H35.953C35.7085 35.9531 35.474 36.0503 35.3012 36.2231C35.1283 36.396 35.0311 36.6305 35.0311 36.875V43.4784C33.2866 44.447 31.4111 45.1584 29.463 45.5904ZM36.8749 55.3125V43.3281H42.4061V46.0938C42.4061 46.2607 42.4514 46.4244 42.5372 46.5676C42.6229 46.7108 42.746 46.828 42.8931 46.9067C43.0403 46.9855 43.206 47.0228 43.3727 47.0147C43.5394 47.0066 43.7008 46.9534 43.8397 46.8608L46.0936 45.3563L48.3476 46.8589C48.4863 46.9515 48.6475 47.0046 48.8141 47.0128C48.9806 47.021 49.1463 46.9838 49.2934 46.9053C49.4405 46.8268 49.5635 46.7099 49.6494 46.567C49.7353 46.424 49.7808 46.2605 49.7811 46.0938V43.3281H55.3124V55.3125H36.8749Z" fill="black"/>
<path d="M52.5468 24.8907C52.5475 26.9927 52.3097 29.088 51.8379 31.1364L53.6356 31.5512C54.1383 29.3667 54.3916 27.1322 54.3906 24.8907C54.4049 18.7472 52.4877 12.7546 48.91 7.76038L47.4102 8.83344C50.7638 13.5148 52.5607 19.132 52.5468 24.8907Z" fill="black"/>
<path d="M47.4301 5.85758C46.8724 5.19844 46.2805 4.55774 45.673 3.95483L44.375 5.26297C44.9447 5.82901 45.4988 6.42915 46.0224 7.04865L47.4301 5.85758Z" fill="black"/>
<path d="M24.8904 52.5469C21.2399 52.5576 17.624 51.8403 14.2541 50.4371C10.8841 49.0338 7.82773 46.9728 5.26365 44.3745L3.95459 45.6734C6.68984 48.4448 9.95011 50.6432 13.5448 52.1399C17.1395 53.6367 20.9965 54.4019 24.8904 54.3907C25.8427 54.3907 26.8023 54.3446 27.7482 54.2552L27.5638 52.4188C26.6843 52.5045 25.7846 52.5469 24.8904 52.5469Z" fill="black"/>
<path d="M29.3535 52.1883L29.6467 54.009C30.2782 53.9066 30.9179 53.7813 31.5513 53.6356L31.1364 51.8389C30.5437 51.9753 29.9435 52.0933 29.3535 52.1883Z" fill="black"/>
</svg>
