<svg width="80" height="80" viewBox="0 0 80 80" fill="none" xmlns="http://www.w3.org/2000/svg">
<path d="M46.6667 30H60M60 20H50M20 60L35 50L43.3333 56.6667L60 43.3333M28.3333 36.6667C30.5435 36.6667 32.6631 35.7887 34.2259 34.2259C35.7887 32.6631 36.6667 30.5435 36.6667 28.3333C36.6667 26.1232 35.7887 24.0036 34.2259 22.4408C32.6631 20.878 30.5435 20 28.3333 20C26.1232 20 24.0036 20.878 22.4408 22.4408C20.878 24.0036 20 26.1232 20 28.3333C20 30.5435 20.878 32.6631 22.4408 34.2259C24.0036 35.7887 26.1232 36.6667 28.3333 36.6667Z" stroke="#6657C2" stroke-width="2" stroke-linecap="round" stroke-linejoin="round"/>
<rect x="9" y="9" width="62" height="62" rx="4" stroke="#D9D9D9" stroke-width="2"/>
</svg>
