<svg width="80" height="80" viewBox="0 0 80 80" fill="none" xmlns="http://www.w3.org/2000/svg">
<path d="M69.6317 24.8902C69.2761 23.5584 68.5824 22.3443 67.6197 21.3687C66.657 20.3931 65.4589 19.6901 64.1446 19.3297C59.3333 18 39.9691 18 39.9691 18C39.9691 18 20.6039 18.0403 15.7926 19.37C14.4783 19.7304 13.2802 20.4335 12.3175 21.4091C11.3547 22.3847 10.661 23.5989 10.3055 24.9307C8.85013 33.5935 8.28558 46.7936 10.3454 55.1099C10.701 56.4416 11.3948 57.6558 12.3575 58.6313C13.3202 59.6069 14.5183 60.3099 15.8325 60.6703C20.6439 62 40.0086 62 40.0086 62C40.0086 62 59.373 62 64.1841 60.6703C65.4984 60.31 66.6966 59.607 67.6593 58.6314C68.6221 57.6558 69.3158 56.4417 69.6715 55.1099C71.2065 46.4348 71.6795 33.2428 69.6317 24.8902Z" fill="#FF0000"/>
<path d="M34 50.0001L50 40.5001L34 31.0001V50.0001Z" fill="white"/>
</svg>
