<svg width="154" height="66" viewBox="0 0 154 66" fill="none" xmlns="http://www.w3.org/2000/svg">
<g clip-path="url(#clip0_2718_5535)">
<path d="M38.7116 23.7151C38.7116 21.6573 38.674 21.2821 36.2282 20.9287V20.6461H42.6525V20.9287C40.4121 21.2261 40.3539 21.7877 40.3539 23.7151V30.4136C40.3733 34.0453 39.9442 34.8495 35.8927 36.5881L35.7432 36.2701C38.4868 34.9799 38.7116 32.9598 38.7116 29.5923V23.7151Z" fill="black"/>
<path d="M45.7763 28.0375C45.459 28.9743 44.635 30.9212 44.635 31.818C44.635 32.9595 45.9235 32.9595 46.7646 33.0911V33.3713H41.6494V33.0911C43.3123 32.6416 43.4789 32.2675 44.0575 30.8068L46.1666 25.2865L47.2885 22.237C47.4551 21.7497 47.6982 21.3013 47.4928 20.9467C47.9972 20.7397 48.4628 20.4045 48.8554 19.9367L52.9629 30.9006C53.4662 32.2675 53.7858 32.8097 55.2786 33.0911V33.3713H49.7902V33.0911C50.443 32.9412 51.2282 32.7342 51.2282 31.8935C51.2282 31.1065 50.5171 29.3472 50.0321 28.0375H45.7763ZM47.8477 22.3113L46.0924 27.1762H49.7902L47.8477 22.3113Z" fill="black"/>
<path d="M64.3136 30.6391L67.6929 23.1914C68.1608 22.1642 68.421 21.2262 68.0102 20.946L68.049 20.6463H72.153V20.9277C70.9604 21.1702 70.2322 21.6197 70.3064 22.9294L70.7173 29.7411C70.9227 32.3411 70.9227 32.7541 72.9188 33.0915V33.3706H66.7787V33.0915C68.2167 32.8662 69.1298 32.698 69.0373 31.0509L68.5329 22.8745H68.4964L63.7361 33.3706H63.5318L59.1059 23.3046H59.0694C58.7692 26.1666 58.6209 28.2438 58.4896 31.1424C58.4531 31.8733 58.4714 32.7163 60.73 33.0915V33.3706H55.5234V33.0915C57.184 32.8101 57.3506 32.0048 57.6131 30.4904L58.3036 25.232L58.5467 22.6869C58.6597 21.4504 57.5937 21.0203 56.4935 20.9277V20.6463H60.5257L60.5439 20.8522C60.1319 21.2823 60.6352 22.4056 60.7676 22.7052L64.3136 30.6391Z" fill="black"/>
<path d="M73.689 33.0913C75.9304 32.7905 75.9476 32.2289 76.0012 30.3026V23.7151C75.9476 21.7877 75.9304 21.2261 73.689 20.9287V20.6473H83.714L83.4891 23.5275H83.2107C83.0783 21.1151 81.3412 21.0945 79.4581 21.0945H77.6469V26.4283H79.5871C80.9874 26.4283 82.0523 26.3162 82.2565 24.708H82.5373V28.8796H82.2565C82.0135 27.2348 80.9874 27.213 79.5871 27.213H77.6469V30.2832C77.6469 31.3858 77.3844 32.9209 80.4465 32.9209C82.7998 32.9209 83.9559 32.0253 84.4227 29.6655H84.7012C84.684 31.0873 84.4421 32.2483 84.0689 33.3716H73.689V33.0913Z" fill="black"/>
<path d="M93.2544 23.94H92.9565C92.6575 22.4243 92.1725 20.9648 90.3247 20.9648C89.1275 20.9648 88.1392 21.7872 88.1392 23.0237C88.1392 26.2597 94.0202 26.1476 94.0202 29.9281C94.0202 32.3405 91.6292 33.5964 89.4848 33.5964C88.3423 33.5964 87.1486 33.259 86.199 32.6413L85.6558 29.4602H85.9902C86.4569 31.2572 87.7089 33.0348 89.7632 33.0348C91.143 33.0348 92.2284 32.2124 92.2284 30.7517C92.2284 27.4207 86.5163 27.7204 86.5163 23.9777C86.5163 21.7872 88.6813 20.4043 90.6774 20.4043C91.6292 20.4043 92.5822 20.6834 93.405 21.1329L93.2544 23.94Z" fill="black"/>
<path d="M109.781 24.5014H109.5C109.145 22.3864 107.913 20.8719 105.673 20.8719C102.255 20.8719 100.331 23.6766 100.331 26.8966C100.331 30.5844 103.15 33.1455 105.861 33.1455C108.303 33.1455 109.274 31.3496 110.115 29.3296L110.379 29.4417C110.152 30.5844 109.799 31.7065 109.351 32.7909C108.156 33.3709 106.867 33.5962 105.54 33.5962C101.638 33.5962 98.166 31.3496 98.166 27.1208C98.166 23.7899 100.761 20.4212 105.69 20.4212C107.11 20.4212 108.547 20.7037 109.781 21.4324V24.5014Z" fill="black"/>
<path d="M125.017 27.0095C125.017 31.0325 122.105 33.5947 118.183 33.5947C114.246 33.5947 111.349 31.0325 111.349 26.9912C111.349 23.0037 114.264 20.4209 118.166 20.4209C122.946 20.4209 125.017 23.6786 125.017 27.0095ZM113.516 26.5405C113.516 29.4414 115.047 33.1463 118.408 33.1463C121.487 33.1463 122.853 30.0019 122.853 27.3275C122.795 24.0137 120.872 20.8716 118.015 20.8716C114.804 20.8716 113.516 24.0137 113.516 26.5405Z" fill="black"/>
<path d="M140.011 27.0095C140.011 31.0325 137.1 33.5947 133.178 33.5947C129.239 33.5947 126.344 31.0325 126.344 26.9912C126.344 23.0037 129.258 20.4209 133.161 20.4209C137.94 20.4209 140.011 23.6786 140.011 27.0095ZM128.51 26.5405C128.51 29.4414 130.042 33.1463 133.402 33.1463C136.484 33.1463 137.847 30.0019 137.847 27.3275C137.79 24.0137 135.867 20.8716 133.009 20.8716C129.801 20.8716 128.51 24.0137 128.51 26.5405Z" fill="black"/>
<path d="M144.312 30.3023C144.368 32.2297 144.386 32.7913 146.796 33.091V33.3713H140.352V33.091C142.595 32.7913 142.613 32.2297 142.668 30.3023V23.7148C142.613 21.7874 142.595 21.2257 140.352 20.9283V20.6458H146.29V20.9283C144.386 21.2257 144.368 21.7874 144.312 23.7148V30.3023ZM152.751 20.6458V20.9283C150.622 21.1525 149.204 22.9678 147.822 24.408L146.066 26.2793L149.858 30.4704C150.997 31.7241 152.341 32.8462 154.001 33.3141L153.908 33.5955C150.66 33.3335 150.137 33.2397 148.381 31.3123L144.572 27.1578L147.579 23.8841C149.539 21.6764 149.165 21.0587 147.913 20.9283V20.6458H152.751Z" fill="black"/>
<path d="M50.8097 38.2092V38.4895C49.1104 38.6759 48.9985 39.726 48.9255 42.1944L48.8114 46.2917C48.7566 48.7087 47.7294 51.1577 43.5843 51.1577C37.798 51.1577 38.3949 46.9655 38.3949 45.4704V41.2782C38.3379 39.3496 38.3196 38.7903 36.0781 38.4895V38.2092H42.5206V38.4895C40.0737 38.8452 40.0372 39.2192 40.0372 41.2782V45.1136C40.0372 45.4704 39.4392 50.2987 44.5544 50.2987C48.5877 50.2987 48.1962 46.4439 48.1962 44.1596V42.1944C48.1962 39.8186 48.0102 38.7342 45.3967 38.4895V38.2092H50.8097Z" fill="black"/>
<path d="M63.801 47.9957L63.7074 41.1657C63.688 39.387 63.2041 38.8631 61.0951 38.4891V38.2088H66.1886V38.4891C64.9012 38.6584 64.6593 39.3699 64.5109 40.5858C64.2484 42.6424 64.342 47.1538 64.4344 51.2328L64.1936 51.29C61.2058 47.7544 57.8835 44.4772 54.7279 41.0708V44.5161C54.7279 49.1556 54.616 50.1096 57.3231 50.6518V50.9354H51.7423V50.6518C54.2622 50.3921 54.1675 48.6683 54.1675 44.4234V41.6153C54.1675 39.7439 53.8696 39.013 51.498 38.4891V38.2088H54.5784L63.801 47.9957Z" fill="black"/>
<path d="M70.9436 47.8663C70.9996 49.7926 71.0201 50.3542 73.2593 50.6539V50.9353H66.9868V50.6539C69.226 50.3542 69.2465 49.7926 69.3013 47.8663V41.2788C69.2465 39.3491 69.226 38.7898 66.9868 38.4889V38.2098H73.2593V38.4889C71.0201 38.7898 70.9996 39.3491 70.9436 41.2788V47.8663Z" fill="black"/>
<path d="M87.6909 38.2091V38.4894C85.9356 38.6404 85.3947 40.1171 84.2374 42.8303L80.6698 51.3635H80.4096L76.1914 41.2415C75.6299 39.8734 75.2008 38.6758 73.5391 38.4894V38.2091H79.4577V38.4894C76.8248 38.7513 77.683 40.2486 78.1681 41.4279L81.1548 48.6514L83.3598 43.3554C84.9633 39.5177 85.2623 38.9012 82.4262 38.4894V38.2091H87.6909Z" fill="black"/>
<path d="M87.8589 50.6523C90.1015 50.3549 90.1198 49.7921 90.1745 47.8658V41.2783C90.1198 39.3498 90.1015 38.7893 87.8589 38.4885V38.2094H97.8862L97.6625 41.0907H97.3817C97.2505 38.6761 95.5134 38.6578 93.628 38.6578H91.8191V43.9916H93.7604C95.1585 43.9916 96.2245 43.8795 96.4287 42.2701H96.7106V46.4429H96.4287C96.1868 44.7969 95.1585 44.7786 93.7604 44.7786H91.8191V47.8475C91.8191 48.9502 91.5566 50.4841 94.6198 50.4841C96.9697 50.4841 98.1293 49.5862 98.5949 47.2287H98.8756C98.8574 48.6517 98.6143 49.8115 98.2411 50.9348H87.8589V50.6523Z" fill="black"/>
<path d="M101.916 42.0632C101.916 39.2001 101.822 38.7711 99.7312 38.5824V38.3216L104.287 38.1718C108.992 38.0219 109.365 40.3234 109.365 41.2224C109.365 42.7941 108.395 43.692 107.051 44.2926L107.144 44.423C108.582 46.9475 110.372 50.1663 113.455 50.8046L113.398 51.0825C111.418 50.9899 109.963 51.0471 108.88 49.9238C107.647 48.6324 106.677 46.9864 106.286 46.1799C105.538 44.6277 104.866 45.0784 103.559 44.8519V47.866C103.559 49.9238 103.594 50.2978 106.153 50.6524V50.935H99.6011V50.6524C101.84 50.355 101.859 49.7922 101.916 47.866V42.0632ZM103.559 44.5351C105.351 44.5168 107.443 43.692 107.443 41.6159C107.443 39.4243 105.519 38.5458 103.559 38.5641V44.5351Z" fill="black"/>
<path d="M120.519 41.503H120.221C119.922 39.9863 119.436 38.5267 117.589 38.5267C116.394 38.5267 115.405 39.3491 115.405 40.5857C115.405 43.8228 121.285 43.7107 121.285 47.4923C121.285 49.9036 118.895 51.1572 116.749 51.1572C115.61 51.1572 114.414 50.8221 113.461 50.2032L112.922 47.0245H113.256C113.724 48.8203 114.974 50.5979 117.029 50.5979C118.41 50.5979 119.491 49.7754 119.491 48.3159C119.491 44.985 113.78 45.2835 113.78 41.5396C113.78 39.3491 115.945 37.9674 117.941 37.9674C118.895 37.9674 119.847 38.2465 120.67 38.696L120.519 41.503Z" fill="black"/>
<path d="M125.979 47.8663C126.035 49.7926 126.055 50.3542 128.295 50.6539V50.9353H122.019V50.6539C124.263 50.3542 124.28 49.7926 124.338 47.8663V41.2788C124.28 39.3491 124.263 38.7898 122.019 38.4889V38.2098H128.295V38.4889C126.055 38.7898 126.035 39.3491 125.979 41.2788V47.8663Z" fill="black"/>
<path d="M140.624 37.6297H140.771L141.034 41.13L140.771 41.1849C140.118 38.8628 139.093 38.7713 136.947 38.7713H135.824V47.4166C135.824 49.7352 135.937 50.3541 138.439 50.6526V50.9363H131.569V50.6526C134.069 50.3541 134.181 49.7352 134.181 47.4166V38.7713H133.063C130.914 38.7713 129.887 38.8628 129.233 41.1849L128.974 41.13L129.233 37.6297H129.383L129.571 37.7979C130.037 38.228 130.113 38.2097 130.728 38.2097H139.281C139.896 38.2097 139.97 38.228 140.437 37.7979L140.624 37.6297Z" fill="black"/>
<path d="M153.361 38.2092V38.4894C151.736 38.621 150.935 39.5178 150.15 40.8664L147.947 45.2439V47.3624C147.985 49.5117 148.021 50.2792 150.411 50.6521V50.9358H143.838V50.6521C146.229 50.2792 146.267 49.5117 146.302 47.3624V45.8628L144.362 41.6156C143.652 40.0439 143.148 38.7148 141.261 38.4894V38.2092H146.415V38.4894C144.884 38.6965 145.089 39.313 145.688 40.6227L147.554 44.6651L149.178 41.5767C150.336 39.4068 150.186 38.6965 148.564 38.4894V38.2092H153.361Z" fill="black"/>
<path d="M26.5381 31.3015C25.6091 31.8391 24.2818 32.1742 22.8062 32.1742C21.3294 32.1742 20.0032 31.8391 19.0742 31.3026C18.1452 30.7661 16.8156 30.431 15.3422 30.431C13.8677 30.431 12.5369 30.7661 11.6102 31.3026C10.6801 31.8391 9.35164 32.1742 7.87596 32.1742C6.40143 32.1742 5.07412 31.8391 4.14626 31.3026C3.21612 30.7661 1.88882 30.431 0.412002 30.431C0.273907 30.431 0.136953 30.4355 0 30.4413V33.9037C0 34.4276 0.0194031 34.9321 0.0490763 35.4285C0.168911 35.4239 0.289885 35.4182 0.412002 35.4182C1.88882 35.4182 3.21612 35.7534 4.14626 36.2921C5.07412 36.8274 6.40143 37.1626 7.87596 37.1626C9.35164 37.1626 10.6801 36.8274 11.6102 36.2921C12.5369 35.7534 13.8677 35.4182 15.3422 35.4182C16.8156 35.4182 18.1452 35.7534 19.0742 36.2921C20.0032 36.8274 21.3294 37.1626 22.8062 37.1626C24.2818 37.1626 25.6091 36.8274 26.5381 36.291C27.4671 35.7534 28.7945 35.4182 30.269 35.4182C30.3934 35.4182 30.5132 35.4239 30.6342 35.4285C30.6639 34.9321 30.6821 34.4276 30.6821 33.9037V30.4413C30.5463 30.4355 30.4105 30.431 30.269 30.431C28.7945 30.431 27.4671 30.7661 26.5381 31.3015Z" fill="#0072BC"/>
<path d="M22.8066 42.1513C21.3309 42.1513 20.0025 41.8162 19.0735 41.2797C18.1445 40.7433 16.816 40.4058 15.3426 40.4058C13.8681 40.4058 12.5374 40.7433 11.6095 41.2797C10.6794 41.8162 9.35205 42.1513 7.87637 42.1513C6.40184 42.1525 5.07339 41.8162 4.14553 41.2797C3.31925 40.8016 2.17797 40.4847 0.900879 40.4218C1.55369 42.6158 2.52149 44.4585 3.66391 46.0302C3.83396 46.1057 3.99489 46.1812 4.14553 46.2692C5.07339 46.8046 6.40184 47.142 7.87637 47.1409C9.35205 47.1409 10.6794 46.8046 11.6095 46.2692C12.5374 45.7316 13.8681 45.3942 15.3426 45.3942C16.816 45.3942 18.1445 45.7293 19.0735 46.2692C20.0025 46.8046 21.3309 47.1409 22.8066 47.1409C24.2811 47.1409 25.6084 46.8046 26.5386 46.2692C26.6881 46.18 26.8513 46.1045 27.0202 46.029C28.1626 44.4585 29.127 42.6158 29.7821 40.4218C28.5038 40.4847 27.3626 40.8016 26.5386 41.2797C25.6084 41.8162 24.2811 42.1513 22.8066 42.1513Z" fill="#0072BC"/>
<path d="M19.0739 51.2567C18.1449 50.7214 16.8165 50.3839 15.3431 50.3839C13.8674 50.3839 12.5378 50.7214 11.61 51.2567C11.1626 51.5164 10.6228 51.7245 10.019 51.8755C12.1589 53.3088 14.1368 54.3634 15.3431 55.3723C16.5472 54.3634 18.525 53.3088 20.6649 51.8755C20.0612 51.7245 19.5213 51.5164 19.0739 51.2567Z" fill="#0072BC"/>
<path d="M26.5381 21.324C25.6091 21.8605 24.2818 22.199 22.8062 22.199C21.3294 22.199 20.0032 21.8605 19.0742 21.324C18.1452 20.7887 16.8156 20.4524 15.3422 20.4524C13.8677 20.4524 12.5369 20.7887 11.6102 21.324C10.6801 21.8605 9.35164 22.199 7.87596 22.199C6.40143 22.199 5.07412 21.8605 4.14626 21.324C3.21612 20.7887 1.88882 20.4524 0.412002 20.4524C0.273907 20.4524 0.136953 20.4581 0 20.4638V25.4522C0.136953 25.4476 0.273907 25.4419 0.412002 25.4419C1.88882 25.4419 3.21612 25.777 4.14626 26.3135C5.07412 26.8523 6.40143 27.1863 7.87596 27.1863C9.35164 27.1863 10.6801 26.8523 11.6102 26.3135C12.5369 25.777 13.8677 25.4419 15.3422 25.4419C16.8156 25.4419 18.1452 25.777 19.0742 26.3135C20.0032 26.8523 21.3294 27.1863 22.8062 27.1863C24.2818 27.1863 25.6091 26.8523 26.5381 26.3135C27.4671 25.777 28.7945 25.4419 30.269 25.4419C30.4105 25.4419 30.5463 25.4476 30.6821 25.4533V20.4638C30.5463 20.4581 30.4105 20.4524 30.269 20.4524C28.7945 20.4524 27.4671 20.7887 26.5381 21.324Z" fill="#0072BC"/>
<path d="M15.3424 11.0795C12.5646 11.0795 10.3128 13.3363 10.3128 16.1194C10.3128 16.371 10.3379 16.6169 10.3733 16.8571C10.8344 16.7176 11.2521 16.5414 11.6105 16.3355C12.5372 15.8002 13.8679 15.4639 15.3424 15.4639C16.8158 15.4639 18.1454 15.8002 19.0733 16.3355C19.4316 16.5426 19.8494 16.7176 20.3116 16.8583C20.347 16.6169 20.3709 16.371 20.3709 16.1194C20.3709 13.3363 18.1203 11.0795 15.3424 11.0795ZM8.48792 12.5597C8.38749 12.5745 8.2882 12.6031 8.18663 12.6214C7.92071 12.6672 7.66849 12.6729 7.41398 12.6638C7.15263 12.6546 6.84562 12.5928 6.67215 12.4796C6.62764 12.7415 6.95176 13.0881 7.22567 13.2734C7.41398 13.4027 7.61256 13.5136 7.82256 13.5823C7.90473 13.612 7.9869 13.6257 8.06793 13.6566C8.32016 13.7447 8.56667 13.9071 8.76297 14.081C9.01748 14.3052 9.22747 14.5912 9.42263 14.8428C9.57899 14.1073 9.8723 13.4176 10.2717 12.8056C10.007 12.7106 9.71936 12.6077 9.40665 12.5597C9.12932 12.5162 8.80178 12.5116 8.48792 12.5597ZM26.8306 16.1205L21.309 15.1288C21.3638 15.4513 21.3992 15.7831 21.3992 16.1205C21.3992 16.4579 21.3638 16.7874 21.309 17.1111L26.8306 16.1205ZM9.37013 15.1288L3.85205 16.1205L9.37242 17.1111C9.3222 16.7874 9.28454 16.4579 9.28454 16.1205C9.28454 15.7831 9.3222 15.4513 9.37013 15.1288ZM22.7003 13.7802C22.7619 13.6955 22.811 13.6051 22.8726 13.5239C23.0255 13.302 23.2001 13.1202 23.3839 12.9463C23.5756 12.769 23.8381 12.5928 24.0436 12.5494C23.8872 12.3355 23.4136 12.316 23.0883 12.3801C22.8646 12.4235 22.6535 12.483 22.4492 12.5837C22.3693 12.6226 22.3008 12.6706 22.2209 12.7084C21.9813 12.8216 21.6948 12.8845 21.43 12.8994C21.0945 12.9223 20.743 12.8674 20.428 12.8262H20.4234C20.8206 13.4416 21.1116 14.1279 21.2668 14.8691C21.5236 14.7479 21.7941 14.6163 22.0497 14.431C22.2769 14.2652 22.5131 14.0364 22.7003 13.7802ZM11.8969 11.1333L8.42515 9.18527L10.3619 12.6672C10.7819 12.0655 11.2978 11.5462 11.8969 11.1333ZM20.3207 12.6672L22.2575 9.18527L18.788 11.1333C19.3849 11.5462 19.9041 12.0655 20.3207 12.6672ZM16.3605 10.1415L15.3424 6.10352e-05L14.3233 10.1415C14.6554 10.0878 14.9932 10.0512 15.3424 10.0512C15.6883 10.0512 16.0272 10.0878 16.3605 10.1415ZM11.8136 8.99767C11.8513 9.07431 11.9003 9.14523 11.9369 9.22416C12.051 9.46666 12.1149 9.75377 12.1286 10.0146C12.1491 10.3543 12.0978 10.7066 12.0567 11.0212V11.028C12.6661 10.6288 13.3555 10.336 14.0939 10.1804C13.9729 9.9242 13.8439 9.64968 13.6556 9.39688C13.4913 9.16811 13.2608 8.93248 13.0085 8.74717C12.9241 8.6854 12.8351 8.63393 12.7495 8.57559C12.5292 8.41888 12.3489 8.24501 12.1731 8.06085C11.9974 7.86754 11.8216 7.60445 11.7794 7.39856C11.5648 7.55527 11.5477 8.02882 11.6105 8.35711C11.6561 8.5836 11.7143 8.79521 11.8136 8.99767ZM18.8952 10.1724C18.9375 9.89446 18.9432 9.56389 18.8952 9.24932C18.8804 9.14866 18.8496 9.05029 18.8325 8.94849C18.788 8.68083 18.78 8.43146 18.788 8.17524C18.7994 7.91444 18.8576 7.60216 18.9751 7.4283C18.7138 7.38826 18.368 7.70969 18.1819 7.9865C18.0518 8.17753 17.9446 8.37084 17.8738 8.58474C17.8441 8.66367 17.8281 8.7506 17.8008 8.82953C17.7106 9.08232 17.5497 9.33168 17.3773 9.52957C17.1514 9.77893 16.8683 9.99398 16.6127 10.1839V10.1861C17.35 10.3463 18.037 10.638 18.6499 11.0395C18.7435 10.7718 18.8427 10.4836 18.8952 10.1724Z" fill="#EBB71F"/>
</g>
<defs>
<clipPath id="clip0_2718_5535">
<rect width="154" height="66" fill="white"/>
</clipPath>
</defs>
</svg>
