<svg width="267" height="55" viewBox="0 0 267 55" fill="none" xmlns="http://www.w3.org/2000/svg">
<path d="M44.0988 45.528C43.7937 45.528 43.6411 45.3752 43.4885 45.0697C43.3359 44.7641 43.4885 44.4585 43.7937 44.3058L46.0822 42.6252V14.5141L43.6411 12.8335C43.4885 12.6808 43.3359 12.3752 43.3359 12.0697C43.4885 11.7641 43.6411 11.6113 43.9462 11.6113H70.3411C70.6462 11.6113 70.9514 11.9169 70.9514 12.2224V16.8058C70.9514 17.1113 70.7988 17.2641 70.4937 17.4169C70.3411 17.4169 70.3411 17.4169 70.1885 17.4169C70.0359 17.4169 69.8834 17.4169 69.7308 17.2641L67.1371 14.3613H52.9479V26.278H61.9496L64.8485 23.3752C65.0011 23.2224 65.1537 23.2224 65.3062 23.2224C65.4588 23.2224 65.4588 23.2224 65.6114 23.2224C65.9165 23.3752 66.0691 23.528 66.0691 23.8335V31.4724C66.0691 31.778 65.9165 31.9308 65.6114 32.0835C65.4588 32.0835 65.4588 32.0835 65.3062 32.0835C65.1537 32.0835 65.0011 32.0835 64.8485 31.9308L61.9496 29.028H52.9479V42.3197H67.1371L70.0359 39.4169C70.1885 39.2641 70.3411 39.2641 70.4937 39.2641C70.6462 39.2641 70.6462 39.2641 70.7988 39.2641C71.1039 39.4169 71.2565 39.5697 71.2565 39.8752V44.4585C71.2565 44.7641 70.9514 45.0697 70.6462 45.0697H44.0988V45.528Z" fill="#AE132A"/>
<path d="M131.367 45.528C131.061 45.528 130.909 45.3752 130.756 45.0697C130.604 44.7641 130.756 44.4585 131.061 44.3058L133.35 42.6252V14.3613H125.416L122.517 17.2641C122.365 17.4169 122.212 17.4169 122.06 17.4169C121.907 17.4169 121.907 17.4169 121.755 17.4169C121.449 17.2641 121.297 17.1113 121.297 16.8058V12.2224C121.297 11.9169 121.602 11.6113 121.907 11.6113H151.048C151.353 11.6113 151.659 11.9169 151.659 12.2224V16.8058C151.659 17.1113 151.506 17.2641 151.201 17.4169C151.048 17.4169 151.048 17.4169 150.896 17.4169C150.743 17.4169 150.591 17.4169 150.438 17.2641L147.997 14.3613H140.063V42.4724L142.352 44.153C142.504 44.3058 142.657 44.6113 142.657 44.9169C142.504 45.2224 142.352 45.3752 142.047 45.3752H131.367V45.528Z" fill="#AE132A"/>
<path d="M236.49 45.5279C236.185 45.5279 236.033 45.3752 235.88 45.0696C235.728 44.7641 235.88 44.4585 236.185 44.3057L238.474 42.6252V14.3613L236.185 12.6807C236.033 12.5279 235.88 12.2224 235.88 11.9168C236.033 11.6113 236.185 11.4585 236.49 11.4585H247.476C247.781 11.4585 247.933 11.6113 248.086 11.9168C248.238 12.2224 248.086 12.5279 247.781 12.6807L245.492 14.3613V42.4724H259.681L262.428 39.7224C262.58 39.5696 262.733 39.5696 262.885 39.5696C263.038 39.5696 263.038 39.5696 263.19 39.5696C263.496 39.7224 263.648 39.8752 263.648 40.1807V44.764C263.648 45.0696 263.343 45.3752 263.038 45.3752H236.49V45.5279Z" fill="#AE132A"/>
<path d="M22.889 45.8334C13.7347 45.8334 3.05469 41.2501 3.05469 28.4167C3.05469 18.6389 11.5987 11.1528 23.0415 11.1528C28.0764 11.1528 32.9587 12.8334 34.3318 13.2917C34.637 13.4445 34.7895 13.5973 34.7895 13.9028V18.7917C34.7895 19.0973 34.637 19.2501 34.3318 19.4028C34.3318 19.4028 34.1793 19.4028 34.0267 19.4028C33.8741 19.4028 33.7215 19.4028 33.569 19.2501C31.2804 16.8056 26.8558 14.0556 22.889 14.0556C15.5655 14.0556 11.2935 19.2501 11.2935 28.5695C11.2935 37.7362 15.413 42.7778 22.889 42.7778C28.229 42.7778 30.5175 40.3334 33.4164 36.3612C33.569 36.2084 33.7215 36.0556 33.8741 36.0556H34.0267C34.3318 36.2084 34.4844 36.3612 34.4844 36.6667V41.7084C34.4844 41.8612 34.3318 42.0139 34.3318 42.1667C31.433 44.7639 27.9238 45.8334 22.889 45.8334Z" fill="#AE132A"/>
<path d="M219.404 45.5279C219.251 45.5279 218.946 45.3751 218.794 45.2223C218.641 45.0696 218.641 44.764 218.794 44.6112L219.862 42.6251L216.81 35.2918H205.062L202.011 42.6251L202.163 42.9307L203.079 44.6112C203.231 44.764 203.231 45.0696 203.079 45.2223C202.926 45.3751 202.774 45.5279 202.468 45.5279H195.908C195.603 45.5279 195.45 45.3751 195.298 45.0696C195.145 44.764 195.298 44.6112 195.45 44.3057L197.434 42.4723L208.571 15.889L207.046 12.2223C206.893 12.0696 207.046 11.764 207.046 11.6112C207.198 11.4584 207.351 11.3057 207.656 11.3057H214.216C214.522 11.3057 214.827 11.4584 214.827 11.764C214.827 12.0696 214.827 12.3751 214.522 12.5279L214.064 12.8334L226.422 42.4723L228.711 44.1529C228.863 44.3057 229.016 44.6112 229.016 44.9168C228.863 45.2223 228.711 45.3751 228.406 45.3751H219.404V45.5279ZM206.283 32.5418H215.742L211.012 21.2362L206.283 32.5418Z" fill="#AE132A"/>
<path d="M160.2 45.528C159.895 45.528 159.743 45.3752 159.59 45.0697C159.437 44.7641 159.59 44.4585 159.895 44.3058L162.184 42.6252V14.5141L159.743 12.8335C159.59 12.6808 159.438 12.3752 159.438 12.0697C159.59 11.7641 159.743 11.6113 160.048 11.6113H172.711C184.612 11.6113 186.29 17.5697 186.29 21.0836C186.29 23.9863 185.222 27.653 179.882 29.7919L179.119 30.0974L186.138 42.778L188.426 44.4585C188.579 44.6113 188.731 44.9169 188.731 45.2224C188.579 45.528 188.426 45.6808 188.121 45.6808H180.645C180.34 45.6808 180.187 45.528 180.035 45.3752L172.101 31.1669H171.643C171.186 31.1669 170.88 31.1669 170.423 31.1669H168.439V42.778L170.728 44.4585C170.88 44.6113 171.033 44.9169 171.033 45.2224C170.88 45.528 170.728 45.6808 170.423 45.6808H160.2V45.528ZM168.897 27.8058H171.643H171.796C171.796 27.8058 171.796 27.8058 171.948 27.8058C172.711 27.8058 173.627 27.653 174.542 27.5002H174.847C176.068 27.1947 176.831 26.5836 177.136 26.278C178.509 25.2086 179.119 23.3752 179.119 20.778C179.119 16.653 176.983 14.5141 173.016 14.5141H169.05V27.8058H168.897Z" fill="#AE132A"/>
<path d="M114.886 12.0697C114.733 11.7641 114.581 11.6113 114.275 11.6113H106.189C105.884 11.6113 105.731 11.7641 105.579 12.0697C105.426 12.3752 105.579 12.6808 105.884 12.8335L108.173 14.5141V18.1808V36.0558L87.7281 11.7641C87.5755 11.6113 87.4229 11.6113 87.2704 11.6113H79.9469C79.6418 11.6113 79.4892 11.7641 79.3366 11.9169C79.1841 12.0697 79.3366 12.3752 79.4892 12.528L82.9984 16.8058V19.5558V42.4724L80.5572 44.3058C80.4046 44.4585 80.2521 44.7641 80.2521 45.0697C80.4046 45.3752 80.5572 45.528 80.8623 45.528H88.9486C89.2538 45.528 89.4064 45.3752 89.5589 45.0697C89.7115 44.7641 89.5589 44.4585 89.2538 44.3058L86.9652 42.6252V21.8474L106.494 45.3752C106.647 45.528 106.799 45.6808 106.952 45.6808H111.529C111.834 45.6808 112.139 45.3752 112.139 45.0697V14.3613L114.428 12.6808C114.886 12.528 114.886 12.2224 114.886 12.0697Z" fill="#AE132A"/>
</svg>
