<svg width="80" height="80" viewBox="0 0 80 80" fill="none" xmlns="http://www.w3.org/2000/svg">
<path d="M6.92655 53.9066L29.9452 14.543C32.8691 16.2625 47.6133 24.413 49.9945 25.9632L26.9758 65.329C24.4584 68.6511 3.73722 58.948 6.92655 53.9045V53.9066Z" fill="#FBBC04"/>
<path d="M73.063 53.9059L50.0443 14.5446C46.8263 9.19514 39.8957 7.2511 34.203 10.4106C28.5104 13.5702 26.777 20.3762 29.9951 25.9646L53.0137 65.3307C56.2318 70.6777 63.1627 72.6215 68.8553 69.4622C74.2991 66.3024 76.281 59.2551 73.063 53.9105V53.9059Z" fill="#4285F4"/>
<path d="M16.8869 70.9834C23.2684 70.9834 28.4417 65.9443 28.4417 59.7282C28.4417 53.5121 23.2684 48.473 16.8869 48.473C10.5053 48.473 5.33203 53.5121 5.33203 59.7282C5.33203 65.9443 10.5053 70.9834 16.8869 70.9834Z" fill="#34A853"/>
</svg>
