<svg width="80" height="80" viewBox="0 0 80 80" fill="none" xmlns="http://www.w3.org/2000/svg">
<path d="M28.0991 12.6771C31.2767 6.66784 38.7225 4.37176 44.7325 7.5491C50.7424 10.7264 53.0355 18.1717 49.8609 24.1812C49.7213 24.4446 49.5728 24.7033 49.4157 24.9566L24.8003 67.5801C21.4803 73.5109 13.9799 75.6281 8.04866 72.3083C2.11739 68.9886 1.07288e-06 61.4889 3.32012 55.5582C3.37452 55.4613 3.42907 55.3674 3.48362 55.2735L28.0991 12.6771Z" fill="#FBBC04"/>
<path d="M54.8649 34.7363C58.0425 28.727 65.4883 26.431 71.4983 29.6083C77.5083 32.7857 79.8014 40.2309 76.6267 46.2404C76.4871 46.5038 76.3387 46.7625 76.1815 47.0158L64.3471 67.5171C61.027 73.4478 53.5267 75.5651 47.5956 72.2453C41.6644 68.9255 39.5469 61.4259 42.8669 55.4951C42.9214 55.3982 42.976 55.3043 43.0305 55.2104L54.8649 34.7363Z" fill="#4285F4"/>
<path d="M14.0577 73.8124C20.8551 73.8124 26.3655 68.3025 26.3655 61.5057C26.3655 54.7089 20.8551 49.199 14.0577 49.199C7.26036 49.199 1.75 54.7089 1.75 61.5057C1.75 68.3025 7.26036 73.8124 14.0577 73.8124Z" fill="#34A853"/>
</svg>
