<?xml version="1.0" encoding="utf-8"?>
<!-- Generator: Adobe Illustrator 16.0.0, SVG Export Plug-In . SVG Version: 6.00 Build 0)  -->
<!DOCTYPE svg PUBLIC "-//W3C//DTD SVG 1.1//EN" "http://www.w3.org/Graphics/SVG/1.1/DTD/svg11.dtd">
<svg version="1.1" id="Layer_1" xmlns="http://www.w3.org/2000/svg" xmlns:xlink="http://www.w3.org/1999/xlink" x="0px" y="0px"
	 width="314.167px" height="66.848px" viewBox="0 0 314.167 66.848" enable-background="new 0 0 314.167 66.848"
	 xml:space="preserve">
<g>
	<g>
		<path fill="#6D6E71" d="M10.628,9.885c2.155,0,4.014,0.252,5.584,0.759c1.57,0.507,2.859,1.211,3.871,2.115
			c1.013,0.903,1.759,1.977,2.245,3.221c0.486,1.243,0.726,2.595,0.726,4.056c0,1.547-0.252,2.964-0.759,4.25
			c-0.505,1.287-1.271,2.393-2.299,3.318c-1.025,0.925-2.32,1.644-3.881,2.157s-3.39,0.771-5.487,0.771H6.506v10.823H0V9.885H10.628
			z M10.628,25.544c2.039,0,3.531-0.492,4.48-1.475c0.946-0.983,1.419-2.329,1.419-4.034c0-0.781-0.12-1.492-0.358-2.137
			c-0.239-0.644-0.6-1.193-1.084-1.648c-0.484-0.456-1.094-0.807-1.834-1.053c-0.737-0.246-1.611-0.369-2.624-0.369h-4.12v10.714
			h4.122V25.544z"/>
		<path fill="#6D6E71" d="M30.19,31.095c0.188,2.097,0.782,3.629,1.791,4.598c1.004,0.968,2.317,1.453,3.936,1.453
			c0.825,0,1.537-0.097,2.135-0.292c0.6-0.195,1.128-0.413,1.584-0.65c0.455-0.239,0.867-0.456,1.235-0.651
			c0.369-0.196,0.733-0.292,1.094-0.292c0.463,0,0.825,0.174,1.084,0.521l1.735,2.169c-0.637,0.738-1.337,1.348-2.104,1.833
			c-0.767,0.486-1.562,0.867-2.385,1.149c-0.824,0.282-1.656,0.478-2.495,0.584c-0.839,0.11-1.648,0.164-2.429,0.164
			c-1.562,0-3.02-0.257-4.371-0.771c-1.352-0.511-2.53-1.271-3.534-2.275c-1.005-1.006-1.799-2.254-2.376-3.743
			c-0.578-1.489-0.868-3.217-0.868-5.184c0-1.518,0.251-2.949,0.75-4.294c0.499-1.344,1.219-2.515,2.159-3.513
			c0.94-0.998,2.081-1.789,3.427-2.375c1.344-0.585,2.862-0.878,4.553-0.878c1.432,0,2.75,0.229,3.958,0.684
			c1.207,0.456,2.249,1.117,3.123,1.985c0.874,0.869,1.555,1.933,2.039,3.198c0.484,1.265,0.726,2.708,0.726,4.328
			c0,0.448-0.021,0.817-0.065,1.106c-0.044,0.289-0.117,0.521-0.218,0.694c-0.1,0.174-0.238,0.294-0.411,0.359
			c-0.175,0.065-0.397,0.094-0.672,0.094H30.19z M39.604,27.539c0-0.622-0.083-1.214-0.249-1.778
			c-0.167-0.564-0.431-1.063-0.792-1.497c-0.361-0.434-0.817-0.778-1.367-1.031c-0.549-0.253-1.207-0.379-1.974-0.379
			c-1.432,0-2.551,0.405-3.36,1.215c-0.811,0.81-1.339,1.966-1.584,3.47H39.604z"/>
		<path fill="#6D6E71" d="M69.14,18.994v22.359h-5.985V29.056c0-0.333,0.017-0.712,0.055-1.139c0.037-0.427,0.09-0.849,0.161-1.269
			c-0.332,0.723-0.672,1.338-1.02,1.844c-0.028,0.029-0.158,0.216-0.39,0.563c-0.231,0.348-0.535,0.792-0.911,1.334
			c-0.375,0.542-0.801,1.152-1.268,1.833c-0.47,0.68-0.952,1.374-1.443,2.083c-1.143,1.648-2.436,3.52-3.881,5.616
			c-0.116,0.175-0.249,0.344-0.401,0.511c-0.152,0.167-0.319,0.322-0.5,0.466s-0.37,0.26-0.573,0.347
			c-0.204,0.087-0.419,0.13-0.649,0.13H48.67v-22.36h5.985v12.297c0,0.347-0.021,0.738-0.066,1.171
			c-0.042,0.435-0.101,0.861-0.172,1.28c0.172-0.376,0.347-0.723,0.52-1.042c0.175-0.318,0.347-0.6,0.521-0.846
			c0.016-0.029,0.143-0.217,0.38-0.564c0.24-0.347,0.545-0.792,0.923-1.334c0.375-0.542,0.798-1.152,1.268-1.832
			c0.469-0.68,0.949-1.373,1.443-2.082c1.141-1.648,2.443-3.521,3.903-5.617c0.217-0.347,0.511-0.675,0.878-0.987
			c0.37-0.312,0.784-0.466,1.248-0.466H69.14z M59.23,13.246c0.521,0,0.95-0.054,1.291-0.163c0.34-0.109,0.608-0.292,0.803-0.552
			c0.195-0.26,0.332-0.603,0.412-1.03c0.079-0.426,0.119-0.964,0.119-1.616h3.536c0.419,0,0.726,0.173,0.923,0.52
			c0.195,0.347,0.292,0.716,0.292,1.106c0,0.751-0.177,1.428-0.533,2.028c-0.353,0.601-0.857,1.111-1.505,1.529
			c-0.652,0.42-1.429,0.742-2.333,0.964c-0.904,0.224-1.905,0.336-3.003,0.336c-1.1,0-2.101-0.113-3.004-0.336
			s-1.682-0.545-2.331-0.964s-1.154-0.928-1.505-1.529c-0.355-0.6-0.534-1.276-0.534-2.028c0-0.391,0.098-0.759,0.294-1.106
			c0.195-0.347,0.502-0.52,0.92-0.52h3.536c0,0.65,0.04,1.189,0.121,1.616c0.079,0.427,0.216,0.77,0.411,1.03
			c0.196,0.26,0.463,0.446,0.803,0.552C58.28,13.194,58.709,13.246,59.23,13.246z"/>
		<path fill="#6D6E71" d="M93.538,23.353h-7.721v18h-5.985v-18h-7.722v-4.359h21.428V23.353z"/>
		<path fill="#6D6E71" d="M116.961,18.994v22.359h-5.985V29.056c0-0.333,0.017-0.712,0.054-1.139s0.092-0.849,0.164-1.269
			c-0.333,0.723-0.673,1.338-1.02,1.844c-0.029,0.029-0.159,0.216-0.391,0.563c-0.231,0.348-0.535,0.792-0.911,1.334
			c-0.375,0.542-0.799,1.152-1.268,1.833c-0.47,0.68-0.952,1.374-1.443,2.083c-1.142,1.648-2.437,3.52-3.883,5.616
			c-0.116,0.175-0.249,0.344-0.401,0.511c-0.151,0.167-0.316,0.322-0.497,0.466s-0.373,0.26-0.575,0.347
			c-0.202,0.087-0.419,0.13-0.651,0.13H96.49v-22.36h5.986v12.297c0,0.347-0.022,0.738-0.065,1.171
			c-0.044,0.435-0.102,0.861-0.175,1.28c0.175-0.376,0.347-0.723,0.522-1.042c0.172-0.318,0.346-0.6,0.52-0.846
			c0.014-0.029,0.141-0.217,0.381-0.564c0.237-0.347,0.545-0.792,0.921-1.334c0.377-0.542,0.799-1.152,1.268-1.832
			c0.472-0.68,0.952-1.373,1.443-2.082c1.144-1.648,2.442-3.521,3.905-5.617c0.216-0.347,0.51-0.675,0.877-0.987
			c0.368-0.312,0.784-0.466,1.247-0.466H116.961z"/>
		<path fill="#6D6E71" d="M141.769,18.994v22.359h-5.964v-9.694h-7.893v9.694h-5.988V18.994h5.988V27.3h7.893v-8.306H141.769z"/>
		<path fill="#6D6E71" d="M162.156,23.353h-9.435v18h-5.984V18.994h15.418V23.353z"/>
		<path fill="#6D6E71" d="M186.86,9.885c2.152,0,4.014,0.252,5.582,0.759c1.569,0.507,2.861,1.211,3.872,2.115
			c1.012,0.903,1.762,1.977,2.245,3.221c0.485,1.243,0.726,2.595,0.726,4.056c0,1.547-0.252,2.964-0.757,4.25
			c-0.509,1.287-1.272,2.393-2.299,3.318c-1.028,0.925-2.321,1.644-3.883,2.157c-1.564,0.513-3.392,0.771-5.486,0.771h-4.122v10.823
			h-6.506V9.885H186.86z M186.86,25.544c2.037,0,3.529-0.492,4.479-1.475c0.945-0.983,1.42-2.329,1.42-4.034
			c0-0.781-0.118-1.492-0.358-2.137c-0.237-0.644-0.599-1.193-1.084-1.648c-0.486-0.456-1.096-0.807-1.833-1.053
			c-0.74-0.246-1.612-0.369-2.623-0.369h-4.122v10.714h4.122V25.544z"/>
		<path fill="#6D6E71" d="M223.335,18.994l-12.058,28.365c-0.189,0.407-0.415,0.709-0.684,0.912
			c-0.269,0.204-0.692,0.303-1.268,0.303h-4.448l4.23-9.02l-8.98-20.561h5.25c0.478,0,0.846,0.108,1.105,0.325
			c0.262,0.217,0.45,0.47,0.566,0.759l4.248,10.692c0.16,0.419,0.301,0.843,0.424,1.268s0.241,0.849,0.357,1.268
			c0.263-0.853,0.557-1.706,0.89-2.559l3.947-10.67c0.113-0.318,0.325-0.579,0.627-0.781c0.306-0.203,0.639-0.303,1-0.303h4.792
			V18.994z"/>
		<path fill="#6D6E71" d="M245.521,18.994v22.359h-5.964v-9.694h-7.895v9.694h-5.986V18.994h5.986V27.3h7.895v-8.306H245.521z"/>
		<path fill="#6D6E71" d="M255.259,31.095c0.188,2.097,0.785,3.629,1.788,4.598c1.005,0.968,2.318,1.453,3.938,1.453
			c0.823,0,1.537-0.097,2.137-0.292s1.128-0.413,1.584-0.65c0.454-0.239,0.868-0.456,1.235-0.651
			c0.368-0.196,0.735-0.292,1.097-0.292c0.461,0,0.822,0.174,1.085,0.521l1.733,2.169c-0.635,0.738-1.338,1.348-2.104,1.833
			c-0.766,0.486-1.562,0.867-2.387,1.149c-0.823,0.282-1.656,0.478-2.493,0.584c-0.839,0.11-1.649,0.164-2.43,0.164
			c-1.562,0-3.018-0.257-4.37-0.771c-1.352-0.511-2.53-1.271-3.533-2.275c-1.005-1.006-1.797-2.254-2.376-3.743
			c-0.577-1.489-0.868-3.217-0.868-5.184c0-1.518,0.25-2.949,0.748-4.294c0.5-1.344,1.22-2.515,2.158-3.513
			c0.939-0.998,2.081-1.789,3.427-2.375c1.345-0.585,2.861-0.878,4.553-0.878c1.432,0,2.751,0.229,3.958,0.684
			c1.207,0.456,2.249,1.117,3.123,1.985c0.874,0.868,1.555,1.933,2.039,3.198s0.726,2.708,0.726,4.328
			c0,0.448-0.021,0.817-0.064,1.106c-0.043,0.289-0.116,0.521-0.217,0.694c-0.102,0.174-0.237,0.294-0.412,0.359
			c-0.172,0.065-0.396,0.097-0.672,0.097h-13.402V31.095z M264.671,27.539c0-0.622-0.085-1.214-0.248-1.778
			c-0.167-0.564-0.433-1.063-0.794-1.497c-0.361-0.434-0.814-0.778-1.364-1.031c-0.55-0.253-1.208-0.379-1.974-0.379
			c-1.432,0-2.553,0.405-3.36,1.215c-0.812,0.81-1.339,1.966-1.584,3.47H264.671z"/>
		<path fill="#6D6E71" d="M293.082,23.353h-7.724v18h-5.985v-18h-7.72v-4.359h21.426v4.359H293.082z"/>
		<path fill="#6D6E71" d="M295.467,22.095c1.314-1.185,2.769-2.072,4.358-2.657c1.592-0.586,3.313-0.877,5.162-0.877
			c1.33,0,2.52,0.217,3.569,0.65c1.048,0.434,1.938,1.038,2.667,1.81c0.73,0.774,1.291,1.695,1.68,2.766
			c0.392,1.07,0.587,2.242,0.587,3.514v14.053h-2.733c-0.564,0-0.994-0.079-1.291-0.237c-0.296-0.161-0.539-0.494-0.729-1
			l-0.477-1.43c-0.563,0.491-1.11,0.925-1.639,1.3c-0.524,0.375-1.072,0.692-1.636,0.943c-0.565,0.254-1.168,0.446-1.812,0.573
			c-0.645,0.13-1.361,0.195-2.157,0.195c-0.984,0-1.88-0.13-2.688-0.39c-0.811-0.26-1.508-0.646-2.093-1.161
			c-0.586-0.514-1.039-1.15-1.355-1.919c-0.319-0.767-0.478-1.648-0.478-2.646c0-0.824,0.209-1.648,0.63-2.472
			c0.418-0.825,1.138-1.572,2.157-2.244s2.378-1.229,4.078-1.67c1.697-0.441,3.826-0.689,6.385-0.748v-1.149
			c0-1.403-0.297-2.432-0.89-3.09c-0.592-0.658-1.445-0.987-2.559-0.987c-0.824,0-1.511,0.097-2.06,0.293
			c-0.551,0.195-1.031,0.405-1.443,0.629c-0.412,0.225-0.799,0.434-1.16,0.629c-0.361,0.196-0.781,0.292-1.257,0.292
			c-0.421,0-0.771-0.104-1.052-0.314c-0.282-0.209-0.519-0.458-0.706-0.748L295.467,22.095z M307.654,32.006
			c-1.46,0.073-2.674,0.198-3.643,0.379c-0.971,0.181-1.74,0.416-2.311,0.705c-0.573,0.29-0.977,0.618-1.214,0.986
			c-0.24,0.368-0.358,0.771-0.358,1.204c0,0.868,0.242,1.482,0.726,1.843c0.485,0.362,1.16,0.542,2.027,0.542
			c0.997,0,1.861-0.178,2.593-0.532c0.729-0.354,1.457-0.907,2.18-1.659V32.006L307.654,32.006z"/>
	</g>
	<g>
		<path fill="#545454" d="M8.756,64.32v2.338c0,0.057-0.019,0.102-0.055,0.139c-0.037,0.033-0.085,0.051-0.147,0.051H8.212v-2.053
			H0.889v1.863c0,0.057-0.018,0.102-0.054,0.139c-0.037,0.033-0.086,0.051-0.148,0.051h-0.34V64.32H1.11
			c0.139-0.054,0.274-0.149,0.408-0.288c0.133-0.139,0.258-0.336,0.378-0.591c0.12-0.254,0.233-0.573,0.337-0.96
			c0.107-0.387,0.202-0.853,0.288-1.406c0.085-0.551,0.157-1.194,0.217-1.932c0.063-0.734,0.11-1.578,0.144-2.532h4.448v7.709H8.756
			z M6.738,64.32v-7.235H3.447c-0.055,1.136-0.128,2.112-0.226,2.932c-0.094,0.821-0.21,1.52-0.34,2.093
			c-0.133,0.573-0.28,1.033-0.446,1.386c-0.167,0.354-0.345,0.63-0.538,0.825H6.738z"/>
		<path fill="#545454" d="M17.736,64.797h-0.596v-7.709h-3.291c-0.051,1.085-0.119,2.027-0.202,2.835
			c-0.083,0.808-0.185,1.503-0.303,2.076c-0.117,0.579-0.25,1.051-0.398,1.42c-0.149,0.37-0.313,0.664-0.491,0.876
			c-0.181,0.214-0.374,0.364-0.582,0.446c-0.209,0.084-0.429,0.124-0.661,0.124c-0.121,0-0.23-0.012-0.322-0.034
			c-0.093-0.022-0.14-0.057-0.14-0.099v-0.37h0.347c0.177,0,0.349-0.039,0.516-0.118c0.164-0.079,0.322-0.224,0.47-0.436
			c0.148-0.209,0.287-0.497,0.414-0.864c0.127-0.364,0.241-0.835,0.344-1.406c0.102-0.573,0.191-1.265,0.266-2.072
			c0.076-0.808,0.136-1.76,0.182-2.853h4.448V64.797z"/>
		<path fill="#545454" d="M27.002,64.797h-0.596v-3.702h-1.457c-0.113,0-0.216,0.009-0.311,0.025
			c-0.093,0.018-0.187,0.052-0.28,0.097c-0.093,0.045-0.185,0.11-0.276,0.191c-0.093,0.085-0.191,0.192-0.291,0.322L21.6,64.577
			c-0.042,0.064-0.096,0.118-0.161,0.158c-0.067,0.039-0.144,0.062-0.231,0.062h-0.44l2.406-3.129
			c0.125-0.166,0.249-0.302,0.376-0.406c0.127-0.104,0.261-0.187,0.399-0.248c-0.361-0.037-0.681-0.116-0.953-0.234
			c-0.274-0.119-0.502-0.269-0.683-0.455c-0.181-0.184-0.319-0.401-0.411-0.652s-0.138-0.525-0.138-0.827
			c0-0.348,0.059-0.658,0.179-0.935c0.12-0.274,0.293-0.509,0.525-0.7c0.231-0.192,0.517-0.342,0.855-0.443
			c0.339-0.103,0.727-0.153,1.164-0.153h2.516V64.797z M26.406,60.618v-3.533h-1.92c-0.717,0-1.254,0.152-1.607,0.458
			c-0.356,0.305-0.534,0.739-0.534,1.302c0,0.573,0.178,1.014,0.528,1.318c0.351,0.306,0.885,0.455,1.607,0.455H26.406z"/>
		<path fill="#545454" d="M38.451,56.611c0.467,0,0.871,0.048,1.214,0.138c0.343,0.094,0.625,0.229,0.85,0.41
			c0.223,0.178,0.388,0.397,0.498,0.654c0.107,0.26,0.161,0.551,0.161,0.879c0,0.217-0.037,0.423-0.113,0.627
			c-0.075,0.2-0.182,0.384-0.324,0.553c-0.14,0.17-0.314,0.316-0.521,0.443c-0.206,0.125-0.442,0.221-0.708,0.285
			c0.644,0.094,1.141,0.306,1.484,0.642c0.345,0.33,0.518,0.771,0.518,1.315c0,0.345-0.062,0.658-0.186,0.936
			c-0.122,0.279-0.302,0.514-0.537,0.705c-0.237,0.195-0.525,0.339-0.867,0.443c-0.344,0.102-0.734,0.153-1.169,0.153h-2.654v-8.184
			H38.451z M36.694,57.082v3.358h1.769c0.377,0,0.699-0.046,0.969-0.145c0.267-0.096,0.487-0.223,0.659-0.381
			s0.298-0.336,0.378-0.537c0.082-0.203,0.122-0.406,0.122-0.621c0-0.551-0.175-0.969-0.522-1.251
			c-0.349-0.282-0.888-0.424-1.617-0.424H36.694z M38.746,64.32c0.717,0,1.26-0.155,1.628-0.466
			c0.369-0.311,0.552-0.746,0.552-1.311c0-0.257-0.049-0.488-0.147-0.694c-0.099-0.209-0.24-0.385-0.426-0.528
			c-0.184-0.145-0.412-0.254-0.682-0.331c-0.27-0.079-0.577-0.115-0.919-0.115h-2.059v3.445H38.746z"/>
		<path fill="#545454" d="M47.687,60.313c0.455,0,0.853,0.048,1.195,0.146c0.341,0.099,0.624,0.243,0.85,0.429
			c0.226,0.187,0.396,0.413,0.506,0.678c0.113,0.269,0.169,0.568,0.169,0.904c0,0.358-0.063,0.681-0.184,0.969
			c-0.122,0.288-0.297,0.53-0.528,0.731c-0.231,0.2-0.517,0.355-0.855,0.463c-0.342,0.107-0.729,0.161-1.164,0.161h-2.499v-8.184
			h0.596v3.702H47.687z M47.677,64.32c0.717,0,1.254-0.158,1.608-0.478c0.355-0.316,0.531-0.757,0.531-1.321
			c0-0.573-0.175-1.009-0.525-1.299c-0.352-0.288-0.885-0.436-1.603-0.436h-1.913v3.533H47.677z M52.883,64.797h-0.596v-8.184h0.596
			V64.797z"/>
		<path fill="#545454" d="M59.584,60.313c0.455,0,0.853,0.048,1.195,0.146c0.34,0.099,0.624,0.243,0.85,0.429
			c0.226,0.187,0.394,0.413,0.505,0.678c0.111,0.269,0.168,0.568,0.168,0.904c0,0.358-0.061,0.681-0.182,0.969
			s-0.298,0.53-0.53,0.731c-0.231,0.2-0.515,0.355-0.855,0.463s-0.727,0.161-1.162,0.161h-2.499v-8.184h4.973v0.469h-4.377v3.233
			H59.584z M59.573,64.32c0.717,0,1.254-0.158,1.607-0.478c0.356-0.316,0.532-0.757,0.532-1.321c0-0.573-0.175-1.009-0.526-1.299
			c-0.351-0.288-0.884-0.436-1.602-0.436h-1.915v3.533H59.573z"/>
		<path fill="#545454" d="M73.151,60.703c0,0.632-0.094,1.205-0.284,1.72c-0.189,0.514-0.455,0.954-0.798,1.318
			c-0.344,0.364-0.755,0.646-1.235,0.845c-0.48,0.197-1.008,0.296-1.587,0.296c-0.579,0-1.107-0.099-1.584-0.296
			c-0.477-0.198-0.889-0.48-1.231-0.845c-0.345-0.364-0.61-0.805-0.799-1.318c-0.189-0.515-0.282-1.088-0.282-1.72
			c0-0.63,0.093-1.2,0.282-1.718c0.188-0.514,0.455-0.954,0.799-1.318c0.343-0.364,0.752-0.644,1.231-0.848
			c0.478-0.2,1.005-0.299,1.584-0.299c0.579,0,1.107,0.099,1.587,0.297c0.48,0.2,0.891,0.482,1.235,0.847
			c0.343,0.367,0.609,0.808,0.798,1.321C73.057,59.503,73.151,60.073,73.151,60.703z M72.537,60.703
			c0-0.573-0.079-1.085-0.237-1.539c-0.157-0.455-0.381-0.842-0.669-1.158c-0.29-0.316-0.637-0.557-1.042-0.726
			c-0.404-0.167-0.852-0.252-1.341-0.252c-0.486,0-0.932,0.085-1.336,0.252c-0.405,0.169-0.754,0.412-1.044,0.726
			c-0.291,0.316-0.516,0.703-0.675,1.158c-0.161,0.454-0.24,0.966-0.24,1.539s0.079,1.087,0.24,1.538
			c0.16,0.455,0.384,0.839,0.675,1.155c0.291,0.316,0.639,0.557,1.044,0.723c0.404,0.164,0.85,0.249,1.336,0.249
			c0.488,0,0.938-0.085,1.341-0.249c0.405-0.166,0.752-0.406,1.042-0.723c0.288-0.316,0.511-0.7,0.669-1.155
			C72.461,61.79,72.537,61.276,72.537,60.703z"/>
		<path fill="#545454" d="M78.922,56.611c0.96,0,1.686,0.211,2.171,0.629c0.488,0.421,0.733,1.022,0.733,1.799
			c0,0.359-0.069,0.689-0.202,0.991c-0.135,0.3-0.329,0.56-0.579,0.777c-0.251,0.217-0.557,0.387-0.915,0.508
			c-0.357,0.121-0.761,0.184-1.208,0.184h-1.52v3.296h-0.596v-8.184H78.922z M78.922,61.024c0.358,0,0.682-0.051,0.965-0.149
			c0.288-0.099,0.528-0.24,0.726-0.415c0.199-0.178,0.35-0.387,0.458-0.63c0.106-0.24,0.159-0.503,0.159-0.788
			c0-0.63-0.192-1.112-0.577-1.451c-0.387-0.342-0.963-0.509-1.731-0.509h-1.52v3.942H78.922z"/>
		<path fill="#545454" d="M90.918,64.797H90.46c-0.054,0-0.099-0.017-0.133-0.045c-0.034-0.028-0.061-0.064-0.082-0.112l-0.96-2.375
			h-4.018l-0.96,2.375c-0.016,0.042-0.042,0.078-0.082,0.109c-0.037,0.031-0.085,0.048-0.139,0.048h-0.45l3.348-8.184h0.584
			L90.918,64.797z M89.108,61.821l-1.666-4.135c-0.058-0.136-0.114-0.296-0.167-0.485c-0.024,0.093-0.051,0.181-0.077,0.263
			c-0.028,0.082-0.056,0.161-0.087,0.229l-1.665,4.129H89.108z"/>
		<path fill="#545454" d="M101.304,56.611c0.467,0,0.873,0.048,1.214,0.138c0.343,0.094,0.627,0.229,0.85,0.41
			c0.223,0.178,0.39,0.397,0.497,0.654c0.11,0.26,0.164,0.551,0.164,0.879c0,0.217-0.038,0.423-0.113,0.627
			c-0.077,0.2-0.184,0.384-0.325,0.553c-0.14,0.17-0.313,0.316-0.52,0.443c-0.208,0.125-0.443,0.221-0.708,0.285
			c0.644,0.094,1.138,0.306,1.482,0.642c0.345,0.33,0.518,0.771,0.518,1.315c0,0.345-0.062,0.658-0.185,0.936
			c-0.123,0.279-0.302,0.514-0.538,0.705c-0.236,0.195-0.524,0.339-0.869,0.443c-0.341,0.102-0.731,0.153-1.167,0.153H98.95v-8.184
			H101.304z M99.546,57.082v3.358h1.769c0.378,0,0.7-0.046,0.969-0.145c0.268-0.096,0.488-0.223,0.661-0.381
			s0.296-0.336,0.378-0.537c0.081-0.203,0.122-0.406,0.122-0.621c0-0.551-0.175-0.969-0.524-1.251s-0.888-0.424-1.617-0.424H99.546z
			 M101.599,64.32c0.717,0,1.261-0.155,1.628-0.466c0.369-0.311,0.554-0.746,0.554-1.311c0-0.257-0.051-0.488-0.148-0.694
			c-0.099-0.209-0.24-0.385-0.425-0.528c-0.187-0.145-0.412-0.254-0.684-0.331c-0.27-0.079-0.576-0.115-0.919-0.115h-2.059v3.445
			H101.599z"/>
		<path fill="#545454" d="M112.947,64.305l-0.013,0.491h-4.904v-8.184h4.904v0.492h-4.308v3.307h3.585v0.479h-3.585v3.414H112.947z"
			/>
		<path fill="#545454" d="M123.796,64.32v2.338c0,0.057-0.02,0.102-0.057,0.139c-0.035,0.033-0.084,0.051-0.146,0.051h-0.342v-2.053
			h-7.321v1.863c0,0.057-0.019,0.102-0.055,0.139c-0.037,0.033-0.085,0.051-0.147,0.051h-0.342V64.32h0.763
			c0.14-0.054,0.275-0.149,0.409-0.288c0.133-0.139,0.257-0.336,0.378-0.591c0.119-0.254,0.232-0.573,0.339-0.96
			c0.104-0.387,0.201-0.853,0.286-1.406c0.084-0.551,0.158-1.194,0.22-1.932c0.062-0.734,0.11-1.578,0.144-2.532h4.447v7.709
			H123.796z M121.777,64.32v-7.235h-3.29c-0.056,1.136-0.13,2.112-0.226,2.932c-0.096,0.821-0.21,1.52-0.342,2.093
			s-0.28,1.033-0.446,1.386c-0.165,0.354-0.344,0.63-0.537,0.825H121.777z"/>
		<path fill="#545454" d="M132.546,56.611l-3.355,7.206c-0.089,0.192-0.184,0.355-0.287,0.488c-0.102,0.133-0.212,0.243-0.332,0.325
			c-0.12,0.082-0.25,0.141-0.391,0.178c-0.14,0.037-0.294,0.057-0.46,0.057c-0.122,0-0.23-0.012-0.322-0.037
			c-0.093-0.022-0.14-0.057-0.14-0.096v-0.373h0.353c0.23,0,0.438-0.06,0.619-0.181s0.337-0.324,0.469-0.604l0.497-1.07
			l-3.303-5.893h0.551c0.054,0,0.097,0.014,0.133,0.036c0.034,0.025,0.063,0.063,0.086,0.107l2.551,4.646
			c0.107,0.197,0.192,0.397,0.254,0.602c0.027-0.099,0.059-0.201,0.099-0.306c0.038-0.099,0.082-0.203,0.133-0.302l2.133-4.64
			c0.019-0.039,0.047-0.076,0.083-0.102c0.038-0.028,0.082-0.042,0.135-0.042H132.546z"/>
		<path fill="#545454" d="M146.912,64.32v2.338c0,0.057-0.02,0.102-0.056,0.139c-0.037,0.033-0.085,0.051-0.147,0.051h-0.342v-2.053
			h-10.717v-8.184h0.596v7.709h4.043v-7.709h0.595v7.709h4.083v-7.709h0.596v7.709H146.912z"/>
		<path fill="#545454" d="M156.516,56.611v8.184h-0.594v-6.722c0-0.121,0.003-0.248,0.008-0.378
			c0.006-0.127,0.016-0.263,0.033-0.401c-0.054,0.119-0.11,0.229-0.163,0.328c-0.055,0.096-0.108,0.188-0.162,0.273l-4.725,6.716
			c-0.031,0.048-0.07,0.09-0.119,0.13c-0.049,0.033-0.102,0.054-0.159,0.054h-0.434v-8.184h0.596v6.721
			c0,0.121-0.003,0.248-0.005,0.375c-0.006,0.127-0.014,0.26-0.03,0.393c0.051-0.115,0.102-0.223,0.157-0.319
			c0.054-0.099,0.107-0.188,0.161-0.276l4.731-6.707c0.03-0.051,0.069-0.093,0.116-0.13c0.046-0.036,0.097-0.056,0.156-0.056
			H156.516z"/>
		<path fill="#545454" d="M166.457,64.797h-0.583c-0.055,0-0.097-0.017-0.127-0.051c-0.03-0.03-0.057-0.062-0.075-0.096l-2.58-3.775
			c-0.016,0.06-0.042,0.115-0.081,0.172l-2.533,3.604c-0.028,0.037-0.056,0.067-0.084,0.099s-0.066,0.048-0.113,0.048h-0.555
			l2.961-4.198l-2.828-3.985h0.584c0.055,0,0.095,0.012,0.119,0.034c0.027,0.022,0.046,0.051,0.066,0.082l2.486,3.578
			c0.024-0.057,0.052-0.116,0.086-0.173l2.4-3.399c0.02-0.037,0.044-0.065,0.074-0.088c0.028-0.022,0.062-0.034,0.102-0.034h0.566
			l-2.828,3.948L166.457,64.797z"/>
		<path fill="#545454" d="M181.483,60.703c0,0.632-0.094,1.2-0.282,1.705c-0.189,0.503-0.454,0.935-0.798,1.288
			c-0.344,0.355-0.756,0.627-1.235,0.815c-0.48,0.189-1.009,0.285-1.587,0.285h-2.991v-8.184h2.991c0.578,0,1.106,0.094,1.587,0.283
			c0.479,0.188,0.892,0.46,1.235,0.815c0.344,0.354,0.608,0.782,0.798,1.291C181.389,59.505,181.483,60.073,181.483,60.703z
			 M180.869,60.703c0-0.573-0.079-1.082-0.237-1.528s-0.381-0.824-0.67-1.132c-0.29-0.312-0.637-0.546-1.041-0.706
			c-0.405-0.164-0.853-0.243-1.341-0.243h-2.396v7.224h2.396c0.488,0,0.936-0.082,1.341-0.243c0.404-0.164,0.751-0.398,1.041-0.706
			c0.289-0.308,0.512-0.686,0.67-1.135C180.79,61.787,180.869,61.276,180.869,60.703z"/>
		<path fill="#545454" d="M185.745,64.797h-0.596v-8.184h0.596V64.797z"/>
		<path fill="#545454" d="M196.469,61.084v2.908c-0.41,0.288-0.845,0.512-1.308,0.664c-0.463,0.155-0.982,0.231-1.562,0.231
			c-0.646,0-1.229-0.096-1.745-0.297c-0.517-0.197-0.957-0.479-1.321-0.844c-0.365-0.364-0.645-0.805-0.839-1.322
			c-0.196-0.517-0.294-1.09-0.294-1.722c0-0.636,0.096-1.206,0.288-1.723c0.189-0.515,0.463-0.955,0.82-1.319
			c0.355-0.364,0.786-0.644,1.292-0.844c0.507-0.198,1.074-0.297,1.705-0.297c0.315,0,0.602,0.022,0.867,0.063
			c0.266,0.045,0.512,0.107,0.737,0.188c0.228,0.082,0.44,0.187,0.637,0.309c0.196,0.121,0.386,0.26,0.566,0.417l-0.161,0.255
			c-0.054,0.093-0.136,0.115-0.243,0.064c-0.059-0.025-0.141-0.076-0.248-0.163c-0.107-0.085-0.259-0.173-0.446-0.266
			c-0.189-0.094-0.424-0.176-0.703-0.249c-0.278-0.073-0.62-0.11-1.02-0.11c-0.534,0-1.014,0.085-1.443,0.255
			c-0.429,0.169-0.796,0.412-1.098,0.729c-0.303,0.316-0.537,0.703-0.701,1.157c-0.163,0.455-0.245,0.966-0.245,1.534
			c0,0.573,0.082,1.09,0.245,1.547c0.164,0.46,0.401,0.851,0.712,1.169c0.311,0.322,0.688,0.565,1.13,0.734
			c0.443,0.17,0.943,0.254,1.498,0.254c0.242,0,0.467-0.014,0.673-0.045s0.402-0.073,0.591-0.13
			c0.187-0.057,0.367-0.124,0.543-0.209c0.176-0.082,0.354-0.175,0.535-0.279v-2.203h-1.566c-0.043,0-0.079-0.014-0.107-0.042
			c-0.031-0.025-0.043-0.057-0.043-0.093v-0.322H196.469L196.469,61.084z"/>
		<path fill="#545454" d="M200.798,64.797h-0.595v-8.184h0.595V64.797z"/>
		<path fill="#545454" d="M210.306,57.116h-2.873v7.681h-0.597v-7.681h-2.892v-0.503h6.361V57.116z"/>
		<path fill="#545454" d="M218.87,64.797h-0.454c-0.054,0-0.099-0.017-0.133-0.045s-0.063-0.064-0.082-0.112l-0.96-2.375h-4.019
			l-0.96,2.375c-0.016,0.042-0.043,0.078-0.082,0.109c-0.038,0.031-0.086,0.048-0.139,0.048h-0.453l3.348-8.184h0.585L218.87,64.797
			z M217.061,61.821l-1.663-4.135c-0.059-0.136-0.115-0.296-0.167-0.485c-0.025,0.093-0.048,0.181-0.076,0.263
			s-0.057,0.161-0.088,0.229l-1.664,4.129H217.061z"/>
		<path fill="#545454" d="M226.471,64.292v0.503h-4.472v-8.184h0.596v7.681H226.471z"/>
		<path fill="#545454" d="M228.276,60.637h2.687v0.469h-2.687V60.637z"/>
		<path fill="#545454" d="M240.739,64.797h-0.508c-0.079,0-0.143-0.02-0.192-0.054c-0.051-0.033-0.102-0.09-0.155-0.166
			l-2.689-3.321c-0.054-0.067-0.106-0.13-0.157-0.181c-0.054-0.054-0.109-0.096-0.175-0.127c-0.063-0.034-0.136-0.057-0.216-0.073
			c-0.081-0.017-0.175-0.022-0.282-0.022h-1.058v3.944h-0.599v-8.184h0.596v3.776h0.941c0.095,0,0.184-0.006,0.265-0.018
			c0.079-0.011,0.152-0.031,0.226-0.062c0.07-0.028,0.139-0.068,0.203-0.125c0.068-0.054,0.134-0.121,0.203-0.206l2.567-3.183
			c0.039-0.054,0.086-0.099,0.14-0.133c0.055-0.033,0.116-0.051,0.185-0.051h0.48l-2.787,3.463
			c-0.101,0.132-0.206,0.237-0.319,0.313c-0.11,0.076-0.24,0.138-0.388,0.181c0.173,0.036,0.32,0.102,0.438,0.191
			c0.116,0.091,0.23,0.215,0.342,0.373L240.739,64.797z"/>
		<path fill="#545454" d="M250.704,60.703c0,0.632-0.093,1.205-0.282,1.72c-0.189,0.514-0.455,0.954-0.8,1.318
			c-0.344,0.364-0.754,0.646-1.233,0.845c-0.48,0.197-1.009,0.296-1.587,0.296c-0.582,0-1.108-0.099-1.586-0.296
			c-0.479-0.198-0.888-0.48-1.232-0.845s-0.61-0.805-0.8-1.318c-0.188-0.515-0.282-1.088-0.282-1.72c0-0.63,0.094-1.2,0.282-1.718
			c0.189-0.514,0.455-0.954,0.8-1.318s0.752-0.644,1.232-0.848c0.478-0.2,1.004-0.299,1.586-0.299c0.578,0,1.106,0.099,1.587,0.297
			c0.479,0.2,0.893,0.482,1.233,0.847c0.344,0.367,0.61,0.808,0.8,1.321C250.612,59.503,250.704,60.073,250.704,60.703z
			 M250.091,60.703c0-0.573-0.079-1.085-0.236-1.539c-0.158-0.455-0.385-0.842-0.673-1.158s-0.635-0.557-1.042-0.726
			c-0.403-0.167-0.85-0.252-1.341-0.252c-0.486,0-0.932,0.085-1.336,0.252c-0.404,0.169-0.754,0.412-1.045,0.726
			c-0.291,0.316-0.517,0.703-0.678,1.158c-0.159,0.454-0.24,0.966-0.24,1.539s0.082,1.087,0.24,1.538
			c0.159,0.455,0.387,0.839,0.678,1.155s0.639,0.557,1.045,0.723c0.404,0.164,0.85,0.249,1.336,0.249
			c0.491,0,0.936-0.085,1.341-0.249c0.407-0.166,0.754-0.406,1.042-0.723s0.515-0.7,0.673-1.155
			C250.012,61.79,250.091,61.276,250.091,60.703z"/>
		<path fill="#545454" d="M262.444,56.611v8.184h-0.515v-6.976c0-0.099,0.006-0.206,0.019-0.316l-3.221,5.719
			c-0.057,0.099-0.133,0.149-0.231,0.149h-0.093c-0.1,0-0.177-0.051-0.232-0.149l-3.308-5.732c0.013,0.115,0.019,0.226,0.019,0.33
			v6.976h-0.52v-8.184h0.409c0.054,0,0.096,0.005,0.128,0.017c0.033,0.011,0.063,0.042,0.092,0.093l3.302,5.69
			c0.058,0.11,0.108,0.226,0.149,0.348c0.024-0.06,0.048-0.122,0.076-0.181c0.028-0.06,0.057-0.119,0.088-0.173l3.211-5.685
			c0.029-0.051,0.062-0.082,0.093-0.093c0.034-0.012,0.076-0.017,0.133-0.017H262.444z"/>
		<path fill="#545454" d="M272.575,64.797h-0.596v-7.709h-4.753v7.709h-0.596v-8.184h5.944V64.797z"/>
		<path fill="#545454" d="M282.986,64.797h-0.456c-0.054,0-0.098-0.017-0.134-0.045c-0.033-0.028-0.062-0.064-0.081-0.112
			l-0.96-2.375h-4.02l-0.959,2.375c-0.016,0.042-0.042,0.078-0.082,0.109c-0.036,0.031-0.085,0.048-0.139,0.048h-0.453l3.348-8.184
			h0.585L282.986,64.797z M281.175,61.821l-1.664-4.135c-0.057-0.136-0.113-0.296-0.167-0.485c-0.025,0.093-0.048,0.181-0.076,0.263
			s-0.057,0.161-0.088,0.229l-1.666,4.129H281.175z"/>
		<path fill="#545454" d="M292.424,56.611v8.184h-0.596v-3.92h-5.125v3.92h-0.595v-8.184h0.595v3.817h5.125v-3.817H292.424z"/>
		<path fill="#545454" d="M302.926,56.611v8.184h-0.596v-6.722c0-0.121,0.003-0.248,0.009-0.378
			c0.006-0.127,0.017-0.263,0.032-0.401c-0.055,0.119-0.108,0.229-0.162,0.328c-0.054,0.096-0.107,0.188-0.161,0.273l-4.726,6.716
			c-0.03,0.048-0.07,0.09-0.119,0.13c-0.048,0.036-0.1,0.054-0.159,0.054h-0.434v-8.184h0.596v6.721
			c0,0.121-0.001,0.248-0.006,0.375c-0.004,0.127-0.015,0.26-0.029,0.393c0.051-0.115,0.102-0.223,0.155-0.319
			c0.054-0.099,0.107-0.188,0.161-0.276l4.729-6.707c0.031-0.051,0.071-0.093,0.116-0.13c0.047-0.039,0.099-0.056,0.157-0.056
			H302.926z"/>
		<path fill="#545454" d="M313.428,56.611v8.184h-0.596v-6.722c0-0.121,0.003-0.248,0.009-0.378
			c0.006-0.127,0.019-0.263,0.032-0.401c-0.055,0.119-0.108,0.229-0.162,0.328c-0.054,0.096-0.107,0.188-0.161,0.273l-4.725,6.716
			c-0.03,0.048-0.071,0.09-0.118,0.13c-0.048,0.036-0.102,0.054-0.161,0.054h-0.432v-8.184h0.596v6.721
			c0,0.121-0.003,0.248-0.006,0.375c-0.006,0.127-0.016,0.26-0.031,0.393c0.051-0.115,0.102-0.223,0.155-0.319
			c0.054-0.099,0.107-0.188,0.162-0.276l4.729-6.707c0.03-0.051,0.07-0.093,0.115-0.13c0.048-0.039,0.099-0.056,0.157-0.056H313.428
			z M310.245,55.704c0.348,0,0.599-0.087,0.755-0.26c0.152-0.172,0.229-0.454,0.229-0.844h0.313c0.041,0,0.075,0.017,0.101,0.054
			c0.023,0.039,0.036,0.084,0.036,0.138c0,0.37-0.118,0.661-0.358,0.876c-0.237,0.214-0.596,0.318-1.076,0.318
			c-0.477,0-0.835-0.104-1.078-0.318c-0.24-0.215-0.361-0.506-0.361-0.876c0-0.057,0.016-0.102,0.042-0.138
			c0.025-0.034,0.063-0.054,0.104-0.054h0.306c0,0.39,0.076,0.672,0.231,0.844C309.645,55.617,309.896,55.704,310.245,55.704z"/>
	</g>
</g>
</svg>
