<svg width="60" height="60" viewBox="0 0 60 60" fill="none" xmlns="http://www.w3.org/2000/svg">
<path d="M27.2539 30.0004C27.2539 30.7297 27.5436 31.4292 28.0594 31.9449C28.5751 32.4606 29.2745 32.7503 30.0039 32.7503C30.7332 32.7503 31.4327 32.4606 31.9484 31.9449C32.4641 31.4292 32.7539 30.7297 32.7539 30.0004C32.7539 29.271 32.4641 28.5715 31.9484 28.0558C31.4327 27.5401 30.7332 27.2504 30.0039 27.2504C29.2745 27.2504 28.5751 27.5401 28.0594 28.0558C27.5436 28.5715 27.2539 29.271 27.2539 30.0004Z" stroke="#6657C2" stroke-width="2" stroke-linecap="round" stroke-linejoin="round"/>
<path d="M29.9999 16.2506C27.2805 16.2506 24.622 17.057 22.3609 18.5679C20.0997 20.0788 18.3374 22.2262 17.2967 24.7387C16.256 27.2511 15.9837 30.0158 16.5142 32.683C17.0448 35.3502 18.3543 37.8002 20.2773 39.7232C22.2002 41.6462 24.6502 42.9557 27.3175 43.4863C29.9847 44.0168 32.7493 43.7445 35.2618 42.7038C37.7743 41.6631 39.9217 39.9007 41.4326 37.6396C42.9434 35.3784 43.7498 32.72 43.7498 30.0005" stroke="#47454D" stroke-width="2" stroke-linecap="round" stroke-linejoin="round"/>
<path d="M32.7514 5.40176C27.6531 4.82979 22.5031 5.85627 18.0137 8.33921C13.5243 10.8221 9.91741 14.6388 7.692 19.2613C5.46658 23.8838 4.73261 29.0835 5.59161 34.1414C6.45062 39.1992 8.86014 43.8651 12.4869 47.4937C16.1136 51.1223 20.7783 53.5341 25.8357 54.3957C30.8931 55.2572 36.0933 54.5259 40.7169 52.3028C45.3404 50.0797 49.1589 46.4748 51.6441 41.9866C54.1293 37.4985 55.1584 32.349 54.589 27.2504" stroke="#47454D" stroke-width="2" stroke-linecap="round" stroke-linejoin="round"/>
<path d="M38.25 21.7503V13.5003L46.4999 5.25037V13.5003H54.7499L46.4999 21.7503H38.25ZM38.25 21.7503L30 30.0002" stroke="#6657C2" stroke-width="2" stroke-linecap="round" stroke-linejoin="round"/>
</svg>
