<svg width="49" height="67" viewBox="0 0 49 67" fill="none" xmlns="http://www.w3.org/2000/svg">
<path d="M25.8379 45.8087C27.5196 47.1397 29.6988 49.1248 31.1624 50.4894C38.6269 45.4468 48.0932 37.6364 48.0932 29.1942C48.0932 23.2324 43.9974 17.1775 37.8537 17.1775C30.5326 17.1775 25.141 22.8411 24.476 23.5697C23.8128 22.8411 18.4198 17.1775 11.0984 17.1775C4.95509 17.1775 0.859375 23.2324 0.859375 29.1942C0.859375 42.0165 22.9577 53.0384 26.1884 55.8019C32.3087 61.0375 27.203 64.6066 24.4946 64.6193C21.8192 64.6066 17.393 61.8467 22.6963 55.8512C21.621 54.7457 19.5758 53.7285 18.2306 52.9259C16.5441 54.9254 15.4356 56.8882 15.4356 58.7008C15.4356 65.6142 21.8889 66.9999 24.5156 66.9999C27.143 66.9999 33.5164 64.9752 33.5164 58.7008C33.5164 52.7546 21.6258 45.2226 16.4047 39.999C11.7508 35.3412 10.9115 32.268 10.9115 29.8453C10.9115 27.238 13.519 24.35 16.6835 24.35C21.3374 24.35 23.8206 27.5861 24.4063 28.459H24.5457C25.1308 27.5861 27.6134 24.35 32.2678 24.35C35.433 24.35 38.0393 27.238 38.0393 29.8453C38.0393 32.2674 37.2005 35.3412 32.5466 39.999C30.8182 41.7292 28.3573 43.7142 25.8379 45.8087Z" fill="#E20065"/>
<path d="M30.3665 15.4264C34.3832 15.4264 37.6393 12.1683 37.6393 8.14921C37.6393 4.13016 34.3832 0.87207 30.3665 0.87207C26.3499 0.87207 23.0938 4.13016 23.0938 8.14921C23.0938 12.1683 26.3499 15.4264 30.3665 15.4264Z" fill="#E20065"/>
<path d="M19.2812 0.87207C20.931 0.87207 22.4481 1.42875 23.6696 2.35515C22.2222 3.85747 21.3301 5.89964 21.3301 8.14981C21.3301 10.4012 22.2216 12.4428 23.6696 13.9445C22.4487 14.8715 20.931 15.4282 19.2812 15.4282C15.2636 15.4282 12.0078 12.1686 12.0078 8.15041C12.0078 4.13221 15.2642 0.87207 19.2812 0.87207Z" fill="#E20065"/>
</svg>
