<svg width="1592" height="835" viewBox="0 0 1592 835" fill="none" xmlns="http://www.w3.org/2000/svg">
<path d="M415.312 386.884C412.413 397.528 409.438 409.092 406.082 422.416C400.513 444.701 389.985 502.441 386.781 540.577C385.103 541.343 380.144 542.032 377.779 542.032C370.074 542.032 361.072 537.284 360.538 525.031C359.775 509.869 368.625 453.813 381.975 401.893C382.433 400.285 382.814 398.677 383.272 397.069C366.107 402.965 350.163 409.245 335.821 415.371C330.481 438.957 323.387 475.026 320.717 510.788C320.183 511.324 315.148 512.09 312.63 512.09C303.476 512.09 297.068 505.963 297.144 495.549C297.22 475.179 301.721 448.453 305.612 429.155C286.311 438.574 271.817 446.768 263.654 451.669C262.205 448.912 261.747 444.471 262.128 442.327C262.586 439.263 264.417 432.525 271.74 427.394C283.717 419.123 296.839 411.006 311.257 403.272C318.657 372.947 328.727 342.162 337.118 323.936C342.535 312.143 349.477 307.702 361.378 307.702C364.505 307.702 368.777 308.467 371.066 309.157C360.31 332.59 350.24 360.464 342.458 388.186C357.182 381.753 373.126 375.627 390.519 369.883C398.987 340.324 406.539 319.188 413.634 305.787C418.059 297.364 425.382 293.994 432.019 293.228C437.893 292.539 443.004 293.305 447.582 294.53C436.596 320.873 429.349 340.401 423.094 360.388C434.994 357.248 447.505 354.185 460.703 351.428C467.874 349.896 493.735 345.302 498.465 370.496C469.4 373.406 441.326 379.456 415.312 386.884Z" fill="#509E34"/>
<path d="M802.998 376.447C802.998 368.451 810.635 361.487 818.271 361.487C823.966 361.487 828.367 365.485 828.237 371.418C828.237 379.284 820.471 386.377 812.835 386.377C807.14 386.377 802.998 382.251 802.998 376.447Z" fill="#509E34"/>
<path d="M747.602 455.503C747.602 455.503 761.322 389.344 765.593 368.322C769.864 347.559 791.091 351.299 791.091 351.299L764.817 478.2H761.84C741.903 478.2 746.636 459.35 747.585 455.572L747.602 455.503Z" fill="#509E34"/>
<path d="M787.855 455.503C787.855 455.503 792.385 432.934 796.786 412.428C801.186 392.181 821.378 395.792 822.284 395.663L805.199 478.2H802.222C782.155 478.2 786.889 459.348 787.838 455.571L787.855 455.503Z" fill="#509E34"/>
<path d="M1115.96 455.503C1115.96 455.503 1131.88 378.253 1135.25 362.777C1138.87 345.754 1155.18 345.754 1160.35 346.527L1133.17 478.2H1130.2C1110.52 478.2 1115.05 460.016 1115.96 455.503Z" fill="#509E34"/>
<path d="M1188.05 405.593C1193.75 399.145 1202.81 394.373 1213.42 394.373C1230.25 394.373 1241.9 404.046 1237.11 426.357L1226.36 478.329H1223.39C1203.45 478.329 1208.18 459.479 1209.13 455.701L1209.15 455.632L1214.97 427.259C1217.43 415.523 1213.42 410.752 1205.78 410.752C1190.42 410.752 1186.26 430.006 1184.06 440.213L1184.04 440.285L1176.15 478.329H1173.17C1153.11 478.329 1158.15 459.372 1158.93 455.632L1163.46 433.708C1167.73 411.139 1169.93 407.141 1166.05 395.921C1187.28 389.473 1188.05 405.593 1188.05 405.593Z" fill="#509E34"/>
<path d="M630.339 396.437C633.963 379.155 636.293 368.58 637.199 363.809C641.599 342.787 662.696 346.527 662.826 346.527L635.516 478.2H632.539C612.602 478.2 617.336 459.35 618.285 455.572L618.302 455.503C618.302 455.503 622.185 437.061 625.809 419.392L588.792 426.743L578.049 478.2H574.943C554.881 478.2 559.8 459.758 560.706 455.503C560.706 455.503 577.661 374.255 578.826 368.322C582.45 349.365 600.829 350.783 604.194 351.428L593.322 403.788L630.339 396.437Z" fill="#509E34"/>
<path d="M1278.78 405.593C1284.48 399.145 1293.54 394.373 1304.15 394.373C1320.98 394.373 1332.63 404.046 1327.97 426.357L1317.22 478.329H1314.25C1294.31 478.329 1299.04 459.479 1299.99 455.701L1300.01 455.632L1305.83 427.259C1308.29 415.523 1304.28 410.752 1296.64 410.752C1281.28 410.752 1277.12 430.006 1274.92 440.213L1274.9 440.285L1267 478.329H1264.03C1243.84 478.329 1248.88 459.372 1249.66 455.632L1254.19 433.708C1258.46 411.139 1260.66 407.141 1256.78 395.921C1278.01 389.473 1278.78 405.593 1278.78 405.593Z" fill="#509E34"/>
<path fill-rule="evenodd" clip-rule="evenodd" d="M738.801 423.777C738.801 441.316 731.683 457.953 719.257 468.012C711.491 474.46 701.008 478.329 689.359 478.329C670.721 478.329 657.39 468.27 657.39 448.796C657.39 431.386 664.508 414.75 676.934 404.819C684.829 398.371 695.183 394.502 706.961 394.502C725.34 394.373 738.801 404.175 738.801 423.777ZM704.114 409.075C712.915 409.075 716.28 415.266 716.28 423.906C716.28 433.192 712.786 447.12 705.926 455.889C702.172 460.532 697.642 463.756 692.077 463.756C683.146 463.756 679.652 457.566 679.652 448.796C679.652 439.382 683.146 425.583 690.006 416.942C693.63 412.299 698.548 409.075 704.114 409.075Z" fill="#509E34"/>
<path fill-rule="evenodd" clip-rule="evenodd" d="M893.988 478.2L920.262 351.299C920.178 351.293 920.054 351.281 919.896 351.265C916.649 350.945 898.584 349.16 894.635 368.709C893.436 374.922 891.546 383.89 890.336 389.627C889.689 392.698 889.237 394.843 889.19 395.145C887.376 394.63 884.146 394.373 880.915 394.373C848.946 394.373 826.166 420.166 826.166 449.183C826.166 466.98 837.168 478.2 853.994 478.2C863.96 478.2 871.855 474.589 876.515 469.689C878.456 475.75 884.28 478.2 891.011 478.2H893.988ZM879.88 408.43C882.339 408.43 885.186 409.075 886.351 409.72L879.233 443.38C877.938 449.441 875.868 454.6 872.891 458.082C869.914 461.306 866.16 463.369 860.854 463.369C853.476 463.369 848.946 458.082 848.946 448.667C848.946 429.323 862.795 408.43 879.88 408.43Z" fill="#509E34"/>
<path fill-rule="evenodd" clip-rule="evenodd" d="M997.92 401.982L982.13 478.2H979.153C972.422 478.2 966.598 475.879 964.657 469.689C960.126 474.589 952.102 478.2 942.136 478.2C925.31 478.2 915.214 467.238 915.214 449.312C915.214 418.748 939.418 394.244 969.963 394.244C980.447 394.373 989.378 397.34 997.92 401.982ZM969.445 408.301C971.516 408.301 973.07 408.946 974.493 409.591L967.504 443.122C966.21 449.183 964.268 454.342 961.291 457.824C958.314 461.048 954.302 463.112 948.995 463.112C941.489 463.112 937.735 458.082 937.735 448.667C937.735 431.644 950.031 408.301 969.445 408.301Z" fill="#509E34"/>
<path fill-rule="evenodd" clip-rule="evenodd" d="M1064.06 413.331C1068.59 392.31 1089.94 395.921 1089.94 395.921L1074.93 466.207C1071.95 480.393 1067.94 490.323 1061.34 497.674C1053.32 506.573 1040.89 511.989 1024.97 511.989C1006.46 511.989 992.613 503.735 992.613 489.678C992.613 480.264 998.567 473.429 1011.51 470.334C1008.15 466.594 1005.94 461.822 1005.94 455.889C1005.94 451.763 1006.85 446.733 1008.02 441.832C1008.02 441.832 1008.92 437.963 1013.84 414.75C1018.89 391.536 1039.98 395.792 1039.98 395.792L1030.15 442.477C1030.11 442.661 1030.06 442.87 1030 443.1C1028.89 447.857 1025.61 461.822 1038.82 461.822C1054.19 461.822 1057.97 443.191 1060.06 432.868C1060.1 432.672 1060.14 432.479 1060.18 432.289C1060.13 432.289 1060.08 432.352 1060.06 432.344C1059.93 432.304 1060.32 430.674 1064.06 413.331ZM1031.18 477.169C1039.73 476.137 1047.36 474.202 1051.63 470.334L1050.08 476.266C1048.53 482.714 1045.42 488.647 1041.15 492.773C1037.01 496.771 1031.31 498.964 1025.1 498.964C1017.46 498.964 1010.99 495.353 1010.99 488.904C1010.99 480.522 1019.15 478.587 1031.18 477.169Z" fill="#509E34"/>
</svg>
