<svg width="1592" height="835" viewBox="0 0 1592 835" fill="none" xmlns="http://www.w3.org/2000/svg">
<g clip-path="url(#clip0_1451_1900)">
<path d="M552.591 358.837C552.591 345.836 552.352 343.465 536.836 341.232V339.447H577.592V341.232C563.379 343.111 563.01 346.659 563.01 358.837V401.159C563.133 424.105 560.411 429.186 534.707 440.171L533.759 438.162C551.165 430.01 552.591 417.247 552.591 395.97V358.837Z" fill="black"/>
<path d="M597.411 386.146C595.398 392.065 590.171 404.366 590.171 410.032C590.171 417.244 598.345 417.244 603.681 418.076V419.846H571.229V418.076C581.779 415.235 582.836 412.872 586.507 403.643L599.887 368.765L607.005 349.497C608.062 346.419 609.604 343.586 608.301 341.345C611.501 340.037 614.455 337.92 616.946 334.964L643.004 404.236C646.197 412.872 648.224 416.298 657.695 418.076V419.846H622.876V418.076C627.017 417.129 631.999 415.821 631.999 410.509C631.999 405.536 627.488 394.421 624.411 386.146H597.411ZM610.552 349.967L599.417 380.704H622.876L610.552 349.967Z" fill="black"/>
<path d="M715.014 402.583L736.453 355.527C739.422 349.037 741.073 343.111 738.466 341.34L738.712 339.447H764.749V341.225C757.183 342.757 752.563 345.597 753.034 353.872L755.641 396.91C756.944 413.337 756.944 415.946 769.607 418.078V419.841H730.654V418.078C739.777 416.654 745.569 415.592 744.983 405.185L741.782 353.525H741.551L711.351 419.841H710.055L681.976 356.243H681.745C679.84 374.325 678.899 387.449 678.066 405.763C677.835 410.381 677.951 415.707 692.279 418.078V419.841H659.249V418.078C669.783 416.3 670.84 411.212 672.506 401.643L676.886 368.42L678.428 352.34C679.145 344.527 672.383 341.81 665.403 341.225V339.447H690.983L691.099 340.748C688.485 343.465 691.679 350.562 692.518 352.455L715.014 402.583Z" fill="black"/>
<path d="M774.493 418.076C788.713 416.176 788.822 412.627 789.162 400.457V358.836C788.822 346.658 788.713 343.109 774.493 341.23V339.453H838.093L836.667 357.65H834.9C834.06 342.408 823.04 342.278 811.094 342.278H799.603V375.978H811.912C820.796 375.978 827.551 375.27 828.847 365.109H830.628V391.466H828.847C827.305 381.074 820.796 380.936 811.912 380.936H799.603V400.334C799.603 407.301 797.938 417 817.364 417C832.294 417 839.628 411.341 842.59 396.431H844.356C844.248 405.414 842.713 412.75 840.345 419.847H774.493V418.076Z" fill="black"/>
<path d="M898.62 360.256H896.731C894.834 350.68 891.757 341.459 880.034 341.459C872.439 341.459 866.169 346.655 866.169 354.467C866.169 374.913 903.479 374.205 903.479 398.09C903.479 413.332 888.31 421.268 874.705 421.268C867.458 421.268 859.884 419.136 853.86 415.233L850.414 395.134H852.535C855.496 406.488 863.439 417.719 876.472 417.719C885.226 417.719 892.111 412.523 892.111 403.294C892.111 382.249 855.873 384.142 855.873 360.495C855.873 346.655 869.608 337.917 882.272 337.917C888.31 337.917 894.356 339.681 899.576 342.521L898.62 360.256Z" fill="black"/>
<path d="M1003.46 363.804H1001.68C999.432 350.441 991.612 340.872 977.406 340.872C955.721 340.872 943.514 358.593 943.514 378.937C943.514 402.237 961.398 418.419 978.594 418.419C994.088 418.419 1000.25 407.072 1005.59 394.309L1007.26 395.018C1005.82 402.237 1003.58 409.327 1000.74 416.179C993.154 419.843 984.98 421.266 976.559 421.266C951.804 421.266 929.779 407.072 929.779 380.354C929.779 359.308 946.244 338.024 977.515 338.024C986.522 338.024 995.638 339.81 1003.46 344.413V363.804Z" fill="black"/>
<path d="M1100.13 379.65C1100.13 405.068 1081.65 421.257 1056.77 421.257C1031.79 421.257 1013.42 405.068 1013.42 379.535C1013.42 354.341 1031.91 338.022 1056.66 338.022C1086.99 338.022 1100.13 358.605 1100.13 379.65ZM1027.17 376.687C1027.17 395.015 1036.88 418.424 1058.2 418.424C1077.73 418.424 1086.4 398.557 1086.4 381.66C1086.03 360.723 1073.83 340.87 1055.71 340.87C1035.33 340.87 1027.17 360.723 1027.17 376.687Z" fill="black"/>
<path d="M1195.25 379.65C1195.25 405.068 1176.78 421.257 1151.9 421.257C1126.91 421.257 1108.55 405.068 1108.55 379.535C1108.55 354.341 1127.03 338.022 1151.8 338.022C1182.11 338.022 1195.25 358.605 1195.25 379.65ZM1122.29 376.687C1122.29 395.015 1132.01 418.424 1153.32 418.424C1172.88 418.424 1181.53 398.557 1181.53 381.66C1181.16 360.723 1168.96 340.87 1150.83 340.87C1130.48 340.87 1122.29 360.723 1122.29 376.687Z" fill="black"/>
<path d="M1222.54 400.456C1222.89 412.634 1223.01 416.182 1238.29 418.076V419.846H1197.41V418.076C1211.64 416.182 1211.76 412.634 1212.11 400.456V358.835C1211.76 346.657 1211.64 343.109 1197.41 341.23V339.444H1235.09V341.23C1223.01 343.109 1222.89 346.657 1222.54 358.835V400.456ZM1276.07 339.444V341.23C1262.57 342.646 1253.57 354.115 1244.8 363.214L1233.67 375.038L1257.72 401.518C1264.95 409.439 1273.48 416.529 1284 419.485L1283.42 421.263C1262.81 419.608 1259.49 419.015 1248.35 406.837L1224.19 380.588L1243.26 359.904C1255.7 345.956 1253.33 342.053 1245.38 341.23V339.444H1276.07Z" fill="black"/>
<path d="M629.345 450.413V452.183C618.564 453.361 617.855 459.996 617.391 475.592L616.667 501.479C616.32 516.75 609.803 532.224 583.506 532.224C546.797 532.224 550.584 505.736 550.584 496.29V469.803C550.222 457.618 550.106 454.084 535.886 452.183V450.413H576.758V452.183C561.235 454.431 561.003 456.794 561.003 469.803V494.036C561.003 496.29 557.209 526.796 589.661 526.796C615.248 526.796 612.765 502.441 612.765 488.008V475.592C612.765 460.581 611.585 453.73 595.004 452.183V450.413H629.345Z" fill="black"/>
<path d="M711.764 512.246L711.17 469.093C711.047 457.855 707.977 454.545 694.597 452.182V450.411H726.911V452.182C718.744 453.251 717.209 457.747 716.268 465.429C714.602 478.423 715.196 506.927 715.782 532.699L714.255 533.06C695.299 510.721 674.222 490.016 654.202 468.493V490.261C654.202 519.575 653.493 525.602 670.667 529.028V530.82H635.261V529.028C651.248 527.387 650.647 516.496 650.647 489.676V471.933C650.647 460.11 648.758 455.492 633.712 452.182V450.411H653.254L711.764 512.246Z" fill="black"/>
<path d="M757.078 511.428C757.433 523.598 757.563 527.147 771.769 529.04V530.818H731.975V529.04C746.181 527.147 746.311 523.598 746.659 511.428V469.807C746.311 457.614 746.181 454.08 731.975 452.18V450.416H771.769V452.18C757.563 454.08 757.433 457.614 757.078 469.807V511.428Z" fill="black"/>
<path d="M863.326 450.413V452.183C852.19 453.137 848.758 462.467 841.416 479.61L818.782 533.525H817.131L790.371 469.572C786.808 460.928 784.086 453.361 773.544 452.183V450.413H811.093V452.183C794.389 453.838 799.834 463.299 802.911 470.75L821.859 516.389L835.848 482.927C846.021 458.68 847.918 454.785 829.925 452.183V450.413H863.326Z" fill="black"/>
<path d="M864.391 529.031C878.618 527.152 878.734 523.596 879.081 511.425V469.804C878.734 457.62 878.618 454.078 864.391 452.178V450.414H928.005L926.586 468.619H924.805C923.972 453.363 912.952 453.247 900.991 453.247H889.515V486.947H901.831C910.701 486.947 917.463 486.239 918.759 476.07H920.548V502.435H918.759C917.224 492.035 910.701 491.919 901.831 491.919H889.515V511.31C889.515 518.277 887.85 527.968 907.283 527.968C922.191 527.968 929.547 522.295 932.502 507.4H934.283C934.167 516.391 932.625 523.719 930.257 530.816H864.391V529.031Z" fill="black"/>
<path d="M953.567 474.763C953.567 456.673 952.973 453.963 939.709 452.771V451.123L968.613 450.176C998.458 449.23 1000.83 463.771 1000.83 469.451C1000.83 479.381 994.671 485.054 986.149 488.849L986.735 489.673C995.858 505.623 1007.22 525.96 1026.78 529.993L1026.41 531.749C1013.85 531.163 1004.62 531.525 997.748 524.428C989.928 516.268 983.774 505.869 981.291 500.773C976.548 490.966 972.283 493.814 963.993 492.383V511.426C963.993 524.428 964.218 526.791 980.451 529.031V530.817H938.883V529.031C953.089 527.152 953.205 523.597 953.567 511.426V474.763ZM963.993 490.381C975.361 490.265 988.632 485.054 988.632 471.937C988.632 458.09 976.425 452.54 963.993 452.655V490.381Z" fill="black"/>
<path d="M1071.6 471.223H1069.71C1067.81 461.64 1064.72 452.418 1053 452.418C1045.42 452.418 1039.15 457.615 1039.15 465.427C1039.15 485.88 1076.45 485.172 1076.45 509.064C1076.45 524.299 1061.29 532.22 1047.67 532.22C1040.45 532.22 1032.86 530.103 1026.81 526.193L1023.4 506.109H1025.52C1028.49 517.455 1036.41 528.686 1049.45 528.686C1058.21 528.686 1065.07 523.49 1065.07 514.268C1065.07 493.223 1028.84 495.109 1028.84 471.454C1028.84 457.615 1042.58 448.884 1055.24 448.884C1061.29 448.884 1067.33 450.648 1072.55 453.488L1071.6 471.223Z" fill="black"/>
<path d="M1106.23 511.428C1106.59 523.598 1106.71 527.147 1120.92 529.04V530.818H1081.11V529.04C1095.34 527.147 1095.45 523.598 1095.82 511.428V469.807C1095.45 457.614 1095.34 454.08 1081.11 452.18V450.416H1120.92V452.18C1106.71 454.08 1106.59 457.614 1106.23 469.807V511.428Z" fill="black"/>
<path d="M1199.14 446.751H1200.07L1201.74 468.866L1200.07 469.213C1195.93 454.542 1189.43 453.964 1175.81 453.964H1168.69V508.587C1168.69 523.236 1169.4 527.146 1185.28 529.032V530.824H1141.69V529.032C1157.56 527.146 1158.27 523.236 1158.27 508.587V453.964H1151.17C1137.54 453.964 1131.02 454.542 1126.87 469.213L1125.23 468.866L1126.87 446.751H1127.83L1129.02 447.814C1131.98 450.531 1132.46 450.415 1136.36 450.415H1190.62C1194.52 450.415 1194.99 450.531 1197.95 447.814L1199.14 446.751Z" fill="black"/>
<path d="M1279.95 450.413V452.183C1269.64 453.014 1264.55 458.68 1259.57 467.201L1245.6 494.859V508.244C1245.84 521.824 1246.07 526.673 1261.23 529.029V530.822H1219.53V529.029C1234.7 526.673 1234.94 521.824 1235.16 508.244V498.769L1222.86 471.935C1218.35 462.005 1215.15 453.607 1203.18 452.183V450.413H1235.88V452.183C1226.16 453.491 1227.47 457.387 1231.27 465.662L1243.11 491.202L1253.41 471.689C1260.75 457.979 1259.8 453.491 1249.51 452.183V450.413H1279.95Z" fill="black"/>
<path d="M475.362 406.768C469.468 410.165 461.048 412.282 451.686 412.282C442.317 412.282 433.903 410.165 428.01 406.775C422.116 403.386 413.681 401.268 404.333 401.268C394.979 401.268 386.536 403.386 380.657 406.775C374.756 410.165 366.328 412.282 356.966 412.282C347.612 412.282 339.191 410.165 333.305 406.775C327.404 403.386 318.983 401.268 309.614 401.268C308.738 401.268 307.869 401.297 307 401.333V423.21C307 426.52 307.123 429.707 307.311 432.843C308.072 432.815 308.839 432.778 309.614 432.778C318.983 432.778 327.404 434.896 333.305 438.3C339.191 441.682 347.612 443.8 356.966 443.8C366.328 443.8 374.756 441.682 380.657 438.3C386.536 434.896 394.979 432.778 404.333 432.778C413.681 432.778 422.116 434.896 428.01 438.3C433.903 441.682 442.317 443.8 451.686 443.8C461.048 443.8 469.468 441.682 475.362 438.293C481.256 434.896 489.677 432.778 499.031 432.778C499.82 432.778 500.581 432.815 501.348 432.843C501.536 429.707 501.652 426.52 501.652 423.21V401.333C500.791 401.297 499.929 401.268 499.031 401.268C489.677 401.268 481.256 403.386 475.362 406.768Z" fill="#0072BC"/>
<path d="M451.689 475.32C442.328 475.32 433.9 473.203 428.006 469.813C422.112 466.424 413.684 464.292 404.337 464.292C394.982 464.292 386.54 466.424 380.653 469.813C374.752 473.203 366.332 475.32 356.97 475.32C347.615 475.327 339.187 473.203 333.301 469.813C328.059 466.792 320.818 464.79 312.716 464.393C316.858 478.254 322.998 489.897 330.245 499.827C331.324 500.304 332.345 500.781 333.301 501.338C339.187 504.72 347.615 506.852 356.97 506.845C366.332 506.845 374.752 504.72 380.653 501.338C386.54 497.941 394.982 495.809 404.337 495.809C413.684 495.809 422.112 497.927 428.006 501.338C433.9 504.72 442.328 506.845 451.689 506.845C461.044 506.845 469.465 504.72 475.366 501.338C476.314 500.774 477.35 500.297 478.421 499.82C485.669 489.897 491.787 478.254 495.943 464.393C487.834 464.79 480.593 466.792 475.366 469.813C469.465 473.203 461.044 475.32 451.689 475.32Z" fill="#0072BC"/>
<path d="M428.007 532.849C422.113 529.467 413.685 527.335 404.338 527.335C394.976 527.335 386.541 529.467 380.654 532.849C377.816 534.489 374.391 535.805 370.561 536.759C384.137 545.814 396.685 552.478 404.338 558.852C411.976 552.478 424.524 545.814 438.1 536.759C434.27 535.805 430.845 534.489 428.007 532.849Z" fill="#0072BC"/>
<path d="M475.362 343.729C469.468 347.119 461.048 349.258 451.686 349.258C442.317 349.258 433.903 347.119 428.01 343.729C422.116 340.347 413.681 338.222 404.333 338.222C394.979 338.222 386.536 340.347 380.657 343.729C374.756 347.119 366.328 349.258 356.966 349.258C347.612 349.258 339.191 347.119 333.305 343.729C327.404 340.347 318.983 338.222 309.614 338.222C308.738 338.222 307.869 338.259 307 338.295V369.812C307.869 369.783 308.738 369.747 309.614 369.747C318.983 369.747 327.404 371.865 333.305 375.254C339.191 378.658 347.612 380.768 356.966 380.768C366.328 380.768 374.756 378.658 380.657 375.254C386.536 371.865 394.979 369.747 404.333 369.747C413.681 369.747 422.116 371.865 428.01 375.254C433.903 378.658 442.317 380.768 451.686 380.768C461.048 380.768 469.468 378.658 475.362 375.254C481.256 371.865 489.677 369.747 499.031 369.747C499.929 369.747 500.791 369.783 501.652 369.819V338.295C500.791 338.259 499.929 338.222 499.031 338.222C489.677 338.222 481.256 340.347 475.362 343.729Z" fill="#0072BC"/>
<path d="M404.334 279.002C386.711 279.002 372.425 293.261 372.425 310.845C372.425 312.435 372.584 313.988 372.809 315.506C375.734 314.624 378.384 313.511 380.658 312.211C386.537 308.828 394.979 306.703 404.334 306.703C413.681 306.703 422.116 308.828 428.003 312.211C430.276 313.519 432.926 314.624 435.859 315.513C436.083 313.988 436.235 312.435 436.235 310.845C436.235 293.261 421.957 279.002 404.334 279.002ZM360.848 288.354C360.211 288.448 359.581 288.628 358.936 288.744C357.249 289.033 355.649 289.069 354.034 289.011C352.376 288.954 350.429 288.563 349.328 287.848C349.046 289.503 351.102 291.693 352.84 292.864C354.034 293.68 355.294 294.381 356.627 294.815C357.148 295.003 357.669 295.089 358.183 295.285C359.783 295.841 361.347 296.867 362.593 297.966C364.207 299.382 365.54 301.189 366.778 302.779C367.77 298.132 369.63 293.774 372.165 289.908C370.485 289.308 368.66 288.657 366.676 288.354C364.917 288.079 362.839 288.05 360.848 288.354ZM477.216 310.852L442.187 304.586C442.534 306.624 442.759 308.72 442.759 310.852C442.759 312.984 442.534 315.065 442.187 317.111L477.216 310.852ZM366.445 304.586L331.437 310.852L366.459 317.111C366.14 315.065 365.902 312.984 365.902 310.852C365.902 308.72 366.14 306.624 366.445 304.586ZM451.013 296.065C451.404 295.53 451.715 294.959 452.106 294.446C453.077 293.044 454.184 291.895 455.35 290.797C456.566 289.676 458.232 288.563 459.535 288.289C458.543 286.937 455.538 286.814 453.475 287.219C452.056 287.494 450.716 287.87 449.42 288.506C448.913 288.751 448.479 289.055 447.972 289.293C446.452 290.009 444.634 290.406 442.954 290.5C440.826 290.645 438.596 290.298 436.597 290.038H436.568C439.088 293.926 440.934 298.262 441.919 302.945C443.548 302.179 445.264 301.348 446.886 300.177C448.327 299.129 449.826 297.684 451.013 296.065ZM382.475 279.342L360.449 267.034L372.737 289.033C375.401 285.232 378.674 281.951 382.475 279.342ZM435.917 289.033L448.204 267.034L426.193 279.342C429.98 281.951 433.274 285.232 435.917 289.033ZM410.792 273.076L404.334 209L397.868 273.076C399.975 272.736 402.118 272.505 404.334 272.505C406.528 272.505 408.678 272.736 410.792 273.076ZM381.946 265.849C382.185 266.333 382.497 266.781 382.728 267.28C383.452 268.812 383.858 270.626 383.945 272.273C384.075 274.42 383.749 276.646 383.489 278.633V278.677C387.355 276.154 391.728 274.304 396.413 273.321C395.645 271.703 394.827 269.968 393.632 268.371C392.59 266.925 391.127 265.437 389.527 264.266C388.991 263.876 388.427 263.55 387.884 263.182C386.486 262.192 385.342 261.093 384.227 259.93C383.112 258.708 381.997 257.046 381.729 255.745C380.368 256.735 380.259 259.727 380.658 261.801C380.947 263.232 381.316 264.569 381.946 265.849ZM426.873 273.271C427.141 271.515 427.177 269.426 426.873 267.439C426.779 266.803 426.584 266.181 426.475 265.538C426.193 263.847 426.142 262.271 426.193 260.652C426.265 259.004 426.634 257.031 427.38 255.933C425.722 255.68 423.528 257.711 422.348 259.46C421.523 260.667 420.842 261.888 420.393 263.24C420.205 263.738 420.104 264.287 419.93 264.786C419.358 266.383 418.337 267.959 417.244 269.209C415.81 270.785 414.014 272.143 412.392 273.343V273.358C417.07 274.369 421.429 276.212 425.317 278.749C425.91 277.058 426.54 275.237 426.873 273.271Z" fill="#EBB71F"/>
</g>
<defs>
<clipPath id="clip0_1451_1900">
<rect width="977" height="417" fill="white" transform="translate(307 209)"/>
</clipPath>
</defs>
</svg>
