<svg width="1592" height="835" viewBox="0 0 1592 835" fill="none" xmlns="http://www.w3.org/2000/svg">
<path d="M879.776 254.153C882.815 251.117 886.222 248.466 889.121 245.289C883.36 255.816 876.07 265.46 868.143 274.429C851.294 292.895 829.901 306.98 806.611 315.87C795.052 320.084 783.157 323.477 770.999 325.44C740.908 330.182 709.821 328.188 680.459 320.164L680.49 319.863C716.5 322.526 753.226 319.581 787.726 308.514C806.342 302.563 824.17 294.177 840.659 283.656C854.664 275.19 867.416 264.84 879.776 254.153Z" fill="#171F5F"/>
<path d="M564.483 377.359C572.33 376.218 580.36 376.451 588.146 377.966C597.014 379.807 605.46 383.954 611.967 390.334C620.009 397.843 624.645 408.45 626.138 419.254C628.076 432.48 626.089 446.682 618.823 458.069C613.857 466.087 606.181 472.209 597.613 475.988C588.072 479.939 577.504 481.019 567.284 479.952C554.979 478.903 543.01 473.326 534.693 464.093C527.293 455.829 523.164 444.959 522.357 433.94C521.232 421.321 523.599 407.99 530.895 397.451C538.368 386.144 551.181 379.003 564.483 377.359ZM567.927 394.929C559.731 396.113 551.83 400.696 547.524 407.917C542.27 416.309 541.628 426.732 543.035 436.315C544.38 445.308 549.536 453.964 557.731 458.222C564.973 461.737 573.327 462.547 581.222 461.326C588.928 460.357 596.31 456.228 600.763 449.787C605.643 442.456 607.093 433.309 606.499 424.652C605.753 416.487 603.062 408.039 596.946 402.303C589.222 395.217 578.006 393.273 567.927 394.929Z" fill="#171F5F"/>
<path d="M824.831 376.997C835.723 375.954 847.037 377.15 857.037 381.825C866.89 386.604 875.189 394.843 879.445 405.021C882.821 412.561 883.959 420.861 884.246 429.051C883.928 439.407 881.549 449.989 875.715 458.676C871.195 465.756 864.498 471.252 857.049 475.001C845.337 480.559 831.839 481.436 819.204 479.197C809.021 477.271 799.48 472.142 792.386 464.559C785.42 456.897 781.126 446.952 779.928 436.677C778.325 423.904 780.087 410.254 787.047 399.224C791.884 391.095 799.492 384.752 808.146 381.064C813.418 378.733 819.125 377.568 824.831 376.997ZM828.298 394.524C820.323 395.132 812.342 398.451 807.119 404.665C799.242 414.389 798.098 428.094 801.083 439.91C803.131 448.075 808.721 455.498 816.495 458.915C824.5 462.271 833.54 462.596 841.943 460.688C849.239 458.836 855.967 454.161 859.483 447.376C863.942 439.45 864.309 430.008 863.379 421.156C862.058 413.008 858.352 404.659 851.276 399.99C844.664 395.303 836.231 393.911 828.298 394.524Z" fill="#171F5F"/>
<path d="M462.831 378.408C469.21 378.39 475.589 378.396 481.974 378.402C481.943 411.72 482.053 445.044 481.919 478.363C475.999 478.461 469.919 478.436 464.25 476.498C455.614 473.32 448.245 467.406 442.062 460.688C430.931 449.124 422.307 435.493 412.724 422.683C408.027 416.653 403.501 410.315 397.471 405.536C397.385 429.806 397.55 454.075 397.391 478.344C391.226 478.393 385.062 478.357 378.897 478.369V378.39C383.557 378.531 388.395 377.874 392.865 379.549C400.73 382.267 407.03 387.991 412.711 393.892C427.004 409.058 437.86 427.002 451.272 442.903C454.74 447.02 458.483 450.952 462.788 454.204C462.85 428.941 462.764 403.677 462.831 378.408Z" fill="#171F5F"/>
<path d="M1029.26 378.372C1053.36 378.439 1077.46 378.329 1101.56 378.427C1101.7 384.402 1101.57 390.377 1101.62 396.353C1095.58 396.899 1089.49 396.451 1083.43 396.598C1071.75 396.702 1060.05 396.383 1048.39 396.758C1048.46 403.923 1048.38 411.089 1048.43 418.254C1064.86 418.45 1081.29 418.223 1097.72 418.371C1097.84 424.334 1097.77 430.309 1097.76 436.278C1092.6 436.732 1087.41 436.217 1082.24 436.34C1072.04 436.401 1061.86 436.358 1051.67 436.364C1050.56 436.395 1049.47 436.511 1048.39 436.677C1048.62 442.885 1047.54 449.775 1051.14 455.265C1054.59 460.382 1061.29 461.216 1066.94 461.658C1078.56 462.026 1090.22 461.535 1101.71 459.676C1101.63 465.572 1101.86 471.486 1101.6 477.369C1095.42 478.854 1089.05 479.412 1082.74 480.069C1072.58 480.467 1062.25 480.811 1052.3 478.351C1044.84 476.516 1037.61 472.21 1033.75 465.357C1030.01 458.824 1029.18 451.137 1029.11 443.738C1029.1 423.898 1029.11 404.058 1029.11 384.218C1029.09 382.267 1029.05 380.31 1029.26 378.372Z" fill="#171F5F"/>
<path d="M1143.08 378.414C1149.54 378.439 1156.02 378.249 1162.48 378.512C1162.48 400.665 1162.48 422.818 1162.48 444.971C1162.46 448.701 1162.97 452.597 1164.97 455.817C1167.08 459.136 1171.04 460.694 1174.76 461.339C1187.54 462.523 1200.39 461.191 1213.1 459.842V477.522C1204.24 479.16 1195.25 480.136 1186.24 480.271C1177.68 480.467 1168.81 480.357 1160.76 477.068C1156.76 475.553 1153.05 473.136 1150.3 469.829C1146.21 464.676 1144.14 458.179 1143.54 451.682C1142.83 446.811 1143.14 441.879 1143.07 436.983C1143.07 417.456 1143.06 397.935 1143.08 378.414Z" fill="#171F5F"/>
<path d="M650.204 378.457C657.512 378.414 664.814 378.469 672.123 378.433C682.648 401.303 692.538 424.474 703.045 447.351C713.479 424.438 723.405 401.279 733.948 378.408C741.312 378.5 748.675 378.402 756.039 378.463C740.015 412.051 723.71 445.511 707.558 479.044C704.525 479.087 701.498 479.087 698.47 479.044C682.385 445.517 666.203 412.027 650.204 378.457Z" fill="#171F5F"/>
<path d="M905.86 378.488C936.219 378.414 966.579 378.463 996.944 378.463C996.956 384.205 996.932 389.954 996.956 395.702C984.981 395.849 973.006 395.721 961.031 395.77C960.989 423.297 961.019 450.817 961.019 478.344C954.604 478.467 948.188 478.326 941.773 478.424C941.32 476.289 941.455 474.111 941.461 471.952C941.455 446.56 941.455 421.174 941.461 395.782C929.577 395.659 917.688 395.948 905.817 395.635C905.799 389.917 905.726 384.199 905.86 378.488Z" fill="#171F5F"/>
<path d="M915.095 539.239C919.865 537.785 925.143 538.343 929.779 540.054C929.761 541.177 929.761 542.306 929.767 543.435C925.192 542.171 920.006 540.337 915.505 542.797C912.275 544.441 912.367 549.76 915.633 551.318C919.957 553.527 925.296 553.508 929.125 556.76C933.534 560.894 932.256 569.281 926.697 571.784C921.278 574.275 914.777 573.293 909.48 570.907C909.48 569.772 909.48 568.643 909.487 567.52C914.361 569.176 919.877 570.98 924.85 568.667C928.574 567.293 929.265 561.68 926.238 559.263C922.116 556.398 916.563 556.827 912.545 553.79C907.792 549.938 909.352 541.288 915.095 539.239Z" fill="#171F5F"/>
<path d="M1086.43 541.834C1087.98 539.699 1090.61 538.717 1093.17 538.539C1097.01 538.196 1100.94 538.668 1104.56 540.03C1104.55 541.159 1104.55 542.294 1104.55 543.435C1100 542.183 1094.86 540.355 1090.36 542.766C1087.04 544.367 1087.13 549.827 1090.49 551.355C1094.93 553.6 1100.54 553.514 1104.29 557.134C1108.44 561.533 1106.56 569.563 1101.07 571.919C1095.75 574.238 1089.5 573.201 1084.32 570.968C1084.28 569.741 1084.21 568.508 1084.21 567.287C1088.51 569.164 1093.42 570.557 1098.09 569.25C1099.57 568.808 1101.14 568.109 1102 566.741C1103.59 564.355 1103.13 560.6 1100.64 559.005C1096.68 556.539 1091.66 556.692 1087.75 554.122C1083.91 551.41 1083.51 545.373 1086.43 541.834Z" fill="#171F5F"/>
<path d="M542.851 538.926C546.552 538.245 550.527 538.87 553.817 540.711C558.227 543.153 560.747 548.097 561.285 552.999C562.025 558.545 560.71 564.673 556.698 568.747C550.906 574.919 539.781 574.778 534.265 568.299C530.222 563.68 529.378 556.968 530.546 551.109C531.751 545.067 536.619 539.754 542.851 538.926ZM543.121 542.318C540.607 542.815 538.332 544.3 536.815 546.361C532.95 551.649 532.956 559.385 536.473 564.851C540.124 570.52 549.071 571.127 553.683 566.342C558.435 561.477 558.643 553.41 555.468 547.631C553.047 543.404 547.854 541.177 543.121 542.318Z" fill="#171F5F"/>
<path d="M708.555 540.607C713.65 537.57 719.913 538.699 725.337 540.171C725.344 541.343 725.35 542.515 725.374 543.705C720.83 542.263 715.515 541.097 711.026 543.263C707.809 544.827 708.103 549.839 711.008 551.57C714.83 553.956 719.662 553.901 723.49 556.299C727.521 558.692 728.524 564.68 725.882 568.459C724.041 571.084 720.934 572.704 717.778 573.035C713.375 573.514 708.806 572.857 704.825 570.87C704.837 569.753 704.843 568.637 704.855 567.526C709.803 569.207 715.436 571.029 720.445 568.557C724.078 567.029 724.548 561.348 721.38 559.115C717.454 556.582 712.445 556.704 708.488 554.238C703.962 551.244 703.883 543.515 708.555 540.607Z" fill="#171F5F"/>
<path d="M772.699 539.386C776.338 538.183 780.337 538.502 783.921 539.76C783.915 540.827 783.915 541.895 783.927 542.968C780.894 541.95 777.591 541.465 774.46 542.337C772.191 543.195 770.527 545.656 770.974 548.134C771.408 551.165 773.928 553.226 775.799 555.441C778.313 557.962 780.753 560.582 783.438 562.937C784.166 560.379 784.288 557.71 783.964 555.085C785.022 555.085 786.08 555.085 787.138 555.091C787.86 558.643 787.542 562.379 786.007 565.686C788.288 567.913 790.539 570.17 792.795 572.422C791.205 572.422 789.621 572.422 788.043 572.428C786.71 571.115 785.389 569.79 784.05 568.489C780.924 571.913 776.081 573.44 771.543 572.771C767.396 572.6 763.201 569.587 762.662 565.287C761.721 560.367 764.681 555.355 769.09 553.238C767.555 550.778 766.522 547.772 767.384 544.889C767.983 542.238 770.185 540.226 772.699 539.386ZM766.362 565.158C766.766 567.348 768.778 568.833 770.827 569.367C774.686 570.483 779.096 569.176 781.75 566.146C778.172 562.686 774.747 559.054 771.108 555.661C767.702 557.342 765.433 561.361 766.362 565.158Z" fill="#171F5F"/>
<path d="M961.991 539.165C965.973 538.134 970.364 538.692 973.972 540.668C978.217 542.999 980.755 547.649 981.415 552.355C982.339 558.103 981.073 564.532 976.896 568.772C971.067 574.949 959.888 574.759 954.408 568.213C950.542 563.729 949.68 557.318 950.646 551.637C951.686 545.79 956.028 540.373 961.991 539.165ZM963.3 542.33C958.04 543.33 954.732 548.57 954.218 553.625C953.808 558.14 954.732 563.134 958.028 566.453C962.205 570.673 969.777 570.563 973.917 566.342C978.657 561.453 978.871 553.373 975.667 547.588C973.226 543.367 968.022 541.177 963.3 542.33Z" fill="#171F5F"/>
<path d="M484.035 539.294C485.246 539.288 486.457 539.288 487.668 539.294C487.668 544.097 487.668 548.901 487.668 553.704C493.973 553.711 500.279 553.711 506.584 553.704C506.584 548.901 506.584 544.097 506.584 539.294C507.795 539.288 509.012 539.288 510.229 539.294C510.223 550.336 510.235 561.379 510.223 572.422C509.012 572.422 507.795 572.422 506.584 572.422C506.584 567.361 506.584 562.299 506.584 557.244C500.279 557.232 493.973 557.238 487.668 557.238C487.668 562.299 487.668 567.361 487.662 572.422C486.451 572.422 485.24 572.422 484.029 572.422C484.029 561.379 484.017 550.336 484.035 539.294Z" fill="#171F5F"/>
<path d="M575.853 539.294C585.124 539.288 594.396 539.294 603.668 539.294C603.661 540.465 603.655 541.643 603.655 542.821C599.631 542.834 595.607 542.803 591.583 542.84C591.595 552.698 591.583 562.557 591.589 572.416C590.39 572.422 589.191 572.428 587.999 572.452C587.876 562.575 587.974 552.698 587.944 542.827C583.919 542.821 579.895 542.815 575.871 542.827C575.865 541.65 575.859 540.472 575.853 539.294Z" fill="#171F5F"/>
<path d="M623.716 560.33C623.752 553.312 623.667 546.287 623.759 539.269C630.278 539.324 636.798 539.275 643.317 539.294C643.311 540.465 643.311 541.637 643.317 542.821C638.002 542.827 632.688 542.827 627.373 542.815C627.361 546.3 627.342 549.778 627.385 553.263C632.468 553.238 637.55 553.238 642.632 553.263C642.626 554.428 642.62 555.6 642.62 556.778C637.538 556.778 632.449 556.778 627.367 556.778C627.44 559.6 627.147 562.453 627.612 565.256C627.832 567.078 629.404 568.526 631.189 568.765C635.281 569.471 639.434 568.753 643.543 568.587C643.537 569.692 643.543 570.808 643.543 571.925C638.7 572.452 633.715 573.311 628.902 572.103C626.847 571.649 625.202 570.005 624.499 568.048C623.6 565.581 623.728 562.913 623.716 560.33Z" fill="#171F5F"/>
<path d="M667.242 539.613C668.441 539.6 669.646 539.588 670.851 539.57C670.961 548.091 670.802 556.618 670.924 565.14C670.881 566.833 671.689 568.686 673.499 569.06C677.652 570.048 681.957 569.25 686.159 569.041C686.147 570.17 686.147 571.311 686.134 572.452C681.126 572.956 675.903 573.814 671.01 572.195C668.46 571.318 667.273 568.532 667.298 565.999C667.175 557.207 667.291 548.41 667.242 539.613Z" fill="#171F5F"/>
<path d="M824.488 539.294C828.849 539.324 833.209 539.226 837.57 539.337C840.304 539.38 842.934 540.619 844.86 542.539C848.481 546.263 847.924 553.171 843.729 556.25C842.524 557.25 840.995 557.698 839.545 558.207C842.811 562.937 846.071 567.674 849.3 572.428C847.863 572.422 846.432 572.422 845.007 572.428C841.839 567.894 838.604 563.404 835.509 558.821C833.05 558.741 830.586 558.772 828.133 558.778C828.127 563.324 828.127 567.87 828.127 572.422C826.91 572.422 825.699 572.422 824.488 572.428C824.482 561.385 824.488 550.336 824.488 539.294ZM828.359 542.821C828.359 546.913 828.359 550.999 828.359 555.091C832.255 554.827 836.328 555.717 840.096 554.447C844.707 552.864 844.756 545.281 840.23 543.57C836.432 542.208 832.304 543.054 828.359 542.821Z" fill="#171F5F"/>
<path d="M869.378 539.294C875.916 539.294 882.448 539.294 888.986 539.294C888.968 540.472 888.949 541.656 888.937 542.84C883.635 542.803 878.332 542.827 873.036 542.827C873.017 546.3 873.011 549.772 873.036 553.244C878.118 553.25 883.2 553.25 888.289 553.244C888.289 554.422 888.289 555.594 888.295 556.778C883.206 556.778 878.118 556.778 873.03 556.778C873.085 559.594 872.828 562.434 873.262 565.226C873.488 567.029 875.005 568.489 876.785 568.747C880.895 569.489 885.072 568.747 889.2 568.587C889.194 569.698 889.194 570.814 889.2 571.937C884.069 572.446 878.699 573.483 873.678 571.808C870.583 570.624 869.476 567.042 869.427 563.999C869.336 555.766 869.427 547.527 869.378 539.294Z" fill="#171F5F"/>
<path d="M1000.87 539.294C1005.14 539.318 1009.41 539.239 1013.68 539.324C1016.76 539.324 1019.77 540.766 1021.76 543.116C1024.11 546.067 1024.17 550.453 1022.39 553.698C1021.02 556.054 1018.56 557.508 1015.98 558.183C1019.14 562.98 1022.48 567.655 1025.69 572.422C1024.23 572.422 1022.79 572.422 1021.35 572.41C1018.17 567.845 1014.99 563.287 1011.77 558.76C1009.37 558.778 1006.97 558.784 1004.58 558.747C1004.44 563.305 1004.55 567.864 1004.51 572.422C1003.3 572.422 1002.09 572.422 1000.89 572.428C1000.87 561.385 1000.9 550.336 1000.87 539.294ZM1004.53 542.827C1004.5 546.913 1004.51 550.999 1004.53 555.085C1008.43 554.821 1012.52 555.735 1016.29 554.434C1020.87 552.815 1020.89 545.275 1016.39 543.564C1012.59 542.208 1008.47 543.054 1004.53 542.827Z" fill="#171F5F"/>
<path d="M1039.83 539.294C1049.03 539.294 1058.23 539.281 1067.42 539.306C1067.41 540.472 1067.41 541.649 1067.41 542.821C1063.38 542.821 1059.36 542.821 1055.33 542.821C1055.32 552.692 1055.35 562.557 1055.32 572.422C1054.1 572.422 1052.9 572.422 1051.69 572.428C1051.64 562.551 1051.77 552.674 1051.63 542.797C1047.7 542.846 1043.77 542.815 1039.84 542.821C1039.83 541.643 1039.83 540.465 1039.83 539.294Z" fill="#171F5F"/>
</svg>
