<svg width="1592" height="835" viewBox="0 0 1592 835" fill="none" xmlns="http://www.w3.org/2000/svg">
<path d="M246.652 446.145H239.222V372.766H208.191V365.449H277.684V372.766H246.652V446.145Z" fill="black"/>
<path d="M385.092 446.145H377.662V408.056H320.844V446.145H313.414V365.449H320.844V400.74H377.662V365.449H385.092V446.145Z" fill="black"/>
<path d="M497.09 446.145H427.269V365.449H494.468V372.766H434.699V400.848H467.26V408.164H434.699V438.828H497.09V446.145Z" fill="black"/>
<path d="M589.092 446.145H581.662V365.449H625.259C647.44 365.449 652.685 376.531 652.685 388.367C652.685 400.31 647.44 411.392 625.259 411.392H589.092V446.145ZM625.259 404.075C636.622 404.075 645.254 401.278 645.254 388.367C645.254 375.455 636.622 372.766 625.259 372.766H589.092V404.075H625.259Z" fill="black"/>
<path d="M762.279 446.145H753.974L739.66 417.525H697.484L683.17 446.145H674.866L714.857 365.449H722.287L762.279 446.145ZM718.572 373.626L701.199 410.208H735.836L718.572 373.626Z" fill="black"/>
<path d="M823.463 446.145H816.033L776.697 365.449H784.783L819.748 436.892L854.713 365.449H862.799L823.463 446.145Z" fill="black"/>
<path d="M899.404 446.145H891.973V365.449H899.404V446.145Z" fill="black"/>
<path d="M999.053 446.145H938.411V365.449H945.841V438.828H999.053V446.145Z" fill="black"/>
<path d="M1039.05 446.145H1031.61V365.449H1039.05V446.145Z" fill="black"/>
<path d="M1118.26 447.866C1093.02 447.866 1074.34 430.113 1074.34 405.797C1074.34 381.481 1093.02 363.728 1118.26 363.728C1143.61 363.728 1162.19 381.481 1162.19 405.797C1162.19 430.113 1143.5 447.866 1118.26 447.866ZM1154.76 405.797C1154.76 387.291 1140.23 371.044 1118.26 371.044C1096.3 371.044 1081.77 387.291 1081.77 405.797C1081.77 424.303 1096.3 440.55 1118.26 440.55C1140.23 440.55 1154.76 424.303 1154.76 405.797Z" fill="black"/>
<path d="M1270.79 446.145H1263.36L1206.11 376.424H1205.89V446.145H1198.46V365.449H1205.89L1263.14 435.493H1263.36V365.449H1270.79V446.145Z" fill="black"/>
<path d="M1355.47 400.525C1373.61 400.848 1383.67 411.284 1383.67 423.227C1383.67 434.74 1373.83 447.866 1344.77 447.866C1320.07 447.866 1310.02 436.784 1304.23 431.404L1309.36 426.132C1314.94 430.436 1322.59 440.55 1344.77 440.55C1361.7 440.55 1376.24 435.17 1376.24 423.227C1376.24 415.911 1369.35 408.164 1355.04 407.841L1336.24 407.519C1324.44 407.411 1310.13 403.322 1310.13 387.506C1310.13 376.962 1319.85 363.728 1345.2 363.728C1364.87 363.728 1374.71 372.443 1378.97 375.24L1374.38 380.728C1366.95 376.209 1359.52 371.044 1345.75 371.044C1325.32 371.044 1317.56 380.943 1317.56 387.614C1317.56 397.405 1326.74 400.095 1336.24 400.202L1355.47 400.525Z" fill="black"/>
</svg>
