<svg width="1592" height="835" viewBox="0 0 1592 835" fill="none" xmlns="http://www.w3.org/2000/svg">
<g clip-path="url(#clip0_1450_805)">
<path d="M1039 392.015H862.225V346.875H1039V392.015Z" fill="#E669A2"/>
<path d="M1016.04 392.015H862.225V279.116H1016.04V392.015Z" fill="#F3BE26"/>
<path d="M952.491 392.015H862.225V234H952.491V392.015Z" fill="#EE9C34"/>
<path d="M970.25 392.014H862.225V251.632H970.25V392.014Z" fill="#F3BC87"/>
<path d="M862.2 251.659V392H952.481V251.659H862.2Z" fill="#E3721C"/>
<path d="M771.708 392.015H862.225V414.587H771.708V392.015Z" fill="#AD1B02"/>
<path d="M862.2 279.091V392H970.302V279.091H862.2Z" fill="#E88D14"/>
<path d="M862.2 279.091V392H952.481V279.091H862.2Z" fill="#D85604"/>
<path d="M918.673 392.015H862.225V324.251H918.673V392.015Z" fill="#C14303"/>
<path d="M862.2 346.907V392H1016.09V346.907H862.2Z" fill="#DB4E18"/>
<path d="M862.2 346.907V392H970.302V346.907H862.2Z" fill="#D1390D"/>
<path d="M862.2 346.907V392H952.481V346.907H862.2Z" fill="#C22303"/>
<path d="M862.2 346.907V392H918.729V346.907H862.2Z" fill="#AD1B02"/>
<path d="M881.906 477.031C866.504 479.763 858.29 491.372 858.29 511.517C858.29 532.004 869.242 545.661 885.328 545.661C893.2 545.661 900.045 542.93 914.42 535.759C914.42 552.49 914.42 552.49 914.42 552.49C896.965 560.685 886.697 562.734 873.007 562.734C857.606 562.734 846.654 558.978 838.097 549.759C829.199 540.881 824.407 529.272 824.407 515.956C824.407 486.933 846.311 466.788 878.141 466.788C899.018 466.788 913.735 476.69 913.735 490.689C913.735 499.908 906.89 506.395 896.965 506.395C891.831 506.395 887.724 504.688 881.906 501.615" fill="black"/>
<path d="M804.898 515.956C818.931 498.542 824.065 491.372 824.065 482.836C824.065 474.299 817.22 466.788 807.636 466.788C802.16 466.788 797.027 469.861 794.631 472.592C794.631 508.444 794.631 508.444 794.631 508.444C771.7 539.174 771.7 539.174 771.7 539.174C771.7 469.519 771.7 469.519 771.7 469.519C749.796 469.519 749.796 469.519 749.796 469.519C713.517 529.272 713.517 529.272 713.517 529.272C713.517 469.519 713.517 469.519 713.517 469.519C701.196 469.519 701.196 469.519 701.196 469.519C667.997 477.031 667.997 477.031 667.997 477.031C667.997 485.567 667.997 485.567 667.997 485.567C686.137 487.274 686.136 487.274 686.136 487.274C686.136 561.368 686.136 561.368 686.136 561.368C709.067 561.368 709.067 561.368 709.067 561.368C743.977 504.005 743.977 504.005 743.977 504.005C743.977 561.368 743.977 561.368 743.977 561.368C769.646 561.368 769.646 561.368 769.646 561.368" fill="black"/>
<path d="M598.52 549.759C601.258 549.759 601.942 549.759 603.654 549.759C622.135 549.759 632.403 538.491 632.403 515.956C632.403 497.176 624.189 486.933 608.787 486.933C606.734 486.933 603.654 487.275 598.52 488.299V549.759ZM598.52 590.049C613.579 593.464 613.579 593.464 613.579 593.464C613.579 602 613.579 602 613.579 602C554.369 602 554.369 602 554.369 602C554.369 593.464 554.369 593.464 554.369 593.464C568.059 590.049 568.059 590.049 568.059 590.049C568.059 486.933 568.059 486.933 568.059 486.933C553 486.933 553 486.933 553 486.933C553 478.397 553 478.397 553 478.397C588.937 467.471 588.937 467.471 588.937 467.471C598.52 467.471 598.52 467.471 598.52 467.471C598.52 479.763 598.52 479.763 598.52 479.763C615.29 469.519 621.108 467.812 630.007 467.812C649.858 467.812 664.917 486.25 664.917 511.859C664.917 541.223 644.724 561.368 613.921 561.368C610.499 561.368 604.68 561.027 598.52 560.685" fill="black"/>
</g>
<defs>
<clipPath id="clip0_1450_805">
<rect width="486" height="368" fill="white" transform="translate(553 234)"/>
</clipPath>
</defs>
</svg>
