<svg width="1592" height="835" viewBox="0 0 1592 835" fill="none" xmlns="http://www.w3.org/2000/svg">
<path d="M850.664 328.35H823.185C817.361 328.35 807.876 331.942 805.729 343.269C799.771 373.667 796.07 407.003 791.856 436.747C787.997 408.429 781.715 370.516 776.057 341.339C774.399 334.399 767.944 328.35 758.482 328.35H730.546C721.084 328.35 714.613 334.399 712.972 341.339C706.027 370.705 700.684 408.224 697.117 436.432C692.943 406.775 689.234 373.564 683.299 343.269C681.153 331.942 671.675 328.35 665.843 328.35H638.365C630.505 328.35 618.667 334.179 620.001 348.271C625.407 396.826 639.185 459.945 655.063 517.306C657.557 527.893 666.08 531.903 673.23 531.903L709.405 531.895C720.508 531.895 726.34 523.017 727.413 517.157L744.159 440.851H744.869L761.615 517.157C762.688 523.017 768.52 531.895 779.624 531.895L815.783 531.903C822.941 531.903 831.463 527.893 833.957 517.306C849.843 459.945 863.622 396.826 869.027 348.271C870.361 334.179 858.524 328.35 850.664 328.35Z" fill="#C82F26"/>
<path d="M406.092 286.885C406.092 276.755 414.307 268.555 424.448 268.555H457.971C468.12 268.555 476.335 276.755 476.335 286.885V328.35H494.067C501.012 328.35 506.646 333.974 506.646 340.922V361.308C506.646 368.24 501.012 373.856 494.067 373.856H476.335V469.808C476.335 481.466 483.69 485.593 494.067 485.593C501.012 485.593 506.646 491.225 506.646 498.165V519.355C506.646 526.286 501.012 531.903 494.067 531.903C484.258 532.628 474.101 532.998 466.668 532.998C427.289 532.998 406.092 508.941 406.092 463.813V373.856H392.298C385.353 373.856 379.71 368.24 379.71 361.308V340.922C379.71 333.974 385.353 328.35 392.298 328.35H406.092" fill="#C82F26"/>
<path d="M1152.39 342.891C1154.13 334.589 1161.51 328.35 1170.35 328.35H1196.53C1206.67 328.35 1214.89 336.55 1214.89 346.664C1214.89 347.665 1214.8 348.649 1214.65 349.595C1205.37 406.278 1185.1 476.361 1166.63 536.637C1152.56 582.545 1134.19 598 1099.47 598C1090.97 598 1081.7 597.85 1074.42 597.464C1067.46 597.464 1061.84 591.84 1061.84 584.9V563.159C1061.84 556.22 1067.48 550.595 1074.43 550.595L1074.4 550.587L1076.16 550.611C1092.26 550.611 1097.7 539.331 1097.63 535.188C1097.54 528.46 1096.21 525.412 1094.77 520.142C1081.94 479.095 1066.67 413.777 1053.53 350.469C1053.28 349.24 1053.13 347.98 1053.13 346.664C1053.13 336.55 1061.34 328.35 1071.48 328.35H1098.28C1106.8 328.35 1113.98 334.155 1116.04 342.009C1122.95 367.373 1130.12 415.329 1135.78 444.789H1136.5C1141.4 411.887 1147.24 366.428 1152.39 342.891Z" fill="#C82F26"/>
<path d="M929.626 534.338C895.669 534.338 873.723 511.612 873.723 476.441C873.723 440.206 898.936 416.795 953.056 402.774C965.352 399.851 970.576 393.935 970.576 382.986C970.576 375.243 965.099 369.635 957.531 369.635C950.721 369.635 945.781 373.156 944.313 379.056C941.724 389.58 934.606 394.487 921.901 394.487H904.121C891.431 394.487 883.54 386.799 883.54 374.416C883.54 372.313 883.855 370.273 884.479 368.351C895.937 329.406 935.174 323.593 957.555 323.593C983.202 323.593 1000.93 327.736 1013.31 336.653C1027.82 347.106 1035.35 364.428 1036.35 389.611C1037.64 419.536 1038.63 479.103 1036.74 511.951C1036.74 522.892 1027.51 531.896 1016.17 531.896H992.956C982.405 531.896 974.127 524.223 972.525 513.124C963.694 526.681 948.369 534.338 929.626 534.338ZM971.799 441.128C969.013 443.404 965.265 445.279 961.382 447.232C952.196 451.817 941.787 457.031 940.43 468.957C939.822 474.188 941.053 478.646 943.981 481.836C946.507 484.601 950.247 486.248 953.964 486.248C964.673 486.248 971.799 481.387 971.799 457.693" fill="#C82F26"/>
<path d="M593.769 274.266L592.933 272.557C586.083 259.355 572.288 250.312 556.355 250.312C533.628 250.312 515.193 268.705 515.193 291.399C515.193 304.538 521.38 316.228 531 323.75C542.727 332.833 554.745 349.973 526.399 376.598C521.056 382.175 524.876 386.547 528.459 388.863C537.131 394.487 542.884 393.652 552.125 388.863C575.903 376.535 618.943 326.617 593.769 274.266Z" fill="#79A23D"/>
</svg>
