<svg width="1592" height="835" viewBox="0 0 1592 835" fill="none" xmlns="http://www.w3.org/2000/svg">
<path d="M1195.82 491.812H1224.19L1224.22 457.924L1235.14 446.916L1263.36 491.812H1297.51L1255.26 428.996L1293.12 389.97H1259.64L1224.19 427.777L1224.22 350.635H1195.72L1195.82 491.812Z" fill="#023F88"/>
<path fill-rule="evenodd" clip-rule="evenodd" d="M1006.99 491.812V443.111H1023.02C1057.3 443.664 1084.41 434.021 1084.41 396.329C1084.41 365.547 1060.55 349.253 1026.11 350.619H976.814V491.812H1007.01M1027.41 374.897C1044.47 374.23 1055.06 381.027 1055.24 396.589C1055.42 412.15 1043.73 418.882 1028.18 418.476H1007.07V374.897H1027.41Z" fill="#023F88"/>
<path fill-rule="evenodd" clip-rule="evenodd" d="M1110.99 421.923C1110.99 421.923 1109.22 406.28 1131.25 406.621C1140.37 406.8 1148.71 411.288 1148.16 419.305C1147.74 425.207 1142.82 426.72 1132.85 428.199C1116.67 430.2 1105.27 432.834 1097.55 436.59C1087.59 441.468 1079.15 451.761 1079.95 464.38C1081.19 483.893 1101.45 495.275 1121.26 494.479C1144.27 493.487 1148.52 479.681 1148.52 479.681C1148.88 481.974 1148.91 481.99 1149.38 485.226C1149.65 487.497 1150.2 489.726 1151.02 491.861H1179.99C1178.66 490.904 1177.58 489.651 1176.82 488.202C1175.9 486.042 1175.48 483.701 1175.6 481.356V422.963C1175.6 394.279 1152.48 386.946 1129.78 386.588C1087.05 385.905 1087.08 416.345 1086.22 421.191L1110.99 421.906M1127.64 473.941C1119.04 474.787 1107.93 472.315 1107.5 461.502C1107.11 450.932 1122.09 447.989 1129.6 446.46C1135.05 445.443 1140.4 443.924 1145.56 441.924C1148.06 440.883 1148.55 440.086 1148.55 440.086V454.184C1148.01 464.77 1140.93 472.64 1127.64 473.941Z" fill="#023F88"/>
<path d="M562.336 491.812V375.644H605.606V350.408H489.574V375.644H532.174V491.812H562.336Z" fill="#023F88"/>
<path fill-rule="evenodd" clip-rule="evenodd" d="M583.946 444.103C585.856 481.812 617.88 495.926 636.992 495.373C678.466 494.186 686.513 461.6 686.513 461.6L657.493 459.973C657.493 459.973 652.906 472.982 636.911 472.982C612.51 472.885 611.873 448.705 611.873 448.705H687.606C687.606 448.705 690.397 387.954 634.25 387.141C602.439 386.686 582.38 413.337 583.946 444.233M657.705 428.736H612.689C612.689 428.736 614.599 409.223 634.805 409.093C654.718 408.914 657.656 428.736 657.656 428.736H657.705Z" fill="#023F88"/>
<path d="M767.159 491.812H795.347V445.599C795.347 432.59 797.926 420.947 809.547 415.175C815.537 412.199 820.352 411.923 827.044 412.736V388.572C824.648 387.872 822.163 387.522 819.667 387.531C810.575 387.043 801.859 392.312 796.702 401.581C796.077 402.684 795.532 403.831 795.07 405.012L794.107 390.491H767.159V491.812Z" fill="#023F88"/>
<path d="M689.549 409.663H703.619V461.697C703.619 470.088 704.5 480.706 712.596 486.674C720.691 492.642 731.725 491.845 742.138 491.796H750.87V470.885H744.211C739.641 470.885 736.948 470.592 734.679 468.852C731.137 466.153 731.415 461.632 731.415 459.193V409.663H750.299V390.393H731.496V358.229L703.668 358.099V390.263L689.598 390.393V409.663H689.549Z" fill="#023F88"/>
<path fill-rule="evenodd" clip-rule="evenodd" d="M858.218 421.858C858.218 421.858 856.472 406.199 878.49 406.54C887.646 406.719 895.971 411.223 895.399 419.24C894.991 425.142 890.062 426.655 880.122 428.118C863.914 430.135 852.505 432.769 844.769 436.541C834.78 441.42 826.374 451.713 827.158 464.364C828.382 483.877 848.67 495.341 868.501 494.479C891.531 493.487 895.775 479.681 895.775 479.681C896.134 481.942 896.215 481.974 896.672 485.21C896.925 487.488 897.474 489.724 898.305 491.861H927.292C925.969 490.893 924.886 489.636 924.126 488.186C923.202 486.032 922.783 483.696 922.902 481.356V422.817C922.902 394.1 899.774 386.799 877.054 386.425C834.274 385.71 834.307 416.199 833.409 421.045L858.234 421.744M874.899 473.779C866.297 474.641 855.166 472.153 854.758 461.339C854.35 450.737 869.301 447.794 876.858 446.265C882.311 445.247 887.66 443.734 892.837 441.745C895.35 440.704 895.84 439.891 895.84 439.891V454.006C895.285 464.575 888.201 472.462 874.899 473.779Z" fill="#023F88"/>
<path d="M400.293 446.282L433.639 404.865H399.314L382.927 425.305L400.293 446.282Z" fill="#FF0000"/>
<path d="M338.205 425.63C341.367 425.621 344.491 426.315 347.349 427.663C350.207 429.01 352.726 430.977 354.723 433.419C356.241 435.192 356.731 435.68 357.873 437.143C361.823 442.184 363.194 444.005 365.512 446.9C363.194 449.68 361.856 451.615 357.873 456.656C356.714 458.103 356.241 458.607 354.723 460.38C352.438 463.155 349.487 465.31 346.142 466.644C342.797 467.978 339.168 468.448 335.592 468.009C332.016 467.571 328.61 466.239 325.689 464.137C322.769 462.035 320.43 459.231 318.889 455.987C317.348 452.742 316.656 449.162 316.877 445.579C317.097 441.997 318.224 438.528 320.151 435.495C322.079 432.463 324.745 429.965 327.901 428.235C331.058 426.504 334.602 425.597 338.205 425.598V425.63Z" fill="#023F88"/>
<path d="M321.638 491.211C318.345 490.283 315.198 488.904 312.286 487.113C305.402 482.883 299.727 476.958 295.807 469.909C291.888 462.861 289.857 454.925 289.909 446.867C289.915 440.556 291.17 434.307 293.6 428.479C296.031 422.65 299.591 417.356 304.076 412.899C308.561 408.441 313.883 404.907 319.739 402.499C325.595 400.091 331.87 398.856 338.205 398.865C345.207 398.825 352.13 400.339 358.472 403.298C364.813 406.257 370.412 410.586 374.864 415.971L375.468 416.671L375.908 416.378L323.679 326.716L228 491.65H321.622V491.211H321.638Z" fill="#023F88"/>
<path d="M355.555 491.211V491.65H419.765V491.146L417.79 490.869C414.321 490.387 410.926 489.469 407.687 488.137C398.008 484.17 389.864 476.299 382.943 468.185C382.943 468.185 377.769 474.868 373.15 479.86C368.446 485.216 362.336 489.158 355.506 491.243L355.555 491.211Z" fill="#023F88"/>
<path d="M1330.36 324C1336.94 323.997 1343.37 325.936 1348.84 329.574C1354.31 333.211 1358.58 338.383 1361.1 344.435C1363.62 350.488 1364.28 357.149 1363.01 363.577C1361.73 370.005 1358.57 375.912 1353.92 380.55C1349.27 385.188 1343.35 388.35 1336.9 389.635C1330.45 390.921 1323.76 390.273 1317.68 387.772C1311.6 385.272 1306.4 381.032 1302.74 375.588C1299.08 370.145 1297.12 363.741 1297.11 357.188C1297.11 348.398 1300.61 339.966 1306.85 333.744C1313.08 327.521 1321.54 324.017 1330.36 324ZM1330.36 384.377C1335.77 384.38 1341.07 382.783 1345.57 379.787C1350.07 376.791 1353.58 372.532 1355.65 367.549C1357.72 362.566 1358.26 357.082 1357.2 351.793C1356.14 346.503 1353.53 341.646 1349.7 337.835C1345.87 334.025 1340.99 331.433 1335.68 330.387C1330.37 329.342 1324.86 329.89 1319.87 331.962C1314.87 334.034 1310.6 337.537 1307.6 342.028C1304.6 346.519 1303.01 351.795 1303.02 357.188C1303.03 364.405 1305.91 371.323 1311.04 376.421C1316.17 381.519 1323.12 384.381 1330.36 384.377ZM1317.6 337.984H1332.29C1341.43 337.984 1345.72 342.082 1345.72 349.367C1345.72 355.871 1341.79 359.123 1336.61 359.79L1346.53 375.823H1339.16L1329.66 360.311H1324.58V375.823H1317.6V337.984ZM1324.58 354.457H1329.66C1333.95 354.457 1338.7 354.18 1338.7 349.107C1338.7 344.033 1333.95 343.789 1329.66 343.855H1324.58V354.457Z" fill="#023F88"/>
</svg>
