<svg width="1592" height="835" viewBox="0 0 1592 835" fill="none" xmlns="http://www.w3.org/2000/svg">
<path d="M817.622 270.775H811.064V267.785C815.869 267.785 819.765 263.885 819.765 259.075C819.765 254.265 815.804 250.365 811.064 250.365H810.999H781.325H781.26C776.455 250.365 772.559 254.265 772.559 259.075C772.559 263.885 776.52 267.785 781.26 267.785V270.775H774.701C765.091 270.775 757.299 278.575 757.299 288.195C757.299 297.815 765.091 305.68 774.701 305.68V311.4H817.687V305.68C827.297 305.68 835.089 297.815 835.089 288.195C835.025 278.575 827.232 270.775 817.622 270.775Z" fill="#ADA15C"/>
<path d="M707.496 370.16L751.001 295.02L796.065 370.16H707.496Z" fill="#ADA15C"/>
<path d="M884.698 370.16L841.193 295.02L796.129 370.16H884.698Z" fill="#ADA15C"/>
<path d="M813.467 246.01L796.13 215.915L778.792 246.01H813.467Z" fill="#ADA15C"/>
<path d="M446.204 593.305C446.399 593.305 446.529 593.175 446.529 592.915V591.68C446.529 582.645 446.529 580.955 446.399 579.07C446.269 577.055 445.814 576.08 443.866 575.69C443.412 575.56 442.373 575.495 441.529 575.495C440.879 575.495 440.49 575.365 440.49 574.975C440.49 574.585 440.879 574.455 441.724 574.455C444.905 574.455 448.671 574.65 450.295 574.65C451.723 574.65 455.425 574.455 457.762 574.455C458.606 574.455 458.996 574.585 458.996 574.975C458.996 575.365 458.671 575.495 457.957 575.495C457.502 575.495 456.918 575.56 456.269 575.69C454.645 576.015 454.191 576.99 454.061 579.07C453.931 580.955 453.931 582.645 453.931 591.68V602.145C453.931 607.605 453.931 612.285 454.256 614.885C454.451 616.575 454.775 617.875 456.593 618.07C457.437 618.2 458.736 618.33 459.645 618.33C460.295 618.33 460.619 618.525 460.619 618.785C460.619 619.175 460.165 619.37 459.45 619.37C455.619 619.37 451.853 619.175 450.165 619.175C448.801 619.175 445.035 619.37 442.763 619.37C441.918 619.37 441.529 619.175 441.529 618.785C441.529 618.46 441.789 618.33 442.503 618.33C443.412 618.33 444.126 618.2 444.646 618.07C445.814 617.81 446.139 616.51 446.334 614.82C446.659 612.35 446.659 607.605 446.659 602.145V596.945C446.659 596.685 446.464 596.62 446.334 596.62H423.477C423.283 596.62 423.153 596.685 423.153 596.945V602.145C423.153 607.605 423.153 612.285 423.477 614.885C423.672 616.575 423.997 617.875 425.815 618.07C426.659 618.2 427.958 618.33 428.867 618.33C429.516 618.33 429.841 618.525 429.841 618.785C429.841 619.175 429.386 619.37 428.672 619.37C424.841 619.37 421.075 619.175 419.387 619.175C418.023 619.175 414.257 619.37 411.919 619.37C411.14 619.37 410.75 619.175 410.75 618.785C410.75 618.46 411.01 618.33 411.724 618.33C412.633 618.33 413.348 618.2 413.867 618.07C415.036 617.81 415.361 616.51 415.555 614.82C415.88 612.35 415.88 607.605 415.88 602.145V591.68C415.88 582.645 415.88 580.955 415.75 579.07C415.62 577.055 415.166 576.08 413.218 575.69C412.763 575.56 411.724 575.495 410.88 575.495C410.231 575.495 409.841 575.365 409.841 574.975C409.841 574.585 410.231 574.455 411.075 574.455C414.257 574.455 418.023 574.65 419.646 574.65C421.075 574.65 424.841 574.455 427.114 574.455C427.958 574.455 428.347 574.585 428.347 574.975C428.347 575.365 428.023 575.495 427.308 575.495C426.854 575.495 426.269 575.56 425.62 575.69C423.997 576.015 423.542 576.99 423.412 579.07C423.283 580.955 423.283 582.645 423.283 591.68V592.915C423.283 593.24 423.477 593.305 423.607 593.305H446.204Z" fill="#6F683B"/>
<path d="M466.917 596.88C466.917 586.74 473.606 573.61 491.462 573.61C506.267 573.61 515.423 582.255 515.423 595.84C515.423 609.425 505.942 620.215 490.813 620.215C473.865 620.15 466.917 607.41 466.917 596.88ZM507.111 597.985C507.111 584.66 499.449 576.405 489.709 576.405C482.891 576.405 475.099 580.175 475.099 594.995C475.099 607.345 481.917 617.16 493.345 617.16C497.501 617.225 507.111 615.21 507.111 597.985Z" fill="#6F683B"/>
<path d="M535.877 577.705L527.046 577.965C523.604 578.095 522.176 578.355 521.267 579.655C520.682 580.565 520.358 581.28 520.228 581.735C520.098 582.19 519.903 582.45 519.579 582.45C519.189 582.45 519.059 582.125 519.059 581.475C519.059 580.5 520.163 575.105 520.293 574.65C520.488 573.87 520.617 573.545 521.007 573.545C521.462 573.545 522.046 574.13 523.539 574.26C525.228 574.455 527.5 574.585 529.448 574.585H552.954C554.837 574.585 556.136 574.39 557.045 574.26C557.954 574.065 558.409 573.935 558.668 573.935C559.058 573.935 559.123 574.26 559.123 575.17C559.123 576.405 558.928 580.5 558.928 582.06C558.863 582.645 558.733 583.035 558.409 583.035C557.954 583.035 557.824 582.71 557.759 581.865L557.694 581.215C557.565 579.655 556.006 578.03 550.682 577.9L543.214 577.705V602.08C543.214 607.54 543.214 612.22 543.539 614.82C543.734 616.51 544.058 617.81 545.877 618.005C546.721 618.135 548.019 618.265 548.928 618.265C549.578 618.265 549.902 618.46 549.902 618.72C549.902 619.11 549.448 619.305 548.799 619.305C544.903 619.305 541.136 619.11 539.448 619.11C538.085 619.11 534.318 619.305 531.981 619.305C531.202 619.305 530.812 619.11 530.812 618.72C530.812 618.395 531.072 618.265 531.786 618.265C532.695 618.265 533.409 618.135 533.929 618.005C535.098 617.745 535.487 616.445 535.617 614.755C535.942 612.285 535.942 607.54 535.942 602.08L535.877 577.705Z" fill="#6F683B"/>
<path d="M570.746 591.615C570.746 582.58 570.746 580.89 570.616 579.005C570.487 576.99 570.032 576.015 568.084 575.625C567.63 575.495 566.591 575.43 565.746 575.43C565.097 575.43 564.708 575.3 564.708 574.91C564.708 574.52 565.097 574.39 566.006 574.39C567.63 574.39 569.318 574.455 570.811 574.455C572.37 574.52 573.733 574.585 574.577 574.585C576.46 574.585 588.278 574.585 589.447 574.52C590.551 574.39 591.525 574.26 591.98 574.195C592.304 574.13 592.629 573.935 592.954 573.935C593.278 573.935 593.278 574.195 593.278 574.455C593.278 574.845 592.954 575.56 592.824 578.29C592.759 578.875 592.629 581.475 592.499 582.19C592.434 582.515 592.304 582.84 591.915 582.84C591.46 582.84 591.395 582.515 591.395 581.995C591.395 581.605 591.33 580.565 591.07 579.85C590.681 578.81 590.032 578.03 587.11 577.705C586.071 577.575 579.837 577.445 578.668 577.445C578.344 577.445 578.279 577.64 578.279 578.03V593.045C578.279 593.435 578.344 593.695 578.668 593.695C579.967 593.695 586.785 593.695 588.148 593.565C589.577 593.435 590.486 593.24 591.006 592.655C591.395 592.2 591.655 591.875 591.98 591.875C592.239 591.875 592.369 592.005 592.369 592.33C592.369 592.655 592.109 593.63 591.915 596.685C591.85 597.855 591.655 600.26 591.655 600.65C591.655 601.105 591.655 601.755 591.135 601.755C590.746 601.755 590.616 601.495 590.616 601.235C590.551 600.65 590.551 599.87 590.356 599.09C590.032 597.92 589.252 597.01 587.045 596.75C585.941 596.62 580.032 596.555 578.603 596.555C578.279 596.555 578.279 596.815 578.279 597.14V601.82C578.279 603.835 578.214 609.295 578.279 611.05C578.408 615.145 579.318 616.055 585.421 616.055C586.98 616.055 589.447 616.055 591.006 615.34C592.564 614.625 593.278 613.39 593.668 610.92C593.798 610.27 593.928 610.01 594.317 610.01C594.772 610.01 594.772 610.465 594.772 611.05C594.772 612.415 594.317 616.445 593.992 617.68C593.603 619.24 593.018 619.24 590.811 619.24C586.33 619.24 583.084 619.11 580.551 619.045C578.019 618.915 576.136 618.85 574.383 618.85C573.733 618.85 572.435 618.85 571.006 618.915C569.642 618.915 568.084 619.045 566.915 619.045C566.136 619.045 565.746 618.85 565.746 618.46C565.746 618.135 566.006 618.005 566.72 618.005C567.63 618.005 568.344 617.875 568.863 617.745C570.032 617.485 570.357 616.185 570.552 614.495C570.876 612.025 570.876 607.28 570.876 601.82L570.746 591.615Z" fill="#6F683B"/>
<path d="M616.264 602.08C616.264 609.685 616.264 613.78 617.498 614.885C618.537 615.795 620.031 616.185 624.706 616.185C627.888 616.185 630.16 616.12 631.654 614.495C632.368 613.715 633.082 612.09 633.212 610.92C633.277 610.4 633.407 610.01 633.861 610.01C634.251 610.01 634.316 610.335 634.316 611.05C634.316 611.7 633.926 616.185 633.407 617.875C633.082 619.175 632.758 619.5 629.641 619.5C625.355 619.5 622.303 619.37 619.641 619.305C616.979 619.175 614.836 619.11 612.368 619.11C611.719 619.11 610.42 619.11 608.992 619.175C607.628 619.175 606.07 619.305 604.901 619.305C604.122 619.305 603.732 619.11 603.732 618.72C603.732 618.395 603.992 618.265 604.706 618.265C605.615 618.265 606.33 618.135 606.849 618.005C608.018 617.745 608.343 616.445 608.537 614.755C608.862 612.285 608.862 607.54 608.862 602.08V591.615C608.862 582.58 608.862 580.89 608.732 579.005C608.602 576.99 608.148 576.015 606.2 575.625C605.745 575.495 605.031 575.43 604.252 575.43C603.602 575.43 603.213 575.3 603.213 574.91C603.213 574.52 603.602 574.39 604.512 574.39C607.304 574.39 611.07 574.585 612.628 574.585C614.057 574.585 618.407 574.39 620.68 574.39C621.524 574.39 621.914 574.52 621.914 574.91C621.914 575.3 621.589 575.43 620.875 575.43C620.225 575.43 619.251 575.495 618.537 575.625C616.914 575.95 616.459 576.925 616.329 579.005C616.2 580.89 616.2 582.58 616.2 591.615L616.264 602.08Z" fill="#6F683B"/>
<path d="M642.108 618.59C641.134 618.2 641.004 617.875 641.004 616.575C641.004 613.325 641.264 609.75 641.329 608.775C641.394 607.865 641.588 607.215 642.043 607.215C642.562 607.215 642.627 607.735 642.627 608.255C642.627 609.035 642.887 610.27 643.147 611.31C644.445 615.73 647.952 617.29 651.653 617.29C656.978 617.29 659.64 613.65 659.64 610.53C659.64 607.605 658.731 604.875 653.796 601.04L651.069 598.895C644.51 593.76 642.303 589.6 642.303 584.79C642.303 578.225 647.757 573.545 656.004 573.545C659.835 573.545 662.367 574.13 663.925 574.585C664.445 574.715 664.77 574.91 664.77 575.3C664.77 576.08 664.51 577.77 664.51 582.45C664.51 583.75 664.315 584.205 663.86 584.205C663.471 584.205 663.276 583.88 663.276 583.165C663.276 582.645 662.951 580.76 661.718 579.265C660.809 578.16 659.12 576.34 655.224 576.34C650.809 576.34 648.147 578.875 648.147 582.45C648.147 585.18 649.51 587.26 654.445 591.03L656.133 592.265C663.341 597.66 665.873 601.755 665.873 607.41C665.873 610.855 664.575 614.95 660.289 617.745C657.302 619.63 653.991 620.15 650.874 620.15C647.302 620.15 644.64 619.76 642.108 618.59Z" fill="#6F683B"/>
<path d="M717.301 591.615C717.301 582.58 717.301 580.89 717.171 579.005C717.041 576.99 716.586 576.015 714.638 575.625C714.184 575.495 713.145 575.43 712.301 575.43C711.651 575.43 711.262 575.3 711.262 574.91C711.262 574.52 711.651 574.39 712.56 574.39C715.742 574.39 719.443 574.585 720.677 574.585C722.69 574.585 727.235 574.39 729.053 574.39C732.82 574.39 736.781 574.715 739.962 576.925C741.651 578.03 743.988 581.085 743.988 585.05C743.988 589.47 742.17 593.5 736.131 598.375C741.391 605.005 745.482 610.335 748.988 613.975C752.3 617.42 754.767 617.81 755.611 618.005C756.261 618.135 756.78 618.2 757.299 618.2C757.819 618.2 758.014 618.395 758.014 618.655C758.014 619.11 757.624 619.24 756.91 619.24H751.261C747.949 619.24 746.456 618.915 744.897 618.135C742.365 616.77 740.092 613.975 736.781 609.425C734.378 606.175 731.651 602.145 730.872 601.235C730.547 600.91 730.222 600.845 729.833 600.845L724.703 600.715C724.378 600.715 724.248 600.845 724.248 601.17V602.015C724.248 607.54 724.248 612.22 724.573 614.755C724.768 616.445 725.093 617.81 726.911 618.005C727.82 618.135 729.118 618.265 729.833 618.265C730.287 618.265 730.547 618.46 730.547 618.72C730.547 619.11 730.157 619.305 729.378 619.305C725.937 619.305 721.521 619.11 720.677 619.11C719.573 619.11 715.807 619.305 713.405 619.305C712.625 619.305 712.236 619.11 712.236 618.72C712.236 618.395 712.495 618.265 713.21 618.265C714.119 618.265 714.833 618.135 715.353 618.005C716.521 617.745 716.846 616.445 717.041 614.755C717.365 612.285 717.365 607.54 717.365 602.08L717.301 591.615ZM724.313 596.36C724.313 597.01 724.443 597.27 724.833 597.4C726.067 597.79 727.885 597.985 729.378 597.985C731.781 597.985 732.56 597.725 733.599 596.945C735.417 595.645 737.105 592.915 737.105 588.04C737.105 579.59 731.521 577.185 728.015 577.185C726.521 577.185 725.482 577.25 724.833 577.445C724.443 577.575 724.313 577.77 724.313 578.29V596.36Z" fill="#6F683B"/>
<path d="M765.481 591.615C765.481 582.58 765.481 580.89 765.351 579.005C765.221 576.99 764.767 576.015 762.819 575.625C762.364 575.495 761.325 575.43 760.481 575.43C759.832 575.43 759.442 575.3 759.442 574.91C759.442 574.52 759.832 574.39 760.741 574.39C762.364 574.39 764.053 574.455 765.546 574.455C767.104 574.52 768.468 574.585 769.312 574.585C771.195 574.585 783.013 574.585 784.182 574.52C785.286 574.39 786.26 574.26 786.714 574.195C787.039 574.13 787.364 573.935 787.688 573.935C788.013 573.935 788.013 574.195 788.013 574.455C788.013 574.845 787.688 575.56 787.559 578.29C787.494 578.875 787.364 581.475 787.234 582.19C787.169 582.515 787.039 582.84 786.649 582.84C786.26 582.84 786.13 582.515 786.13 581.995C786.13 581.605 786.065 580.565 785.805 579.85C785.416 578.81 784.766 578.03 781.844 577.705C780.805 577.575 774.572 577.445 773.403 577.445C773.078 577.445 773.013 577.64 773.013 578.03V593.045C773.013 593.435 773.078 593.695 773.403 593.695C774.702 593.695 781.52 593.695 782.883 593.565C784.312 593.435 785.221 593.24 785.74 592.655C786.13 592.2 786.39 591.875 786.714 591.875C786.974 591.875 787.104 592.005 787.104 592.33C787.104 592.655 786.844 593.63 786.649 596.685C786.584 597.855 786.39 600.26 786.39 600.65C786.39 601.105 786.39 601.755 785.87 601.755C785.481 601.755 785.351 601.495 785.351 601.235C785.286 600.65 785.286 599.87 785.091 599.09C784.766 597.92 783.987 597.01 781.779 596.75C780.676 596.62 774.767 596.555 773.338 596.555C773.013 596.555 773.013 596.815 773.013 597.14V601.82C773.013 603.835 772.948 609.295 773.013 611.05C773.143 615.145 774.052 616.055 780.156 616.055C781.714 616.055 784.182 616.055 785.74 615.34C787.299 614.625 788.013 613.39 788.403 610.92C788.532 610.27 788.662 610.01 789.052 610.01C789.506 610.01 789.507 610.465 789.507 611.05C789.507 612.415 789.052 616.445 788.727 617.68C788.338 619.24 787.753 619.24 785.546 619.24C781.065 619.24 777.818 619.11 775.286 619.045C772.754 618.915 770.871 618.85 769.117 618.85C768.468 618.85 767.169 618.85 765.741 618.915C764.377 618.915 762.819 619.045 761.65 619.045C760.871 619.045 760.481 618.85 760.481 618.46C760.481 618.135 760.741 618.005 761.455 618.005C762.364 618.005 763.079 617.875 763.598 617.745C764.767 617.485 765.092 616.185 765.286 614.495C765.611 612.025 765.611 607.28 765.611 601.82L765.481 591.615Z" fill="#6F683B"/>
<path d="M798.922 618.59C797.948 618.2 797.818 617.875 797.818 616.575C797.818 613.325 798.078 609.75 798.143 608.775C798.207 607.865 798.402 607.215 798.857 607.215C799.376 607.215 799.441 607.735 799.441 608.255C799.441 609.035 799.701 610.27 799.961 611.31C801.259 615.73 804.766 617.29 808.467 617.29C813.791 617.29 816.454 613.65 816.454 610.53C816.454 607.605 815.545 604.875 810.61 601.04L807.883 598.895C801.324 593.76 799.117 589.6 799.117 584.79C799.117 578.225 804.571 573.545 812.817 573.545C816.649 573.545 819.181 574.13 820.739 574.585C821.259 574.715 821.583 574.91 821.583 575.3C821.583 576.08 821.324 577.77 821.324 582.45C821.324 583.75 821.129 584.205 820.674 584.205C820.285 584.205 820.09 583.88 820.09 583.165C820.09 582.645 819.765 580.76 818.532 579.265C817.623 578.16 815.934 576.34 812.038 576.34C807.623 576.34 804.961 578.875 804.961 582.45C804.961 585.18 806.324 587.26 811.259 591.03L812.947 592.265C820.155 597.66 822.687 601.755 822.687 607.41C822.687 610.855 821.389 614.95 817.103 617.745C814.116 619.63 810.805 620.15 807.688 620.15C804.181 620.15 801.454 619.76 798.922 618.59Z" fill="#6F683B"/>
<path d="M830.869 596.88C830.869 586.74 837.557 573.61 855.414 573.61C870.219 573.61 879.374 582.255 879.374 595.84C879.374 609.425 869.894 620.215 854.765 620.215C837.752 620.15 830.869 607.41 830.869 596.88ZM871.063 597.985C871.063 584.66 863.401 576.405 853.661 576.405C846.843 576.405 839.051 580.175 839.051 594.995C839.051 607.345 845.869 617.16 857.297 617.16C861.453 617.225 871.063 615.21 871.063 597.985Z" fill="#6F683B"/>
<path d="M890.997 591.615C890.997 582.58 890.997 580.89 890.867 579.005C890.738 576.99 890.283 576.015 888.335 575.625C887.881 575.495 886.842 575.43 885.997 575.43C885.348 575.43 884.958 575.3 884.958 574.91C884.958 574.52 885.348 574.39 886.257 574.39C889.439 574.39 893.14 574.585 894.374 574.585C896.387 574.585 900.932 574.39 902.75 574.39C906.516 574.39 910.477 574.715 913.659 576.925C915.347 578.03 917.685 581.085 917.685 585.05C917.685 589.47 915.867 593.5 909.828 598.375C915.088 605.005 919.178 610.335 922.685 613.975C925.996 617.42 928.464 617.81 929.308 618.005C929.957 618.135 930.477 618.2 930.996 618.2C931.451 618.2 931.71 618.395 931.71 618.655C931.71 619.11 931.321 619.24 930.607 619.24H924.957C921.646 619.24 920.152 618.915 918.594 618.135C916.062 616.77 913.789 613.975 910.477 609.425C908.075 606.175 905.348 602.145 904.568 601.235C904.244 600.91 903.919 600.845 903.529 600.845L898.4 600.715C898.075 600.715 897.945 600.845 897.945 601.17V602.015C897.945 607.54 897.945 612.22 898.27 614.755C898.465 616.445 898.789 617.81 900.607 618.005C901.516 618.135 902.815 618.265 903.529 618.265C903.984 618.265 904.244 618.46 904.244 618.72C904.244 619.11 903.854 619.305 903.075 619.305C899.633 619.305 895.218 619.11 894.374 619.11C893.27 619.11 889.504 619.305 887.101 619.305C886.322 619.305 885.932 619.11 885.932 618.72C885.932 618.395 886.192 618.265 886.906 618.265C887.816 618.265 888.53 618.135 889.049 618.005C890.218 617.745 890.543 616.445 890.738 614.755C891.062 612.285 891.062 607.54 891.062 602.08L890.997 591.615ZM898.01 596.36C898.01 597.01 898.14 597.27 898.53 597.4C899.763 597.79 901.581 597.985 903.075 597.985C905.477 597.985 906.257 597.725 907.296 596.945C909.114 595.645 910.802 592.915 910.802 588.04C910.802 579.59 905.218 577.185 901.711 577.185C900.218 577.185 899.179 577.25 898.53 577.445C898.14 577.575 898.01 577.77 898.01 578.29V596.36Z" fill="#6F683B"/>
<path d="M942.1 577.705L933.269 577.965C929.828 578.095 928.399 578.355 927.49 579.655C926.906 580.565 926.581 581.28 926.451 581.735C926.321 582.19 926.126 582.45 925.802 582.45C925.412 582.45 925.282 582.125 925.282 581.475C925.282 580.5 926.386 575.105 926.516 574.65C926.711 573.87 926.841 573.545 927.23 573.545C927.685 573.545 928.269 574.13 929.763 574.26C931.451 574.455 933.724 574.585 935.672 574.585H959.177C961.061 574.585 962.359 574.39 963.268 574.26C964.177 574.065 964.632 573.935 964.892 573.935C965.281 573.935 965.346 574.26 965.346 575.17C965.346 576.405 965.151 580.5 965.151 582.06C965.086 582.645 964.957 583.035 964.632 583.035C964.177 583.035 964.047 582.71 963.983 581.865L963.918 581.215C963.788 579.655 962.229 578.03 956.905 577.9L949.437 577.705V602.08C949.437 607.54 949.437 612.22 949.762 614.82C949.957 616.51 950.282 617.81 952.1 618.005C952.944 618.135 954.242 618.265 955.152 618.265C955.801 618.265 956.126 618.46 956.126 618.72C956.126 619.11 955.671 619.305 955.022 619.305C951.126 619.305 947.36 619.11 945.671 619.11C944.308 619.11 940.542 619.305 938.204 619.305C937.425 619.305 937.035 619.11 937.035 618.72C937.035 618.395 937.295 618.265 938.009 618.265C938.918 618.265 939.633 618.135 940.152 618.005C941.321 617.745 941.71 616.445 941.84 614.755C942.165 612.285 942.165 607.54 942.165 602.08L942.1 577.705Z" fill="#6F683B"/>
<path d="M973.658 618.59C972.684 618.2 972.554 617.875 972.554 616.575C972.554 613.325 972.813 609.75 972.878 608.775C972.943 607.865 973.138 607.215 973.593 607.215C974.112 607.215 974.177 607.735 974.177 608.255C974.177 609.035 974.437 610.27 974.696 611.31C975.995 615.73 979.502 617.29 983.203 617.29C988.527 617.29 991.19 613.65 991.19 610.53C991.19 607.605 990.28 604.875 985.346 601.04L982.618 598.895C976.06 593.76 973.852 589.6 973.852 584.79C973.852 578.225 979.307 573.545 987.553 573.545C991.384 573.545 993.917 574.13 995.475 574.585C995.995 574.715 996.319 574.91 996.319 575.3C996.319 576.08 996.06 577.77 996.06 582.45C996.06 583.75 995.865 584.205 995.41 584.205C995.021 584.205 994.826 583.88 994.826 583.165C994.826 582.645 994.501 580.76 993.267 579.265C992.358 578.16 990.67 576.34 986.774 576.34C982.359 576.34 979.696 578.875 979.696 582.45C979.696 585.18 981.06 587.26 985.995 591.03L987.683 592.265C994.891 597.66 997.423 601.755 997.423 607.41C997.423 610.855 996.124 614.95 991.839 617.745C988.852 619.63 985.54 620.15 982.424 620.15C978.852 620.15 976.19 619.76 973.658 618.59Z" fill="#6F683B"/>
<path d="M1045.6 618.59C1044.63 618.2 1044.5 617.875 1044.5 616.575C1044.5 613.325 1044.76 609.75 1044.82 608.775C1044.89 607.865 1045.08 607.215 1045.54 607.215C1046.06 607.215 1046.12 607.735 1046.12 608.255C1046.12 609.035 1046.38 610.27 1046.64 611.31C1047.94 615.73 1051.45 617.29 1055.15 617.29C1060.47 617.29 1063.14 613.65 1063.14 610.53C1063.14 607.605 1062.23 604.875 1057.29 601.04L1054.56 598.895C1048.01 593.76 1045.8 589.6 1045.8 584.79C1045.8 578.225 1051.25 573.545 1059.5 573.545C1063.33 573.545 1065.86 574.13 1067.42 574.585C1067.94 574.715 1068.27 574.91 1068.27 575.3C1068.27 576.08 1068.01 577.77 1068.01 582.45C1068.01 583.75 1067.81 584.205 1067.36 584.205C1066.97 584.205 1066.77 583.88 1066.77 583.165C1066.77 582.645 1066.45 580.76 1065.21 579.265C1064.3 578.16 1062.62 576.34 1058.72 576.34C1054.3 576.34 1051.64 578.875 1051.64 582.45C1051.64 585.18 1053.01 587.26 1057.94 591.03L1059.63 592.265C1066.84 597.66 1069.37 601.755 1069.37 607.41C1069.37 610.855 1068.07 614.95 1063.78 617.745C1060.8 619.63 1057.49 620.15 1054.37 620.15C1050.8 620.15 1048.14 619.76 1045.6 618.59Z" fill="#6F683B"/>
<path d="M1083.98 591.615C1083.98 582.58 1083.98 580.89 1083.85 579.005C1083.72 576.99 1083.27 576.015 1081.32 575.625C1080.86 575.495 1079.82 575.43 1078.98 575.43C1078.33 575.43 1077.94 575.3 1077.94 574.91C1077.94 574.52 1078.33 574.39 1079.24 574.39C1082.42 574.39 1086.12 574.585 1087.81 574.585C1090.21 574.585 1093.72 574.39 1096.45 574.39C1103.85 574.39 1106.58 576.86 1107.49 577.77C1108.78 579.005 1110.47 581.67 1110.47 584.855C1110.47 593.305 1104.3 599.22 1095.86 599.22C1095.54 599.22 1094.89 599.22 1094.63 599.155C1094.3 599.09 1093.91 599.025 1093.91 598.635C1093.91 598.18 1094.3 597.985 1095.6 597.985C1098.91 597.985 1103.59 594.215 1103.59 588.17C1103.59 586.22 1103.39 582.255 1100.08 579.265C1097.94 577.315 1095.54 576.925 1094.17 576.925C1093.26 576.925 1092.36 576.99 1091.84 577.185C1091.51 577.315 1091.38 577.64 1091.38 578.29V602.08C1091.38 607.54 1091.38 612.22 1091.71 614.82C1091.9 616.51 1092.23 617.81 1094.04 618.005C1094.89 618.135 1096.19 618.265 1097.1 618.265C1097.75 618.265 1098.07 618.46 1098.07 618.72C1098.07 619.11 1097.62 619.305 1096.97 619.305C1093.07 619.305 1089.3 619.11 1087.75 619.11C1086.38 619.11 1082.62 619.305 1080.28 619.305C1079.5 619.305 1079.11 619.11 1079.11 618.72C1079.11 618.395 1079.37 618.265 1080.08 618.265C1080.99 618.265 1081.71 618.135 1082.23 618.005C1083.39 617.745 1083.72 616.445 1083.91 614.755C1084.24 612.285 1084.24 607.54 1084.24 602.08L1083.98 591.615Z" fill="#6F683B"/>
<path d="M1122.35 603.835C1122.03 603.835 1121.96 603.965 1121.84 604.29L1118.65 612.805C1118.07 614.3 1117.74 615.73 1117.74 616.445C1117.74 617.485 1118.26 618.265 1120.15 618.265H1121.06C1121.77 618.265 1121.96 618.395 1121.96 618.72C1121.96 619.175 1121.64 619.305 1120.93 619.305C1119.04 619.305 1116.45 619.11 1114.63 619.11C1113.98 619.11 1110.73 619.305 1107.61 619.305C1106.84 619.305 1106.51 619.175 1106.51 618.72C1106.51 618.395 1106.77 618.265 1107.23 618.265C1107.74 618.265 1108.59 618.2 1109.04 618.135C1111.77 617.81 1112.87 615.73 1114.11 612.805L1129.04 575.495C1129.76 573.805 1130.08 573.09 1130.73 573.09C1131.25 573.09 1131.64 573.61 1132.22 574.975C1133.65 578.225 1143.13 602.47 1146.96 611.505C1149.24 616.835 1150.93 617.68 1152.16 618.005C1153.07 618.2 1153.98 618.265 1154.63 618.265C1155.08 618.265 1155.41 618.33 1155.41 618.72C1155.41 619.175 1154.89 619.305 1152.68 619.305C1150.54 619.305 1146.19 619.305 1141.44 619.175C1140.41 619.11 1139.63 619.11 1139.63 618.72C1139.63 618.395 1139.89 618.265 1140.47 618.2C1140.86 618.07 1141.32 617.55 1140.99 616.835L1136.25 604.225C1136.12 603.9 1135.93 603.835 1135.67 603.835H1122.35ZM1134.43 600.845C1134.76 600.845 1134.76 600.65 1134.76 600.52L1129.43 585.83C1129.37 585.57 1129.3 585.31 1129.11 585.31C1128.91 585.31 1128.78 585.635 1128.78 585.83L1123.33 600.455C1123.26 600.715 1123.33 600.845 1123.59 600.845H1134.43Z" fill="#6F683B"/>
<path d="M1158.78 618.59C1157.81 618.2 1157.68 617.875 1157.68 616.575C1157.68 613.325 1157.94 609.75 1158 608.775C1158.07 607.865 1158.26 607.215 1158.72 607.215C1159.24 607.215 1159.3 607.735 1159.3 608.255C1159.3 609.035 1159.56 610.27 1159.82 611.31C1161.12 615.73 1164.63 617.29 1168.33 617.29C1173.65 617.29 1176.31 613.65 1176.31 610.53C1176.31 607.605 1175.41 604.875 1170.47 601.04L1167.74 598.895C1161.19 593.76 1158.98 589.6 1158.98 584.79C1158.98 578.225 1164.43 573.545 1172.68 573.545C1176.51 573.545 1179.04 574.13 1180.6 574.585C1181.12 574.715 1181.44 574.91 1181.44 575.3C1181.44 576.08 1181.18 577.77 1181.18 582.45C1181.18 583.75 1180.99 584.205 1180.54 584.205C1180.15 584.205 1179.95 583.88 1179.95 583.165C1179.95 582.645 1179.63 580.76 1178.39 579.265C1177.48 578.16 1175.8 576.34 1171.9 576.34C1167.48 576.34 1164.82 578.875 1164.82 582.45C1164.82 585.18 1166.18 587.26 1171.12 591.03L1172.81 592.265C1180.02 597.66 1182.55 601.755 1182.55 607.41C1182.55 610.855 1181.25 614.95 1176.96 617.745C1173.98 619.63 1170.67 620.15 1167.55 620.15C1164.04 620.15 1161.38 619.76 1158.78 618.59Z" fill="#6F683B"/>
<path d="M694.964 591.68H685.354V601.3H694.964V591.68Z" fill="#6F683B"/>
<path d="M1026.51 591.68H1016.9V601.3H1026.51V591.68Z" fill="#6F683B"/>
<path d="M1202.35 542.995H389.907V547.805H1202.35V542.995Z" fill="#6F683B"/>
<path d="M423.542 484.3C422.893 484.3 422.698 484.56 422.438 485.34L415.685 502.565C414.452 505.685 413.802 508.74 413.802 510.235C413.802 512.51 414.906 514.135 418.802 514.135H420.685C422.179 514.135 422.568 514.395 422.568 515.175C422.568 516.215 421.789 516.41 420.425 516.41C416.4 516.41 411.01 516.02 407.114 516.02C405.75 516.02 398.803 516.41 392.309 516.41C390.686 516.41 389.907 516.15 389.907 515.175C389.907 514.395 390.426 514.135 391.4 514.135C392.504 514.135 394.322 514.005 395.296 513.875C401.075 513.095 403.478 508.87 405.945 502.565L437.438 424.63C438.931 420.99 439.711 419.625 440.944 419.625C442.048 419.625 442.827 420.73 444.061 423.655C447.048 430.545 467.177 480.855 475.164 499.965C479.969 511.275 483.541 513.03 486.203 513.68C488.086 514.07 489.969 514.2 491.462 514.2C492.501 514.2 493.086 514.33 493.086 515.24C493.086 516.28 491.982 516.475 487.307 516.475C482.761 516.475 473.606 516.475 463.541 516.215C461.268 516.085 459.775 516.085 459.775 515.175C459.775 514.395 460.294 514.135 461.528 514.07C462.372 513.81 463.281 512.705 462.632 511.145L452.567 485.275C452.308 484.625 451.918 484.43 451.334 484.43L423.542 484.3ZM449.126 477.995C449.775 477.995 449.905 477.605 449.775 477.215L438.477 446.275C438.347 445.755 438.217 445.17 437.828 445.17C437.438 445.17 437.178 445.82 437.048 446.275L425.49 477.085C425.36 477.605 425.49 477.93 426.01 477.93L449.126 477.995Z" fill="#6F683B"/>
<path d="M520.293 499.25C520.552 509.065 522.176 512.315 524.708 513.225C526.851 514.005 529.254 514.07 531.202 514.07C532.565 514.07 533.344 514.33 533.344 515.11C533.344 516.15 532.24 516.345 530.422 516.345C522.241 516.345 517.241 515.955 514.838 515.955C513.734 515.955 507.826 516.345 501.267 516.345C499.644 516.345 498.54 516.215 498.54 515.11C498.54 514.33 499.319 514.07 500.553 514.07C502.176 514.07 504.449 513.94 506.202 513.42C509.449 512.38 509.968 508.805 510.098 497.82L511.202 423.785C511.202 421.25 511.592 419.495 512.825 419.495C514.189 419.495 515.358 421.12 517.436 423.395C518.929 425.02 538.02 445.105 556.331 463.37C564.837 471.885 581.785 490.02 583.927 492.035H584.577L583.343 435.615C583.213 427.945 582.109 425.54 579.057 424.305C577.174 423.525 574.187 423.525 572.369 423.525C570.876 423.525 570.356 423.135 570.356 422.42C570.356 421.38 571.72 421.315 573.603 421.315C580.096 421.315 586.135 421.705 588.797 421.705C590.161 421.705 594.966 421.315 601.07 421.315C602.693 421.315 603.992 421.445 603.992 422.42C603.992 423.2 603.213 423.525 601.719 423.525C600.485 423.525 599.446 423.525 597.953 423.915C594.447 424.955 593.408 427.555 593.343 434.575L591.979 513.875C591.979 516.605 591.46 517.775 590.356 517.775C588.992 517.775 587.434 516.41 586.07 515.045C578.148 507.505 562.11 491.06 549.058 478.125C535.357 464.54 521.462 449.2 519.189 446.86H518.799L520.293 499.25Z" fill="#6F683B"/>
<path d="M630.939 484.3C630.29 484.3 630.095 484.56 629.835 485.34L623.017 502.5C621.784 505.62 621.134 508.675 621.134 510.17C621.134 512.445 622.238 514.07 626.134 514.07H628.017C629.511 514.07 629.9 514.33 629.9 515.11C629.9 516.15 629.121 516.345 627.757 516.345C623.732 516.345 618.342 515.955 614.446 515.955C613.083 515.955 606.135 516.345 599.641 516.345C598.018 516.345 597.239 516.085 597.239 515.11C597.239 514.33 597.758 514.07 598.732 514.07C599.836 514.07 601.654 513.94 602.628 513.81C608.407 513.03 610.81 508.805 613.277 502.5L644.77 424.565C646.263 420.925 647.043 419.56 648.276 419.56C649.38 419.56 650.159 420.665 651.393 423.59C654.38 430.48 674.509 480.79 682.496 499.9C687.301 511.21 690.873 512.965 693.535 513.615C695.418 514.005 697.301 514.135 698.795 514.135C699.833 514.135 700.418 514.265 700.418 515.175C700.418 516.215 699.314 516.41 694.639 516.41C690.093 516.41 680.938 516.41 670.873 516.15C668.601 516.02 667.107 516.02 667.107 515.11C667.107 514.33 667.627 514.07 668.86 514.005C669.704 513.745 670.613 512.64 669.964 511.08L659.899 485.21C659.64 484.56 659.25 484.365 658.666 484.365L630.939 484.3ZM656.523 477.995C657.172 477.995 657.302 477.605 657.172 477.215L645.874 446.275C645.744 445.755 645.614 445.17 645.225 445.17C644.835 445.17 644.575 445.82 644.445 446.275L632.887 477.085C632.757 477.605 632.887 477.93 633.407 477.93L656.523 477.995Z" fill="#6F683B"/>
<path d="M727.755 499.25C728.015 509.065 729.638 512.315 732.171 513.225C734.313 514.005 736.716 514.07 738.664 514.07C740.027 514.07 740.807 514.33 740.807 515.11C740.807 516.15 739.703 516.345 737.885 516.345C729.703 516.345 724.703 515.955 722.301 515.955C721.197 515.955 715.288 516.345 708.73 516.345C707.106 516.345 706.002 516.215 706.002 515.11C706.002 514.33 706.782 514.07 708.015 514.07C709.639 514.07 711.911 513.94 713.665 513.42C716.911 512.38 717.431 508.805 717.561 497.82L718.664 423.785C718.664 421.25 719.054 419.495 720.288 419.495C721.651 419.495 722.82 421.12 724.898 423.395C726.391 425.02 745.482 445.105 763.793 463.37C772.299 471.885 789.247 490.02 791.39 492.035H792.039L790.805 435.615C790.675 427.945 789.572 425.54 786.52 424.305C784.637 423.525 781.65 423.525 779.832 423.525C778.338 423.525 777.819 423.135 777.819 422.42C777.819 421.38 779.182 421.315 781.065 421.315C787.559 421.315 793.598 421.705 796.26 421.705C797.623 421.705 802.428 421.315 808.532 421.315C810.155 421.315 811.454 421.445 811.454 422.42C811.454 423.2 810.675 423.525 809.181 423.525C807.948 423.525 806.909 423.525 805.415 423.915C801.909 424.955 800.87 427.555 800.805 434.575L799.441 513.875C799.441 516.605 798.922 517.775 797.818 517.775C796.455 517.775 794.896 516.41 793.533 515.045C785.611 507.505 769.572 491.06 756.521 478.125C742.82 464.54 728.924 449.2 726.651 446.86H726.262L727.755 499.25Z" fill="#6F683B"/>
<path d="M852.492 428.335L833.791 428.855C826.518 429.115 823.531 429.7 821.648 432.495C820.415 434.38 819.765 435.875 819.506 436.915C819.246 437.955 818.856 438.41 818.142 438.41C817.298 438.41 817.038 437.76 817.038 436.395C817.038 434.38 819.441 422.94 819.7 421.965C820.09 420.34 820.48 419.56 821.194 419.56C822.233 419.56 823.466 420.795 826.583 421.055C830.22 421.445 834.96 421.705 839.115 421.705H888.854C892.88 421.705 895.607 421.315 897.49 421.055C899.374 420.665 900.412 420.405 900.867 420.405C901.711 420.405 901.906 421.185 901.906 423.07C901.906 425.735 901.516 434.38 901.516 437.63C901.386 438.865 901.127 439.645 900.412 439.645C899.374 439.645 899.179 438.995 899.049 437.11L898.919 435.745C898.659 432.495 895.283 428.985 884.114 428.725L868.27 428.335V479.88C868.27 491.45 868.27 501.395 868.92 506.79C869.309 510.3 870.024 513.095 873.79 513.55C875.543 513.81 878.335 514.07 880.218 514.07C881.582 514.07 882.231 514.46 882.231 515.11C882.231 515.955 881.192 516.345 879.829 516.345C871.517 516.345 863.66 515.955 860.089 515.955C857.167 515.955 849.31 516.345 844.245 516.345C842.622 516.345 841.713 515.955 841.713 515.11C841.713 514.46 842.232 514.07 843.726 514.07C845.609 514.07 847.102 513.81 848.271 513.55C850.803 513.03 851.518 510.3 851.907 506.66C852.557 501.395 852.557 491.45 852.557 479.88L852.492 428.335Z" fill="#6F683B"/>
<path d="M921.256 484.3C920.607 484.3 920.412 484.56 920.152 485.34L913.399 502.565C912.165 505.685 911.516 508.74 911.516 510.235C911.516 512.51 912.62 514.135 916.516 514.135H918.399C919.892 514.135 920.282 514.395 920.282 515.175C920.282 516.215 919.503 516.41 918.139 516.41C914.113 516.41 908.724 516.02 904.828 516.02C903.464 516.02 896.516 516.41 890.023 516.41C888.4 516.41 887.621 516.15 887.621 515.175C887.621 514.395 888.14 514.135 889.114 514.135C890.218 514.135 892.036 514.005 893.01 513.875C898.789 513.095 901.192 508.87 903.659 502.565L935.152 424.63C936.645 420.99 937.424 419.625 938.658 419.625C939.762 419.625 940.541 420.73 941.775 423.655C944.762 430.545 964.891 480.855 972.878 499.965C977.683 511.275 981.255 513.03 983.917 513.68C985.8 514.07 987.683 514.2 989.176 514.2C990.215 514.2 990.8 514.33 990.8 515.24C990.8 516.28 989.696 516.475 985.021 516.475C980.475 516.475 971.32 516.475 961.255 516.215C958.982 516.085 957.489 516.085 957.489 515.175C957.489 514.395 958.008 514.135 959.242 514.07C960.086 513.81 960.995 512.705 960.346 511.145L950.281 485.275C950.022 484.625 949.632 484.43 949.048 484.43L921.256 484.3ZM946.84 477.995C947.489 477.995 947.619 477.605 947.489 477.215L936.191 446.275C936.061 445.755 935.931 445.17 935.541 445.17C935.152 445.17 934.892 445.82 934.762 446.275L923.204 477.085C923.074 477.605 923.204 477.93 923.724 477.93L946.84 477.995Z" fill="#6F683B"/>
<path d="M1007.16 457.78C1007.16 438.67 1007.16 435.16 1006.9 431.13C1006.64 426.84 1005.67 424.825 1001.51 423.98C1000.47 423.72 998.397 423.59 996.644 423.59C995.28 423.59 994.501 423.33 994.501 422.485C994.501 421.64 995.345 421.38 997.228 421.38C1003.85 421.38 1011.77 421.77 1014.44 421.77C1018.72 421.77 1028.27 421.38 1032.16 421.38C1040.08 421.38 1048.46 422.16 1055.28 426.775C1058.79 429.18 1063.78 435.55 1063.78 444C1063.78 453.295 1059.89 461.81 1047.23 472.145C1058.4 486.185 1067.03 497.43 1074.5 505.165C1081.51 512.445 1086.64 513.355 1088.52 513.68C1089.89 513.94 1091.06 514.07 1092.03 514.07C1093.07 514.07 1093.52 514.46 1093.52 515.11C1093.52 516.15 1092.68 516.345 1091.12 516.345H1079.17C1072.16 516.345 1068.98 515.695 1065.73 513.94C1060.34 511.015 1055.54 505.165 1048.53 495.48C1043.53 488.59 1037.75 480.01 1036.12 478.125C1035.47 477.345 1034.76 477.28 1033.85 477.28L1022.94 477.02C1022.29 477.02 1021.9 477.28 1021.9 478.06V479.815C1021.9 491.515 1021.9 501.46 1022.55 506.725C1022.94 510.365 1023.66 513.16 1027.42 513.615C1029.31 513.875 1032.03 514.135 1033.59 514.135C1034.63 514.135 1035.08 514.525 1035.08 515.175C1035.08 516.02 1034.24 516.41 1032.55 516.41C1025.28 516.41 1015.99 516.02 1014.11 516.02C1011.71 516.02 1003.85 516.41 998.787 516.41C997.163 516.41 996.254 516.02 996.254 515.175C996.254 514.525 996.774 514.135 998.267 514.135C1000.15 514.135 1001.64 513.875 1002.81 513.615C1005.34 513.095 1005.93 510.365 1006.45 506.725C1007.1 501.46 1007.1 491.515 1007.1 479.945L1007.16 457.78ZM1021.97 467.66C1021.97 469.025 1022.23 469.545 1023.07 469.935C1025.73 470.78 1029.5 471.17 1032.62 471.17C1037.62 471.17 1039.24 470.65 1041.51 469.025C1045.28 466.295 1048.92 460.51 1048.92 450.175C1048.92 432.365 1037.1 427.165 1029.69 427.165C1026.58 427.165 1024.31 427.295 1023.01 427.685C1022.16 427.945 1021.9 428.465 1021.9 429.44L1021.97 467.66Z" fill="#6F683B"/>
<path d="M1132.61 484.3C1131.96 484.3 1131.77 484.56 1131.51 485.34L1124.76 502.565C1123.52 505.685 1122.87 508.74 1122.87 510.235C1122.87 512.51 1123.98 514.135 1127.87 514.135H1129.76C1131.25 514.135 1131.64 514.395 1131.64 515.175C1131.64 516.215 1130.86 516.41 1129.5 516.41C1125.47 516.41 1120.08 516.02 1116.19 516.02C1114.82 516.02 1107.87 516.41 1101.38 516.41C1099.76 516.41 1098.98 516.15 1098.98 515.175C1098.98 514.395 1099.5 514.135 1100.47 514.135C1101.58 514.135 1103.39 514.005 1104.37 513.875C1110.15 513.095 1112.55 508.87 1115.02 502.565L1146.51 424.63C1148 420.99 1148.78 419.625 1150.02 419.625C1151.12 419.625 1151.9 420.73 1153.13 423.655C1156.12 430.545 1176.25 480.855 1184.24 499.965C1189.04 511.275 1192.61 513.03 1195.27 513.68C1197.16 514.07 1199.04 514.2 1200.53 514.2C1201.57 514.2 1202.16 514.33 1202.16 515.24C1202.16 516.28 1201.05 516.475 1196.38 516.475C1191.83 516.475 1182.68 516.475 1172.61 516.215C1170.34 516.085 1168.85 516.085 1168.85 515.175C1168.85 514.395 1169.37 514.135 1170.6 514.07C1171.44 513.81 1172.35 512.705 1171.7 511.145L1161.64 485.275C1161.38 484.625 1160.99 484.43 1160.41 484.43L1132.61 484.3ZM1158.26 477.995C1158.91 477.995 1159.04 477.605 1158.91 477.215L1147.61 446.275C1147.48 445.755 1147.35 445.17 1146.96 445.17C1146.57 445.17 1146.31 445.82 1146.19 446.275L1134.63 477.085C1134.5 477.605 1134.63 477.93 1135.15 477.93L1158.26 477.995Z" fill="#6F683B"/>
</svg>
