<svg width="1592" height="835" viewBox="0 0 1592 835" fill="none" xmlns="http://www.w3.org/2000/svg">
<path d="M528.398 360.818L518.349 353.171L519.111 329.991C519.111 328.605 519.301 328.413 519.92 327.41C520.492 326.454 531.113 313.74 521.349 297.49C519.396 294.67 518.206 290.273 524.159 289.365C530.113 288.409 551.783 286.784 560.499 310.968C562.643 317.564 564.5 333.145 548.735 345.237C540.972 351.546 528.398 360.818 528.398 360.818Z" fill="#00685E"/>
<path d="M478.49 297.585C481.396 294.908 482.539 288.838 473.966 288.982C468.012 289.125 441.007 289.364 439.007 320.048C438.388 329.894 441.245 341.03 467.488 358.954C472.632 362.968 490.778 376.877 505.162 388.348C509.306 392.792 517.402 398.815 515.688 413.583C515.259 418.363 515.402 425.15 522.403 420.609C530.167 415.877 552.552 394.704 527.976 365.406C522.451 361.152 493.065 338.593 486.54 334.148C481.253 328.699 473.537 322.486 475.014 308.148C475.442 304.754 477.443 298.541 478.49 297.585Z" fill="#00685E"/>
<path d="M482.724 375.443C482.914 373.866 481.39 372.241 477.913 373.388C471.484 375.539 451.099 402.734 471.198 423.047C476.294 427.444 488.963 436.908 499.632 444.985C504.537 448.187 516.397 454.687 513.11 472.61C512.92 474.618 515.063 478.202 518.873 475.239C525.446 470.507 545.64 453.11 523.97 430.599C518.635 424.959 493.869 407.561 490.439 404.933C488.677 403.547 483.343 393.796 483.009 386.006C482.962 384.62 482.486 377.212 482.724 375.443Z" fill="#00685E"/>
<path d="M484.965 437.912C484.965 436.478 484.108 433.945 480.012 436.669C474.439 440.397 463.389 455.261 471.439 471.512C475.153 480.354 494.3 490.821 506.159 500.332C507.731 502.339 513.208 509.174 511.208 516.965C510.779 518.733 510.398 524.182 516.733 519.976C524.877 514.527 535.355 501.001 522.4 485.324C518.876 481.883 499.729 467.162 494.586 463.339C490.061 459.754 486.298 455.883 485.584 446.132C485.108 443.647 484.965 439.298 484.965 437.912Z" fill="#00685E"/>
<path d="M487.342 491.585C487.39 490.39 485.771 483.986 480.77 489.769C477.769 493.545 464.767 509.604 480.913 525.281C485.628 529.343 507.441 544.16 508.537 546.454C509.918 549.274 510.68 551.472 509.204 562.417C509.204 564.616 509.727 567.34 512.966 564.855C516.538 562.083 528.112 553.384 521.111 534.792C518.729 531.207 512.871 524.755 503.964 518.542C498.249 513.906 490.533 509.843 488.2 500.666C487.866 498.372 487.104 495.791 487.342 491.585Z" fill="#00685E"/>
<path d="M489.585 535.891C489.442 537.469 490.775 563.421 490.775 563.421C490.966 564.807 489.775 567.388 486.965 565.572C484.203 563.756 477.821 560.745 476.963 548.127C476.582 542.487 480.821 535.987 483.822 534.027C486.822 532.068 489.775 533.693 489.585 535.891Z" fill="#00685E"/>
<path d="M636.182 390.977C636.182 322.63 586.649 265.945 521.684 255L521.636 258.728C576.98 269.434 618.797 318.328 618.797 377.021C618.797 432.606 581.267 479.397 530.257 493.306C530.924 495.17 531.591 497.751 531.591 500.762C531.591 503.295 531.114 506.115 529.781 509.03C526.637 516.056 519.731 521.409 515.54 524.516C516.874 525.615 518.207 526.762 518.874 527.336C585.22 517.586 636.182 460.232 636.182 390.977Z" fill="#939598"/>
<path d="M477.344 527.097C412.761 515.817 363.895 458.941 363.895 390.977C363.895 322.63 413.428 265.945 478.392 255L478.44 258.728C423.096 269.434 381.279 318.328 381.279 377.021C381.279 432.606 422.144 480.353 473.153 494.214C471.105 498.229 468.819 504.394 469.105 508.887C469.771 518.35 473.867 523.608 477.344 527.097Z" fill="#939598"/>
<path d="M513.588 348.917L484.773 327.171L484.107 310.825C483.535 308.005 486.726 305.472 488.488 305.472C490.298 305.472 511.54 305.663 511.54 305.663C513.303 305.663 515.112 306.715 515.065 311.064C515.065 315.413 513.588 348.917 513.588 348.917Z" fill="#939598"/>
<path d="M486.963 379.267C486.963 380.462 484.439 395.613 497.299 404.694C500.061 406.892 512.492 416.212 512.492 416.212C512.492 414.205 513.587 400.631 506.919 395.183C503.538 392.363 486.963 379.267 486.963 379.267Z" fill="#939598"/>
<path d="M488.871 442.118C488.871 444.508 488.394 454.688 497.444 460.136C499.015 461.57 508.493 468.405 509.494 469.6C509.732 467.401 511.351 458.846 506.255 454.831C503.302 452.585 488.871 441.927 488.871 442.118Z" fill="#939598"/>
<path d="M491.06 493.211C491.06 494.215 490.584 503.152 497.918 508.983C498.919 509.796 506.206 515.244 508.158 516.439C508.396 513.667 509.016 507.501 503.872 503.2C501.348 500.667 491.06 493.211 491.06 493.211Z" fill="#939598"/>
<path d="M493.111 538.52L506.923 548.652C506.923 548.652 506.923 551.376 506.733 552.762C506.685 553.193 506.352 575.704 506.352 575.704C506.352 577.711 503.542 580.053 500.16 580.053C496.779 580.006 494.016 578.046 494.016 576.421C494.064 574.844 493.111 538.52 493.111 538.52Z" fill="#939598"/>
<path d="M683.193 341.604C684.717 341.891 686.526 341.891 689.098 341.891C696.052 341.891 702.148 339.167 702.148 331.997C702.148 325.163 696.004 322.438 688.384 322.438H683.145V341.604H683.193ZM683.193 311.446H688.241C696.385 311.446 700.577 308.1 700.577 303.081C700.577 297.92 696.671 295.195 689.718 295.195C686.288 295.195 684.383 295.386 683.193 295.721V311.446ZM668.047 285.541C672.048 284.728 680.097 284.011 687.86 284.011C697.195 284.011 702.911 284.919 707.864 287.835C712.579 290.368 715.913 295.004 715.913 301.265C715.913 307.192 712.388 312.736 704.863 315.699V315.89C712.579 317.898 718.342 323.872 718.342 332.619C718.342 338.88 715.532 343.707 711.293 347.053C706.387 350.972 698.148 353.218 684.669 353.218C677.144 353.218 671.524 352.693 668.094 352.215V285.541H668.047Z" fill="#00685E"/>
<path d="M774.825 336.681C774.825 343.134 775.016 348.391 775.206 352.502H761.966L761.251 345.523H760.966C759.061 348.535 754.441 353.601 745.582 353.601C735.532 353.601 728.293 347.34 728.293 332.141V303.225H743.582V329.751C743.582 336.92 745.915 341.222 751.297 341.222C755.536 341.222 758.013 338.306 758.918 335.869C759.346 334.961 759.537 333.862 759.537 332.523V303.177H774.825V336.681Z" fill="#00685E"/>
<path d="M787.402 318.902C787.402 312.736 787.212 307.622 786.974 303.177H799.928L800.548 309.916H800.833C802.929 306.666 807.359 302.03 815.693 302.03C822.123 302.03 827.029 305.376 829.172 310.49H829.363C831.268 307.861 833.411 305.854 835.792 304.42C838.507 302.891 841.508 301.982 845.128 301.982C854.558 301.982 861.702 308.626 861.702 323.347V352.406H846.842V325.689C846.842 318.519 844.508 314.409 839.603 314.409C835.983 314.409 833.554 316.847 832.459 319.762C832.173 320.861 831.935 322.391 831.935 323.586V352.406H817.075V324.781C817.075 318.615 814.884 314.409 809.93 314.409C806.025 314.409 803.691 317.42 802.786 319.858C802.31 321.053 802.167 322.486 802.167 323.777V352.406H787.307V318.902H787.402Z" fill="#00685E"/>
<path d="M874.231 319.427C874.231 312.163 874.135 307.431 873.85 303.177H886.9L887.519 312.354H887.9C890.424 305.089 896.33 302.078 901.188 302.078C902.617 302.078 903.284 302.173 904.427 302.365V316.799C903.141 316.608 901.903 316.416 900.188 316.416C894.568 316.416 890.758 319.332 889.757 324.159C889.567 325.163 889.472 326.262 889.472 327.6V352.502H874.183L874.231 319.427Z" fill="#00685E"/>
<path d="M958.627 336.681C958.627 343.134 958.818 348.391 959.056 352.502H945.768L945.053 345.523H944.767C942.862 348.535 938.242 353.601 929.384 353.601C919.334 353.601 912.095 347.34 912.095 332.141V303.225H927.383V329.751C927.383 336.92 929.669 341.222 935.099 341.222C939.338 341.222 941.815 338.306 942.719 335.869C943.148 334.961 943.339 333.862 943.339 332.523V303.177H958.627V336.681Z" fill="#00685E"/>
<path d="M971.197 318.902C971.197 312.736 971.007 307.622 970.769 303.177H984.009L984.724 310.012H985.009C987.01 306.762 991.963 302.03 1000.2 302.03C1010.25 302.03 1017.78 308.769 1017.78 323.299V352.454H1002.49V325.115C1002.49 318.759 1000.3 314.409 994.773 314.409C990.534 314.409 988.057 317.325 986.962 320.145C986.533 321.148 986.438 322.582 986.438 323.968V352.406H971.15V318.902H971.197Z" fill="#00685E"/>
<path d="M1061.59 323.252C1061.59 322.344 1061.5 321.34 1061.31 320.432C1060.21 316.417 1057.31 313.693 1053.07 313.693C1047.45 313.693 1043.02 318.711 1043.02 327.697C1043.02 335.057 1046.64 340.793 1052.97 340.793C1056.97 340.793 1060.12 338.164 1061.12 334.627C1061.5 333.432 1061.64 331.807 1061.64 330.469V323.252H1061.59ZM1076.88 345.333C1076.88 354.796 1074.98 362.587 1069.36 367.51C1064.02 372.146 1056.69 373.58 1049.45 373.58C1042.92 373.58 1036.21 372.289 1031.78 369.852L1034.78 358.142C1037.88 359.958 1043.21 361.87 1049.07 361.87C1056.31 361.87 1061.83 358.047 1061.83 348.87V345.763H1061.64C1058.74 349.778 1054.02 352.12 1048.35 352.12C1036.21 352.12 1027.54 342.226 1027.54 328.127C1027.54 312.211 1037.68 302.126 1049.83 302.126C1056.55 302.126 1060.78 305.042 1063.31 309.057H1063.5L1064.02 303.226H1077.31C1077.12 306.476 1076.88 310.586 1076.88 317.947V345.333Z" fill="#00685E"/>
<path d="M1089.55 319.427C1089.55 312.163 1089.46 307.431 1089.17 303.177H1102.22L1102.84 312.354H1103.27C1105.79 305.089 1111.7 302.078 1116.51 302.078C1117.94 302.078 1118.6 302.173 1119.75 302.365V316.799C1118.41 316.608 1117.22 316.416 1115.51 316.416C1109.89 316.416 1106.08 319.332 1105.08 324.159C1104.89 325.163 1104.79 326.262 1104.79 327.6V352.502H1089.5L1089.55 319.427Z" fill="#00685E"/>
<path d="M1152.95 329.178C1144.9 329.178 1138.71 331.09 1138.71 336.921C1138.71 340.84 1141.33 342.752 1144.76 342.752C1148.47 342.752 1151.71 340.218 1152.71 337.112C1152.9 336.299 1153 335.391 1153 334.483V329.178H1152.95ZM1167.71 340.601C1167.71 345.237 1167.9 349.777 1168.52 352.502H1154.76L1153.85 347.579H1153.57C1150.38 351.498 1145.33 353.649 1139.52 353.649C1129.56 353.649 1123.66 346.384 1123.66 338.546C1123.66 325.737 1135.09 319.714 1152.47 319.714V318.997C1152.47 316.369 1151.04 312.641 1143.52 312.641C1138.47 312.641 1133.18 314.361 1129.94 316.273L1127.13 306.475C1130.56 304.563 1137.28 302.03 1146.23 302.03C1162.62 302.03 1167.71 311.733 1167.71 323.299V340.601Z" fill="#00685E"/>
<path d="M1212.53 324.159C1212.53 323.251 1212.53 322.248 1212.34 321.339C1211.43 317.181 1208.1 313.883 1203.38 313.883C1196.33 313.883 1192.81 320.145 1192.81 327.887C1192.81 336.156 1196.9 341.413 1203.24 341.413C1207.67 341.413 1211.29 338.402 1212.19 334.053C1212.38 333.049 1212.48 331.854 1212.48 330.612V324.159H1212.53ZM1227.82 280.905V337.781C1227.82 343.421 1228.01 349.156 1228.2 352.502H1214.62L1214 345.333H1213.72C1210.72 350.781 1204.67 353.601 1198.33 353.601C1186.66 353.601 1177.33 343.612 1177.33 328.317C1177.23 311.78 1187.57 302.126 1199.33 302.126C1205.48 302.126 1210.1 304.324 1212.29 307.67H1212.48V280.953H1227.82V280.905Z" fill="#00685E"/>
<path d="M677.763 379.602H668.952V447.566H677.763V379.602Z" fill="#939598"/>
<path d="M695.673 411.958C695.673 406.797 695.578 402.782 695.244 398.767H703.103L703.627 406.749H703.817C706.246 402.208 711.866 397.668 719.915 397.668C726.631 397.668 737.109 401.683 737.109 418.459V447.613H728.25V419.462C728.25 411.576 725.345 404.933 717.01 404.933C711.295 404.933 706.77 409.043 705.151 414.014C704.77 415.113 704.532 416.738 704.532 418.124V447.566H695.673V411.958Z" fill="#939598"/>
<path d="M764.59 387.057V398.767H777.259V405.506H764.59V431.794C764.59 437.864 766.305 441.257 771.21 441.257C773.64 441.257 775.021 441.066 776.354 440.636L776.735 447.375C775.021 447.996 772.306 448.57 768.924 448.57C764.781 448.57 761.494 447.136 759.399 444.842C756.97 442.117 755.97 437.768 755.97 432.033V405.506H748.444V398.767H755.97V389.782L764.59 387.057Z" fill="#939598"/>
<path d="M820.363 418.316C820.459 412.771 818.077 403.882 808.218 403.882C799.169 403.882 795.359 412.15 794.644 418.316H820.363ZM794.549 424.672C794.739 436.669 802.265 441.592 811.124 441.592C817.458 441.592 821.364 440.493 824.602 439.154L826.222 445.415C823.126 446.849 817.696 448.522 809.933 448.522C795.073 448.522 786.023 438.533 786.023 423.908C786.023 409.091 794.787 397.477 808.933 397.477C824.793 397.477 828.936 411.481 828.936 420.466C828.936 422.283 828.841 423.669 828.651 424.72L794.549 424.672Z" fill="#939598"/>
<path d="M842.89 413.966C842.89 408.231 842.795 403.26 842.509 398.767H850.225L850.653 408.326H850.939C853.13 401.778 858.56 397.62 864.514 397.62C865.419 397.62 866.133 397.716 866.943 397.907V406.175C865.942 406.08 865.038 405.984 863.847 405.984C857.607 405.984 853.178 410.716 851.987 417.264C851.797 418.554 851.701 419.988 851.701 421.518V447.518H842.842L842.89 413.966Z" fill="#939598"/>
<path d="M878.942 411.959C878.942 406.797 878.846 402.782 878.561 398.767H886.419L886.895 406.749H887.086C889.515 402.208 895.135 397.668 903.184 397.668C909.9 397.668 920.378 401.683 920.378 418.459V447.614H911.519V419.462C911.519 411.576 908.614 404.933 900.279 404.933C894.564 404.933 890.039 409.043 888.42 414.014C887.991 415.113 887.8 416.738 887.8 418.124V447.566H878.942V411.959Z" fill="#939598"/>
<path d="M963.245 422.617C953.625 422.426 942.67 424.146 942.67 433.61C942.67 439.441 946.481 442.069 950.91 442.069C957.34 442.069 961.483 438.055 962.865 433.897C963.15 432.988 963.245 431.985 963.245 431.077V422.617ZM971.866 435.856C971.866 440.11 972.057 444.22 972.581 447.566H964.627L963.817 441.4H963.531C960.912 445.224 955.577 448.665 948.671 448.665C938.812 448.665 933.812 441.687 933.812 434.661C933.812 422.856 944.242 416.404 963.055 416.499V415.495C963.055 411.481 961.96 404.12 952.005 404.216C947.385 404.216 942.67 405.506 939.241 407.848L937.241 401.874C941.241 399.341 947.195 397.62 953.291 397.62C968.246 397.62 971.866 407.8 971.866 417.598V435.856Z" fill="#939598"/>
<path d="M999.247 387.057V398.767H1011.92V405.506H999.247V431.794C999.247 437.864 1000.96 441.257 1005.87 441.257C1008.3 441.257 1009.68 441.066 1011.01 440.636L1011.39 447.375C1009.68 447.996 1006.96 448.57 1003.58 448.57C999.438 448.57 996.152 447.136 994.056 444.842C991.627 442.117 990.627 437.768 990.627 432.033V405.506H983.102V398.767H990.627V389.782L999.247 387.057Z" fill="#939598"/>
<path d="M1024.73 398.72H1033.59V447.519H1024.73V398.72ZM1028.97 389.782C1025.63 389.782 1023.44 387.154 1023.44 384.047C1023.44 380.94 1025.78 378.407 1029.16 378.407C1032.59 378.407 1034.78 380.94 1034.78 384.047C1034.78 387.201 1032.59 389.782 1029.06 389.782H1028.97Z" fill="#939598"/>
<path d="M1071.26 441.974C1079.69 441.974 1086.03 433.992 1086.03 422.903C1086.03 414.635 1081.89 404.263 1071.45 404.263C1061.12 404.263 1056.59 413.966 1056.59 423.238C1056.59 433.944 1062.64 441.974 1071.17 441.974H1071.26ZM1070.98 448.665C1057.93 448.665 1047.64 438.963 1047.64 423.573C1047.64 407.227 1058.4 397.668 1071.74 397.668C1085.7 397.668 1095.13 407.848 1095.13 422.664C1095.13 440.827 1082.55 448.665 1071.03 448.665H1070.98Z" fill="#939598"/>
<path d="M1109.27 411.959C1109.27 406.797 1109.17 402.782 1108.89 398.767H1116.7L1117.22 406.749H1117.41C1119.84 402.208 1125.46 397.668 1133.46 397.668C1140.23 397.668 1150.66 401.683 1150.66 418.459V447.614H1141.8V419.462C1141.8 411.576 1138.89 404.933 1130.56 404.933C1124.84 404.933 1120.32 409.043 1118.7 414.014C1118.32 415.113 1118.08 416.738 1118.08 418.124V447.566H1109.22V411.959H1109.27Z" fill="#939598"/>
<path d="M1193.57 422.617C1183.91 422.426 1172.95 424.146 1172.95 433.61C1172.95 439.441 1176.76 442.069 1181.19 442.069C1187.62 442.069 1191.76 438.055 1193.15 433.897C1193.43 432.988 1193.53 431.985 1193.53 431.077V422.617H1193.57ZM1202.2 435.856C1202.2 440.11 1202.39 444.22 1202.91 447.566H1194.96L1194.15 441.4H1193.86C1191.24 445.224 1185.91 448.665 1179 448.665C1169.14 448.665 1164.14 441.687 1164.14 434.661C1164.14 422.856 1174.57 416.404 1193.38 416.499V415.495C1193.38 411.481 1192.29 404.12 1182.33 404.216C1177.71 404.216 1173 405.506 1169.57 407.848L1167.57 401.874C1171.57 399.341 1177.52 397.62 1183.62 397.62C1198.58 397.62 1202.2 407.8 1202.2 417.598V435.856Z" fill="#939598"/>
<path d="M1228.15 375.969H1219.29V447.566H1228.15V375.969Z" fill="#939598"/>
<path d="M803.831 517.872V538.329H827.407V517.872H833.741V566.767H827.407V543.873H803.831V566.767H797.496V517.872H803.831Z" fill="#00685E"/>
<path d="M866.036 562.418C875.99 562.418 881.658 553.193 881.658 542.105C881.658 532.402 876.609 522.27 866.131 522.27C855.653 522.27 850.462 532.068 850.462 542.631C850.462 552.907 856.082 562.418 865.988 562.418H866.036ZM865.75 567.532C852.796 567.532 843.842 557.543 843.842 542.726C843.842 527.193 853.367 517.06 866.369 517.06C879.753 517.06 888.326 527.288 888.326 541.77C888.326 558.499 878.133 567.484 865.798 567.484H865.75V567.532Z" fill="#00685E"/>
<path d="M897.849 559.072C900.659 560.888 904.707 562.274 909.041 562.274C915.471 562.274 919.234 558.929 919.234 553.958C919.234 549.465 916.614 546.789 910.041 544.304C902.088 541.388 897.182 537.182 897.182 530.395C897.182 522.796 903.469 517.108 912.947 517.108C917.852 517.108 921.567 518.255 923.663 519.498L921.948 524.66C920.424 523.704 917.186 522.366 912.756 522.366C906.136 522.366 903.564 526.333 903.564 529.678C903.564 534.267 906.517 536.513 913.232 539.094C921.472 542.344 925.568 546.263 925.568 553.432C925.568 560.984 920.091 567.58 908.613 567.58C903.897 567.58 898.801 566.146 896.182 564.377L897.849 559.072Z" fill="#00685E"/>
<path d="M942.622 542.056C944.003 542.439 945.813 542.582 947.813 542.582C955.481 542.582 960.006 538.806 960.006 532.211C960.006 525.711 955.434 522.556 948.528 522.556C945.765 522.556 943.67 522.843 942.622 523.082V542.056ZM936.335 518.541C939.383 517.968 943.336 517.538 948.385 517.538C954.576 517.538 959.149 518.971 962.054 521.6C964.721 523.942 966.388 527.479 966.388 531.828C966.388 536.273 965.102 539.714 962.578 542.248C959.244 545.784 953.814 547.601 947.718 547.601C945.861 547.601 944.098 547.505 942.669 547.17V566.766H936.383V518.541H936.335Z" fill="#00685E"/>
<path d="M983.153 517.872H976.818V566.719H983.153V517.872Z" fill="#00685E"/>
<path d="M1005.49 523.273H990.68V517.872H1026.73V523.273H1011.83V566.767H1005.49V523.273Z" fill="#00685E"/>
<path d="M1052.69 546.454L1047.83 532.402C1046.83 529.2 1046.12 526.332 1045.36 523.464H1045.12C1044.45 526.284 1043.69 529.343 1042.74 532.307L1037.97 546.454H1052.69ZM1036.69 551.377L1031.64 566.767H1025.11L1041.64 517.92H1049.21L1065.84 566.767H1059.12L1053.93 551.377H1036.69Z" fill="#00685E"/>
<path d="M1075.08 517.872H1081.41V561.461H1102.23V566.767H1075.08V517.872Z" fill="#00685E"/>
<path d="M1227.11 486.423H667.096V489.626H1227.11V486.423Z" fill="#00685E"/>
</svg>
