<svg width="1592" height="835" viewBox="0 0 1592 835" fill="none" xmlns="http://www.w3.org/2000/svg">
<path fill-rule="evenodd" clip-rule="evenodd" d="M1106.18 523.276L1105.05 525.366L1102.79 527.979L1101.1 530.592L1097.71 532.683L1094.89 534.773L1090.94 536.341L1086.42 537.909H1019.27L1015.32 536.341L1011.37 534.773L1007.98 532.683L1005.16 530.592L1002.9 527.979L1001.21 525.366L1000.08 523.276L922.766 369.107L921.073 366.494L919.38 364.403L917.687 361.79L915.43 360.222L911.48 356.564L906.401 353.951L901.321 352.383L896.243 351.338L890.599 350.292L885.52 349.77H745.564L741.049 350.292L736.535 351.338L733.148 352.905L730.327 355.519L727.505 358.654L726.376 361.79L725.248 365.97L724.683 370.152L725.248 374.855L726.376 378.514L728.069 382.172L730.891 384.785L733.713 386.875L737.099 388.966L741.049 390.011L745.564 390.534H849.967L857.303 391.056L864.075 392.624L871.412 395.237L877.619 397.327L883.827 400.463L890.035 404.121L895.114 408.825L900.193 413.528L904.708 418.754L908.094 425.025L911.48 431.82L913.737 439.136L915.995 446.975L916.559 455.337L917.123 464.221L916.559 473.105L915.995 481.467L913.737 489.306L911.48 496.622L908.094 502.894L904.143 509.166L900.193 514.391L895.114 519.618L890.035 523.799L883.827 527.457L877.619 530.592L871.412 533.205L864.075 535.296L857.303 536.864L849.967 537.909H713.961L710.011 536.864L706.625 535.296L703.238 533.205L700.981 530.07L699.288 526.934L698.159 522.753L697.595 517.527V489.306L698.159 488.261L698.724 486.693L699.852 485.648L700.417 485.126L701.545 484.603L704.367 484.08H818.364L822.879 483.035L826.264 481.467L829.086 478.855L831.908 476.241L833.601 473.105L834.73 468.925L835.294 464.221L834.73 459.518L833.601 455.337L831.908 451.678L829.086 449.065L826.264 446.975L822.879 445.407L819.492 444.362L814.978 443.84H704.367L698.159 442.794L691.952 442.272L686.873 440.704L680.665 439.136L675.586 436.523L671.071 434.955L666.556 432.342L665.428 443.84L663.735 449.588L662.606 455.337L660.913 460.563L659.22 466.312L656.963 471.538L654.141 476.241L651.884 481.467L649.626 485.648L646.24 490.351L643.419 494.533L640.032 498.713L636.646 502.371L632.696 506.03L628.746 509.688L624.795 512.824L620.28 515.959L616.33 519.095L611.251 521.708L606.172 524.321L601.093 526.934L596.578 529.025L591.499 530.592L585.856 532.161L579.648 533.728L568.361 536.341L555.946 537.909H385.516L384.387 536.864L383.258 536.341L382.694 535.296L381.565 534.251L381 533.205V395.237L381.565 394.192L382.694 392.624V392.101L384.387 391.056L385.516 390.534H448.157L452.107 391.579L456.058 393.669L458.88 396.282L460.573 398.895L462.265 402.553L463.394 406.212L463.958 410.393V478.855L464.523 480.422L465.087 481.467L465.651 482.513L466.78 483.035L467.909 483.557L470.731 484.08H524.907L531.679 483.035L537.887 481.99L550.302 477.809L555.946 475.196L561.025 471.538L566.104 467.357L570.619 462.653L574.569 457.95L577.955 452.724L580.777 446.453L583.034 440.181L584.727 432.865L585.856 425.025L586.42 416.664L585.856 408.825L584.727 400.986L583.034 394.192L580.777 387.398L577.955 381.649L574.569 375.901L570.619 371.197L566.104 366.494L561.025 362.835L555.946 359.177L550.302 356.564L544.095 353.951L537.887 352.383L531.679 351.338L524.907 350.292L517.571 349.77H387.773L385.516 349.248L384.387 348.725L382.694 348.203V347.157L381.565 346.112L381 345.066V313.71L381.565 311.097L382.694 306.916L384.951 303.258L387.773 301.168L391.159 298.555L395.109 296.987L397.931 296.464H559.332L566.104 297.51L573.44 298.555L579.648 300.122L586.985 302.213L593.192 304.303L599.964 306.393L606.172 309.529L612.38 312.665L617.459 316.323L623.102 319.981L627.617 323.64L632.696 327.821L637.211 332.524L641.725 337.75L643.983 332.524L646.24 327.821L649.626 323.64L653.012 319.459L656.398 315.801L660.349 312.665L664.299 309.529L668.814 306.393L673.328 304.303L677.843 302.213L682.922 300.122L688.566 298.555L694.209 297.51L699.852 296.464H924.46L929.538 296.987L934.053 298.032L938.568 298.555L943.647 300.122L948.162 302.213L953.241 303.781L957.191 306.393L961.142 308.484L965.656 312.142L969.607 315.278L973.557 318.936L976.943 323.117L979.765 327.821L982.587 332.524L1049.18 468.925V469.447L1050.31 470.492H1054.26L1055.39 469.447L1055.95 468.925L1138.34 299.077L1140.04 297.51L1141.73 296.464H1143.99H1209.45L1210.58 296.987L1212.27 298.555L1213.4 300.122V306.393L1106.18 523.276Z" fill="#002664"/>
</svg>
