<svg width="1592" height="835" viewBox="0 0 1592 835" fill="none" xmlns="http://www.w3.org/2000/svg">
<path d="M475.51 336.712V369.454H297.936C295.805 369.454 295.805 369.454 295.805 371.59V464.122C295.805 466.258 295.805 466.258 297.936 466.258H439.995C442.126 466.258 442.126 466.258 442.126 464.122V433.515H330.609V403.62C330.609 402.197 331.32 401.485 332.74 401.485H475.51C476.931 401.485 477.641 401.485 477.641 403.62V498.288H289.412C275.916 498.288 265.262 489.035 262.421 476.223C261 474.799 261 472.664 261 471.24V363.76C261 349.524 271.654 338.135 285.86 336.712H475.51ZM945.018 368.742H779.518V399.349C779.518 401.485 779.518 401.485 781.649 401.485H939.336C942.177 401.485 942.177 401.485 942.177 404.332V433.515H778.808V464.122C778.808 466.258 778.808 466.258 780.939 466.258H945.018V498.288H770.995C757.499 498.288 746.845 489.035 744.714 475.511V336H944.308C945.018 347.389 945.018 358.066 945.018 368.742ZM510.315 336.712H709.909V368.742H546.54C543.699 368.742 544.409 368.742 544.409 370.878V398.638C544.409 400.773 544.409 400.773 546.54 400.773H706.357C707.068 400.773 707.778 400.773 707.778 402.197V433.515H547.25C544.409 433.515 544.409 432.803 544.409 436.362V463.41C544.409 465.546 544.409 465.546 546.54 465.546H707.778C710.619 465.546 710.619 464.834 710.619 468.393V497.576H535.886C522.39 497.576 511.736 487.611 510.315 474.799V336.712ZM1092.05 336.712H1136.09C1137.51 336.712 1138.22 336.712 1138.93 338.135C1162.37 361.624 1185.81 385.825 1209.96 409.314C1210.67 410.026 1210.67 410.738 1211.38 411.45L1283.12 339.559C1283.83 338.847 1285.25 338.135 1286.67 338.135H1330C1329.29 338.847 1329.29 339.559 1328.58 339.559L1229.14 439.21C1228.43 439.921 1227.72 440.633 1227.72 442.057V496.865C1227.72 499 1227.72 499 1225.59 499H1193.62V441.345C1193.62 439.921 1192.91 439.21 1192.2 438.498C1158.82 405.044 1125.43 372.301 1092.76 338.847C1092.76 337.424 1092.05 337.424 1092.05 336.712ZM1159.53 466.258V498.288H1007.52C994.029 498.288 981.954 487.611 980.533 474.799C979.823 472.664 979.823 469.817 979.823 466.969V336H1013.92V463.41C1013.92 465.546 1013.92 465.546 1016.05 465.546H1157.4C1158.11 466.258 1158.82 466.258 1159.53 466.258Z" fill="#5A666E"/>
</svg>
