<svg width="1592" height="835" viewBox="0 0 1592 835" fill="none" xmlns="http://www.w3.org/2000/svg">
<path fill-rule="evenodd" clip-rule="evenodd" d="M838.812 387.156C841.932 403.279 833.482 416.671 826.46 429.669C818.661 441.763 805.789 452.158 790.318 450.602C755.6 450.082 721.668 444.752 690.201 435.258C688.772 434.869 687.343 433.955 686.561 432.658C685.91 430.836 686.823 429.145 688.121 427.978C716.858 404.703 751.051 393.916 784.856 382.599C797.466 378.96 810.862 375.058 825.032 376.88C830.878 377.662 836.728 381.695 838.812 387.156ZM957.258 318.249C973.381 331.51 987.944 349.585 983.002 371.427C974.941 403.672 939.838 420.835 911.884 431.753C896.67 436.826 881.33 442.03 864.687 443.59C863.647 443.459 861.956 443.716 861.694 442.157L862.083 440.339C885.747 413.682 903.687 383.783 919.425 353.487C926.704 339.833 933.468 325.795 939.707 312.01C940.616 310.97 941.529 310.45 942.569 310.061C948.415 310.576 952.579 315.129 957.258 318.249ZM730.372 283.924L729.852 285.873C695.658 324.746 673.165 369.863 651.843 414.718C647.684 418.619 643.651 413.416 639.88 411.725C620.896 399.246 603.733 379.091 608.675 355.169C616.605 323.968 648.719 307.326 675.507 296.018C691.367 290.037 707.883 285.226 725.303 282.495C727.125 282.491 729.463 282.233 730.372 283.924ZM900.052 290.163C902 291.203 904.342 291.592 905.513 293.541C906.553 295.752 904.473 297.18 903.303 298.613C876.388 319.673 845.576 331.378 814.109 341.651C798.113 345.552 781.99 352.574 764.181 348.672C760.017 347.632 756.251 344.901 753.909 340.868C749.487 328.648 755.469 315.907 760.668 305.246C767.558 291.854 779.784 276.12 796.684 275.863C833.089 275.601 867.413 281.062 900.052 290.163ZM945.038 291.203C972.603 306.286 1003.81 332.807 1000.56 368.172C996.787 400.937 966.233 423.819 938.929 437.604C859.225 475.699 747.281 476.866 664.977 443.585C637.149 432.016 605.944 412.122 594.239 382.215C585.269 357.642 596.188 332.029 614.525 314.998C652.879 280.153 701.766 268.195 752.087 261.3C806.698 254.667 864.163 260.518 913.05 277.291C923.973 281.324 934.766 285.746 945.038 291.203Z" fill="#003984"/>
<path fill-rule="evenodd" clip-rule="evenodd" d="M1010.94 508.152H979.595C974.334 508.464 972.864 509.772 972.864 516.177V533.832H1010.94V508.152ZM1027.62 494.014V571H1010.94V548.871H972.864V571H956.177V510.647C956.177 499.983 960.484 494.014 972.864 494.014H1027.62ZM939.492 510.632V552.295C939.492 565.559 932.063 570.986 922.802 570.986H870.166V494H922.802C937.017 494 939.492 503.064 939.492 510.632ZM922.604 515.265C922.604 511.048 920.041 508.138 915.553 508.138H886.855V556.24L915.553 556.238C922.089 555.905 922.604 551.975 922.604 548.856V515.265ZM530 494H546.687V524.344H584.023V494H600.71V570.983H584.023V539.567H546.687V570.983H530V494ZM629.311 494L650.231 525.472L670.899 494H691.162L658.566 543.218V570.986H641.877V543.214L609.054 494H629.311ZM784.835 494H838.611C846.274 494 853.695 495.079 853.478 510.632V570.986H836.791V516.162C836.791 509.533 835.998 508.138 830.811 508.138H801.526V570.986H784.835V494ZM1061 494.014V571H1044.31V494.014H1061ZM699.508 570.986H753.28C763.97 570.986 768.366 567.884 768.15 552.425V494H751.462V548.957C751.462 555.546 750.669 556.346 745.482 556.346H716.198L716.195 494H699.508V570.986Z" fill="#003984"/>
</svg>
