<svg width="1592" height="835" viewBox="0 0 1592 835" fill="none" xmlns="http://www.w3.org/2000/svg">
<path d="M322.689 424.447L324.414 421.311C339.266 394.393 351.513 366.147 375.765 345.915C386.08 337.316 411.177 332.025 406.244 358.03C398.292 387.223 360.844 418.812 327.088 423.827L322.689 424.447ZM386.511 464.153C398.378 464.653 432.773 451.917 432.376 434.236C430.6 424.913 419.439 426.291 413.006 428.204C396.55 433.099 382.164 451.469 374.92 463.154C369.71 471.563 362.448 477.681 353.03 481.128C338.369 486.453 323.069 487.022 309.045 484.661C300.11 483.144 297.109 482.351 281.429 478.526C298.454 464.756 309.235 445.041 321.378 427.429C342.146 424.758 382.992 413.901 405.864 372.127C413.42 358.323 416.024 338.712 397.516 335.455C386.752 333.559 377.317 338.212 366.933 345.433C337.437 365.923 321.948 396.15 306.82 426.223C300.3 427.084 292.4 426.619 287.484 425.619C284.448 425.016 274.426 423.603 260.386 414.521C246.707 405.698 234.357 384.053 241.101 357.565L237.427 359.03C233.08 371.197 235.737 387.913 242.947 400.648C249.622 412.436 257.936 418.933 272.46 424.585C276.738 426.24 282.999 428.963 301.387 429.497L305.785 429.29L303.56 433.512C298.506 443.06 294.09 451.745 287.932 460.896C287.26 461.878 286.225 463.671 285.397 464.756C281.895 469.392 279.101 472.563 275.168 476.94C256.125 471.65 232.787 468.548 218.884 473.769C218.884 473.769 209.345 476.578 208.983 484.506C208.517 494.88 225.249 497.258 225.249 497.258C242.498 500.171 258.436 494.018 275.461 482.92C291.796 488.521 311.581 501.291 331.745 498.603C336.195 498.017 341.405 496.896 345.579 494.725C349.184 492.864 352.772 491.158 355.894 488.624C361.758 483.851 369.4 475.958 373.281 469.478C370.866 476.475 371.228 481.61 372.487 486.263C373.695 490.692 377.645 495.001 383.458 496.328C404.553 501.136 420.923 484.971 432.98 468.548L430.738 468.72C423.51 478.526 405.675 498.551 386.821 493.829C375.075 488.004 381.992 473.063 386.511 464.153ZM387.994 461.292C393.393 451.866 403.657 435.942 417.49 429.549C421.44 427.739 426.029 428.911 427.391 432.547C428.512 435.511 428.978 438.906 422.924 445.248C419.232 449.126 403.501 460.413 387.994 461.292ZM264.974 484.351C258.833 488.038 241.256 496.655 227.44 494.691C227.319 494.673 212.019 492.95 211.122 486.195C210.053 478.129 219.108 475.613 224.921 474.424C236.84 472.029 260.782 476.475 270.7 480.869L269.941 481.335L264.974 484.351Z" fill="#231F20"/>
<path d="M1275.72 495.208V393.91L1380.56 498.654L1381.03 343.347L1358.93 343.64V445.576L1254.09 340.831L1254.56 495.363L1275.72 495.208Z" fill="#231F20"/>
<path d="M894.256 495.208H918.163V343.347H894.256V495.208Z" fill="#231F20"/>
<path d="M1091.26 495.208H1115.17V343.347H1091.26V495.208Z" fill="#231F20"/>
<path d="M749.432 341.848H663.842V495.208H753.434V474.924H687.835V427.773H745.792V407.783H687.835V362.235H749.432V341.848Z" fill="#231F20"/>
<path d="M1230.41 341.848H1144.82V495.208H1234.41V474.924H1168.81V427.773H1226.77V407.783H1168.81V362.235H1230.41V341.848Z" fill="#231F20"/>
<path d="M495.68 495.018L505.547 403.871L558.208 495.345L610.646 404.336L620.391 495.208L643.246 495.018L622.41 339.866L558.415 452.607L494.68 340.004L473.498 495.018H495.68Z" fill="#231F20"/>
<path d="M833.021 429.359C838.627 427.36 844.078 423.707 850.219 415.969C856.377 408.248 860.43 398.167 860.43 387.396C860.43 373.644 854.617 362.235 844.82 353.842C835.936 346.294 820.999 342.951 800.99 342.951H774.236V494.811H797.022V434.564H809.217L851.081 494.811H878.059L833.021 429.359ZM804.629 416.779H797.385L797.436 361.822H805.543C826.536 361.822 837.023 371.421 837.023 389.602C837.023 407.18 826.208 416.779 804.629 416.779Z" fill="#231F20"/>
<path d="M1039.61 362.924C1031.89 355.842 1023.28 350.827 1013.79 347.88C1004.96 344.864 992.921 343.347 977.673 343.347H945.865V495.208H977.293C992.662 495.208 1004.53 493.794 1012.91 490.968C1021.88 488.159 1031.21 483.678 1039.39 476.475C1055.69 462.051 1064.68 442.611 1064.68 419.277C1064.68 395.995 1055.24 377.211 1039.61 362.924ZM1023.31 459.466C1017.78 464.446 1011.6 468.099 1004.77 470.374C997.923 472.546 989.35 473.631 979.035 473.631H968.669V364.923H979.035C998.613 364.923 1013.45 369.542 1023.5 378.779C1034.68 389.136 1041.18 402.63 1041.18 419.277C1041.18 435.787 1034.61 449.177 1023.31 459.466Z" fill="#231F20"/>
</svg>
