<svg width="113" height="113" viewBox="0 0 113 113" fill="none" xmlns="http://www.w3.org/2000/svg">
<path d="M43.3752 68.6385C47.6127 70.0106 52.1165 70.3518 56.5125 69.634C60.9084 68.9162 65.0697 67.1599 68.6507 64.5112C72.2317 61.8624 75.1292 58.3976 77.1024 54.4043C79.0757 50.4111 80.0678 46.0047 79.9964 41.5511C79.925 37.0975 78.7921 32.7252 76.6919 28.7973C74.5916 24.8694 71.5846 21.4992 67.9205 18.9666C64.2564 16.434 60.0409 14.8121 55.6242 14.2355C51.2075 13.659 46.717 14.1445 42.5256 15.6517" stroke="#47454D" stroke-width="2" stroke-linecap="round"/>
<rect x="53" y="47" width="47" height="50" rx="6" stroke="#6657C2" stroke-width="2"/>
<path d="M33 63.4624C33 80.5829 25.8 104 21 104C16.2 104 9 80.5829 9 63.4624C9 46.7703 14.3726 42.001 21 42.001C27.6274 42.001 33 46.7703 33 63.4624Z" stroke="#47454D" stroke-width="2"/>
<path d="M31.2988 23.4375L32.0552 22.7833L31.2988 23.4375ZM30.5425 24.0917C33.0162 26.9517 32.124 31.0069 29.441 34.6926C28.1303 36.4931 26.4593 38.0905 24.7627 39.2304C23.0437 40.3853 21.4054 41 20.1494 41V43C21.9723 43 24.0058 42.1485 25.878 40.8905C27.7726 39.6176 29.6123 37.8556 31.058 35.8696C33.8878 31.9823 35.4915 26.7563 32.0552 22.7833L30.5425 24.0917ZM20.1494 41C17.5027 41 14.9898 39.4128 13.0942 36.6074C11.2024 33.8078 10 29.8837 10 25.5H8C8 30.229 9.29346 34.5549 11.437 37.7271C13.5766 40.8936 16.6385 43 20.1494 43V41ZM10 25.5C10 21.2756 12.0713 17.3951 14.9937 14.5491C17.9314 11.6882 21.5965 10 24.6092 10V8C20.9322 8 16.7927 10.0055 13.5983 13.1163C10.3885 16.2422 8 20.6117 8 25.5H10ZM24.6092 10C25.4093 10 25.8691 10.0652 26.1263 10.1486C26.2452 10.1872 26.2879 10.2195 26.294 10.2245C26.2967 10.2267 26.2938 10.2247 26.2892 10.2186C26.2846 10.2126 26.2826 10.2082 26.2828 10.2086C26.2936 10.2332 26.3292 10.3577 26.2926 10.758C26.2533 11.1883 26.1823 11.5574 26.103 12.2353C25.9583 13.4717 25.8857 15.0983 26.4621 17.1069C27.0364 19.1084 28.2364 21.4254 30.5425 24.0917L32.0552 22.7833C29.9015 20.2933 28.8644 18.2276 28.3845 16.5552C27.9066 14.8899 27.9626 13.5517 28.0894 12.4678C28.1458 11.9855 28.2463 11.3557 28.2843 10.94C28.325 10.4943 28.3436 9.92595 28.1132 9.40273C27.8489 8.80224 27.3476 8.44217 26.7435 8.24618C26.1811 8.06376 25.4671 8 24.6092 8V10Z" fill="#6657C2"/>
</svg>
