<svg width="60" height="60" viewBox="0 0 60 60" fill="none" xmlns="http://www.w3.org/2000/svg">
<path d="M23.3606 36.0753C25.5172 36.7552 27.8093 36.9243 30.0465 36.5686C32.2838 36.2129 34.4015 35.3427 36.224 34.0301C38.0465 32.7175 39.5211 31.0006 40.5253 29.0218C41.5296 27.043 42.0345 24.8595 41.9982 22.6526C41.9618 20.4456 41.3853 18.279 40.3164 16.3326C39.2475 14.3862 37.7172 12.7161 35.8524 11.4611C33.9876 10.2061 31.8423 9.40242 29.5945 9.11672C27.3467 8.83103 25.0613 9.0716 22.9282 9.81845" stroke="#47454D" stroke-width="2" stroke-linecap="round"/>
<rect x="28.5" y="25.5" width="23.25" height="24.75" rx="6" stroke="#6657C2" stroke-width="2"/>
<path d="M18 33.4043C18 42.1026 14.4 54 12 54C9.6 54 6 42.1026 6 33.4043C6 24.9236 8.68629 22.5005 12 22.5005C15.3137 22.5005 18 24.9236 18 33.4043Z" stroke="#47454D" stroke-width="2"/>
<path d="M17.1494 13.2188L17.9058 12.5646L17.1494 13.2188ZM16.3931 13.8729C17.3893 15.0247 17.121 16.7596 15.8163 18.552C15.1947 19.4059 14.4013 20.1635 13.6025 20.7002C12.7813 21.2519 12.061 21.5 11.5747 21.5V23.5C12.6278 23.5 13.7434 23.015 14.7179 22.3603C15.7146 21.6906 16.6766 20.7684 17.4332 19.7291C18.8848 17.735 19.8646 14.8293 17.9058 12.5646L16.3931 13.8729ZM11.5747 21.5C10.4674 21.5 9.34821 20.8362 8.46137 19.5237C7.57845 18.2171 7 16.3555 7 14.25H5C5 16.7008 5.66949 18.9642 6.80422 20.6435C7.93503 22.317 9.60321 23.5 11.5747 23.5V21.5ZM7 14.25C7 12.3038 7.95634 10.4858 9.34566 9.13278C10.7504 7.76478 12.4643 7 13.8046 7V5C11.8 5 9.61167 6.08204 7.95031 7.69996C6.27355 9.33287 5 11.6399 5 14.25H7ZM13.8046 7C14.1902 7 14.3566 7.03292 14.4089 7.0499C14.4194 7.05331 14.2672 6.99537 14.1838 6.80576C14.1343 6.69343 14.1656 6.64473 14.1484 6.83354C14.1284 7.0523 14.1003 7.1717 14.0549 7.55955C13.9781 8.21589 13.9376 9.10128 14.2504 10.1914C14.5612 11.2744 15.2019 12.4957 16.3931 13.8729L17.9058 12.5646C16.8671 11.3637 16.3892 10.3936 16.1728 9.63969C15.9585 8.89287 15.9824 8.29583 16.0413 7.79201C16.0638 7.59979 16.1214 7.21967 16.1401 7.01546C16.1615 6.78129 16.1843 6.38616 16.0142 5.9999C15.8102 5.53637 15.4253 5.27701 15.026 5.14749C14.6685 5.03153 14.248 5 13.8046 5V7Z" fill="#6657C2"/>
</svg>
