<svg width="80" height="80" viewBox="0 0 80 80" fill="none" xmlns="http://www.w3.org/2000/svg">
<path d="M36.3359 40.0006C36.3359 40.9731 36.7222 41.9057 37.4099 42.5933C38.0975 43.281 39.0301 43.6673 40.0026 43.6673C40.975 43.6673 41.9077 43.281 42.5953 42.5933C43.2829 41.9057 43.6692 40.9731 43.6692 40.0006C43.6692 39.0282 43.2829 38.0956 42.5953 37.4079C41.9077 36.7203 40.975 36.334 40.0026 36.334C39.0301 36.334 38.0975 36.7203 37.4099 37.4079C36.7222 38.0956 36.3359 39.0282 36.3359 40.0006Z" stroke="#6657C2" stroke-width="2" stroke-linecap="round" stroke-linejoin="round"/>
<path d="M40.0012 21.6675C36.3752 21.6675 32.8307 22.7427 29.8158 24.7572C26.8009 26.7717 24.4511 29.6349 23.0635 32.9849C21.6759 36.3348 21.3129 40.021 22.0202 43.5773C22.7276 47.1336 24.4737 50.4003 27.0377 52.9643C29.6016 55.5282 32.8683 57.2743 36.4246 57.9817C39.9809 58.6891 43.6671 58.326 47.017 56.9384C50.367 55.5508 53.2302 53.201 55.2447 50.1861C57.2592 47.1712 58.3344 43.6267 58.3344 40.0007" stroke="#D9D9D9" stroke-width="2" stroke-linecap="round" stroke-linejoin="round"/>
<path d="M43.6672 7.20234C36.8695 6.43972 30.0028 7.80836 24.0169 11.1189C18.0311 14.4295 13.2219 19.5184 10.2547 25.6817C7.28747 31.845 6.30885 38.7781 7.45418 45.5219C8.59952 52.2656 11.8122 58.4869 16.6479 63.3249C21.4835 68.163 27.7031 71.3788 34.4463 72.5276C41.1895 73.6763 48.1231 72.7012 54.2878 69.7371C60.4526 66.7729 65.544 61.9663 68.8576 55.9822C72.1711 49.998 73.5432 43.1319 72.784 36.3338" stroke="#D9D9D9" stroke-width="2" stroke-linecap="round" stroke-linejoin="round"/>
<path d="M50.9999 29.0004V18.0004L61.9999 7.00049V18.0004H72.9998L61.9999 29.0004H50.9999ZM50.9999 29.0004L40 40.0003" stroke="#6657C2" stroke-width="2" stroke-linecap="round" stroke-linejoin="round"/>
</svg>
