<svg width="43" height="40" viewBox="0 0 43 40" fill="none" xmlns="http://www.w3.org/2000/svg">
<path d="M20.4052 39.9983L20.365 40C20.2401 39.9997 20.1182 39.9626 20.0146 39.8933L20.0163 39.895C19.5955 39.5666 19.7497 38.7683 19.9274 37.8432C20.1298 37.0827 20.1856 36.2909 20.0917 35.5098L20.0951 35.5398C20.0165 35.1485 19.814 34.7925 19.5171 34.5241C19.2202 34.2556 18.8446 34.0888 18.4454 34.048H18.437C15.7027 33.753 13.0365 33.0089 10.5472 31.8463L10.6997 31.9096C9.62528 31.4137 8.59258 30.833 7.61157 30.1729L7.69036 30.2229C6.76306 29.6046 5.88883 28.9111 5.07664 28.1494L5.0867 28.1578C4.31549 27.4344 3.61637 26.6527 2.98935 25.8143L2.95582 25.766C2.3543 24.9602 1.83269 24.0983 1.39831 23.1925L1.3564 23.0975C0.456594 21.2283 -0.00704146 19.1812 8.08319e-05 17.1089C8.08319e-05 15.8855 0.157675 14.6988 0.456099 13.5671L0.434304 13.6637C0.729312 12.5192 1.16279 11.4144 1.72524 10.3736L1.68668 10.4519C2.24828 9.40832 2.92169 8.42814 3.69517 7.52843L3.67673 7.5501C4.45658 6.63333 5.32282 5.7928 6.26363 5.03998L6.30051 5.01164C7.2622 4.24571 8.28935 3.56475 9.37025 2.97654L9.48091 2.92154C10.5974 2.3158 11.7634 1.80506 12.9664 1.3948L13.1324 1.3448C14.398 0.911572 15.698 0.584851 17.0186 0.368085L17.1678 0.348084C20.09 -0.123189 23.07 -0.11587 25.9898 0.369752L25.8322 0.348084C27.378 0.601429 28.736 0.948113 30.047 1.39813L29.8676 1.3448C31.2876 1.82482 32.4931 2.35818 33.6415 2.98321L33.5191 2.92154C34.7296 3.57657 35.7707 4.26827 36.7414 5.04331L36.6995 5.01164C37.6685 5.78501 38.5269 6.61672 39.3015 7.52343L39.3233 7.5501C40.0526 8.40014 40.7098 9.35185 41.2614 10.3686L41.305 10.4552C41.8096 11.3736 42.2405 12.4403 42.5406 13.5604L42.564 13.6621C42.8569 14.7883 43.0034 15.9473 42.9999 17.1106C43.0019 18.7667 42.7061 20.4098 42.1265 21.9625L42.1583 21.8658C41.5912 23.4068 40.7839 24.8495 39.7659 26.141L39.791 26.1077C39.6694 26.2824 39.5355 26.4484 39.3904 26.6044L39.3937 26.601L39.3803 26.616C38.6627 27.4627 37.8982 28.2211 37.0717 28.9111L37.0432 28.9345C34.1328 31.564 31.0404 33.9873 27.7887 36.1865L27.497 36.3732C26.1864 37.2726 24.8293 38.1032 23.4314 38.8616L23.1833 38.985C22.6861 39.2529 22.1733 39.4911 21.6475 39.6983L21.547 39.7333C21.1889 39.8851 20.8072 39.9748 20.4186 39.9983H20.4086H20.4052ZM30.436 12.0937C30.1392 12.0945 29.8549 12.2121 29.645 12.4207C29.4352 12.6293 29.3169 12.912 29.316 13.207V21.4708C29.3169 21.7658 29.4352 22.0485 29.645 22.2571C29.8549 22.4657 30.1392 22.5833 30.436 22.5842H34.7715C35.0682 22.5833 35.3526 22.4657 35.5624 22.2571C35.7723 22.0485 35.8905 21.7658 35.8914 21.4708V21.3774C35.8905 21.0824 35.7723 20.7997 35.5624 20.5911C35.3526 20.3825 35.0682 20.2649 34.7715 20.264H31.6481V18.5023H34.7698C35.0666 18.5014 35.3509 18.3838 35.5607 18.1752C35.7706 17.9666 35.8889 17.6839 35.8897 17.3889V17.2956C35.8889 17.0006 35.7706 16.7179 35.5607 16.5093C35.3509 16.3006 35.0666 16.1831 34.7698 16.1822H31.6481V14.4171H34.7698C35.0666 14.4162 35.3509 14.2986 35.5607 14.09C35.7706 13.8814 35.8889 13.5987 35.8897 13.3037V13.2087C35.8889 12.9137 35.7706 12.631 35.5607 12.4224C35.3509 12.2138 35.0666 12.0962 34.7698 12.0953L30.436 12.0937ZM20.4253 12.0737C20.1286 12.0745 19.8443 12.1921 19.6344 12.4007C19.4246 12.6093 19.3063 12.892 19.3054 13.187V21.4508C19.3063 21.7458 19.4246 22.0285 19.6344 22.2371C19.8443 22.4457 20.1286 22.5633 20.4253 22.5642H20.5192C20.816 22.5633 21.1003 22.4457 21.3102 22.2371C21.52 22.0285 21.6383 21.7458 21.6392 21.4508V16.5072L25.7199 22.0491C25.7451 22.0888 25.7731 22.1267 25.8037 22.1625L25.802 22.1608C25.9094 22.3055 26.0568 22.4161 26.2262 22.4792L26.2329 22.4808C26.3586 22.5342 26.5045 22.5642 26.657 22.5642H26.756C26.9405 22.5645 27.1221 22.5187 27.2841 22.4308L27.2774 22.4342C27.3821 22.3875 27.4754 22.3187 27.5506 22.2325V22.2308C27.7582 22.0237 27.8746 21.7431 27.8742 21.4508V13.187C27.8742 12.8917 27.7562 12.6086 27.5462 12.3998C27.3362 12.191 27.0513 12.0737 26.7543 12.0737H26.6554C26.3586 12.0745 26.0743 12.1921 25.8644 12.4007C25.6546 12.6093 25.5363 12.892 25.5354 13.187V18.0389L21.4883 12.637C21.3908 12.4655 21.2496 12.3225 21.0789 12.2224C20.9082 12.1223 20.714 12.0687 20.5159 12.067L20.4253 12.0737ZM16.5123 12.0737C16.2156 12.0745 15.9312 12.1921 15.7214 12.4007C15.5115 12.6093 15.3933 12.892 15.3924 13.187V21.4508C15.3933 21.7458 15.5115 22.0285 15.7214 22.2371C15.9312 22.4457 16.2156 22.5633 16.5123 22.5642H16.6062C16.9029 22.5633 17.1873 22.4457 17.3971 22.2371C17.607 22.0285 17.7252 21.7458 17.7261 21.4508V13.187C17.7252 12.892 17.607 12.6093 17.3971 12.4007C17.1873 12.1921 16.9029 12.0745 16.6062 12.0737H16.5123ZM9.03159 12.0737C8.73484 12.0745 8.4505 12.1921 8.24066 12.4007C8.03083 12.6093 7.91255 12.892 7.91167 13.187V21.4508C7.91255 21.7458 8.03083 22.0285 8.24066 22.2371C8.4505 22.4457 8.73484 22.5633 9.03159 22.5642H13.3638C13.6605 22.5633 13.9449 22.4457 14.1547 22.2371C14.3645 22.0285 14.4828 21.7458 14.4837 21.4508V21.3674C14.4837 21.0721 14.3657 20.7889 14.1557 20.5802C13.9457 20.3713 13.6608 20.254 13.3638 20.254H10.2437V13.1887C10.2428 12.8937 10.1246 12.611 9.91473 12.4024C9.7049 12.1938 9.42055 12.0762 9.1238 12.0753L9.03159 12.0737Z" fill="white"/>
</svg>
