<svg width="63" height="60" viewBox="0 0 63 60" fill="none" xmlns="http://www.w3.org/2000/svg">
<path d="M30.4052 49.9983L30.365 50C30.2401 49.9997 30.1182 49.9626 30.0146 49.8933L30.0163 49.895C29.5955 49.5666 29.7497 48.7683 29.9274 47.8432C30.1298 47.0827 30.1856 46.2909 30.0917 45.5098L30.0951 45.5398C30.0165 45.1485 29.814 44.7925 29.5171 44.5241C29.2202 44.2556 28.8446 44.0888 28.4454 44.048H28.437C25.7027 43.753 23.0365 43.0089 20.5472 41.8463L20.6997 41.9096C19.6253 41.4137 18.5926 40.833 17.6116 40.1729L17.6904 40.2229C16.7631 39.6046 15.8888 38.9111 15.0766 38.1494L15.0867 38.1578C14.3155 37.4344 13.6164 36.6527 12.9893 35.8143L12.9558 35.766C12.3543 34.9602 11.8327 34.0983 11.3983 33.1925L11.3564 33.0975C10.4566 31.2283 9.99296 29.1812 10.0001 27.1089C10.0001 25.8855 10.1577 24.6988 10.4561 23.5671L10.4343 23.6637C10.7293 22.5192 11.1628 21.4144 11.7252 20.3736L11.6867 20.4519C12.2483 19.4083 12.9217 18.4281 13.6952 17.5284L13.6767 17.5501C14.4566 16.6333 15.3228 15.7928 16.2636 15.04L16.3005 15.0116C17.2622 14.2457 18.2894 13.5648 19.3703 12.9765L19.4809 12.9215C20.5974 12.3158 21.7634 11.8051 22.9664 11.3948L23.1324 11.3448C24.398 10.9116 25.698 10.5849 27.0186 10.3681L27.1678 10.3481C30.09 9.87681 33.07 9.88413 35.9898 10.3698L35.8322 10.3481C37.378 10.6014 38.736 10.9481 40.047 11.3981L39.8676 11.3448C41.2876 11.8248 42.4931 12.3582 43.6415 12.9832L43.5191 12.9215C44.7296 13.5766 45.7707 14.2683 46.7414 15.0433L46.6995 15.0116C47.6685 15.785 48.5269 16.6167 49.3015 17.5234L49.3233 17.5501C50.0526 18.4001 50.7098 19.3519 51.2614 20.3686L51.305 20.4552C51.8096 21.3736 52.2405 22.4403 52.5406 23.5604L52.564 23.6621C52.8569 24.7883 53.0034 25.9473 52.9999 27.1106C53.0019 28.7667 52.7061 30.4098 52.1265 31.9625L52.1583 31.8658C51.5912 33.4068 50.7839 34.8495 49.7659 36.141L49.791 36.1077C49.6694 36.2824 49.5355 36.4484 49.3904 36.6044L49.3937 36.601L49.3803 36.616C48.6627 37.4627 47.8982 38.2211 47.0717 38.9111L47.0432 38.9345C44.1328 41.564 41.0404 43.9873 37.7887 46.1865L37.497 46.3732C36.1864 47.2726 34.8293 48.1032 33.4314 48.8616L33.1833 48.985C32.6861 49.2529 32.1733 49.4911 31.6475 49.6983L31.547 49.7333C31.1889 49.8851 30.8072 49.9748 30.4186 49.9983H30.4086H30.4052ZM40.436 22.0937C40.1392 22.0945 39.8549 22.2121 39.645 22.4207C39.4352 22.6293 39.3169 22.912 39.316 23.207V31.4708C39.3169 31.7658 39.4352 32.0485 39.645 32.2571C39.8549 32.4657 40.1392 32.5833 40.436 32.5842H44.7715C45.0682 32.5833 45.3526 32.4657 45.5624 32.2571C45.7723 32.0485 45.8905 31.7658 45.8914 31.4708V31.3774C45.8905 31.0824 45.7723 30.7997 45.5624 30.5911C45.3526 30.3825 45.0682 30.2649 44.7715 30.264H41.6481V28.5023H44.7698C45.0666 28.5014 45.3509 28.3838 45.5607 28.1752C45.7706 27.9666 45.8889 27.6839 45.8897 27.3889V27.2956C45.8889 27.0006 45.7706 26.7179 45.5607 26.5093C45.3509 26.3006 45.0666 26.1831 44.7698 26.1822H41.6481V24.4171H44.7698C45.0666 24.4162 45.3509 24.2986 45.5607 24.09C45.7706 23.8814 45.8889 23.5987 45.8897 23.3037V23.2087C45.8889 22.9137 45.7706 22.631 45.5607 22.4224C45.3509 22.2138 45.0666 22.0962 44.7698 22.0953L40.436 22.0937ZM30.4253 22.0737C30.1286 22.0745 29.8443 22.1921 29.6344 22.4007C29.4246 22.6093 29.3063 22.892 29.3054 23.187V31.4508C29.3063 31.7458 29.4246 32.0285 29.6344 32.2371C29.8443 32.4457 30.1286 32.5633 30.4253 32.5642H30.5192C30.816 32.5633 31.1003 32.4457 31.3102 32.2371C31.52 32.0285 31.6383 31.7458 31.6392 31.4508V26.5072L35.7199 32.0491C35.7451 32.0888 35.7731 32.1267 35.8037 32.1625L35.802 32.1608C35.9094 32.3055 36.0568 32.4161 36.2262 32.4792L36.2329 32.4808C36.3586 32.5342 36.5045 32.5642 36.657 32.5642H36.756C36.9405 32.5645 37.1221 32.5187 37.2841 32.4308L37.2774 32.4342C37.3821 32.3875 37.4754 32.3187 37.5506 32.2325V32.2308C37.7582 32.0237 37.8746 31.7431 37.8742 31.4508V23.187C37.8742 22.8917 37.7562 22.6086 37.5462 22.3998C37.3362 22.191 37.0513 22.0737 36.7543 22.0737H36.6554C36.3586 22.0745 36.0743 22.1921 35.8644 22.4007C35.6546 22.6093 35.5363 22.892 35.5354 23.187V28.0389L31.4883 22.637C31.3908 22.4655 31.2496 22.3225 31.0789 22.2224C30.9082 22.1223 30.714 22.0687 30.5159 22.067L30.4253 22.0737ZM26.5123 22.0737C26.2156 22.0745 25.9312 22.1921 25.7214 22.4007C25.5115 22.6093 25.3933 22.892 25.3924 23.187V31.4508C25.3933 31.7458 25.5115 32.0285 25.7214 32.2371C25.9312 32.4457 26.2156 32.5633 26.5123 32.5642H26.6062C26.9029 32.5633 27.1873 32.4457 27.3971 32.2371C27.607 32.0285 27.7252 31.7458 27.7261 31.4508V23.187C27.7252 22.892 27.607 22.6093 27.3971 22.4007C27.1873 22.1921 26.9029 22.0745 26.6062 22.0737H26.5123ZM19.0316 22.0737C18.7348 22.0745 18.4505 22.1921 18.2407 22.4007C18.0308 22.6093 17.9125 22.892 17.9117 23.187V31.4508C17.9125 31.7458 18.0308 32.0285 18.2407 32.2371C18.4505 32.4457 18.7348 32.5633 19.0316 32.5642H23.3638C23.6605 32.5633 23.9449 32.4457 24.1547 32.2371C24.3645 32.0285 24.4828 31.7458 24.4837 31.4508V31.3674C24.4837 31.0721 24.3657 30.7889 24.1557 30.5802C23.9457 30.3713 23.6608 30.254 23.3638 30.254H20.2437V23.1887C20.2428 22.8937 20.1246 22.611 19.9147 22.4024C19.7049 22.1938 19.4206 22.0762 19.1238 22.0753L19.0316 22.0737Z" fill="white"/>
</svg>
