<svg width="80" height="80" viewBox="0 0 80 80" fill="none" xmlns="http://www.w3.org/2000/svg">
<path d="M58.4798 5H21.5202C17.9192 5 15 7.91828 15 11.5182V68.4818C15 72.0817 17.9192 75 21.5202 75H58.4798C62.0808 75 65 72.0817 65 68.4818V11.5182C65 7.91828 62.0808 5 58.4798 5Z" fill="url(#paint0_linear_1770_2153)"/>
<g filter="url(#filter0_ii_1770_2153)">
<path d="M23.0078 22.7C23.0078 22.3021 23.1658 21.9206 23.4472 21.6393C23.7285 21.358 24.11 21.2 24.5078 21.2H29.7903C30.1881 21.2 30.5697 21.358 30.851 21.6393C31.1323 21.9206 31.2903 22.3021 31.2903 22.7V27.9825C31.2903 28.3803 31.1323 28.7618 30.851 29.0431C30.5697 29.3244 30.1881 29.4825 29.7903 29.4825H24.5078C24.11 29.4825 23.7285 29.3244 23.4472 29.0431C23.1658 28.7618 23.0078 28.3803 23.0078 27.9825V22.7Z" fill="#FF9544"/>
<path d="M23.0078 22.7C23.0078 22.3021 23.1658 21.9206 23.4472 21.6393C23.7285 21.358 24.11 21.2 24.5078 21.2H29.7903C30.1881 21.2 30.5697 21.358 30.851 21.6393C31.1323 21.9206 31.2903 22.3021 31.2903 22.7V27.9825C31.2903 28.3803 31.1323 28.7618 30.851 29.0431C30.5697 29.3244 30.1881 29.4825 29.7903 29.4825H24.5078C24.11 29.4825 23.7285 29.3244 23.4472 29.0431C23.1658 28.7618 23.0078 28.3803 23.0078 27.9825V22.7Z" fill="url(#paint1_linear_1770_2153)"/>
</g>
<g filter="url(#filter1_ii_1770_2153)">
<path d="M35.8594 22.7C35.8594 22.3022 36.0174 21.9207 36.2987 21.6394C36.58 21.358 36.9616 21.2 37.3594 21.2H42.6394C43.0372 21.2 43.4187 21.358 43.7 21.6394C43.9813 21.9207 44.1394 22.3022 44.1394 22.7V27.9825C44.1394 28.3803 43.9813 28.7619 43.7 29.0432C43.4187 29.3245 43.0372 29.4825 42.6394 29.4825H37.3594C36.9616 29.4825 36.58 29.3245 36.2987 29.0432C36.0174 28.7619 35.8594 28.3803 35.8594 27.9825V22.7Z" fill="#38C6FF"/>
</g>
<g filter="url(#filter2_ii_1770_2153)">
<path d="M48.7109 22.7C48.7109 22.3021 48.869 21.9206 49.1503 21.6393C49.4316 21.358 49.8131 21.2 50.2109 21.2H55.4934C55.8913 21.2 56.2728 21.358 56.5541 21.6393C56.8354 21.9206 56.9934 22.3021 56.9934 22.7V27.9825C56.9934 28.3803 56.8354 28.7618 56.5541 29.0431C56.2728 29.3244 55.8913 29.4825 55.4934 29.4825H50.2109C49.8131 29.4825 49.4316 29.3244 49.1503 29.0431C48.869 28.7618 48.7109 28.3803 48.7109 27.9825V22.7Z" fill="#FFEC58"/>
</g>
<g filter="url(#filter3_ii_1770_2153)">
<path d="M23.0078 37.3499C23.0078 36.9521 23.1658 36.5706 23.4472 36.2893C23.7285 36.0079 24.11 35.8499 24.5078 35.8499H29.7903C30.1881 35.8499 30.5697 36.0079 30.851 36.2893C31.1323 36.5706 31.2903 36.9521 31.2903 37.3499V42.6299C31.2903 43.0277 31.1323 43.4093 30.851 43.6906C30.5697 43.9719 30.1881 44.1299 29.7903 44.1299H24.5078C24.11 44.1299 23.7285 43.9719 23.4472 43.6906C23.1658 43.4093 23.0078 43.0277 23.0078 42.6299V37.3499Z" fill="#38C6FF"/>
</g>
<g filter="url(#filter4_ii_1770_2153)">
<path d="M23.0078 51.9974C23.0078 51.5996 23.1658 51.2181 23.4472 50.9368C23.7285 50.6555 24.11 50.4974 24.5078 50.4974H29.7903C30.1881 50.4974 30.5697 50.6555 30.851 50.9368C31.1323 51.2181 31.2903 51.5996 31.2903 51.9974V57.2774C31.2903 57.6753 31.1323 58.0568 30.851 58.3381C30.5697 58.6194 30.1881 58.7774 29.7903 58.7774H24.5078C24.11 58.7774 23.7285 58.6194 23.4472 58.3381C23.1658 58.0568 23.0078 57.6753 23.0078 57.2774V51.9974Z" fill="#FF9544"/>
<path d="M23.0078 51.9974C23.0078 51.5996 23.1658 51.2181 23.4472 50.9368C23.7285 50.6555 24.11 50.4974 24.5078 50.4974H29.7903C30.1881 50.4974 30.5697 50.6555 30.851 50.9368C31.1323 51.2181 31.2903 51.5996 31.2903 51.9974V57.2774C31.2903 57.6753 31.1323 58.0568 30.851 58.3381C30.5697 58.6194 30.1881 58.7774 29.7903 58.7774H24.5078C24.11 58.7774 23.7285 58.6194 23.4472 58.3381C23.1658 58.0568 23.0078 57.6753 23.0078 57.2774V51.9974Z" fill="url(#paint2_linear_1770_2153)"/>
</g>
<g filter="url(#filter5_ii_1770_2153)">
<path d="M35.8594 37.35C35.8594 36.9522 36.0174 36.5707 36.2987 36.2894C36.58 36.0081 36.9616 35.85 37.3594 35.85H42.6394C43.0372 35.85 43.4187 36.0081 43.7 36.2894C43.9813 36.5707 44.1394 36.9522 44.1394 37.35V42.63C44.1394 43.0279 43.9813 43.4094 43.7 43.6907C43.4187 43.972 43.0372 44.13 42.6394 44.13H37.3594C36.9616 44.13 36.58 43.972 36.2987 43.6907C36.0174 43.4094 35.8594 43.0279 35.8594 42.63V37.35Z" fill="#FFEC58"/>
</g>
<g filter="url(#filter6_ii_1770_2153)">
<path d="M35.8594 51.9975C35.8594 51.5997 36.0174 51.2182 36.2987 50.9369C36.58 50.6556 36.9616 50.4975 37.3594 50.4975H42.6394C43.0372 50.4975 43.4187 50.6556 43.7 50.9369C43.9813 51.2182 44.1394 51.5997 44.1394 51.9975V57.2775C44.1394 57.6754 43.9813 58.0569 43.7 58.3382C43.4187 58.6195 43.0372 58.7775 42.6394 58.7775H37.3594C36.9616 58.7775 36.58 58.6195 36.2987 58.3382C36.0174 58.0569 35.8594 57.6754 35.8594 57.2775V51.9975Z" fill="#38C6FF"/>
</g>
<g filter="url(#filter7_ii_1770_2153)">
<path d="M48.7109 37.3499C48.7109 36.9521 48.869 36.5706 49.1503 36.2893C49.4316 36.0079 49.8131 35.8499 50.2109 35.8499H55.4934C55.8913 35.8499 56.2728 36.0079 56.5541 36.2893C56.8354 36.5706 56.9934 36.9521 56.9934 37.3499V42.6299C56.9934 43.0277 56.8354 43.4093 56.5541 43.6906C56.2728 43.9719 55.8913 44.1299 55.4934 44.1299H50.2109C49.8131 44.1299 49.4316 43.9719 49.1503 43.6906C48.869 43.4093 48.7109 43.0277 48.7109 42.6299V37.3499Z" fill="#FF9544"/>
<path d="M48.7109 37.3499C48.7109 36.9521 48.869 36.5706 49.1503 36.2893C49.4316 36.0079 49.8131 35.8499 50.2109 35.8499H55.4934C55.8913 35.8499 56.2728 36.0079 56.5541 36.2893C56.8354 36.5706 56.9934 36.9521 56.9934 37.3499V42.6299C56.9934 43.0277 56.8354 43.4093 56.5541 43.6906C56.2728 43.9719 55.8913 44.1299 55.4934 44.1299H50.2109C49.8131 44.1299 49.4316 43.9719 49.1503 43.6906C48.869 43.4093 48.7109 43.0277 48.7109 42.6299V37.3499Z" fill="url(#paint3_linear_1770_2153)"/>
</g>
<g filter="url(#filter8_ii_1770_2153)">
<path d="M48.7109 51.9974C48.7109 51.5996 48.869 51.2181 49.1503 50.9368C49.4316 50.6555 49.8131 50.4974 50.2109 50.4974H55.4934C55.8913 50.4974 56.2728 50.6555 56.5541 50.9368C56.8354 51.2181 56.9934 51.5996 56.9934 51.9974V57.2774C56.9934 57.6753 56.8354 58.0568 56.5541 58.3381C56.2728 58.6194 55.8913 58.7774 55.4934 58.7774H50.2109C49.8131 58.7774 49.4316 58.6194 49.1503 58.3381C48.869 58.0568 48.7109 57.6753 48.7109 57.2774V51.9974Z" fill="#FFEC58"/>
</g>
<g filter="url(#filter9_i_1770_2153)">
<path d="M64.9975 15H15V11.303C15 10.4753 15.1686 9.65568 15.4963 8.89096C15.8239 8.12625 16.3041 7.43141 16.9095 6.84611C17.5149 6.26082 18.2336 5.79655 19.0246 5.47979C19.8156 5.16303 20.6634 5 21.5196 5H58.4804C59.3366 5 60.1844 5.16303 60.9754 5.47979C61.7664 5.79655 62.4851 6.26082 63.0905 6.84611C63.6959 7.43141 64.1761 8.12625 64.5037 8.89096C64.8314 9.65568 65 10.4753 65 11.303L64.9975 15Z" fill="url(#paint4_linear_1770_2153)"/>
</g>
<path d="M64.9975 65V68.6259C64.9975 69.4629 64.8289 70.2918 64.5012 71.0652C64.1736 71.8385 63.6934 72.5412 63.088 73.1331C62.4826 73.725 61.7639 74.1945 60.9729 74.5148C60.1819 74.8351 59.3341 75 58.4779 75H21.5196C20.6634 75 19.8156 74.8351 19.0246 74.5148C18.2336 74.1945 17.5149 73.725 16.9095 73.1331C16.3041 72.5412 15.8239 71.8385 15.4963 71.0652C15.1686 70.2918 15 69.4629 15 68.6259V65H64.9975Z" fill="url(#paint5_linear_1770_2153)"/>
<path d="M64.9975 65V68.6259C64.9975 69.4629 64.8289 70.2918 64.5012 71.0652C64.1736 71.8385 63.6934 72.5412 63.088 73.1331C62.4826 73.725 61.7639 74.1945 60.9729 74.5148C60.1819 74.8351 59.3341 75 58.4779 75H21.5196C20.6634 75 19.8156 74.8351 19.0246 74.5148C18.2336 74.1945 17.5149 73.725 16.9095 73.1331C16.3041 72.5412 15.8239 71.8385 15.4963 71.0652C15.1686 70.2918 15 69.4629 15 68.6259V65H64.9975Z" fill="url(#paint6_linear_1770_2153)"/>
<defs>
<filter id="filter0_ii_1770_2153" x="22.7078" y="20.9" width="8.8832" height="8.8825" filterUnits="userSpaceOnUse" color-interpolation-filters="sRGB">
<feFlood flood-opacity="0" result="BackgroundImageFix"/>
<feBlend mode="normal" in="SourceGraphic" in2="BackgroundImageFix" result="shape"/>
<feColorMatrix in="SourceAlpha" type="matrix" values="0 0 0 0 0 0 0 0 0 0 0 0 0 0 0 0 0 0 127 0" result="hardAlpha"/>
<feOffset dx="-0.3" dy="-0.3"/>
<feGaussianBlur stdDeviation="0.2"/>
<feComposite in2="hardAlpha" operator="arithmetic" k2="-1" k3="1"/>
<feColorMatrix type="matrix" values="0 0 0 0 0.913725 0 0 0 0 0.384314 0 0 0 0 0.129412 0 0 0 1 0"/>
<feBlend mode="normal" in2="shape" result="effect1_innerShadow_1770_2153"/>
<feColorMatrix in="SourceAlpha" type="matrix" values="0 0 0 0 0 0 0 0 0 0 0 0 0 0 0 0 0 0 127 0" result="hardAlpha"/>
<feOffset dx="0.3" dy="0.3"/>
<feGaussianBlur stdDeviation="0.2"/>
<feComposite in2="hardAlpha" operator="arithmetic" k2="-1" k3="1"/>
<feColorMatrix type="matrix" values="0 0 0 0 1 0 0 0 0 0.498039 0 0 0 0 0.160784 0 0 0 1 0"/>
<feBlend mode="normal" in2="effect1_innerShadow_1770_2153" result="effect2_innerShadow_1770_2153"/>
</filter>
<filter id="filter1_ii_1770_2153" x="35.5594" y="20.9" width="8.8793" height="8.8825" filterUnits="userSpaceOnUse" color-interpolation-filters="sRGB">
<feFlood flood-opacity="0" result="BackgroundImageFix"/>
<feBlend mode="normal" in="SourceGraphic" in2="BackgroundImageFix" result="shape"/>
<feColorMatrix in="SourceAlpha" type="matrix" values="0 0 0 0 0 0 0 0 0 0 0 0 0 0 0 0 0 0 127 0" result="hardAlpha"/>
<feOffset dx="-0.3" dy="-0.3"/>
<feGaussianBlur stdDeviation="0.25"/>
<feComposite in2="hardAlpha" operator="arithmetic" k2="-1" k3="1"/>
<feColorMatrix type="matrix" values="0 0 0 0 0.0980392 0 0 0 0 0.572549 0 0 0 0 0.866667 0 0 0 1 0"/>
<feBlend mode="normal" in2="shape" result="effect1_innerShadow_1770_2153"/>
<feColorMatrix in="SourceAlpha" type="matrix" values="0 0 0 0 0 0 0 0 0 0 0 0 0 0 0 0 0 0 127 0" result="hardAlpha"/>
<feOffset dx="0.3" dy="0.3"/>
<feGaussianBlur stdDeviation="0.2"/>
<feComposite in2="hardAlpha" operator="arithmetic" k2="-1" k3="1"/>
<feColorMatrix type="matrix" values="0 0 0 0 0.0745098 0 0 0 0 0.709804 0 0 0 0 1 0 0 0 1 0"/>
<feBlend mode="normal" in2="effect1_innerShadow_1770_2153" result="effect2_innerShadow_1770_2153"/>
</filter>
<filter id="filter2_ii_1770_2153" x="48.4109" y="20.9" width="8.8832" height="8.8825" filterUnits="userSpaceOnUse" color-interpolation-filters="sRGB">
<feFlood flood-opacity="0" result="BackgroundImageFix"/>
<feBlend mode="normal" in="SourceGraphic" in2="BackgroundImageFix" result="shape"/>
<feColorMatrix in="SourceAlpha" type="matrix" values="0 0 0 0 0 0 0 0 0 0 0 0 0 0 0 0 0 0 127 0" result="hardAlpha"/>
<feOffset dx="-0.3" dy="-0.3"/>
<feGaussianBlur stdDeviation="0.25"/>
<feComposite in2="hardAlpha" operator="arithmetic" k2="-1" k3="1"/>
<feColorMatrix type="matrix" values="0 0 0 0 0.858824 0 0 0 0 0.752941 0 0 0 0 0.188235 0 0 0 1 0"/>
<feBlend mode="normal" in2="shape" result="effect1_innerShadow_1770_2153"/>
<feColorMatrix in="SourceAlpha" type="matrix" values="0 0 0 0 0 0 0 0 0 0 0 0 0 0 0 0 0 0 127 0" result="hardAlpha"/>
<feOffset dx="0.3" dy="0.3"/>
<feGaussianBlur stdDeviation="0.2"/>
<feComposite in2="hardAlpha" operator="arithmetic" k2="-1" k3="1"/>
<feColorMatrix type="matrix" values="0 0 0 0 0.968627 0 0 0 0 0.858824 0 0 0 0 0.223529 0 0 0 1 0"/>
<feBlend mode="normal" in2="effect1_innerShadow_1770_2153" result="effect2_innerShadow_1770_2153"/>
</filter>
<filter id="filter3_ii_1770_2153" x="22.7078" y="35.5499" width="8.8832" height="8.88" filterUnits="userSpaceOnUse" color-interpolation-filters="sRGB">
<feFlood flood-opacity="0" result="BackgroundImageFix"/>
<feBlend mode="normal" in="SourceGraphic" in2="BackgroundImageFix" result="shape"/>
<feColorMatrix in="SourceAlpha" type="matrix" values="0 0 0 0 0 0 0 0 0 0 0 0 0 0 0 0 0 0 127 0" result="hardAlpha"/>
<feOffset dx="-0.3" dy="-0.3"/>
<feGaussianBlur stdDeviation="0.25"/>
<feComposite in2="hardAlpha" operator="arithmetic" k2="-1" k3="1"/>
<feColorMatrix type="matrix" values="0 0 0 0 0.0980392 0 0 0 0 0.572549 0 0 0 0 0.866667 0 0 0 1 0"/>
<feBlend mode="normal" in2="shape" result="effect1_innerShadow_1770_2153"/>
<feColorMatrix in="SourceAlpha" type="matrix" values="0 0 0 0 0 0 0 0 0 0 0 0 0 0 0 0 0 0 127 0" result="hardAlpha"/>
<feOffset dx="0.3" dy="0.3"/>
<feGaussianBlur stdDeviation="0.2"/>
<feComposite in2="hardAlpha" operator="arithmetic" k2="-1" k3="1"/>
<feColorMatrix type="matrix" values="0 0 0 0 0.0745098 0 0 0 0 0.709804 0 0 0 0 1 0 0 0 1 0"/>
<feBlend mode="normal" in2="effect1_innerShadow_1770_2153" result="effect2_innerShadow_1770_2153"/>
</filter>
<filter id="filter4_ii_1770_2153" x="22.7078" y="50.1974" width="8.8832" height="8.88" filterUnits="userSpaceOnUse" color-interpolation-filters="sRGB">
<feFlood flood-opacity="0" result="BackgroundImageFix"/>
<feBlend mode="normal" in="SourceGraphic" in2="BackgroundImageFix" result="shape"/>
<feColorMatrix in="SourceAlpha" type="matrix" values="0 0 0 0 0 0 0 0 0 0 0 0 0 0 0 0 0 0 127 0" result="hardAlpha"/>
<feOffset dx="-0.3" dy="-0.3"/>
<feGaussianBlur stdDeviation="0.2"/>
<feComposite in2="hardAlpha" operator="arithmetic" k2="-1" k3="1"/>
<feColorMatrix type="matrix" values="0 0 0 0 0.913725 0 0 0 0 0.384314 0 0 0 0 0.129412 0 0 0 1 0"/>
<feBlend mode="normal" in2="shape" result="effect1_innerShadow_1770_2153"/>
<feColorMatrix in="SourceAlpha" type="matrix" values="0 0 0 0 0 0 0 0 0 0 0 0 0 0 0 0 0 0 127 0" result="hardAlpha"/>
<feOffset dx="0.3" dy="0.3"/>
<feGaussianBlur stdDeviation="0.2"/>
<feComposite in2="hardAlpha" operator="arithmetic" k2="-1" k3="1"/>
<feColorMatrix type="matrix" values="0 0 0 0 1 0 0 0 0 0.498039 0 0 0 0 0.160784 0 0 0 1 0"/>
<feBlend mode="normal" in2="effect1_innerShadow_1770_2153" result="effect2_innerShadow_1770_2153"/>
</filter>
<filter id="filter5_ii_1770_2153" x="35.5594" y="35.55" width="8.8793" height="8.88" filterUnits="userSpaceOnUse" color-interpolation-filters="sRGB">
<feFlood flood-opacity="0" result="BackgroundImageFix"/>
<feBlend mode="normal" in="SourceGraphic" in2="BackgroundImageFix" result="shape"/>
<feColorMatrix in="SourceAlpha" type="matrix" values="0 0 0 0 0 0 0 0 0 0 0 0 0 0 0 0 0 0 127 0" result="hardAlpha"/>
<feOffset dx="-0.3" dy="-0.3"/>
<feGaussianBlur stdDeviation="0.25"/>
<feComposite in2="hardAlpha" operator="arithmetic" k2="-1" k3="1"/>
<feColorMatrix type="matrix" values="0 0 0 0 0.858824 0 0 0 0 0.752941 0 0 0 0 0.188235 0 0 0 1 0"/>
<feBlend mode="normal" in2="shape" result="effect1_innerShadow_1770_2153"/>
<feColorMatrix in="SourceAlpha" type="matrix" values="0 0 0 0 0 0 0 0 0 0 0 0 0 0 0 0 0 0 127 0" result="hardAlpha"/>
<feOffset dx="0.3" dy="0.3"/>
<feGaussianBlur stdDeviation="0.2"/>
<feComposite in2="hardAlpha" operator="arithmetic" k2="-1" k3="1"/>
<feColorMatrix type="matrix" values="0 0 0 0 0.968627 0 0 0 0 0.858824 0 0 0 0 0.223529 0 0 0 1 0"/>
<feBlend mode="normal" in2="effect1_innerShadow_1770_2153" result="effect2_innerShadow_1770_2153"/>
</filter>
<filter id="filter6_ii_1770_2153" x="35.5594" y="50.1975" width="8.8793" height="8.88" filterUnits="userSpaceOnUse" color-interpolation-filters="sRGB">
<feFlood flood-opacity="0" result="BackgroundImageFix"/>
<feBlend mode="normal" in="SourceGraphic" in2="BackgroundImageFix" result="shape"/>
<feColorMatrix in="SourceAlpha" type="matrix" values="0 0 0 0 0 0 0 0 0 0 0 0 0 0 0 0 0 0 127 0" result="hardAlpha"/>
<feOffset dx="-0.3" dy="-0.3"/>
<feGaussianBlur stdDeviation="0.25"/>
<feComposite in2="hardAlpha" operator="arithmetic" k2="-1" k3="1"/>
<feColorMatrix type="matrix" values="0 0 0 0 0.0980392 0 0 0 0 0.572549 0 0 0 0 0.866667 0 0 0 1 0"/>
<feBlend mode="normal" in2="shape" result="effect1_innerShadow_1770_2153"/>
<feColorMatrix in="SourceAlpha" type="matrix" values="0 0 0 0 0 0 0 0 0 0 0 0 0 0 0 0 0 0 127 0" result="hardAlpha"/>
<feOffset dx="0.3" dy="0.3"/>
<feGaussianBlur stdDeviation="0.2"/>
<feComposite in2="hardAlpha" operator="arithmetic" k2="-1" k3="1"/>
<feColorMatrix type="matrix" values="0 0 0 0 0.0745098 0 0 0 0 0.709804 0 0 0 0 1 0 0 0 1 0"/>
<feBlend mode="normal" in2="effect1_innerShadow_1770_2153" result="effect2_innerShadow_1770_2153"/>
</filter>
<filter id="filter7_ii_1770_2153" x="48.4109" y="35.5499" width="8.8832" height="8.88" filterUnits="userSpaceOnUse" color-interpolation-filters="sRGB">
<feFlood flood-opacity="0" result="BackgroundImageFix"/>
<feBlend mode="normal" in="SourceGraphic" in2="BackgroundImageFix" result="shape"/>
<feColorMatrix in="SourceAlpha" type="matrix" values="0 0 0 0 0 0 0 0 0 0 0 0 0 0 0 0 0 0 127 0" result="hardAlpha"/>
<feOffset dx="-0.3" dy="-0.3"/>
<feGaussianBlur stdDeviation="0.2"/>
<feComposite in2="hardAlpha" operator="arithmetic" k2="-1" k3="1"/>
<feColorMatrix type="matrix" values="0 0 0 0 0.913725 0 0 0 0 0.384314 0 0 0 0 0.129412 0 0 0 1 0"/>
<feBlend mode="normal" in2="shape" result="effect1_innerShadow_1770_2153"/>
<feColorMatrix in="SourceAlpha" type="matrix" values="0 0 0 0 0 0 0 0 0 0 0 0 0 0 0 0 0 0 127 0" result="hardAlpha"/>
<feOffset dx="0.3" dy="0.3"/>
<feGaussianBlur stdDeviation="0.2"/>
<feComposite in2="hardAlpha" operator="arithmetic" k2="-1" k3="1"/>
<feColorMatrix type="matrix" values="0 0 0 0 1 0 0 0 0 0.498039 0 0 0 0 0.160784 0 0 0 1 0"/>
<feBlend mode="normal" in2="effect1_innerShadow_1770_2153" result="effect2_innerShadow_1770_2153"/>
</filter>
<filter id="filter8_ii_1770_2153" x="48.4109" y="50.1974" width="8.8832" height="8.88" filterUnits="userSpaceOnUse" color-interpolation-filters="sRGB">
<feFlood flood-opacity="0" result="BackgroundImageFix"/>
<feBlend mode="normal" in="SourceGraphic" in2="BackgroundImageFix" result="shape"/>
<feColorMatrix in="SourceAlpha" type="matrix" values="0 0 0 0 0 0 0 0 0 0 0 0 0 0 0 0 0 0 127 0" result="hardAlpha"/>
<feOffset dx="-0.3" dy="-0.3"/>
<feGaussianBlur stdDeviation="0.25"/>
<feComposite in2="hardAlpha" operator="arithmetic" k2="-1" k3="1"/>
<feColorMatrix type="matrix" values="0 0 0 0 0.858824 0 0 0 0 0.752941 0 0 0 0 0.188235 0 0 0 1 0"/>
<feBlend mode="normal" in2="shape" result="effect1_innerShadow_1770_2153"/>
<feColorMatrix in="SourceAlpha" type="matrix" values="0 0 0 0 0 0 0 0 0 0 0 0 0 0 0 0 0 0 127 0" result="hardAlpha"/>
<feOffset dx="0.3" dy="0.3"/>
<feGaussianBlur stdDeviation="0.2"/>
<feComposite in2="hardAlpha" operator="arithmetic" k2="-1" k3="1"/>
<feColorMatrix type="matrix" values="0 0 0 0 0.968627 0 0 0 0 0.858824 0 0 0 0 0.223529 0 0 0 1 0"/>
<feBlend mode="normal" in2="effect1_innerShadow_1770_2153" result="effect2_innerShadow_1770_2153"/>
</filter>
<filter id="filter9_i_1770_2153" x="15" y="5" width="50" height="10.1" filterUnits="userSpaceOnUse" color-interpolation-filters="sRGB">
<feFlood flood-opacity="0" result="BackgroundImageFix"/>
<feBlend mode="normal" in="SourceGraphic" in2="BackgroundImageFix" result="shape"/>
<feColorMatrix in="SourceAlpha" type="matrix" values="0 0 0 0 0 0 0 0 0 0 0 0 0 0 0 0 0 0 127 0" result="hardAlpha"/>
<feOffset dy="0.1"/>
<feGaussianBlur stdDeviation="0.375"/>
<feComposite in2="hardAlpha" operator="arithmetic" k2="-1" k3="1"/>
<feColorMatrix type="matrix" values="0 0 0 0 0.380392 0 0 0 0 0.407843 0 0 0 0 0.666667 0 0 0 1 0"/>
<feBlend mode="normal" in2="shape" result="effect1_innerShadow_1770_2153"/>
</filter>
<linearGradient id="paint0_linear_1770_2153" x1="40" y1="14" x2="40" y2="67.5" gradientUnits="userSpaceOnUse">
<stop stop-color="#62326D"/>
<stop offset="1" stop-color="#434486"/>
</linearGradient>
<linearGradient id="paint1_linear_1770_2153" x1="23.3978" y1="27.3925" x2="26.0153" y2="27.3925" gradientUnits="userSpaceOnUse">
<stop offset="0.333" stop-color="#FF945C"/>
<stop offset="1" stop-color="#FF945C" stop-opacity="0"/>
</linearGradient>
<linearGradient id="paint2_linear_1770_2153" x1="23.3978" y1="56.6874" x2="26.0153" y2="56.6874" gradientUnits="userSpaceOnUse">
<stop offset="0.333" stop-color="#FF945C"/>
<stop offset="1" stop-color="#FF945C" stop-opacity="0"/>
</linearGradient>
<linearGradient id="paint3_linear_1770_2153" x1="49.1034" y1="42.0399" x2="51.7209" y2="42.0399" gradientUnits="userSpaceOnUse">
<stop offset="0.333" stop-color="#FF945C"/>
<stop offset="1" stop-color="#FF945C" stop-opacity="0"/>
</linearGradient>
<linearGradient id="paint4_linear_1770_2153" x1="51.771" y1="8.01741" x2="46.8074" y2="23.1099" gradientUnits="userSpaceOnUse">
<stop stop-color="#847CB8"/>
<stop offset="0.7903" stop-color="#5B5EA5"/>
</linearGradient>
<linearGradient id="paint5_linear_1770_2153" x1="40" y1="65" x2="40" y2="74.9975" gradientUnits="userSpaceOnUse">
<stop stop-color="#6B4390"/>
<stop offset="1" stop-color="#76509E"/>
</linearGradient>
<linearGradient id="paint6_linear_1770_2153" x1="15.0001" y1="70" x2="65" y2="70" gradientUnits="userSpaceOnUse">
<stop offset="0.0054" stop-color="#7F8CC5"/>
<stop offset="0.337" stop-color="#7481BD"/>
<stop offset="0.7312" stop-color="#606EB0"/>
</linearGradient>
</defs>
</svg>
