<svg width="880" height="518" viewBox="0 0 880 518" fill="none" xmlns="http://www.w3.org/2000/svg">
<path d="M120 167C120 160.925 124.925 156 131 156H851C857.075 156 862 160.925 862 167V214.976H120V167Z" stroke="#47454D" stroke-width="2"/>
<rect x="266.259" y="235.635" width="340.864" height="34.6963" rx="17.3481" stroke="#47454D" stroke-width="2"/>
<path d="M286.198 290.99H326.765" stroke="#47454D" stroke-width="2" stroke-linecap="round"/>
<path d="M439.308 290.99H479.876" stroke="#47454D" stroke-width="2" stroke-linecap="round"/>
<path d="M337.235 290.99H377.803" stroke="#47454D" stroke-width="2" stroke-linecap="round"/>
<path d="M490.346 290.99H530.914" stroke="#47454D" stroke-width="2" stroke-linecap="round"/>
<path d="M388.272 290.99H428.84" stroke="#47454D" stroke-width="2" stroke-linecap="round"/>
<path d="M541.383 290.99H581.951" stroke="#47454D" stroke-width="2" stroke-linecap="round"/>
<rect x="284.581" y="324.754" width="271.506" height="114.642" rx="3" stroke="#47454D" stroke-width="2"/>
<path d="M789.951 439.396H622.593C620.936 439.396 619.593 438.053 619.593 436.396V327.754C619.593 326.097 620.936 324.754 622.593 324.754H789.951C791.608 324.754 792.951 326.097 792.951 327.754V436.396C792.951 438.053 791.608 439.396 789.951 439.396Z" stroke="#47454D" stroke-width="2"/>
<path d="M793.951 508.547V460.123C793.951 457.914 792.16 456.123 789.951 456.123H622.593C620.384 456.123 618.593 457.914 618.593 460.123V508.547" stroke="#47454D" stroke-width="2"/>
<path d="M557.087 509.857V460.123C557.087 457.914 555.296 456.123 553.087 456.123H287.581C285.371 456.123 283.581 457.914 283.581 460.123V509.857" stroke="#47454D" stroke-width="2"/>
<path d="M862 509.857V168C862 161.373 856.627 156 850 156L132 156C125.373 156 120 161.373 120 168V304.858V509.857" stroke="#47454D" stroke-width="2"/>
<path d="M580.523 245.12C579.252 245.12 578.01 245.497 576.954 246.204C575.897 246.911 575.074 247.916 574.588 249.091C574.101 250.267 573.974 251.56 574.222 252.809C574.47 254.057 575.082 255.203 575.98 256.103C576.879 257.002 578.023 257.615 579.27 257.863C580.516 258.112 581.807 257.984 582.981 257.497C584.155 257.01 585.158 256.186 585.864 255.128C586.57 254.07 586.947 252.826 586.947 251.553C586.947 249.847 586.27 248.211 585.065 247.004C583.861 245.798 582.227 245.12 580.523 245.12Z" stroke="#6657C2" stroke-width="2" stroke-miterlimit="10"/>
<path d="M585.317 256.354L589.804 260.847" stroke="#6657C2" stroke-width="2" stroke-miterlimit="10" stroke-linecap="round"/>
</svg>
