<svg width="60" height="60" viewBox="0 0 60 60" fill="none" xmlns="http://www.w3.org/2000/svg">
<path d="M18.0667 34.0263H22.917M34.5 34.0263H22.917M22.917 34.0263L22.917 29.5C22.917 27.2909 24.7079 25.5 26.917 25.5H34.5M12.75 36.3947V39.5C12.75 41.7091 14.5409 43.5 16.75 43.5H19.0341" stroke="#47454D" stroke-width="2" stroke-linecap="round"/>
<rect x="22.75" y="41.5" width="11.5" height="4.75" rx="2.375" stroke="#6657C2" stroke-width="2"/>
<rect x="34.75" y="31.75" width="16.75" height="4.75" rx="2.375" stroke="#6657C2" stroke-width="2"/>
<path d="M34.75 25.125C34.75 23.8133 35.8133 22.75 37.125 22.75H51.375C52.6867 22.75 53.75 23.8133 53.75 25.125C53.75 26.4367 52.6867 27.5 51.375 27.5H37.125C35.8133 27.5 34.75 26.4367 34.75 25.125Z" stroke="#6657C2" stroke-width="2"/>
<rect x="7" y="32.5" width="10.75" height="3.25" rx="1.625" stroke="#6657C2" stroke-width="2"/>
<path d="M9 42.1875V44C9 49.5228 13.4772 54 19 54H41.75C47.2728 54 51.75 49.5228 51.75 44V42.1875M51.75 17.8393V13.7411M9 26.2768V13.7411M9 13.7411V13.7411C9 9.88001 12.13 6.75 15.9911 6.75H44.7589C48.62 6.75 51.75 9.88001 51.75 13.7411V13.7411M9 13.7411H51.75" stroke="#47454D" stroke-width="2" stroke-linecap="round"/>
</svg>
