<svg width="1030" height="517" viewBox="0 0 1030 517" fill="none" xmlns="http://www.w3.org/2000/svg">
<rect x="482" y="19.3394" width="252" height="483.321" rx="31" stroke="#3E3A46" stroke-width="2"/>
<rect x="569" y="42" width="78" height="24" rx="12" stroke="#3E3A46" stroke-width="2"/>
<circle cx="543" cy="145" r="34" stroke="#6657C2" stroke-width="2"/>
<circle cx="526" cy="216" r="16" stroke="#3E3A46" stroke-width="2"/>
<circle cx="580" cy="216" r="16" stroke="#3E3A46" stroke-width="2"/>
<circle cx="634.5" cy="215.5" r="16.5" stroke="#3E3A46" stroke-width="2"/>
<circle cx="689.5" cy="215.5" r="16.5" stroke="#3E3A46" stroke-width="2"/>
<path d="M508 84H708" stroke="#3E3A46" stroke-width="2" stroke-linecap="round"/>
<path d="M608 124H700" stroke="#6657C2" stroke-width="2" stroke-linecap="round"/>
<path d="M608 146H656" stroke="#6657C2" stroke-width="2" stroke-linecap="round"/>
<path d="M608 167H674" stroke="#6657C2" stroke-width="2" stroke-linecap="round"/>
<path d="M572.863 482.297H642.853" stroke="#3E3A46" stroke-width="2" stroke-linecap="round"/>
<rect x="508" y="255" width="200" height="201" rx="8" stroke="#6657C2" stroke-width="2"/>
<path d="M1004 85H777C770.373 85 765 90.3726 765 97V185.767C765 192.395 770.373 197.767 777 197.767H812.234C812.786 197.767 813.234 198.215 813.234 198.767V224.747C813.234 227.421 816.468 228.759 818.357 226.867L847.106 198.061C847.294 197.873 847.549 197.767 847.814 197.767H1004C1010.63 197.767 1016 192.395 1016 185.767V97C1016 90.3726 1010.63 85 1004 85Z" stroke="#6657C2" stroke-width="2"/>
<path d="M802.484 142.942L822.794 163.312C824.14 164.662 825.967 165.42 827.87 165.42C829.774 165.42 831.601 164.662 832.947 163.312L853.257 142.946C854.936 141.277 856.269 139.292 857.181 137.105C858.093 134.918 858.565 132.572 858.57 130.201C858.575 127.83 858.114 125.482 857.211 123.291C856.309 121.1 854.984 119.109 853.313 117.433C851.641 115.757 849.656 114.428 847.471 113.523C845.286 112.619 842.944 112.155 840.58 112.161C838.216 112.166 835.876 112.639 833.695 113.554C831.514 114.468 829.535 115.805 827.87 117.489C824.49 114.183 819.947 112.347 815.226 112.376C810.504 112.406 805.985 114.3 802.646 117.647C799.307 120.995 797.418 125.527 797.387 130.262C797.357 134.996 799.188 139.552 802.484 142.942Z" stroke="#6657C2" stroke-width="2" stroke-linecap="round" stroke-linejoin="round"/>
<path d="M878 123L894.832 112V163M909.683 113H942.356L917.604 163M953.248 113V150M953.248 163V150M953.248 150L961.168 142.333M977.01 127L961.168 142.333M961.168 142.333L978 163" stroke="#6657C2" stroke-width="2" stroke-linecap="round" stroke-linejoin="round"/>
<path d="M268 251H439C445.627 251 451 256.373 451 263V358.323C451 364.95 445.627 370.323 439 370.323H415.721C415.169 370.323 414.721 370.771 414.721 371.323V391.174C414.721 392.956 412.567 393.848 411.307 392.589L389.316 370.616C389.129 370.428 388.874 370.323 388.609 370.323H268C261.373 370.323 256 364.95 256 358.323V263C256 256.373 261.373 251 268 251Z" stroke="#6657C2" stroke-width="2"/>
<path d="M282.914 338.502L428.012 338.502" stroke="#6657C2" stroke-width="2" stroke-linecap="round"/>
<path d="M282.914 281.062L428.012 281.062" stroke="#6657C2" stroke-width="2" stroke-linecap="round"/>
<path d="M281.723 309.782H402.398" stroke="#6657C2" stroke-width="2" stroke-linecap="round"/>
</svg>
