<svg width="80" height="80" viewBox="0 0 80 80" fill="none" xmlns="http://www.w3.org/2000/svg">
<path d="M56.9645 29.2266C61.916 32.7696 67.9821 34.8542 74.5336 34.8542V22.2354C73.2936 22.2357 72.057 22.1061 70.8439 21.8489V31.7817C64.2929 31.7817 58.2277 29.6973 53.275 26.1546V51.9062C53.275 64.7886 42.8417 75.2309 29.9725 75.2309C25.1707 75.2309 20.7075 73.7779 17 71.2858C21.2316 75.6167 27.1327 78.3032 33.6612 78.3032C46.5313 78.3032 56.965 67.8609 56.965 54.9779V29.2266H56.9645ZM61.5163 16.4958C58.9856 13.7286 57.3239 10.1524 56.9645 6.19869V4.57574H53.468C54.3482 9.6007 57.3504 13.8937 61.5163 16.4958ZM25.1397 61.4004C23.7259 59.5451 22.9616 57.275 22.9651 54.941C22.9651 49.0493 27.7372 44.272 33.6248 44.272C34.7219 44.2715 35.8125 44.4401 36.8583 44.7719V31.8709C35.6362 31.7034 34.4029 31.632 33.1702 31.6583V41.6997C32.1239 41.3675 31.0327 41.199 29.9351 41.2C24.0477 41.2 19.2759 45.9767 19.2759 51.8693C19.2759 56.0359 21.661 59.6432 25.1397 61.4004Z" fill="#FF004F"/>
<path d="M53.2718 26.1543C58.2247 29.6971 64.2895 31.7814 70.8407 31.7814V21.8486C67.1839 21.0689 63.9467 19.1563 61.5128 16.4958C57.3467 13.8934 54.345 9.60043 53.4648 4.57574H44.2809V54.9774C44.2599 60.8533 39.4961 65.6109 33.6211 65.6109C30.1594 65.6109 27.0837 63.9592 25.136 61.4002C21.6578 59.6432 19.2725 56.0357 19.2725 51.8696C19.2725 45.9775 24.0443 41.2003 29.9317 41.2003C31.0597 41.2003 32.1469 41.376 33.1667 41.6999V31.6585C20.5235 31.92 10.3555 42.2604 10.3555 54.9777C10.3555 61.3261 12.8875 67.0812 16.9971 71.2863C20.7045 73.7779 25.1675 75.2315 29.9696 75.2315C42.839 75.2315 53.2721 64.7884 53.2721 51.9062L53.2718 26.1543Z" fill="black"/>
<path d="M70.8426 21.8484V19.1632C67.545 19.1682 64.3125 18.2439 61.5147 16.4958C63.9913 19.2097 67.2524 21.0812 70.8426 21.8489M53.4665 4.57552C53.3826 4.09541 53.3182 3.61208 53.2735 3.12673V1.50378H40.5926V51.906C40.5724 57.7813 35.8086 62.5389 29.9334 62.5389C28.2678 62.5414 26.625 62.1515 25.1377 61.4007C27.0854 63.9593 30.1611 65.6106 33.6228 65.6106C39.4975 65.6106 44.2619 60.8536 44.2826 54.9777V4.57578L53.4665 4.57552ZM33.1692 31.6583V28.7992C32.1096 28.6542 31.0413 28.5816 29.9718 28.582C17.1011 28.582 6.66797 39.0249 6.66797 51.906C6.66797 59.982 10.7683 67.0993 16.9993 71.2858C12.8897 67.0809 10.3577 61.3256 10.3577 54.9775C10.3577 42.2604 20.5254 31.9198 33.1692 31.6583Z" fill="#00F2EA"/>
</svg>
