<svg width="80" height="80" viewBox="0 0 80 80" fill="none" xmlns="http://www.w3.org/2000/svg">
<path d="M7 22V57C7 61.4183 10.5817 65 15 65H34M7 22V19C7 14.5817 10.5817 11 15 11H53C57.4183 11 61 14.5817 61 19V22M7 22H61M61 22V29" stroke="#D9D9D9" stroke-width="2"/>
<path d="M31 34L22 43L31 52" stroke="#D9D9D9" stroke-width="2" stroke-linecap="round" stroke-linejoin="round"/>
<path d="M37 34L46 43L37 52" stroke="#D9D9D9" stroke-width="2" stroke-linecap="round" stroke-linejoin="round"/>
<path d="M74 48.5152C74 54.82 69.049 59.9413 62.9089 60.0292L57.6561 70.5562C56.4449 72.9835 53.4606 73.9203 51.0794 72.6206V72.6206C48.8072 71.3804 47.9326 68.5584 49.1053 66.2505L54.3135 56C52.7027 54.0078 51.4969 51.303 51.4969 48.5152C51.4969 42.1555 56.5344 37 62.7484 37C63.3828 37 64.0049 37.0537 64.6106 37.157L61.1065 43.9904C60.1514 45.8529 60.8881 48.137 62.7514 49.0905V49.0905C64.6153 50.0443 66.8995 49.3048 67.8509 47.4396L71.1871 40.8984C72.9378 42.9283 74 45.5948 74 48.5152Z" stroke="#6657C2" stroke-width="2"/>
</svg>
